<svg width="74" height="8" viewBox="0 0 74 8" fill="none" xmlns="http://www.w3.org/2000/svg">
<path d="M6.1742 7.58527C8.92664 7.36833 11.2049 7.1833 11.2454 7.1833C11.2859 7.17692 11.841 6.61544 12.4828 5.93274L13.6509 4.68855L14.9288 4.68855C15.6343 4.68855 19.3524 4.66303 23.2035 4.62475C27.0488 4.59284 33.7911 4.53542 38.1799 4.49714C42.5688 4.46524 49.9414 4.40143 54.5674 4.36315C60.2804 4.31849 62.9866 4.31211 63.027 4.35677C63.0617 4.39505 63.0733 4.49076 63.0502 4.58009C63.0328 4.66303 62.5587 5.44145 61.9978 6.30919C61.4427 7.17693 60.9916 7.89792 61.0032 7.91068C61.0148 7.92344 61.6855 7.61718 62.4951 7.23435C64.542 6.25814 65.8142 5.70304 66.9996 5.26279C69.1969 4.4461 71.1224 4.05051 72.8977 4.05051C73.3429 4.05051 73.7708 4.02499 73.8518 3.98671C74.0541 3.90376 74.0484 3.6613 73.8402 3.40609L73.6725 3.20191L71.5966 2.95946C67.5489 2.4873 65.687 2.10448 63.9638 1.40263C63.3046 1.13465 62.3332 0.58593 61.8532 0.209484C61.5294 -0.039353 61.5178 -0.039353 61.3675 0.0691145C61.2114 0.177582 61.0495 0.464702 61.0495 0.624213C61.0495 0.675256 61.3501 1.14103 61.7144 1.66422C62.0787 2.18742 62.3794 2.64681 62.3794 2.6851C62.3794 2.80632 61.0668 2.83185 51.7976 2.90203C43.4073 2.96583 36.3527 3.02964 22.9143 3.15724C19.2541 3.18915 15.6516 3.22105 14.9057 3.22105L13.5468 3.22105L11.9566 2.07895L10.3665 0.93685L5.52079 0.873045C2.50814 0.834762 0.582592 0.834762 0.426466 0.873045C0.108433 0.94323 -0.0419104 1.1155 0.0101314 1.33244C0.0621733 1.57489 0.374424 1.9322 0.675111 2.10447C0.929538 2.24484 2.69318 3.1381 3.08638 3.32313L3.26564 3.40608L3.15577 3.76977C3.02856 4.17811 3.04591 4.44609 3.22516 4.82892L3.33503 5.06499L1.95303 6.08587C1.17818 6.6601 0.559462 7.16416 0.536332 7.23434C0.472725 7.45128 0.657763 7.80858 0.877495 7.91067C0.993144 7.96171 1.10301 8 1.12614 8C1.14927 7.99362 3.42176 7.80858 6.1742 7.58527ZM3.19625 7.04931C3.24251 6.94722 3.33503 6.83238 3.39863 6.79409C3.54898 6.70477 3.54898 6.53888 3.39863 6.53888C3.30612 6.53888 3.29455 6.51335 3.33503 6.39851C3.35816 6.32194 3.43333 6.22623 3.49115 6.19433C3.54898 6.15605 3.69932 6.06034 3.82075 5.9774C3.94797 5.89445 4.15035 5.78598 4.28335 5.73494C4.41634 5.6839 4.5609 5.60095 4.61295 5.55629C4.73438 5.43506 5.46874 5.26917 5.72317 5.30745C5.8793 5.33297 5.99495 5.29469 6.19733 5.16708L6.46332 4.99481L6.6368 5.14794C6.78714 5.27555 6.80449 5.32021 6.77557 5.53715C6.7351 5.80513 6.81605 5.84341 7.08782 5.6839C7.74124 5.28831 8.06506 5.17346 8.57391 5.13518C8.99603 5.10966 9.12902 5.07776 9.27358 4.95653C9.4008 4.84806 9.5627 4.79702 9.82291 4.77149L10.193 4.73321L10.0484 4.91186C9.75352 5.27555 9.05385 5.88807 8.70691 6.09225C8.5103 6.20709 8.1171 6.36661 7.82798 6.44955C7.53885 6.52612 7.12252 6.67925 6.90279 6.78133C6.52115 6.95999 6.49223 6.96637 6.29563 6.87704C6.1742 6.81962 5.99495 6.79409 5.8446 6.81324C5.70582 6.826 5.59596 6.826 5.60174 6.80047C5.60174 6.78133 5.72317 6.67925 5.87351 6.57078C6.02386 6.46869 6.13951 6.35384 6.13372 6.31556C6.12794 6.28366 6.03542 6.22624 5.93134 6.20071C5.79256 6.16243 5.56126 6.20071 5.06976 6.34108C4.41056 6.51974 4.28913 6.57716 3.51428 7.02379C3.30612 7.13864 3.13264 7.24073 3.12108 7.24073C3.1153 7.24073 3.14421 7.15778 3.19625 7.04931ZM8.43513 6.81962C8.36574 6.75581 8.52187 6.58354 8.7416 6.47507C8.88616 6.41127 9.16372 6.17519 9.3661 5.95188C9.56849 5.72856 9.88074 5.46696 10.0658 5.36488C10.3896 5.18622 10.4012 5.18622 10.511 5.29469C10.6093 5.39678 10.6498 5.39678 10.7712 5.32659C10.8811 5.26279 10.9447 5.26279 11.0893 5.32659C11.2512 5.40316 11.3148 5.38402 11.8872 5.11604C12.6158 4.77788 12.8703 4.71407 13.0264 4.8353C13.1189 4.91186 13.1247 4.93739 13.0495 5.05223C13.0033 5.12242 12.8066 5.32659 12.6043 5.51163C12.4077 5.69666 12.2111 5.90083 12.1706 5.97102C12.1301 6.04758 11.9971 6.16243 11.8699 6.23262C11.7427 6.3028 11.5576 6.43041 11.4536 6.51336C11.257 6.67925 11.0719 6.70477 10.8348 6.60268C10.6614 6.5325 10.6382 6.37937 10.7828 6.29004C10.8406 6.25814 10.8695 6.20709 10.8464 6.18157C10.8233 6.16243 10.6382 6.21347 10.4416 6.30918C9.52801 6.72391 8.98446 6.90256 8.71847 6.87066C8.57391 6.8579 8.4467 6.83238 8.43513 6.81962ZM62.4315 6.62183C62.4604 6.55802 62.8073 6.14329 63.2005 5.70304C63.6747 5.16709 64.0621 4.8034 64.3686 4.58647L64.8196 4.27383L64.1488 4.25468C63.5012 4.23554 63.4839 4.23554 63.5532 4.11431C63.6169 3.99309 63.6978 3.98671 66.6006 3.98671L69.5785 3.99309L68.9136 4.1845C67.8901 4.478 66.1727 5.12242 64.2009 5.95826C63.2121 6.37299 62.4025 6.71753 62.391 6.72391C62.3852 6.72391 62.4025 6.67925 62.4315 6.62183ZM13.0495 4.39505C12.9917 4.33763 12.7835 4.22278 12.5811 4.13983L12.2168 3.99308L19.0228 3.99308C24.4351 3.9867 25.8345 4.00584 25.8345 4.06965C25.8345 4.10793 25.8518 4.21002 25.8692 4.29296L25.9039 4.43333L24.3484 4.43333C23.481 4.43333 22.7119 4.40781 22.6194 4.36953C22.2667 4.24192 20.9483 4.15897 19.3292 4.17811C17.9125 4.19088 17.6234 4.21002 17.4499 4.29934C17.2822 4.38229 16.9758 4.40781 15.7441 4.43333C14.9172 4.45247 13.9978 4.478 13.6971 4.48438C13.2635 4.49714 13.1305 4.47799 13.0495 4.39505ZM7.62559 4.36315C7.53885 4.29296 7.36538 4.19726 7.23817 4.14621C7.03 4.06327 7.09939 4.05689 8.1171 4.0505C8.72425 4.05051 9.66101 4.03774 10.1988 4.0186C10.9852 3.99308 11.1355 4.00584 10.9852 4.06327C10.8753 4.10155 10.7365 4.2164 10.6671 4.31848L10.5457 4.49714L9.1695 4.49714C7.86845 4.49714 7.78172 4.49076 7.62559 4.36315ZM4.43947 4.3121C4.43947 4.08241 4.50886 4.0505 5.05819 4.0505C5.48031 4.0505 5.49187 4.05689 5.45718 4.19725C5.43983 4.27382 5.42249 4.37591 5.42249 4.42057C5.42249 4.47799 5.28371 4.49714 4.93098 4.49714L4.43947 4.49714L4.43947 4.3121ZM40.4177 4.19726L40.4351 4.01861L41.58 3.99946L42.7249 3.9867L42.6266 4.13983C42.5283 4.31211 42.6266 4.30573 40.8514 4.35677L40.4004 4.36953L40.4177 4.19726ZM38.9317 4.17812L39.0242 3.9867L39.6024 3.9867C40.1113 3.9867 40.1807 3.99946 40.1518 4.08879C40.1344 4.14621 40.1171 4.22916 40.1171 4.2802C40.1171 4.35039 39.9898 4.36953 39.481 4.36953L38.8391 4.36953L38.9317 4.17812ZM32.7734 4.21002C32.7734 4.12069 32.8081 4.03137 32.8428 4.0186C32.8832 3.99946 34.219 3.99308 35.8092 3.99946L38.7004 4.01861L38.0065 4.1845C37.3299 4.35039 37.2605 4.35039 35.0401 4.36315L32.7734 4.36953L32.7734 4.21002ZM29.2461 4.17812L28.9859 3.9867L30.2696 3.9867L31.5591 3.9867L31.5591 4.17812L31.5591 4.36953L30.5298 4.36953L29.5063 4.36953L29.2461 4.17812ZM52.4047 4.14622L52.0578 3.99308L54.2088 3.99309C56.0881 3.9867 56.3657 3.99947 56.3657 4.08241C56.3657 4.13345 56.4235 4.1845 56.4929 4.19088C56.6722 4.21002 54.7524 4.27382 53.6479 4.28659C52.8268 4.29935 52.7228 4.28659 52.4047 4.14622ZM51.6588 4.11431L51.5374 3.97394L51.6877 4.01223C51.7744 4.03137 51.9537 4.10793 52.0925 4.17812L52.3469 4.30573L52.0636 4.2802C51.8727 4.26106 51.7455 4.21002 51.6588 4.11431ZM51.3003 4.21002C51.2367 4.03775 51.3061 3.99947 51.4101 4.1526C51.5027 4.28659 51.5027 4.30573 51.4217 4.30573C51.3697 4.30573 51.3176 4.26106 51.3003 4.21002ZM50.4098 4.14622C50.4098 3.99308 50.4271 3.9867 50.7278 3.9867C51.0285 3.9867 51.0459 3.99308 51.0459 4.14622C51.0459 4.29935 51.0285 4.30573 50.7278 4.30573C50.4271 4.30573 50.4098 4.29935 50.4098 4.14622ZM44.9974 4.20364C45.0148 4.14621 45.0321 4.07603 45.0321 4.04413C45.0321 4.01223 46.0672 3.9867 47.5764 3.9867L50.1207 3.9867L50.1207 4.14622L50.1207 4.30573L47.5417 4.30573C45.2114 4.30573 44.9627 4.29296 44.9974 4.20364ZM43.1413 4.14621C43.2107 3.9867 43.2164 3.9867 43.9739 3.9867L44.743 3.9867L44.743 4.14621L44.743 4.30573L43.9103 4.30573L43.0777 4.30573L43.1413 4.14621ZM61.593 4.19726C61.6104 4.17174 61.5583 4.12069 61.4716 4.07603C61.3328 4.01223 61.4716 3.99309 62.3389 3.99309C63.3509 3.98671 63.3624 3.98671 63.293 4.11431C63.2237 4.22916 63.1543 4.24192 62.3852 4.24192C61.9284 4.24192 61.5699 4.22278 61.593 4.19726ZM58.1004 4.13346L57.6667 4.07603L58.3953 4.02499C59.3783 3.9548 61.1362 4.05689 61.2634 4.19726C61.3154 4.26106 58.6902 4.20364 58.1004 4.13346ZM57.3256 4.1845C57.2909 4.13346 58.2103 4.16536 58.2681 4.2164C58.2797 4.22916 58.0831 4.24192 57.8229 4.24192C57.5684 4.24192 57.3429 4.2164 57.3256 4.1845ZM56.8688 4.19726C56.9092 4.1845 56.9902 4.1845 57.0422 4.19726C57.1001 4.2164 57.0654 4.22916 56.9728 4.22916C56.8745 4.22916 56.8341 4.2164 56.8688 4.19726ZM32.4553 4.05051C32.438 4.0186 32.4496 3.9867 32.4785 3.9867C32.5132 3.9867 32.5421 4.0186 32.5421 4.05051C32.5421 4.08879 32.5305 4.11431 32.519 4.11431C32.5016 4.11431 32.4727 4.08879 32.4553 4.05051ZM60.7141 4.00585C60.7719 3.99309 60.8644 3.99309 60.9165 4.00585C60.9743 4.02499 60.928 4.03775 60.8182 4.03775C60.7083 4.03775 60.662 4.02499 60.7141 4.00585ZM4.55512 3.27847C4.44525 3.20829 4.32961 3.15724 4.29491 3.15724C4.266 3.15086 4.133 3.05516 4.00579 2.93393C3.81497 2.75528 3.78606 2.70423 3.84966 2.63405C3.91327 2.56386 3.96531 2.57662 4.15613 2.69785C4.38165 2.8446 4.5956 2.8446 4.67655 2.69147C4.69968 2.65957 4.74594 2.69147 4.78642 2.77442C4.82111 2.85098 4.93676 2.99773 5.03506 3.09982C5.21432 3.27847 5.21432 3.29123 5.11023 3.38056C4.98302 3.48265 4.87315 3.4635 4.55512 3.27847ZM5.58439 2.94669C5.23745 2.60214 5.19697 2.49368 5.32997 2.2895C5.48031 2.06619 5.90821 2.12361 6.50958 2.44901C7.20347 2.82546 7.40586 2.75528 7.01265 2.27036C6.77557 1.97686 6.75823 1.91944 6.95483 2.02152C7.0647 2.07257 7.13408 2.07257 7.24395 2.02152C7.3249 1.97686 7.47525 1.94496 7.57355 1.94496C7.81641 1.94496 8.62017 2.42987 8.92664 2.76166C9.06542 2.90841 9.20419 3.02963 9.23889 3.02963C9.37767 3.02963 9.27937 3.14448 9.07698 3.20829C8.75316 3.31675 8.7416 3.31675 7.28443 3.29761L5.91977 3.27209L5.58439 2.94669ZM11.575 3.11896C11.5229 3.02963 11.4015 2.91479 11.3148 2.86374C11.2223 2.8127 11.1471 2.73613 11.1471 2.69147C11.1471 2.64681 11.095 2.50006 11.0257 2.36607C10.9216 2.14275 10.9158 2.11085 10.9967 2.02153C11.0661 1.93858 11.124 1.9322 11.2859 1.98962C11.5287 2.07257 12.7662 2.97221 12.7662 3.06792C12.7662 3.19553 12.5117 3.27847 12.0896 3.27847C11.7022 3.28485 11.6617 3.27209 11.575 3.11896ZM10.0137 3.08706C9.8287 2.97859 9.63788 2.8446 9.60318 2.78718C9.56271 2.72337 9.42971 2.57024 9.31406 2.44263L9.10011 2.20018L9.41236 2.20656C9.78244 2.20656 10.0426 2.31503 10.6151 2.71061C11.0719 3.02963 11.1182 3.16362 10.8001 3.22743C10.4359 3.29761 10.3549 3.28485 10.0137 3.08706Z" fill="black"/>
</svg>
