<svg width="60" height="71" viewBox="0 0 60 71" fill="none" xmlns="http://www.w3.org/2000/svg">
<path d="M1.44652 0.0890274C0.877812 0.266527 0.4205 0.660355 0.144941 1.20395L0.0218182 1.45356L0.00422931 21.1727C-0.00749663 34.929 0.00422931 41.2191 0.0511331 41.9735C0.191844 44.342 0.467404 46.0061 1.01852 47.8365C1.86865 50.6322 3.25818 52.8842 5.35712 54.87C7.18637 56.6061 8.58176 57.5103 13.3249 60.0507C13.964 60.3947 15.0955 61.027 15.846 61.4541C17.9566 62.6689 18.6778 63.0461 21.1285 64.2164C22.389 64.8155 23.6027 65.4146 23.8255 65.5477C25.2326 66.3631 26.4345 67.5501 27.8709 69.5304C28.5862 70.5177 28.9556 70.8061 29.6884 70.9337C30.0637 71.0003 30.3685 70.967 30.8083 70.8117C31.2128 70.6675 31.5411 70.3846 31.8988 69.8798C33.5111 67.6111 35.4576 65.8861 37.9552 64.5215C38.5298 64.2054 39.9428 63.5286 41.9714 62.5912C42.5342 62.3305 43.572 61.7925 44.2755 61.3931C44.9791 60.9937 46.1693 60.3392 46.9138 59.9398C48.7841 58.9358 50.4199 58.0095 51.229 57.5047C56.7461 54.0546 59.2789 49.8057 59.9238 42.8887C59.9824 42.2175 60 38.1517 60 21.8106V1.5645L59.8476 1.25942C59.443 0.444032 58.6515 -0.0108142 57.7428 0.0502014C57.1741 0.0890295 56.8223 0.272076 56.1011 0.898872C55.4034 1.49793 54.7585 1.9306 53.8967 2.35216C51.2231 3.67231 47.8109 4.36567 43.9706 4.36567C38.9637 4.36567 35.8446 3.45044 31.9164 0.826767C30.8728 0.127861 30.6148 0.0224686 30.0109 0.0224686C29.6415 0.0224686 29.5067 0.0502011 29.1666 0.19442C28.9497 0.294264 28.5921 0.493949 28.3751 0.643715C25.3088 2.77371 22.5825 3.83317 19.1644 4.227C18.0856 4.34903 15.2304 4.39895 14.0929 4.31575C11.1028 4.08833 8.47036 3.46708 6.42418 2.50192C5.33953 1.98606 4.65356 1.54231 3.79171 0.787933C3.48097 0.516136 3.11747 0.255437 2.93571 0.172234C2.50185 -0.021907 1.90383 -0.0551913 1.44652 0.0890274Z" fill="#388590"/>
</svg>
