<svg version="1.1" id="Capa_1" xmlns="http://www.w3.org/2000/svg" x="0" y="0" viewBox="0 0 512 512" xml:space="preserve"><circle cx="256" cy="256" r="256" fill="#ff432e"/><path d="M512 256c0-1.815-.031-3.624-.069-5.43l-123.55-123.55-272.714 262.032 122.307 122.307A259.21 259.21 0 00256 512c141.385 0 256-114.615 256-256z" fill="#db0404"/><path fill="#00c8c8" d="M329.563 68.201H188.147v260.18h200.235V127.02z"/><path fill="#1cadb5" d="M388.382 127.02l-58.819-58.819h-42.444v260.18h101.263z"/><path fill="#00a0aa" d="M329.563 127.02h58.819l-58.819-58.819z"/><path fill="#fff" d="M297.298 125.91H155.883v260.18h200.234V184.729z"/><path fill="#f2f6fc" d="M356.117 184.729l-58.819-58.819h-41.727v260.18h100.546z"/><path d="M297.298 184.729h58.819l-58.819-58.819zM182.79 212.26h146.42v13.14H182.79z" fill="#dce1eb"/><path fill="#cdd2e1" d="M255.57 212.26h73.64v13.14h-73.64z"/><path fill="#dce1eb" d="M182.79 243.24h146.42v13.14H182.79z"/><path fill="#cdd2e1" d="M255.57 243.24h73.64v13.14h-73.64z"/><path fill="#dce1eb" d="M182.79 274.21h146.42v13.14H182.79z"/><path fill="#cdd2e1" d="M255.57 274.21h73.64v13.14h-73.64z"/><path fill="#dce1eb" d="M182.79 305.18h146.42v13.14H182.79z"/><path fill="#ffd400" d="M329.385 276.614v28.324h-146.77v-28.324h-66.948v112.438h280.666V276.614z"/><path fill="#ffb000" d="M396.333 276.614h-66.948v28.324h-73.814v84.114h140.762z"/></svg>