<?xml version="1.0" encoding="UTF-8" standalone="no" ?>
<!DOCTYPE svg PUBLIC "-//W3C//DTD SVG 1.1//EN" "http://www.w3.org/Graphics/SVG/1.1/DTD/svg11.dtd">
<svg xmlns="http://www.w3.org/2000/svg" xmlns:xlink="http://www.w3.org/1999/xlink" version="1.1" width="70" height="70" viewBox="0 0 400 400" xml:space="preserve">
<desc>Created with Fabric.js 3.6.2</desc>
<defs>
</defs>
<g transform="matrix(1.48 0 0 1.48 200 200)" id="path848"  >
<circle style="stroke: none; stroke-width: 1.05833; stroke-dasharray: none; stroke-linecap: round; stroke-dashoffset: 0; stroke-linejoin: round; stroke-miterlimit: 4; fill: rgb(34,152,213); fill-rule: nonzero; opacity: 1;"  cx="0" cy="0" r="67.20417" />
</g>
<g transform="matrix(1.74 0 0 1.74 200 200)" id="path898"  >
<path style="stroke: none; stroke-width: 0.224167; stroke-dasharray: none; stroke-linecap: butt; stroke-dashoffset: 0; stroke-linejoin: miter; stroke-miterlimit: 4; fill: rgb(255,255,255); fill-rule: nonzero; opacity: 1;"  transform=" translate(-67.51, -67.77)" d="m 93.341608 97.763644 c 0 0 15.044222 -60.146953 11.779902 -61.793967 c -3.26432 -1.647014 -74.353278 27.308787 -74.353278 27.308787 c -7.448956 3.516073 18.902408 9.99347 18.902408 9.99347 l 43.637981 -27.174956 l -33.284217 31.9372 c 0 0 30.790404 29.166322 33.317204 19.729466 z" stroke-linecap="round" />
</g>
<g transform="matrix(1.74 0 0 1.74 193.78 234.63)" id="path900"  >
<path style="stroke: none; stroke-width: 0.224167; stroke-dasharray: none; stroke-linecap: butt; stroke-dashoffset: 0; stroke-linejoin: miter; stroke-miterlimit: 4; fill: rgb(179,179,179); fill-rule: nonzero; opacity: 1;"  transform=" translate(-63.94, -87.64)" d="m 60.024391 78.034011 c 0 0 -3.056228 17.441261 -1.398988 19.218843 L 69.750317 86.638408 c -5.470829 -4.575766 -9.725926 -8.604397 -9.725926 -8.604397 z" stroke-linecap="round" />
</g>
<g transform="matrix(1.74 0 0 1.74 206.93 206.8)" id="path902"  >
<path style="stroke: none; stroke-width: 0.224167; stroke-dasharray: none; stroke-linecap: butt; stroke-dashoffset: 0; stroke-linejoin: miter; stroke-miterlimit: 4; fill: rgb(230,230,230); fill-rule: nonzero; opacity: 1;"  transform=" translate(-71.49, -71.67)" d="M 93.308681 46.096639 L 49.671207 73.272204 c 0 0 4.955559 21.531555 8.954196 23.98065 c -1.65724 -1.777582 1.398988 -19.218843 1.398988 -19.218843 z" stroke-linecap="round" />
</g>
</svg>