<svg width="74" height="8" fill="none" xmlns="http://www.w3.org/2000/svg"><path d="M6.174 7.585c2.753-.217 5.03-.402 5.071-.402.04-.006.596-.568 1.238-1.25l1.168-1.244h1.278c.705 0 4.423-.026 8.274-.064l14.977-.128c4.389-.032 11.761-.096 16.387-.134 5.713-.045 8.42-.05 8.46-.006.035.038.046.134.023.223-.017.083-.491.861-1.052 1.73-.555.867-1.006 1.588-.995 1.6.012.013.682-.293 1.492-.676 2.047-.976 3.32-1.531 4.505-1.971 2.197-.817 4.122-1.212 5.898-1.212.445 0 .873-.026.954-.064.202-.083.196-.326-.012-.58l-.168-.205-2.075-.243c-4.048-.472-5.91-.855-7.633-1.556-.66-.268-1.63-.817-2.11-1.194-.325-.248-.336-.248-.486-.14-.157.109-.319.396-.319.555 0 .051.301.517.665 1.04.365.523.665.983.665 1.021 0 .121-1.312.147-10.581.217-8.39.064-15.445.128-28.884.255-3.66.032-7.262.064-8.008.064h-1.36l-1.59-1.142-1.59-1.142L5.522.873C2.508.835.583.835.426.873c-.318.07-.468.242-.416.46.052.242.364.6.665.771.255.14 2.018 1.034 2.411 1.22l.18.082-.11.364c-.127.408-.11.676.07 1.059l.109.236-1.382 1.02C1.178 6.66.559 7.166.536 7.236c-.063.216.122.574.341.676.116.05.226.089.25.089.022-.006 2.295-.191 5.047-.415zM3.196 7.05a.67.67 0 01.203-.255c.15-.09.15-.255 0-.255-.093 0-.104-.026-.064-.14a.412.412 0 01.156-.205c.058-.038.208-.134.33-.217.127-.083.33-.191.462-.242.133-.051.278-.134.33-.179.121-.12.856-.287 1.11-.249.156.026.272-.012.474-.14l.266-.172.174.153c.15.128.167.172.139.39-.04.267.04.305.312.146.653-.396.977-.51 1.486-.549.422-.025.555-.057.7-.178.127-.109.289-.16.549-.186l.37-.038-.145.179c-.294.364-.994.976-1.341 1.18-.197.115-.59.275-.879.358-.29.076-.705.23-.925.331-.382.179-.41.185-.607.096a.88.88 0 00-.451-.064c-.14.013-.249.013-.243-.013 0-.019.121-.12.272-.23.15-.101.266-.216.26-.254-.006-.032-.099-.09-.203-.115-.138-.039-.37 0-.861.14-.66.179-.78.236-1.556.683-.208.115-.381.217-.393.217a.801.801 0 01.075-.192zm5.24-.23c-.07-.063.086-.235.306-.344.144-.064.422-.3.624-.523.202-.223.515-.485.7-.587.324-.179.335-.179.445-.07.098.102.139.102.26.032.11-.064.174-.064.318 0 .162.076.226.057.798-.211.729-.338.983-.402 1.14-.28.092.076.098.101.023.216-.047.07-.243.275-.446.46-.196.185-.393.389-.433.459-.04.077-.174.191-.301.262a3.57 3.57 0 00-.416.28c-.197.166-.382.192-.62.09-.173-.07-.196-.224-.051-.313.058-.032.087-.083.063-.108-.023-.02-.208.031-.404.127-.914.415-1.458.594-1.724.562a1.041 1.041 0 01-.283-.051zm53.995-.197c.03-.064.376-.479.77-.919.474-.536.861-.9 1.168-1.117l.45-.312-.67-.02c-.648-.018-.665-.018-.596-.14.064-.12.145-.127 3.048-.127l2.978.006-.665.192c-1.024.293-2.741.937-4.713 1.773-.989.415-1.798.76-1.81.766-.006 0 .012-.045.04-.102zM13.05 4.395c-.058-.057-.267-.172-.469-.255l-.364-.147h6.806c5.412-.006 6.811.013 6.811.077 0 .038.018.14.035.223l.035.14h-1.556c-.867 0-1.636-.025-1.729-.063-.352-.128-1.67-.211-3.29-.192-1.416.013-1.706.032-1.88.121-.167.083-.473.109-1.705.134-.827.02-1.746.045-2.047.051-.433.013-.566-.006-.647-.089zm-5.424-.032a1.805 1.805 0 00-.388-.217c-.208-.083-.139-.09.88-.095.606 0 1.543-.013 2.08-.032.787-.026.938-.013.787.044a.752.752 0 00-.318.255l-.121.18H9.169c-1.3 0-1.387-.007-1.543-.135zm-3.187-.05c0-.23.07-.262.62-.262.421 0 .433.006.398.146a1.375 1.375 0 00-.035.224c0 .057-.138.076-.491.076h-.492v-.185zm35.979-.116l.017-.178 1.145-.02 1.145-.012-.098.153c-.099.172 0 .166-1.776.217l-.45.013.017-.173zm-1.486-.019l.092-.191h.578c.51 0 .579.012.55.102a.791.791 0 00-.035.191c0 .07-.127.09-.636.09h-.642l.093-.192zm-6.159.032c0-.09.035-.179.07-.191.04-.02 1.376-.026 2.966-.02l2.891.02-.694.165c-.676.166-.745.166-2.966.18l-2.267.006v-.16zm-3.527-.032l-.26-.191h2.574v.383h-2.055l-.26-.192zm23.159-.032l-.347-.153h2.15c1.88-.006 2.158.006 2.158.09 0 .05.057.101.127.108.18.019-1.74.083-2.845.096-.821.012-.925 0-1.243-.14zm-.746-.032l-.122-.14.15.038c.087.02.267.096.406.166l.254.128-.283-.026c-.191-.019-.319-.07-.405-.166zm-.359.096c-.063-.172.006-.21.11-.057.093.134.093.153.012.153-.052 0-.104-.045-.122-.096zm-.89-.064c0-.153.017-.16.318-.16.3 0 .318.007.318.16s-.017.16-.318.16c-.3 0-.318-.007-.318-.16zm-5.413.058a.756.756 0 00.035-.16c0-.032 1.035-.057 2.544-.057h2.545v.319h-2.58c-2.33 0-2.578-.013-2.544-.102zm-1.856-.058c.07-.16.075-.16.833-.16h.769v.32h-1.665l.063-.16zm18.452.051c.017-.025-.035-.076-.121-.121-.14-.064 0-.083.867-.083 1.012-.006 1.023-.006.954.121-.07.115-.139.128-.908.128-.457 0-.815-.02-.792-.045zM58.1 4.133l-.433-.057.728-.051c.983-.07 2.741.032 2.868.172.052.064-2.573.007-3.163-.064zm-.774.051c-.035-.05.884-.019.942.032.012.013-.185.026-.445.026-.255 0-.48-.026-.497-.058zm-.457.013a.397.397 0 01.173 0c.058.02.023.032-.07.032-.098 0-.138-.013-.103-.032zm-24.414-.146c-.017-.032-.005-.064.023-.064.035 0 .064.032.064.064 0 .038-.011.063-.023.063-.017 0-.046-.025-.064-.063zm28.26-.045a.54.54 0 01.201 0c.058.019.012.032-.098.032s-.156-.013-.104-.032zm-56.16-.728a.813.813 0 00-.26-.12 1.318 1.318 0 01-.29-.224c-.19-.179-.219-.23-.155-.3.063-.07.115-.057.306.064.226.147.44.147.52-.007.024-.031.07 0 .11.083.035.077.15.224.25.326.178.178.178.191.074.28-.127.103-.237.083-.555-.102zm1.03-.331c-.348-.345-.388-.453-.255-.658.15-.223.578-.165 1.18.16.693.376.896.306.503-.179-.237-.293-.255-.35-.058-.248.11.05.18.05.289 0a.813.813 0 01.33-.077c.242 0 1.046.485 1.353.817.138.146.277.268.312.268.139 0 .04.114-.162.178-.324.109-.335.109-1.793.09L5.92 3.272l-.336-.325zm5.99.172a.869.869 0 00-.26-.255c-.093-.051-.168-.128-.168-.173 0-.044-.052-.19-.121-.325-.104-.223-.11-.255-.03-.344.07-.083.128-.09.29-.032.243.083 1.48.982 1.48 1.078 0 .128-.254.21-.676.21-.388.007-.428-.006-.515-.159zm-1.561-.032c-.185-.108-.376-.242-.41-.3a3.964 3.964 0 00-.29-.344L9.1 2.2l.312.007c.37 0 .63.108 1.203.504.457.319.503.453.185.516-.364.07-.445.058-.786-.14z" fill="#000"/></svg>