<svg width="2" height="11" fill="none" xmlns="http://www.w3.org/2000/svg"><path d="M.441 1.724l.05.685c.001.005.071.08.157.167l.155.158v.173a6255.94 6255.94 0 00.024 3.142l.017 2.214a30.62 30.62 0 010 1.143c-.004.005-.016.007-.027.003A2.624 2.624 0 01.6 9.267a4.02 4.02 0 00-.2-.134c-.002.001.036.092.084.201.122.277.191.449.246.61.102.296.152.556.152.796 0 .06.003.118.008.13.01.027.04.026.072-.002l.026-.023.03-.28c.06-.548.107-.8.195-1.032.033-.09.102-.22.149-.285.031-.044.031-.046.018-.066-.014-.021-.05-.043-.07-.043-.006 0-.064.04-.13.09-.065.05-.123.09-.127.09-.016 0-.019-.178-.028-1.43-.008-1.134-.016-2.087-.031-3.903L.987 2.903V2.72l.142-.215.143-.215.008-.655c.005-.407.005-.667 0-.688C1.271.904 1.25.883 1.223.89c-.03.007-.075.049-.097.09-.017.034-.13.272-.152.325l-.01.024-.046-.014a.15.15 0 00-.132.009l-.03.015-.128-.187a1.562 1.562 0 00-.143-.19C.458.953.413.978.4 1.008a.181.181 0 00-.01.033l.051.683zm.067-.403a.085.085 0 01.032.027c.011.02.032.02.032 0 0-.012.003-.014.017-.008.01.003.022.013.026.02l.027.045a.41.41 0 01.03.063.194.194 0 00.023.045.34.34 0 01.03.15c-.002.02.002.036.018.064l.022.036-.02.023c-.015.02-.02.023-.048.019-.033-.006-.038.005-.018.042.05.088.063.132.068.2.003.058.007.076.023.095.013.018.02.04.023.075l.005.05-.023-.02a.919.919 0 01-.147-.181.659.659 0 01-.045-.119.966.966 0 00-.042-.125C.52 1.77.518 1.766.53 1.74a.128.128 0 00.008-.061c-.002-.019-.002-.034.001-.033a.17.17 0 01.029.037c.013.02.027.036.032.035.004 0 .01-.013.014-.027.005-.02 0-.05-.017-.117a.681.681 0 00-.086-.21l-.027-.053s.01.003.024.01zm.029.708c.008-.01.03.012.043.041.008.02.037.058.065.085a.52.52 0 01.074.094c.022.044.022.046.008.06-.012.014-.012.02-.004.036.008.015.008.023 0 .043-.01.022-.007.03.027.108.042.098.05.132.035.153-.01.013-.013.014-.027.004a.524.524 0 01-.058-.06.472.472 0 00-.057-.06.114.114 0 01-.033-.04.487.487 0 00-.035-.056.078.078 0 01-.011-.084c.009-.023.028-.026.039-.007.004.008.01.012.013.009C.62 2.352.612 2.327.601 2.3c-.052-.123-.075-.197-.07-.233a.15.15 0 01.006-.038zM.56 9.326c.008.004.06.05.115.104a.975.975 0 01.14.158l.039.06.002-.09c.003-.088.003-.09.018-.08.015.008.016.019.016.411l-.001.403-.024-.09a6.755 6.755 0 00-.222-.637A32.79 32.79 0 00.55 9.32l.012.006zm.28-6.673a.272.272 0 00.032-.064L.89 2.54v.92c0 .731-.002.92-.01.92a.189.189 0 00-.027.005l-.018.005v-.21c0-.118.003-.222.008-.234.016-.048.026-.226.024-.445-.002-.191-.004-.23-.015-.254-.01-.022-.014-.064-.017-.23L.829 2.74c-.002-.058 0-.076.01-.087zm.004-.733a.25.25 0 00.027-.053c.01-.028.011-.018.012.12 0 .081.001.208.004.28.003.107.001.127-.006.107A.1.1 0 00.85 2.33l-.022-.017v-.186c0-.176 0-.187.017-.208zm.006-.43c.029 0 .033.008.033.083 0 .057-.001.058-.018.054a.16.16 0 00-.028-.005c-.008 0-.01-.019-.01-.066v-.067H.85zm.015 4.86l.022.002.002.155.002.155-.02-.013c-.02-.014-.02 0-.026-.24l-.002-.061.022.002zm.002-.2l.024.012v.078c0 .069-.002.078-.013.074a.093.093 0 00-.024-.005c-.009 0-.011-.017-.011-.086v-.086l.024.012zm-.004-.833c.011 0 .022.005.024.01.002.005.003.185.002.4l-.002.39-.02-.093c-.022-.091-.022-.1-.023-.4l-.001-.307h.02zm.004-.477l.024-.035v.348H.843v-.278l.024-.035zm.004 3.13l.019-.047v.29c0 .255 0 .292-.011.292-.007 0-.013.008-.014.017a7.055 7.055 0 01-.012-.384c-.001-.111 0-.125.018-.168zm.004-.1l.017-.017-.004.02a.325.325 0 01-.021.055l-.016.034.003-.038c.003-.026.009-.043.02-.055zm-.012-.05c.021-.008.026.001.007.015-.017.013-.02.013-.02.002 0-.007.007-.014.013-.016zm.008-.12c.019 0 .02.003.02.043 0 .04-.001.043-.02.043-.02 0-.02-.002-.02-.043 0-.04 0-.043.02-.043zm-.007-.73a.089.089 0 00.02.005c.004 0 .007.14.007.343v.344H.85v-.348c0-.315.002-.349.013-.344zm.007-.25c.02.008.02.01.02.112v.104H.85V6.71l.02.01zM.865 9.212c.003.002.01-.005.015-.017.008-.019.01 0 .01.117 0 .137 0 .139-.015.13-.014-.01-.016-.02-.016-.123 0-.062.002-.11.006-.107zm.007-.472l.008-.059.006.098c.009.133-.004.37-.021.388a4.074 4.074 0 01.007-.427zm-.006-.105a.438.438 0 01-.004.127.272.272 0 01-.003-.06c0-.034.003-.065.007-.067zm-.001-.062a.058.058 0 010 .024C.862 8.605.86 8.6.86 8.588c0-.013.001-.019.004-.014zm.018-3.299c.004-.002.008 0 .008.003 0 .005-.004.009-.008.009-.005 0-.008-.002-.008-.003 0-.003.003-.007.008-.009zm.005 3.819a.079.079 0 010 .027c-.002.008-.004.002-.004-.013s.002-.021.004-.014zm.091-7.59a.114.114 0 00.016-.034c0-.004.012-.022.027-.04.023-.025.03-.03.038-.02.009.008.007.015-.008.04-.018.031-.018.06 0 .071.005.003 0 .01-.01.015a.2.2 0 00-.04.034c-.023.024-.024.024-.035.01-.013-.017-.01-.032.012-.075zm.042.14c.043-.047.056-.053.082-.035.028.02.02.079-.02.16-.047.094-.038.121.022.068.037-.032.044-.035.031-.008a.042.042 0 000 .04c.006.01.01.03.01.044 0 .032-.06.141-.102.182a.157.157 0 00-.034.043c0 .018-.014.005-.022-.022-.013-.044-.013-.046-.011-.242l.003-.185.04-.045zm-.022.81a.113.113 0 00.032-.036c.007-.012.016-.022.022-.022a.135.135 0 00.04-.017c.028-.014.032-.015.043-.004.01.01.012.017.004.04a.984.984 0 01-.134.2c-.016 0-.027-.035-.027-.092 0-.052.001-.058.02-.07zm.004-.212a.234.234 0 01.038-.055.506.506 0 00.043-.04l.03-.028v.042c0 .05-.014.085-.064.163-.04.061-.056.068-.064.025-.009-.05-.007-.06.017-.107z" fill="#000"/></svg>