<svg width="107" height="131" fill="none" xmlns="http://www.w3.org/2000/svg"><path d="M48.163.248c-1.148.45-2.503 1.873-3.677 3.89-.297.51-.58.992-.632 1.074-.065.102-.387.174-.929.215-1.367.102-2.954.511-2.954.757 0 .235.748 1.033 1.419 1.514.542.379.774.492 1.084.481.838-.04 1.096 0 1.148.174.038.103.167.543.284.983.167.644.31.89.67 1.207.697.604.904 1.822.44 2.466a3.647 3.647 0 00-.414.768c-.116.317-.284.491-.58.635-.323.153-.465.327-.633.736-.283.788-.709 1.239-1.6 1.71-1.018.531-2.038.838-3.096.91-.58.03-1.006.133-1.328.297-.271.133-.542.245-.62.245-.335 0-1.806 1.802-1.806 2.221 0 .102-.18.542-.4.983-.554 1.146-.89 2.558-1.019 4.267a40.405 40.405 0 01-.31 2.65c-.232 1.34-.27 4.38-.077 4.922.31.799.439 2.119.439 4.4l.013 2.406.413.511c.322.41.477.788.748 1.955.413 1.74.593 2.006 1.47 2.241.349.092.671.225.697.287.09.204-.22.583-1.819 2.149-1.948 1.934-2.296 2.394-2.8 3.735-.219.604-.477 1.207-.567 1.34-.09.133-.207.45-.258.706l-.078.461-1.29.43c-.71.235-1.51.501-1.767.593-.284.092-.645.348-.877.604-.4.45-.4.45-1.974.737-1.806.338-2.658.522-3.38.757-1.407.45-3.368 1.689-5.303 3.357-2.296 1.975-2.386 2.046-3.29 2.272-.451.112-1.238.266-1.754.327-2.387.307-5.186 1.955-7.547 4.441-.426.46-.93 1.075-1.097 1.372-.18.307-.697 1.013-1.148 1.586C1.125 71.053.75 71.8.75 72.384c0 .174-.077.522-.18.777C-.05 74.717-.127 75.392.157 77c.27 1.525.696 3.224.838 3.367.065.061.142.317.194.573.051.256.335 1.033.632 1.73.4.94.645 1.36.942 1.585.219.174.67.727.993 1.228.645.962.684 1.034.477.932-.27-.133-.103.174.465.87 1.096 1.35 1.703 2.711 1.922 4.37.155 1.094-.258 4.533-.606 5.116-.155.256-.078 1.259.142 1.688.219.46.503.266.451-.307-.051-.42-.038-.45.09-.225.078.144.233.39.336.563.116.164.387.583.606.921.22.338.645.89.955 1.218.426.481.542.696.542 1.033 0 .359.051.451.27.492.233.051.272.112.194.409-.09.368.194.757.452.634.064-.04.116.103.116.297 0 .461.206.481.31.031.18-.768-.452-2.2-1.407-3.193-.606-.624-1.006-1.392-1.277-2.425-.27-1.024-.258-1.239.052-1.464.374-.266.813-1.483.735-2.026-.258-1.709-.916-3.592-1.638-4.717-.284-.45-.516-.911-.516-1.024 0-.204.025-.204.258.041.464.46 1.535 2.21 1.741 2.825.104.327.194.798.194 1.033 0 .47.039.512.31.317.116-.092.128-.225.051-.49-.077-.195-.168-.615-.232-.942-.168-.983-1.445-2.886-2.658-3.991-.232-.205-.49-.553-.555-.778-.077-.215-.696-1.054-1.367-1.862-1.174-1.423-1.82-2.528-1.716-2.938.039-.133.168-.02.439.369.206.297.722.9 1.135 1.33.413.43.813.83.864.89.065.062.207.4.323.768.27.85.464 1.105.374.502-.064-.43-.013-.369.71.757.425.665.774 1.3.774 1.402 0 .235.206.337.296.143.142-.276-.438-1.637-1.186-2.763-.4-.624-.84-1.33-.968-1.586-.271-.553-.49-.921-1.368-2.374-1.328-2.21-1.586-3.183-1.6-6.069-.012-2.845.504-5.403 1.24-6.242.412-.47.631-.563.36-.143-.09.122-.335.624-.541 1.105-.362.829-.387.982-.426 2.67-.039 1.69-.039 1.73.064.666.065-.624.18-1.402.258-1.75.271-1.259 1.355-3.49 1.858-3.817.116-.082.207-.215.207-.307 0-.256.657-1.023 1.315-1.525.53-.41.594-.43.658-.235.065.204-.387.798-.529.685-.025-.03.013-.122.104-.215.09-.092.129-.184.09-.214-.065-.052-.49.409-.993 1.095-.104.153-.362.47-.555.706-.207.235-.4.501-.439.593-.077.154-.064.154.155.02.206-.142.206-.112-.026.257a3.1 3.1 0 00-.361.87 2.326 2.326 0 01-.335.777c-.284.379-.31.522-.078.358.103-.061.207-.082.258-.05.078.06.13-.062.348-.88.168-.605.994-2.12 1.097-2.027.039.03.013.164-.052.297-.31.603-.8 2.271-.928 3.162-.4 2.722-.258 4.707.477 6.641.49 1.29.555 1.402 1.367 2.385.4.49.826 1.033.942 1.207.361.553 1.097 2.671 1.239 3.582.245 1.484.348 1.709.361.767.013-.737-.142-1.862-.323-2.333-.038-.092-.012-.174.052-.174.155 0 1.961 2.303 2.683 3.428.284.45.762 1.177 1.058 1.607.284.43.568.962.607 1.177.051.215.116.46.155.542.064.133.09.133.129-.01.18-.594-1.149-2.906-2.929-5.106-1.342-1.658-1.845-2.324-2.632-3.51-.4-.604-.954-1.362-1.238-1.679-.542-.624-1.149-1.965-1.497-3.336-.258-1.034-.387-3.316-.206-3.756.077-.194.206-.87.284-1.504.167-1.433.567-2.927.877-3.285.129-.153.322-.44.438-.634.246-.44 1.226-1.31 1.832-1.648.49-.266.607-.43.233-.338-.116.031.038-.133.36-.358.323-.235.723-.45.891-.49.168-.032.555-.165.839-.298.296-.133.748-.245 1.019-.245.322 0 .477-.051.477-.144 0-.133.761-.296.903-.194.039.03-.103.164-.322.317-.207.144-.374.307-.349.348.04.103-.954 1.146-1.509 1.586-.206.164-.748.45-1.213.625-.748.296-1.38.767-1.2.91.04.031.336-.02.671-.112.336-.092.633-.164.658-.164.22 0-.348 1.32-.696 1.658-.104.092-.349.215-.555.286-.194.062-.4.195-.439.287a4.264 4.264 0 01-.155.307c-.038.072.13.03.387-.092.542-.256.555-.215.22.716-.323.87-.62 2.19-.723 3.265-.051.46-.142.86-.206.89-.155.082-.336-.235-.439-.768a13.48 13.48 0 00-.413-1.381c-.258-.747-.296-1.054-.245-1.689.039-.42.09-1.043.116-1.381.052-.84.426-1.402 1.665-2.517.567-.512.993-.952.954-.983-.038-.03-.529.307-1.083.747-1.51 1.208-2.22 2.548-2.22 4.206 0 .583.078.9.375 1.484.206.41.438 1.003.516 1.32.09.358.335.778.606 1.075.452.511.774 1.197.632 1.37-.038.062-.025.103.052.103.064 0 .142-.082.168-.184.025-.092.154.102.27.44.13.338.49 1.064.813 1.627.323.553.555 1.023.53 1.044-.091.072-1.64-1.29-1.807-1.566-.18-.317-1.058-1.074-.955-.819.181.4 1.239 1.505 2.232 2.323.916.748 1.187 1.065 1.974 2.293.503.777.89 1.453.852 1.484-.052.03-.13-.01-.194-.093-.077-.081-.129-.112-.129-.06 0 .04.245.306.555.572.31.276.684.737.826 1.044.154.297.528 1.033.851 1.637.361.686.555 1.187.516 1.351-.039.143.039.389.168.563.284.389.477.42.297.051-.142-.317-.065-.45.116-.174.232.358 1.303 2.947 1.38 3.357l.09.409-.322-.41c-.18-.224-.361-.583-.413-.808-.077-.327-.116-.368-.22-.215-.09.123-.05.338.143.747.503 1.116.683 1.965.67 3.296 0 .706-.064 1.443-.128 1.637a2.5 2.5 0 00-.142.767c0 .225-.09.635-.207.921-.22.584-.284 2.671-.09 2.825.09.071.129-.215.129-.85 0-.706.103-1.279.4-2.23.761-2.538.877-3.715.49-5.465-.258-1.136-.258-1.156.026-.952.451.328.413.174-.168-.716-.62-.962-.761-1.392-.322-.962.142.133.258.317.258.42 0 .225 1.445 2.302 1.806 2.609.142.123.258.276.258.358 0 .072.258.491.58.931 1.458 2.006 1.652 4.718.774 10.531-.335 2.22-.348 2.19 1.355 4.195 1.316 1.556 2.58 3.357 3.11 4.411.283.563.8 1.852 1.148 2.865.67 1.914.877 2.333 1.328 2.733.207.174.232.255.116.307-.154.081-.064.532.284 1.248.349.727.465 1.095.465 1.484 0 .542-.258 1.688-.387 1.688-.052 0-.155-.174-.22-.378-.051-.205-.18-.389-.27-.42-.207-.051-.155 1.136.09 2.18.077.338.232 1.105.348 1.709.245 1.228.413 1.535.748 1.32.232-.154.284-.675.078-.778-.271-.133-.826-2.179-.645-2.405.051-.071.27.011.593.215.271.174.839.451 1.239.614.4.164.76.338.812.399.04.052.181.103.31.103.27 0 .4.266.4.818 0 .809.464 1.443.697.962.142-.296.077-.89-.117-1.003-.154-.092-.245-.716-.451-2.824-.142-1.494-.284-2.773-.323-2.845-.038-.071-.116-.112-.193-.071-.13.061-.103 1.248.064 3.581l.078 1.126-.774-.645c-.439-.358-.852-.614-.916-.583-.233.112-.478-.123-.645-.614-.142-.399-.13-.563.129-1.382.425-1.35.348-1.678-.839-3.499-.529-.819-.967-1.576-.967-1.679 0-.092-.194-.644-.44-1.207-.244-.573-.502-1.361-.58-1.75-.077-.399-.167-.87-.219-1.054-.077-.297-.052-.328.155-.256.22.061.22.051.064-.102-.09-.092-.258-.174-.348-.174-.103 0-.18-.052-.18-.103v-.184c0-.041.051-.072.116-.072a.42.42 0 00.219-.071c.051-.051-.026-.082-.168-.082-.142 0-.464-.174-.71-.389-.503-.44-1.315-1.484-1.457-1.862a1.199 1.199 0 00-.258-.41c-.09-.082-.542-.706-1.007-1.371-1.058-1.504-1.225-2.036-1.006-3.183.31-1.586.426-3.192.335-4.615-.051-.972-.025-1.525.065-1.74.116-.225.116-.716-.013-1.975l-.155-1.688-.812-.942c-.452-.521-.878-1.135-.955-1.36-.078-.226-.194-.44-.258-.471-.078-.041-.361-.4-.658-.819a11.51 11.51 0 00-.903-1.136c-.271-.276-.361-.46-.31-.624.052-.174.026-.215-.129-.174-.22.072-.71-.225-.71-.43 0-.072-.141-.266-.322-.44-.503-.47-1.187-1.709-1.664-3.05-.632-1.76-.645-1.831-.374-1.913.129-.041.245-.02.27.04.026.062.194.236.362.39.206.194.297.225.31.112 0-.082-.065-.204-.155-.276-.13-.102-.117-.164.051-.287.18-.143.22-.133.478.123.142.144.27.379.27.522 0 .164.104.276.336.338.18.061.361.194.4.307.039.112.116.204.18.204.194 0 .13-.48-.064-.613-.193-.113-.361-.461-.516-1.055-.064-.225-.232-.337-.697-.501-.335-.123-.684-.287-.774-.379-.129-.143-.142-.112-.077.144.051.255.013.235-.245-.164-.18-.256-.362-.604-.4-.778a.662.662 0 00-.4-.42c-.18-.071-.323-.163-.323-.214 0-.052-.206-.184-.451-.307-.31-.144-.478-.307-.53-.522-.064-.205-.154-.307-.322-.307-.129 0-.258-.041-.296-.092-.04-.051-.181-.072-.31-.041-.258.05-.4-.144-.8-1.054a5.472 5.472 0 00-.542-.921c-.542-.686-1.019-1.668-1.16-2.323-.104-.543-.065-.911.27-2.58.477-2.302 1.07-4.39 1.406-4.993.13-.235.542-.747.916-1.136.374-.389.877-.941 1.135-1.228.246-.286.413-.42.362-.297-.039.133-.052.236-.026.236.116 0 .748-.83.903-1.208.232-.532 1.574-1.883 3.638-3.643 1.342-1.156 1.858-1.535 2.645-1.893a41.042 41.042 0 001.316-.635c.193-.112.451-.194.58-.194.13 0 1.045-.225 2.026-.512 1.148-.317 1.91-.48 2.103-.45.168.041.297.082.297.102 0 .02-.22.328-.504.686-1.019 1.32-1.819 2.65-2.206 3.674a155.77 155.77 0 01-.929 2.282l-.529 1.228-.129 3.428c-.09 2.691-.09 3.49.04 3.735.193.379.335.164.154-.256-.103-.215-.09-.317.026-.409.129-.082.193-.788.245-2.896.039-1.525.129-3.09.206-3.459.078-.379.452-1.443.852-2.374.387-.931.71-1.77.71-1.863 0-.194 1.315-2.22 2.167-3.315.322-.41.71-.942.864-1.177.361-.542 1.135-.921 2.438-1.187a38.29 38.29 0 011.071-.205c.078 0-.116.758-.245.962-.322.481-2.929 2.784-4.477 3.95l-1.69 1.28-.129.972c-.077.532-.167 1.125-.219 1.32-.052.245-.026.327.064.276.246-.123.633.113 1.033.645.438.552 2.128 1.74 3.315 2.302.426.205.903.44 1.071.532.168.103.284.123.284.052 0-.062-.477-.369-1.071-.696-1.38-.768-3.548-2.426-3.845-2.947-.36-.625-.31-.809.375-1.351.606-.492 4.231-4.268 4.528-4.718.297-.45.27-.153-.052.573-.18.4-.322.819-.322.911 0 .102-.207.512-.465.91-.258.4-.438.82-.413.922.078.286.788-.614 1.058-1.361.13-.328.426-1.034.658-1.566.439-.972 1.6-4.329 1.871-5.444.077-.328.22-.655.297-.727.09-.071.27-.286.4-.48.76-1.106 1.187-1.648 1.716-2.15.322-.307.696-.747.838-.972.297-.46.748-.941.748-.798 0 .051-.064.143-.154.215-.078.061-.116.143-.078.174.142.112 1.393-1.187 1.393-1.453 0-.256.013-.256.233-.103a.838.838 0 00.425.174c.246 0 4.232-1.054 4.62-1.228.45-.184 2.36-.532 2.463-.44.116.102-.206 1.597-.464 2.15-.116.245-.62.797-1.174 1.278-1.729 1.505-2.826 2.845-3.07 3.766-.052.195-.413.87-.788 1.494a23.51 23.51 0 00-1.2 2.354c-.645 1.504-.825 1.873-1.006 2.139-.077.112-.438.757-.813 1.433a19.732 19.732 0 01-1.316 2.097c-1.96 2.61-3.34 4.278-4.063 4.892-.452.379-.813.696-.813.716 0 .02.09.103.206.195.207.174.194.184 1.277-.604.955-.686 3.368-1.893 3.535-1.76.04.03-.051.133-.206.215-.387.204-.374.348.077.685.375.287.388.287.323.052-.065-.195-.052-.215.065-.093a.578.578 0 01.141.328c0 .092.155.266.349.389.193.112.451.348.58.511.13.174.336.307.478.307a.39.39 0 01.348.225c.297.788 2.27 2.559 3.574 3.224.296.154.567.287.593.307.232.133-1.755.542-2.632.542-1.251 0-4.902.84-7.005 1.607-.89.328-3.832 1.054-4.245 1.054-.077 0-.67.184-1.303.4-1.806.634-2.941.849-3.767.726-.374-.062-.722-.123-.761-.154-.026-.03.039-.296.155-.603.245-.604.284-1.341.09-1.443-.077-.031-.129.04-.129.174 0 .317-.464 1.606-.645 1.77-.077.072-.155.338-.168.573-.025.358.026.45.207.481.129.02.335-.03.451-.123.168-.112.762-.174 2.439-.256 1.548-.061 2.322-.143 2.593-.255.49-.205.619-.205.425-.021-.128.123-.103.184.155.317.18.092.361.287.413.44.052.154.336.471.658.717.31.245.568.511.568.593 0 .082.077.174.168.205.128.03.167.225.141.665-.025.379 0 .593.078.553.077-.031.129-.144.129-.236.013-.153.026-.153.193.02.104.103.142.246.104.308-.052.061-.078.276-.052.48.026.318-.013.38-.206.37-.22-.021-.233.081-.207 1.514.026.839.039 1.74.039 1.975 0 .542.232.941.4.726a.694.694 0 00.116-.378c0-.133.077-.225.193-.225.284 0 .362-.226.194-.563-.194-.39.026-.563.387-.307.31.225.31.153.064-.502-.103-.276-.193-.716-.18-.972v-.47l.232.665c.787 2.281.942 2.865.968 3.683.013.471-.026.655-.142.645-.09-.02-.22.072-.31.184-.129.205-.116.215.258.144.335-.062.4-.041.4.133 0 .112-.116.317-.258.46a.937.937 0 00-.258.676c0 .235-.065.42-.129.42-.09 0-.116.132-.064.337.064.256.025.379-.142.491-.194.123-.233.113-.413-.092-.104-.123-.271-.225-.361-.225-.233 0-.233.143.012.307.168.112.155.143-.051.297-.13.092-.349.42-.465.726-.58 1.464-.735 1.699-.954 1.597-.31-.154-.04-.88.67-1.842.284-.39.349-.584.284-.82-.206-.797-.348-1.79-.284-1.933.13-.256.736.02.736.327 0 .184.039.225.142.144.103-.082.103-.307.013-.768-.09-.501-.13-.563-.142-.266 0 .215-.065.389-.142.389-.168 0-.297-.645-.194-1.013.065-.246.026-.328-.193-.42-.22-.092-.258-.174-.194-.379.13-.44-.219-.214-.425.267-.155.358-.155.511-.04.818.13.297.117.45-.038.819-.129.276-.206.788-.206 1.381 0 .512-.09 1.27-.207 1.689-.103.42-.206 1.034-.219 1.361-.013.348-.09.655-.18.716-.143.092-.13.133.051.236.194.112.194.174.064.399-.09.153-.154.491-.154.767 0 .266-.09.573-.194.686-.103.102-.193.389-.193.624 0 .369-.039.44-.258.44-.284 0-.71.543-.594.778.103.205.31.174.4-.061.039-.113.13-.205.194-.205.154 0-.297.788-.568 1.003-.18.143-.232.153-.322.03-.13-.163-.323.38-.607 1.73a29.437 29.437 0 01-.516 1.955c-.168.593-.284 1.146-.245 1.238.051.092.026.685-.052 1.32-.142 1.207-.038 2.251.232 2.323.078.02.142.123.142.235 0 .103.065.195.13.195.077 0 .128-.072.128-.164 0-.092.117-.184.271-.215.22-.051.258-.113.194-.368a3.135 3.135 0 01-.078-.389c0-.051-.09-.092-.206-.092-.142 0-.18-.082-.155-.338.026-.256.09-.317.271-.297.194.031.22-.01.155-.184-.065-.164-.026-.235.155-.266.22-.051.245-.123.193-.624-.038-.41-.025-.553.09-.502.078.041.143.184.143.307 0 .133.077.297.18.358.168.113.245.359.361 1.136.026.174-.013.246-.142.225-.141-.02-.167.082-.09.563.052.317.168.655.258.747.155.133.155.215.013.512-.09.194-.27.563-.387.808-.116.256-.22.727-.22 1.054 0 .328-.064.594-.115.594-.065 0-.116.123-.116.276 0 .277.232.727.903 1.771.206.317.529.91.722 1.33.555 1.248 1.213 2.098 1.213 1.576 0-.092.09-.143.232-.123.284.041.697.993.697 1.617 0 .481.154.819.438.952.09.041.271.337.387.665.362.993.58 1.453 1.394 2.988.438.819.941 1.781 1.11 2.139.541 1.095 2.476 2.804 4.282 3.776.594.317.878.737.878 1.259 0 .092.154.245.335.348.297.153.336.214.258.573-.064.317-.039.399.103.399.194 0 .349-.348.542-1.146.09-.41-.09-.533-.322-.215-.104.143-.142.102-.22-.225-.051-.226-.09-.492-.064-.584.013-.092-.09-.266-.22-.368-.258-.205-.4-.481-.993-1.965-.387-.982-.632-1.33-.903-1.33-.258 0-.245.501 0 1.166.194.502.258 1.085.116 1.085-.232 0-.632-.297-1.484-1.095-.528-.491-1.044-.982-1.174-1.085-.36-.327-2.36-3.571-2.593-4.216-.129-.338-.335-.89-.49-1.228a268.469 268.469 0 01-1.664-3.991c-.297-.737-.632-1.443-.761-1.586-.142-.154-.232-.45-.232-.737-.013-.645-.142-.9-.44-.9-.141 0-.244-.072-.244-.164 0-.082.064-.123.129-.092.154.082.167-.379.013-.522-.052-.051-.052-.686 0-1.423.064-.736.167-3.008.245-5.065.064-2.057.18-4.032.258-4.4.077-.369.168-.89.193-1.177.039-.277.13-.553.207-.614.142-.113.206-.062 1.07.91.375.42.749.676 1.51 1.034.568.266 1.02.512 1.02.563 0 .04.335.276.747.522.89.532 4.555 3.193 5.651 4.093.71.594 1.187 1.034 3.316 3.039.335.318.606.676.619.788 0 .113.039.144.077.072.026-.061.104-.123.155-.123.142 0 .4.481.4.717 0 .102.142.562.323 1.002.258.655.425.891.838 1.188.284.204.607.368.71.368.103 0 .193.041.193.102 0 .051.078.103.181.103.245 0 .851.583.851.808 0 .102-.116.266-.258.368-.322.236-.554 1.126-.4 1.566.13.328.117.338-.541.594-.89.348-1.123.593-1.123 1.187 0 .614.387 1.31 1.355 2.435 1.535 1.791 2.425 2.456 3.715 2.743.426.092.787.225.826.297.09.194.387.163.955-.092.554-.246.89-.768.89-1.392 0-.215.142-.757.31-1.208.167-.45.374-1.095.451-1.432.09-.328.22-.799.297-1.034.103-.327.103-.471-.013-.583-.078-.072-.297-.553-.49-1.044-.426-1.146-.465-2.313-.116-3.029.619-1.259-.22-2.518-3.522-5.25-2.748-2.272-4.27-3.725-6.67-6.396-1.136-1.248-1.6-1.944-1.69-2.538-.065-.44-.026-.593.258-.972.18-.245.593-.614.916-.819.49-.327.67-.378 1.212-.378.568 0 .761-.072 1.716-.573 1.445-.778 2.155-1.33 2.322-1.811.168-.492.53-.788.968-.788.18 0 .593-.144.903-.318.323-.174.968-.45 1.445-.624.464-.164 1.032-.42 1.251-.553.504-.296.89-.307 1.316-.04.465.286.826.255 1.226-.103s.8-.389 2.129-.143c1.393.256 3.56.44 3.754.327.103-.071.206-.071.322.01.104.062.736.164 1.42.236.98.092 1.419.092 2 0a8.73 8.73 0 011.173-.123c.349 0 .4-.03.284-.143-.116-.113-.065-.154.258-.205.645-.102 1.69-.071 1.6.041-.039.062-.194.102-.336.102-.129 0-.245.041-.245.103 0 .051.026.102.052.102.258 0 2.013-.348 2.787-.552 1.212-.328 1.341-.338 1.16-.052-.206.287-.877 2.753-1.096 4.012a14.434 14.434 0 00-.194 2.118c-.012 2.17-.206 3.561-.632 4.595-.219.522-.593 1.238-.825 1.586-.245.338-.516.839-.607 1.105-.154.481-.154.492.233.84.516.47.71.982.632 1.688-.039.317-.13 1.146-.207 1.852a33.787 33.787 0 01-.335 2.252c-.103.532-.31 1.709-.452 2.609-.142.901-.4 2.139-.593 2.763-.18.614-.465 1.627-.632 2.252a44.253 44.253 0 01-.633 2.097c-.18.532-.335 1.208-.335 1.494 0 .533 0 .533 1.187 1.515.658.542 1.251.982 1.342.982.193 0 .503.297.4.379-.052.031-.168 0-.284-.072-.284-.184-.4.133-.194.492.194.317.181 3.878-.013 4.277-.142.328.078.409.323.123.155-.174.206-.501.206-1.402 0-1.33.155-1.402.374-.164.078.451.233.88.336.962.168.133.206.103.387-.225.103-.205.194-.573.194-.808 0-.246.077-.788.18-1.208.103-.42.22-1.095.271-1.484.13-.992.297-.593.4.952.09 1.269.232 1.607.529 1.289.09-.102.168-.389.168-.644 0-.256.051-.533.116-.604.129-.164.27.911.27 2.077 0 1.32.22 1.361.775.154.593-1.279.645-1.3.658-.205 0 1.259.116 1.781.4 1.822.335.051.412-.389.18-.942-.258-.604-.258-1.32-.013-2.343.194-.778.168-1.054-.064-.942-.065.031-.18.225-.271.44-.245.594-1.032 1.863-1.148 1.863-.065 0-.13-.604-.155-1.341-.039-1.279-.052-1.351-.361-1.545-.284-.184-.323-.184-.465-.031-.22.236-.296.082-.438-.982-.297-2.098-.362-2.466-.49-2.569-.207-.164-.259.154-.349 2.078-.077 2.046-.593 4.697-.852 4.38-.154-.195-.141-1.587.026-2.088.297-.901.297-.952-.129-1.33-.258-.246-.4-.471-.4-.686 0-.307 0-.317.258-.133.142.102.258.297.258.43 0 .122.065.235.13.235.077 0 .128-.102.128-.235 0-.266-.425-.625-.877-.737a.79.79 0 01-.438-.317c-.104-.185-.246-.246-.555-.246-.22 0-.49-.061-.607-.133-.27-.164-.49-.727-.49-1.238 0-.747.994-3.51 1.613-4.513.58-.911.697-1.249 1.213-3.531.348-1.453.516-4.103.425-6.355l-.064-1.698.697-.072c1.367-.133 4.038-.256 4.399-.194.232.041.361.122.361.245 0 .297-.49 1.852-.697 2.19-.4.665-1.328 3.909-1.574 5.475-.09.645-.27 1.637-.374 2.2a13.46 13.46 0 00-.193 2.006c0 .696-.052 1.023-.168 1.105-.297.184.09 1.76.684 2.835.193.358.206.44.051.665-.31.45-.193 1.33.194 1.289.18-.02 1.406.911 1.29.983-.026.02-.323.194-.67.378-.723.41-.646.614.141.43.697-.164.993-.153 1.548.072.58.235 1.768 1.177 1.652 1.32-.04.051-.13.522-.207 1.054-.206 1.433-.387 1.422-.593-.031-.09-.655-.336-1.023-.568-.839-.142.113-.387 1.116-.387 1.648 0 .409.22.44.413.051l.142-.276.103.409c.064.225.142.512.18.624.078.266.426.389.646.246.103-.072.206-.502.258-1.075.051-.532.142-.972.193-.972.052 0 .194.491.336 1.095.154.686.31 1.105.425 1.136.13.031.155-.041.104-.348a59.967 59.967 0 01-.246-1.576c-.167-1.177-.18-1.187-.787-1.811-.335-.348-.76-.727-.967-.85-.194-.122-.58-.532-.865-.9-.283-.379-.71-.778-.928-.89-.387-.185-.413-.246-.426-.768 0-.307-.09-.696-.207-.87a18.26 18.26 0 01-.593-1.074l-.387-.768.065-1.944c.103-2.722.773-6.468 1.277-7.123.103-.133.296-.614.425-1.064.117-.45.387-1.371.581-2.047.206-.675.4-1.402.452-1.616.051-.277.141-.379.322-.379.13 0 .4-.123.606-.276.749-.573 1.342-.942 1.626-1.013.155-.031.542-.174.864-.297.426-.164.89-.246 1.703-.277.942-.04 1.2-.092 1.639-.317.284-.153.606-.276.722-.276.361 0 1.226-.737 1.626-1.402.684-1.136 2.296-3.264 2.8-3.694.154-.144.283-.359.283-.481 0-.236.723-1.177 1.626-2.108.296-.307.8-.85 1.11-1.187.309-.348 1.083-1.116 1.715-1.71 2.49-2.312 2.593-2.466 2.787-4.042.09-.808.09-1.197-.026-1.524-.09-.266-.13-.727-.078-1.157.065-.583.026-.839-.18-1.269-.335-.706-.323-.696-2.98-2.24-.284-.164-.878-.359-1.342-.44-.813-.144-1.535-.451-1.755-.748-.09-.112 0-.266.375-.583.477-.41 1.019-1.105 1.973-2.538.271-.4.762-1.382 1.097-2.2.336-.819.748-1.74.903-2.047.568-1.074 1.084-2.528 1.174-3.285.09-.808.026-1.074-.529-2.118-.322-.614-.335-.686-.193-1.402.27-1.402-.207-2.835-1.342-4.032-.18-.195-.335-.41-.335-.47 0-.072-.117-.205-.258-.308-.258-.184-.258-.266-.181-1.473.039-.706.155-1.546.245-1.853.103-.307.245-1.391.322-2.405.078-1.013.194-2.005.246-2.21.064-.215.064-.44 0-.512-.181-.235-.13-.634.142-.982.245-.328.27-.338.993-.287.413.02.968.072 1.239.113.593.082.915-.113 1.264-.757.245-.46.503-.491.503-.072 0 .123.168.379.374.553l.387.327 1.135-.051c.62-.03 1.445-.102 1.832-.164a13.8 13.8 0 011.523-.102c1.29 0 1.638-.205 2.928-1.76.413-.491.942-1.064 1.187-1.27.619-.51.839-.9.916-1.585.039-.328.116-.573.181-.543.142.062.013-.88-.22-1.606-.296-.942-.567-2.17-.567-2.538 0-.215.116-.45.335-.655.245-.225.31-.379.245-.573-.154-.502-.516-.88-.864-.911-.194-.02-.4-.092-.477-.164-.078-.071-.323-.798-.555-1.606-.387-1.382-.413-1.597-.426-3.52 0-1.75.039-2.119.232-2.539.142-.266.207-.562.168-.655-.052-.092-.142-.603-.206-1.135-.078-.645-.194-1.044-.349-1.218-.438-.491-.954-1.177-.903-1.218.026-.02.245.072.478.215.529.307.696.327.516.051-.078-.112-.104-.256-.065-.307.052-.061-.013-.338-.129-.624-.129-.287-.193-.543-.155-.563.039-.03.22.02.4.123.594.297.529.061-.09-.379-.606-.42-.813-.696-.374-.512.116.052.361.103.542.113.812.051.787-.02-.065-.348-.955-.348-1.432-.716-2.167-1.617-.478-.604-1.277-1.207-1.587-1.207-.67 0-1.935-1.064-1.613-1.371.194-.185.4-1.402.4-2.436 0-.583.078-1.044.207-1.32.116-.225.219-.676.232-.993.013-.532-.013-.583-.284-.614-.22-.03-.322.02-.374.174-.039.123-.116.215-.18.215-.065 0-.272.246-.44.532-.296.502-.993 1.351-1.38 1.72a9.54 9.54 0 00-.516.532c-.322.348-.567.501-1.703 1.054-.245.112-.322.204-.22.245.091.041-.657.072-1.663.062-.994-.01-1.832-.031-1.845-.062-.026-.02-.374-.389-.774-.819-.736-.767-.839-1.002-1.123-2.292a13.408 13.408 0 00-.206-.818c-.168-.604-.826-.921-.826-.4 0 .154-.116.625-.258 1.054-.477 1.495-.89 3.03-.967 3.633-.04.338-.142.676-.22.747-.064.072-.425.205-.787.287-.361.082-1.006.368-1.432.634-1.187.737-2.464 1.587-2.503 1.689-.025.051-.36.245-.735.43-.374.194-1.251.757-1.935 1.258-1.187.84-1.303.973-1.91 1.955-.348.573-.877 1.269-1.173 1.535-.31.266-.736.768-.981 1.115-.232.348-.8.993-1.264 1.433-.903.86-1.187 1.29-1.187 1.76 0 .44-.478 1.433-.903 1.852-.568.574-.916 1.198-1.045 1.883-.103.492-.22.686-.516.901-.207.154-.375.338-.375.42 0 .081-.258.43-.58.767-.813.86-1.097 1.412-1.187 2.374-.064.727-.116.86-.477 1.167-.22.184-.516.501-.658.685-.233.297-.336.348-.71.338-1.406-.051-4.709-1.074-5.702-1.77-.439-.297-.465-.358-.336-.604.078-.154.207-.47.31-.706.168-.43.168-.43-.31-.798a4.863 4.863 0 00-.928-.563c-.865-.348-.955-.502-.839-1.443.039-.46.142-.952.206-1.085.065-.133.233-1.177.387-2.313.233-1.75.258-2.476.207-4.727-.155-5.567-.387-7.45-1.071-8.617-.568-.941-1.135-1.228-3.47-1.72-2.078-.44-3.161-1.36-3.161-2.69 0-.359.077-.502.374-.747.206-.164.477-.522.593-.799.116-.276.297-.563.4-.624.09-.072.181-.194.181-.287 0-.327.761-1.985 1.161-2.496.194-.267.258-.512.258-1.126 0-.43.065-.91.142-1.075a1.6 1.6 0 00.168-.593c.013-.276.064-.307.632-.389.993-.123 1.974-.522 2.206-.88.194-.287.194-.317-.039-.42-.258-.102-.658-.04-.658.092 0 .123-.619.318-.967.318-.516 0-.968-.225-1.045-.502-.13-.511-.607-1.504-1.058-2.21-.542-.87-1.368-1.71-2.645-2.692C50.11-.058 49.4-.221 48.162.249zm2.077.563c1.277.573 3.78 3.173 3.638 3.766-.038.123-.18.174-.542.174-.645 0-.89.246-.541.553.283.256.322.245-1.071.071-.761-.102-1.148-.194-1.265-.327-.129-.143-.206-.154-.322-.061-.13.102-.13.153.026.235.167.082.155.112-.052.245-.284.164-.929.103-1.264-.133-.155-.102-.233-.112-.233-.03s-.064.092-.245.01a2.14 2.14 0 00-.606-.102c-.27 0-.322.04-.27.204.038.113.012.174-.053.144-.077-.031-.206 0-.322.061-.142.102-.284.072-.71-.143l-.516-.277.245-.347c.168-.205.22-.369.142-.43-.18-.144.09-.645.336-.645.103 0 .193-.092.193-.205 0-.235-.245-.266-.516-.082-.103.072-.064.01.103-.133.155-.143.284-.337.284-.42 0-.275.142-.49.336-.49.27 0 .825-.46.825-.686a.48.48 0 01.194-.338c.103-.071.194-.215.194-.317 0-.307.464-.604.941-.604.22 0 .71.133 1.071.307zm-5.186 5.332c.335.112.993.235 1.483.266l.865.061-.297.236c-.258.204-.348.225-.658.123a6.689 6.689 0 00-.89-.185c-.439-.05-.555-.04-.555.072 0 .102-.116.072-.4-.113-.477-.317-.76-.348-.67-.061.09.276 0 .256-.53-.113-.425-.286-.477-.296-.67-.153a.84.84 0 01-.478.164c-.258 0-.245.02.103.204.568.297.271.246-.464-.071-.555-.256-.658-.266-.903-.154-.207.113-.258.113-.22.01.078-.174.323-.266 1.071-.378 1.213-.184 2.555-.143 3.213.092zm8.321.174c.49.061.593.112.67.348l.091.286h-.838c-.452 0-.942.052-1.084.103-.387.163-.31.747.232 1.74.258.48.477 1.033.477 1.227l.013.358-.683.031c-.878.041-1.316-.164-1.316-.593 0-.174-.052-.307-.116-.307-.181 0-.916 1.228-1.007 1.688l-.077.41.477-.338c.361-.246.594-.328.98-.328.478 0 .504.02.594.358.116.492-.09.645-.813.645-.464 0-.657.062-.967.287-.336.266-.349.307-.168.42.142.071.194.194.13.327-.065.174-.027.215.18.215.142 0 .529.05.851.122.53.113.607.103.955-.092.206-.122.4-.194.451-.163.142.112.078.542-.077.542-.09 0-.27.184-.387.41-.232.45-.606.613-1.367.613-.413 0-.555-.071-1.149-.593-.477-.41-.67-.532-.684-.4 0 .103.065.277.142.4.078.112.104.225.078.256-.103.071-1.032-.338-1.303-.573-.258-.225-.465-.277-.465-.113 0 .143.852.88 1.316 1.146.271.143.426.174.516.102.09-.071.271-.05.607.093.245.102.593.194.774.194.297 0 .297.01.22.624-.053.338-.13.686-.169.768-.103.215-.296.174-.296-.062 0-.184-.052-.204-.439-.153-.335.051-.606 0-1.251-.256-1.471-.583-2.31-1.422-2.078-2.088.078-.194.078-.532.026-.747-.051-.225-.051-.655 0-.962.078-.46.039-.685-.27-1.402-.194-.46-.4-.89-.44-.941-.05-.061 0-.133.104-.164.129-.03.232-.276.284-.665.129-.9.258-.808.258.195 0 1.197.077 1.37.838 1.8.362.205.671.369.71.369.194 0 0-.297-.516-.798-.529-.502-.58-.604-.58-1.095 0-.297-.04-.747-.078-.993-.065-.399-.039-.501.206-.696l.284-.225.323.266c.18.164.413.256.529.225.748-.153 1.187-.163 1.187-.03 0 .082-.09.174-.194.215-.297.092-.232.215.232.409.594.256 1.265.184 1.484-.164.284-.47.413-1.238.245-1.381-.258-.205-1.51-.348-2.193-.246-1.058.154-.207-.327 1.006-.563.697-.133 2.632-.174 3.535-.061zm.852 2.845c-.013.44-.258.757-.594.757-.077 0-.374-.87-.374-1.074 0-.031.142-.052.322-.052.207 0 .323-.061.323-.163 0-.123.039-.144.168-.062.09.062.154.317.154.594zM53 11.526c0 .348-.194.614-.31.45-.051-.062-.206-.113-.348-.113-.271 0-.284-.03-.168-.388.065-.164.18-.226.452-.226.322 0 .374.041.374.277zm-.284 1.023c-.026.102-.155.194-.284.215-.361.061-1.922-.092-1.819-.164.052-.04.503-.102 1.007-.133.515-.03.98-.061 1.032-.072.064-.01.09.062.064.154zm-7.276 1.934c.103.317 1.11 1.136 1.896 1.535.31.154.903.358 1.316.44.748.164.761.174.98.686.117.286.323.655.452.808l.233.276.232-.276c.129-.153.31-.491.4-.757.206-.634.425-.808.335-.266-.039.225-.103.573-.155.767l-.077.359.27-.287c.35-.338.594-.358.697-.03.078.245-.464 1.862-.683 2.036-.078.061-.207-.133-.336-.502-.387-1.064-1.096-1.34-1.096-.42 0 .298-1.38 1.935-1.587 1.894-.09-.02-.4-.338-.71-.706-.296-.358-.825-.91-1.16-1.218a34.098 34.098 0 01-1.497-1.453l-.865-.9.168-.563c.09-.307.193-.563.232-.563.039 0 .258.235.503.511.774.921 1.432 1.423 2.516 1.934 1.238.604 1.742.768 1.238.42l-.31-.225.504.061.516.062-.451-.174c-.607-.236-.594-.236-.4-.328.129-.071.116-.102-.04-.143-.115-.04-.206-.153-.206-.256 0-.163-1.148-.91-1.896-1.228-.426-.184-1.329-1.187-1.329-1.484 0-.348.207-.358.31-.01zm53.295 2.814c-.052.522-.117 1.013-.168 1.095-.052.113-.013.143.142.092.258-.082.284.062.077.706-.09.256-.22.492-.297.512-.077.02-.503-.072-.941-.215a11.376 11.376 0 00-1.316-.317c-.297-.04-.53-.072-.53-.082 0 0 .44-.379.968-.829.542-.45 1.187-1.054 1.458-1.35.258-.297.53-.533.594-.543.064 0 .064.41.013.931zm-53.798 1.034c1.767 1.474 1.87 1.566 1.87 1.73 0 .081.207.306.452.49.258.185.542.471.658.635.193.307.632.4.722.174.039-.072.168-.133.31-.133.155 0 .284-.102.348-.307.271-.696.49-1.156.658-1.33.155-.174.194-.144.387.317.258.614.542.962.787.962.297 0 .555-.41.98-1.566.452-1.228.504-1.259 1.407-.808.245.122.593.255.774.286.761.133 1.987.614 2.516.983.593.42 1.019 1.013 1.148 1.637.116.512-.103.491-.297-.02-.09-.226-.206-.39-.27-.359-.207.103-.155.563.18 1.586.645 1.976 1.342 5.72 1.458 7.84.09 1.75-.13 4.01-.439 4.492-.168.245-.555 1.832-.555 2.272 0 .092-.18.071-.645-.072-.877-.276-1.857-.256-3.341.051-1.548.328-1.677.317-2.284-.051-.27-.174-.606-.307-.748-.297-.155.01-1.625.01-3.277 0-2.903-.01-3.019-.02-3.083-.215-.039-.112-.31-.286-.607-.399-.4-.133-.593-.276-.71-.532a24.8 24.8 0 00-.373-.757c-.245-.44-.271-1.044-.103-2.18.103-.686.103-.737-.13-.737-.245 0-.464.47-.76 1.566-.065.276-.078.276-.465.112-.697-.276-.697-.02-.013.635.555.532 1.135 1.248 1.032 1.28-.026.01-.361.02-.748.03-1.084.03-1.716.491-3.032 2.19-.684.88-.49.91.245.03.336-.388.93-.93 1.342-1.207 1.2-.809 1.07-.768 1.742-.583.335.092.606.194.606.225 0 .112-1.148.685-2.129 1.074-1.096.44-1.458.645-1.316.747.117.103 1.394-.399 2.555-.992.722-.379 1.019-.471 1.019-.338 0 .03-.116.266-.245.532a8.187 8.187 0 00-.323.665c-.038.092-.27.277-.529.39-.593.275-.76.531-.567.818.142.215.142.215.361-.072.297-.389 1.535-1.35 1.96-1.525.569-.245 6.955-.747 6.955-.552 0 .03-.155.163-.336.307-.606.44-.929.962-1.264 2.067-.335 1.064-.335 1.668-.026 1.74.207.04.58-.573.723-1.157.167-.716.503-1.259.877-1.381.155-.052.284-.133.284-.174 0-.051.077-.082.167-.082.078 0 .323-.072.542-.164.413-.164 1.806-.45 3.2-.655 1.664-.235 3.986.225 4.967.993.567.46.67.767.387 1.187-.09.123-.18.245-.194.266-.013.01-.245-.102-.516-.266-.593-.368-1.806-.716-1.987-.573-.193.153 0 .42.4.532.542.143.684.42.503.982-.129.42-.374.727-.374.471 0-.123-.516-.522-.67-.522-.207 0-.09.573.206 1.075.18.276.284.542.258.583-.116.143-.374.092-.606-.123-.258-.235-.839-.266-1.2-.061-.245.153-.245.153.013.317.348.225 1.032.46 1.341.46.284 0 .426.216.271.41-.077.092-.36.112-1.174.051-.851-.061-1.277-.153-1.974-.42-.58-.225-1.07-.347-1.432-.347-.296 0-.812-.062-1.135-.144-.322-.071-.62-.123-.658-.092-.129.102-.955-.184-1.238-.43-.465-.389-.697-.337-.58.123.077.379.399.676.902.84.194.06.052.112-.58.214-.465.072-1.045.143-1.29.164-.44.04-.44.04-.09-.072.36-.112.464-.286.193-.307-.387-.03-.813.041-1.058.164-.155.072-.607.184-1.02.246a9.42 9.42 0 00-.85.153c-.053.03-.646.143-1.304.256-.658.123-1.354.297-1.535.389-.426.225-.916.379-2.645.798l-1.419.338-.452-.184c-.412-.174-.967-.369-1.96-.696-.259-.082-.388-.236-.568-.758-.4-1.095-.4-2.056-.026-3.274.18-.573.361-1.198.4-1.361.077-.287.065-.297-.103-.113-.194.195-.465 1.024-.465 1.433 0 .286-.31.522-.58.43-.207-.062-.71-.666-.697-.83 0-.06.065 0 .142.123.077.134.194.236.258.236.142 0 .129-.051-.077-.46-.155-.277-.194-1.075-.194-3.91-.013-1.954-.013-3.704-.013-3.868 0-.174-.09-.91-.206-1.658-.207-1.259-.207-1.392-.013-2.098.116-.409.31-1.412.413-2.23.116-.809.283-1.75.4-2.088.103-.328.18-.819.167-1.075a2.32 2.32 0 01.065-.675c.451-1.003.787-1.586 1.096-1.893.452-.42.633-.358.336.102-.116.174-.18.4-.155.491.039.133.09.092.206-.133.09-.163.246-.389.362-.48.103-.093.155-.216.116-.277-.116-.143.4-.246.916-.164.387.051 1.303.338 1.793.553.09.03.361.194.62.348.786.501.825.245.038-.328-.4-.307-.761-.624-.8-.726-.051-.133-.284-.205-.929-.266l-.851-.092.555-.287c.296-.153 1.174-.42 1.935-.593.774-.185 1.832-.502 2.348-.707.516-.215.98-.389 1.019-.399.039-.01.645.46 1.342 1.034zm43.412 1.166c0 1.77.736 3.562 1.613 3.93.426.184.516.092.206-.225-.168-.164-.232-.338-.18-.491.077-.215.09-.225.245-.051.09.102.258.153.361.122.18-.05.18-.112.013-.501-.09-.246-.271-.737-.387-1.095a7.339 7.339 0 00-.542-1.207c-.194-.297-.297-.574-.258-.604.09-.072.8.49 1.02.808.064.113.193.686.283 1.29.077.593.206 1.084.27 1.084.078 0 .194-.194.259-.44.103-.338.168-.41.297-.307.245.195.348 0 .103-.215-.142-.133-.194-.276-.142-.409.116-.307.323-.266.335.061.013.512.297.983.607 1.003.155.01.284-.04.284-.122 0-.072.064-.134.129-.134.232 0 1.148.502 1.277.696.18.266 1.703.942 2.787 1.238.503.134.98.287 1.07.348.336.205.142.287-.529.226-.529-.051-1.032-.01-2.103.194-2.206.42-3.586.778-3.792.982-.22.205-.865.4-.723.215.052-.061.065-.112.039-.112-.18 0-1.613.44-1.871.573-.335.174-.464.123-.593-.225-.065-.174.038-.277.554-.543.71-.358 1.265-.542 3.406-1.105.336-.092.607-.205.607-.256 0-.143-1.097.01-2.361.338-.839.215-1.406.297-2.103.297h-.955v-.717c0-.614.039-.726.271-.818.297-.133.284.123.039-3.408-.052-.819-.039-1.095.077-1.095.09 0 .13-.072.078-.153a.39.39 0 01.013-.318c.167-.348.296.133.296 1.146zm7.147.318c.375.245.723.307.723.143 0-.051.22 0 .49.113.258.102.465.235.452.286-.026.062.038.102.129.102.219 0 1.303.614 1.212.686-.038.02-.322-.072-.632-.205-.954-.44-2.296-.788-3.896-1.003-.838-.112-1.587-.184-1.677-.163-.18.061.503.276.877.276s2.516.44 2.877.594c.297.133 2.464 1.76 2.335 1.76-.038 0-.477-.205-.967-.46-.478-.257-.942-.461-1.02-.461-.077 0-.451-.133-.838-.307-.387-.164-.852-.307-1.045-.307-.18 0-.697-.092-1.135-.195-.439-.112-.865-.184-.955-.153-.077.02-.22-.143-.31-.379-.142-.358-.142-.45 0-.522.09-.05.813-.082 1.587-.061 1.252.03 1.47.061 1.793.256zm-5.74 1.115c.012.236-.052.573-.13.757-.129.277-.167.307-.27.164-.065-.102-.065-.235.025-.358.065-.113.13-.47.142-.798.013-.686.22-.481.232.235zm-2.697-.215v.46h-.903c-.49 0-.903-.04-.903-.091 0-.123 1.406-.83 1.638-.83.117 0 .168.154.168.461zm13.714.809c.284.05 1.071.85.942.962-.039.02-.232-.052-.426-.174-.193-.123-.735-.44-1.187-.706-.451-.267-.916-.594-1.032-.717-.155-.204-.064-.174.606.164.439.225.929.43 1.097.47zm-1.922.03c.503.215 1.148.533 1.445.707.284.174.735.378.993.44.271.071.477.174.477.225 0 .061-.051.071-.129.04-.309-.153-.077.082.516.522.362.267.646.522.646.584 0 .061-.104.03-.233-.062-.116-.092-.645-.296-1.161-.47-1.251-.4-3.083-1.525-3.509-2.15-.194-.286-.116-.276.955.164zm-11.805.359c-.013.245-.038.358-.077.266-.052-.154-.258-.185-1.432-.205-1.38-.03-1.38-.03-.8-.164.322-.071.722-.174.903-.225.18-.04.568-.082.877-.092l.542-.01-.013.43zm9.328.204a18.34 18.34 0 011.728.727 4.95 4.95 0 001.6.491c.878.113 2.116.553 2.503.9.335.297.206.277-1.006-.173-.568-.215-1.432-.481-1.922-.574-.942-.204-3.974-1.37-4.064-1.575-.078-.195.154-.154 1.16.204zm-12.076.45c-.064.134-.013.154.271.093.31-.062.323-.052.168.102-.245.235-.852.47-1.613.624-.606.133-.98.113-.529-.02.31-.092.245-.236-.077-.164l-.297.051.258-.235c.4-.369.993-.614 1.47-.614.336 0 .414.03.35.163zm13.017.676c.362.123.878.297 1.174.399.284.113.659.194.84.194.309.01 1.341.4 1.057.41-.077 0-.568-.072-1.07-.154-1.2-.204-2.671-.696-3.226-1.074l-.452-.307.516.164c.284.092.813.255 1.162.368zm-10.23 1.433c-.026.634-.103 1.197-.155 1.238-.052.051-.22.061-.374.02-.232-.05-.271-.143-.271-.685 0-.502.077-.727.4-1.167.22-.307.413-.553.426-.553.013 0 .013.522-.026 1.147zm-5.186-.799c0 .02-.284.185-.646.358-.709.349-.851.584-.283.482.193-.031.038.06-.362.225-.387.153-.748.317-.786.368-.052.051-.181.062-.297.03-.271-.081-.142-.306.464-.756.452-.349 1.91-.88 1.91-.707zm2.941.082c-.077.164-1.277.819-1.38.737-.104-.082 1.006-.86 1.238-.86.103 0 .168.052.142.123zm17.017.972c.567 1.106 1.251 2.119 1.716 2.538.554.512.606.614.348.696-.155.051-.516.88-.529 1.249-.013.133-.116.214-.297.235-.335.04-.413.4-.129.624.129.113.129.143 0 .184-.09.031-.167.093-.167.144 0 .061-.117.297-.259.522-.141.235-.232.511-.193.603.039.103.013.205-.052.246-.206.092-.013.993.271 1.238.22.195.22.225.039.348a.534.534 0 00-.194.4c0 .378.246 1.033.388 1.033.077 0 .129.112.129.256 0 .204.786 2.261 1.083 2.814.065.123-.142.194-.98.348-1.161.215-2.09.491-2.219.665-.129.154-.065.143.645-.113.542-.194.916-.235 2.58-.266l1.948-.04.078.388c.051.215.064.41.038.43-.026.02-.309-.02-.606-.082-.736-.163-2.348-.051-3.535.225-.49.123-1.535.46-2.322.747-.774.287-1.703.614-2.064.706-.349.103-.826.256-1.033.338-.464.184-.825.154-1.006-.082-.232-.286-.013-.47.929-.757.529-.164.916-.348.916-.43 0-.082-.064-.112-.129-.082-.077.041-.413.082-.761.103-.62.04-.645.02-.968-.369-.193-.215-.425-.399-.529-.399-.116 0-.193-.092-.193-.235 0-.287-.465-1.095-.62-1.095-.206 0-.541-1.228-.593-2.2-.051-.788-.245-1.075-.722-1.044-.362.02-.4.051-.336.286l.142.563c.039.184-.051.092-.27-.266-.298-.491-.31-.563-.13-.675.258-.144.258-.318 0-.43-.155-.072-.193-.205-.155-.522.026-.225.039-.42.026-.42-.013 0-.116-.03-.232-.06-.142-.042-.207-.011-.207.112 0 .153-.025.153-.206.04-.22-.143-.206-.972.013-1.36.09-.154.065-.185-.09-.134-.116.031-.297-.02-.413-.122-.258-.225-.271-.358-.026-.287a.24.24 0 00.27-.112c.078-.164.091-.164.207 0a.294.294 0 00.31.122c.103-.04.155-.112.103-.174-.051-.071 0-.081.155-.03.206.061.22.02.155-.338-.039-.276-.013-.42.103-.46.116-.031.078-.174-.155-.563-.284-.44-.361-.502-.567-.42-.349.154-.426-.061-.117-.307.31-.245.517-.266.517-.051 0 .082.09.154.206.154.142 0 .18.06.129.173-.039.103.129 0 .374-.225s.452-.47.452-.532c0-.072.142-.153.322-.194.439-.082.632-.287.413-.43-.116-.082-.31-.092-.62-.02-.593.143-.631.132-.631-.103 0-.112-.065-.204-.142-.204-.103 0-.09-.052.026-.164.154-.144.116-.164-.272-.123-.412.03-.464 0-.606-.328-.142-.327-.168-.337-.245-.133-.103.307-.413.297-.593-.02-.349-.604.103-.808 3.702-1.668 1.239-.297 3.574-.594 3.793-.481.065.03.426 0 .8-.072a29.192 29.192 0 011.471-.184c.426-.04.851-.082.942-.082.09-.01.258.154.374.358zm-17.378.041c0 .144-.13.246-.387.328-.207.061-.387.153-.387.194 0 .164.477.072.903-.174.503-.286.542-.266.761.338.09.246.258.512.4.604.31.215.22.42-.761 1.995-.439.686-.787 1.351-.787 1.484s-.09.41-.207.624c-.245.46-.438 1.26-.348 1.392.039.051.18-.102.323-.338.232-.399.619-.624.425-.245-.18.358-.219.542-.103.542.065 0 .323-.327.568-.737.245-.409.632-.962.864-1.238.245-.276.503-.645.568-.808l.142-.318.31.4c.167.225.541.757.825 1.207.27.44.555.86.62.921.05.061.141.246.193.42.051.163.193.49.335.716.503.88 1.329 2.487 1.574 3.06.142.337.555 1.074.916 1.637.58.91.658 1.116.684 1.71l.026.685-.503.061c-.336.041-.633.01-.89-.092-.207-.082-.465-.154-.581-.154-.103 0-.194-.071-.194-.153s-.103-.154-.232-.154c-.387 0-2.013-1.627-2.154-2.159-.052-.163-.142-.297-.207-.297-.18 0-.142.338.078.748.283.532.245.562-.142.112-.516-.604-1.471-2.528-1.471-2.978 0-.082-.078-.133-.155-.102-.09.02-.142.112-.116.184.026.082.142.42.27.757.117.338.298.727.388.87.103.143.194.276.194.307.012.03.09.225.18.44.22.502.09.604-.206.174a8.844 8.844 0 00-.632-.757c-.465-.512-.697-.993-1.084-2.333-.297-1.034-.555-1.259-.452-.41.026.266.026.4-.013.297-.167-.42-.503 0-.76.942l-.091.348.348-.215c.516-.328.684-.277.839.204.206.665.8 1.812.993 1.934.09.062.22.287.297.502.206.604.593.92 1.11.92.374 0 .464.052.619.359.103.194.283.358.387.358.116 0 .206.072.206.154s.13.204.297.266c.155.071.335.184.387.256a.335.335 0 00.232.143c.18 0 .503.266.503.41 0 .07-.103.091-.258.05-.18-.05-.258-.02-.258.103s-.077.153-.245.102c-.297-.072-.477.113-.284.287.065.071.09.245.052.368-.078.225-.052.235.297.174.206-.041.529-.164.735-.276.413-.236.606-.184.606.163 0 .174-.077.256-.284.277-.167.02-.31.112-.335.215-.039.153 0 .184.22.122.219-.05.27-.02.27.174 0 .164-.038.195-.116.103-.051-.082-.22-.133-.348-.123-.452.04-.568 0-.568-.205 0-.112-.038-.204-.103-.204-.052 0-.077.204-.052.46.026.256.104.46.168.46a.115.115 0 00.116-.112c0-.082.065-.082.194.01a.525.525 0 01.193.379c0 .245-.013.256-.284.112-.167-.081-.374-.286-.49-.44-.103-.153-.258-.276-.322-.276-.22.01-.233.328-.026.512.361.327.4.634.103.798-.387.215-.374.727.013.778.426.05-3.625 1.074-5.186 1.32a70.52 70.52 0 00-2.322.389c-1.368.276-1.587.297-4.284.47l-2.412.154-2.49-.4c-1.368-.214-2.838-.51-3.264-.654-.774-.266-.774-.266-.761-.686a.98.98 0 01.296-.696c.4-.399.723-.93.607-1.013-.13-.102-.503.297-.93 1.013-.193.328-.4.594-.45.594-.259 0 .709-1.596 1.2-2.016.219-.184.244-.266.128-.358-.206-.164-.193-.287.026-.287.09 0 .245-.071.335-.153.13-.123.117-.154-.077-.154-.168-.01-.129-.05.142-.143a.917.917 0 00.555-.512c.103-.215.142-.41.116-.44-.13-.092-.349.082-.349.287 0 .102-.051.194-.129.194-.064 0 0-.245.142-.542.439-.87 1.29-2.119 1.458-2.119.09 0 .168-.133.168-.296 0-.174.232-.573.58-.993a15.64 15.64 0 001.071-1.474c.271-.419.71-1.064.994-1.432.283-.369.632-.9.774-1.177.245-.491.98-1.556 1.6-2.303.167-.194.735-.706 1.277-1.125.967-.768 1.16-.993.748-.88-.13.03.116-.184.529-.491.49-.348.722-.584.658-.666-.052-.081.013-.184.18-.276.155-.082.271-.215.284-.276 0-.113.671-.573 1.768-1.218.258-.154.851-.4 1.316-.553.464-.143.98-.348 1.16-.46.426-.246.646-.246.646.02zm5.818 1.822c.09-.113.116-.092.116.072 0 .122-.09.276-.193.348a.501.501 0 00-.194.358c0 .511-.103.573-.658.337-.541-.225-.658-.48-.245-.563.142-.03.258-.143.258-.245 0-.246.387-.42.62-.266.129.082.206.072.296-.041zm-2.67.778c.077.174-.168.563-.349.563-.064 0-.232-.052-.387-.113-.27-.123-.27-.123.117-.358.438-.287.516-.297.619-.092zm-1.523.716c.09.297.026.389-.335.43-.206.02-.22-.01-.116-.307.064-.174.116-.338.116-.348 0-.02.052-.03.129-.03.064 0 .155.112.206.255zm2.297.48c.18.236 1.6 2.938 2.374 4.534.219.45.49.952.593 1.126.116.164.207.379.207.47 0 .083.051.195.116.257.154.112.89 1.494 1.522 2.803.245.533.658 1.29.903 1.679.516.798.49 1.064-.09 1.392-.413.235-.465.204-.245-.123.129-.195.116-.205-.194-.143-.297.06-.335.04-.335-.215 0-.164-.181-.655-.4-1.106-.22-.45-.503-1.054-.632-1.33-.13-.287-.452-.88-.71-1.33-.271-.45-.697-1.3-.968-1.893a53.853 53.853 0 00-1.083-2.2 24.062 24.062 0 01-.942-1.996 13.63 13.63 0 00-.632-1.423c-.168-.296-.31-.583-.31-.634 0-.194.645-.082.826.133zm-16.217 6.06c-.103.081-.27.357-.361.613-.155.41-.374.635-.374.379 0-.369.71-1.33.877-1.187.026.02-.026.112-.142.194zm31.724.94c.297 1.116.632 2.057.8 2.221.116.103.129.174.026.225-.104.052-.387-.327-.387-.542 0-.04-.207-.573-.452-1.177-.464-1.136-.58-1.75-.31-1.535.078.062.22.43.323.809zm-33.633 2.109c-.22.358-.478.716-.58.808-.104.082-.323.43-.504.768-.297.573-.31.583-.323.255 0-.378.684-1.442 1.342-2.077.22-.215.413-.389.439-.389.013 0-.155.287-.374.635zm35.117 2.23c.051.144.18.502.309.799.142.399.168.583.065.685-.078.072-.116.46-.103.911.025.614 0 .809-.155.88-.271.133-.426.123-.349-.03.026-.062.129-.113.207-.103.077.02.142-.04.142-.133 0-.102-.078-.143-.194-.102a.293.293 0 01-.309-.123c-.116-.143-.129-.112-.142.143 0 .184-.078.471-.181.666-.168.306-.181.317-.271.112-.129-.358-.322-.154-.322.338 0 .532-.155.89-.516 1.177-.336.266-.839.286-.71.02.052-.092.129-.297.168-.45.064-.338-.258-.491-.645-.297-.31.154-.491.061-.491-.235 0-.185-.09-.256-.348-.287a4.485 4.485 0 01-.58-.123c-.155-.061-.297.031-.542.318-.362.42-.452 1.105-.207 1.606.168.358.581.348.749-.02.129-.277.129-.277.141.092.013.532.529.808.529.286 0-.102.065-.215.142-.256.116-.05.129.103.065.584-.052.358-.116.675-.142.716-.103.123-1.381-.174-1.497-.348-.206-.276-.36-.204-.451.205-.13.604-.245.716-.426.45-.09-.123-.116-.256-.077-.307.038-.051 0-.225-.065-.378-.129-.267 0-1.689.207-2.272.064-.174.025-.225-.181-.225a.35.35 0 01-.335-.236c-.065-.184-.104-.205-.207-.071-.064.081-.129.286-.129.45 0 .286 0 .297-.258.112-.18-.133-.258-.317-.258-.624 0-.297-.064-.47-.206-.532-.168-.072-.181-.133-.078-.297.103-.143.103-.235 0-.317-.077-.061-.09-.164 0-.276.09-.133.142-.144.22-.062.051.082.206-.061.387-.378.193-.338.529-.655.954-.921.632-.4 1.832-.84 2.31-.84.116 0 .593-.143 1.058-.306.696-.236.993-.287 1.728-.277.839.02.903.041.994.276zm-45.619.512c.13.113.31.205.4.205.09 0 .245.082.335.184.09.102 1.187.85 2.426 1.668 2.412 1.596 3.29 2.262 1.651 1.259-1.883-1.146-3.483-2.037-4.347-2.405-.517-.225-.916-.47-1.02-.635-.284-.47.116-.665.555-.276zm35.478 1.556c-.051.307-.013.43.194.563.258.173.258.173-.026.409-.297.245-1.006.327-1.006.112 0-.061-.13-.225-.284-.358-.426-.358-.374-.818.168-1.29l.438-.388.297.287c.232.225.284.368.22.665zm-35.181-.123c.696.43 2.593 1.443 3.948 2.098.464.215.812.42.786.44-.103.082-4.799-1.842-5.276-2.15-.439-.276-.58-.572-.374-.726.142-.123.258-.082.916.338zm3.444.184c.22.102.645.246.942.317.31.072.542.154.503.184-.116.093-1.47-.266-1.78-.48-.387-.246-.18-.267.335-.02zm-3.096 1.535c1.574.737 2.787 1.228 4.051 1.607.516.163.968.358 1.006.43.04.061-.025.225-.129.337-.193.215-.193.215-.27.02-.052-.132-.233-.224-.504-.255-1.354-.154-2.683-.43-3.302-.686-.839-.327-1.432-.737-1.432-.972 0-.082-.22-.348-.49-.594a10.66 10.66 0 01-.672-.634c-.193-.194-.18-.194.13-.03.18.102.902.45 1.612.777zm5.819-.194c.31.153.451.163.567.081.116-.092.142-.081.103.072-.013.113-.219.277-.438.379l-.4.174-.826-.553c-.451-.307-.838-.604-.864-.655-.052-.123 1.303.246 1.858.502zm-12.386-.256c.245.276 1.097.491 2.13.542.85.051 1.083.02 1.586-.163.58-.226.851-.215.851.02 0 .072.168.205.388.297.219.102.412.286.464.46.103.348.284.543.516.543.09 0 .31.04.477.092.258.081.297.153.258.368-.051.184-.129.246-.283.205-.117-.03-.336.02-.478.102a1.194 1.194 0 01-.529.154c-.155 0-.31.04-.348.092-.039.05-.336.143-.658.204-.387.072-.671.215-.864.42-.155.174-.362.307-.452.307-.09 0-.245.113-.322.256-.078.143-.22.256-.297.256-.09 0-.323.163-.503.358-.194.194-.413.327-.504.296-.103-.03-.167.041-.167.185-.013 1.136-.039 1.228-.53 1.596-.477.348-.477.358-.128.297.193-.041.348-.051.348-.03 0 .112-.813.777-.929.777-.116 0-.103-.297.039-.716.026-.092-.052-.164-.22-.185-.18-.02-.309.052-.412.236-.194.327-.207.839-.026.92.077.042.103.154.065.257-.104.266.36 1.34.89 2.026.232.317.619.88.851 1.248.232.369.53.788.658.931.13.144.271.39.323.553.103.328.322.328-1.884-.01a24.179 24.179 0 00-2.387-.174c-1.432-.02-1.793.082-2.593.768l-.4.337.078 2.282c.038 1.259.038 2.344-.013 2.405-.168.246-.168.635 0 .604.193-.03.206.143 0 .245-.09.041-.233-.02-.349-.163-.116-.144-.567-.573-1.019-.972-.438-.39-.838-.82-.877-.952-.052-.123-.13-.225-.206-.225-.065 0-.813-.46-1.652-1.034-1.87-1.259-2.541-1.924-3.548-3.52-.4-.635-.529-.962-.8-2.006-.051-.235.375-1.535.942-2.855.116-.256.245-.634.297-.84.129-.47.903-1.289 2.296-2.445.89-.737 1.162-1.044 1.652-1.873.413-.716.529-.982.374-.941-.13.04-.18.02-.142-.062.026-.071.129-.143.232-.143.103-.01.232-.02.297-.03.077 0 .064-.062-.026-.134-.09-.071-.155-.153-.155-.194 0-.194.955-.501 2.065-.655.67-.092 1.522-.235 1.87-.317 1.252-.287 3.483-.287 3.754 0zm6.812.02c.284.154 1.2.543 2.064.87.865.328 1.471.594 1.368.604-.49 0-4.128-1.453-4.128-1.658 0-.143.18-.092.696.184zm31.015.471c.296.235.142.389-.774.737-2.078.778-4.658 1.504-7.535 2.108l-1.948.41h-2.76c-3.007 0-3.974-.134-1.704-.236 1.794-.082 4.813-.45 5.07-.624.246-.174.697-.256 2.052-.379.593-.051 1.342-.184 1.677-.287 4.27-1.37 4.838-1.555 5.096-1.708.323-.175.62-.185.826-.021zm5.65.266c.065.041.323.317.568.604.232.297.477.542.529.542.064 0 .077.379.039.85-.078.829-.065.86.387 1.473.516.696.696.84.851.645.103-.133.284-.102.658.112.155.093.271.062.542-.133.194-.143.348-.337.348-.43 0-.091.065-.163.129-.163.426 0-.412 1.105-.903 1.187-1.096.194-1.329.276-1.38.46-.052.144-.18.195-.555.195-.567 0-1.187-.338-1.07-.573.064-.133.141-.102.386.133.181.164.284.215.245.113-.051-.134-.012-.154.155-.113.116.03-.013-.133-.296-.368l-.517-.43-.077-1.351c-.064-1.105-.129-1.443-.361-1.842-.4-.675-.22-1.208.322-.91zm-3.173.276c0 .144-.065.706-.142 1.249-.13.9-.116 1.003.103 1.248.142.144.284.348.335.45.117.246-.025.45-.18.267-.168-.215-.736.082-1.071.563-.155.225-.361.43-.464.45-.233.061-.104-1.208.258-2.66.335-1.341.335-1.331.658-1.597.335-.297.503-.287.503.03zm1.677.45c0 .052-.09.144-.194.216-.335.214-.219.337.258.276.53-.072.607 0 .478.389-.13.348-.413.46-.413.163 0-.122-.052-.214-.116-.214-.18 0-.271.399-.271 1.279-.013.665-.039.767-.155.563-.077-.144-.142-.43-.168-.645a.957.957 0 00-.31-.624c-.373-.318-.348-.788.065-1.177.31-.297.826-.43.826-.225zm-6.45.922c0 .05.115.071.257.04.31-.06.336.042.039.297-.194.174-.194.185.013.185.18 0 .22.071.18.378-.038.338 0 .39.258.42.207.03.284.102.284.286s-.064.246-.284.246c-.283 0-.283.01.065.194.297.154.323.195.155.256-.168.051-.18.102-.052.276.103.164.103.287 0 .461-.22.4-.374.276-.297-.235.052-.42.04-.471-.154-.41a.818.818 0 01-.49-.04c-.336-.144-.684.071-.349.214.13.062.207.225.194.43l-.013.338-1.87.082c-1.897.071-5.458-.051-6.323-.225-.245-.052-1.148-.144-2-.215-.928-.072-1.754-.185-2.063-.297a6.336 6.336 0 00-1.058-.266c-.942-.123-3.677-.758-4.013-.931-.425-.226-.296-.277.4-.144 1.032.174 4.335.358 6.296.338 3.032-.03 4.632-.235 7.444-.972 1.329-.358 2.516-.635 2.645-.614.116.01.22-.03.22-.082 0-.061.115-.102.257-.102.142 0 .258.04.258.092zm-21.404.522c.245.061 1.058.399 1.806.767 3.42 1.699 7.032 2.722 11.018 3.132 1.342.133 7.29.143 8.296.01.36-.051.67-.072.67-.051 0 .02-.167.225-.387.46-.4.44-.503.788-.219.808.129 0 .129.021 0 .062-.232.072-.206.307.026.379.103.03.245-.02.31-.123.167-.236.245-.154.477.542.22.675.167.87-.194.87s-.438.164-.245.512c.206.378.31.389.464.02.078-.153.142-.205.142-.113.013.093-.103.39-.258.655-.154.287-.232.574-.193.727.09.256-.348 1.064-.555 1.064-.22 0-.245-.255-.064-.604.103-.184.18-.409.18-.48 0-.277-.193-.133-.425.296-.181.348-.194.502-.09.747.09.205.09.4.012.563-.064.133-.129.195-.129.123-.026-.276-.284-.655-.4-.593-.103.05-.09.112.013.214.103.103.103.185.013.277-.116.102-.077.184.116.317.155.102.232.245.194.338-.052.092.013.174.18.204.271.051.387.543.13.543-.065 0-.13-.103-.13-.215 0-.184-.026-.195-.193-.092-.155.102-.194.102-.194-.041 0-.092-.051-.164-.129-.164-.064 0-.129.061-.129.143 0 .082-.064.277-.142.44-.142.277-.142.287-.258.062l-.103-.225-.387.296c-.426.307-.529.573-.194.471.323-.102.594.184.452.481-.142.297-.361.42-.722.44-.142.01-.362.051-.478.092-.245.072-.245.041-.297-1.074a2.18 2.18 0 00-.219-.717c-.555-1.013-.774-1.555-.697-1.77a.55.55 0 00-.129-.47c-.116-.124-.167-.287-.129-.37.04-.081-.012-.347-.116-.583a5.883 5.883 0 01-.258-.726c-.103-.41-.58-.389-.58.03 0 .164-.052.308-.13.308-.064 0-.128-.092-.128-.195 0-.307-.245-.358-.323-.082-.064.164.013.369.245.625.387.45.568 1.002.349 1.064-.116.03-.103.082.013.204.129.123.129.164 0 .205-.104.02-.065.133.167.348.4.368.4.389 0 .86-.335.389-.413.655-.193.655.077 0 .129-.103.142-.236 0-.215.013-.215.142.031.064.143.206.389.31.563.128.215.154.399.064.624-.065.194-.065.379.013.491.077.113.077.277 0 .471-.117.246-.104.287.051.235.116-.03.18.02.18.164 0 .123.091.328.194.46.181.215.181.246 0 .369-.245.164-.245.307 0 .307.258 0 .4.491.207.727-.207.266-.18.368.103.43.245.05.464.603.258.665-.064.02-.116.122-.116.235 0 .112-.09.225-.206.266-.104.03-.168.123-.13.194.09.195-.103.185-.31-.01-.244-.225-.412-.071-.309.287l.078.317-.49-.328c-.93-.614-2.052-1.227-2.723-1.504-.735-.286-5.457-2.579-5.973-2.896a62.519 62.519 0 00-1.935-.993c-2.774-1.36-3.884-2.026-4.838-2.875-2.245-1.996-2.464-2.251-3.225-3.725-.194-.368-.426-.696-.517-.737-.18-.082-.064-.798.258-1.504.09-.225.155-.42.117-.45-.104-.082.322-1.607.58-2.057.13-.246.4-.532.58-.625.246-.133.323-.235.259-.388-.052-.113-.013-.236.09-.287.18-.092.361-.072 1.29.113zm-3.69-.01c.04.05.013.122-.064.163-.064.03-.13.174-.13.307 0 .307-.283.379-1.225.307-.619-.051-.89-.03-1.367.133-.336.113-.645.256-.684.317-.052.062-.206.113-.348.113-.194 0-.245-.072-.245-.4 0-.214.077-.44.167-.49.18-.123.865-.236 1.987-.328.439-.03.839-.102.89-.143.142-.102.93-.092 1.02.02zm32.253.49a3.746 3.746 0 01-.348.952 7.823 7.823 0 00-.426.9c-.322.83-.877 1.239-1.38 1.024-.374-.153-.258-.276.206-.215.555.072.684-.102.349-.44-.155-.153-.271-.337-.271-.41 0-.081-.142-.142-.323-.142-.18 0-.322-.052-.322-.103 0-.153.567-.122.851.051.13.082.31.154.387.154.18 0 .645-.829.839-1.484.142-.47.322-.767.464-.767.026 0 .013.215-.026.48zm-37.349.072c.09.103.104.215.04.317-.117.154-.143.154-.285.01-.103-.091-.258-.163-.348-.163-.103 0-.18-.041-.18-.082 0-.256.528-.307.773-.082zm-.825.727c.077.256-.078.552-.761 1.412-.426.542-.633 1.668-.49 2.579.064.337.116.532.128.43.013-.215.22-.226.323-.01.22.44.077.706-.645 1.217-.542.379-.71.573-.684.737.052.205.103.194.8-.235.413-.246.864-.45 1.006-.45.13 0 .245-.062.245-.134 0-.194 1.549-1.402 1.794-1.402.18.01.18.02-.013.144-.31.184-.284.266.064.266.568 0 1.51-1.034 1.51-1.658 0-.41-.31-.46-.903-.144-.761.4-.633.164.296-.521.723-.533 2.658-1.464 3.045-1.464.245 0 .155.215-.245.584-.22.184-.529.573-.71.849-.31.47-.735.85-.541.48.051-.101.128-.245.167-.327.039-.081.013-.153-.064-.153-.22 0-.426.41-.361.696.064.297-.362.85-.607.778-.077-.02-.284.173-.451.43-.349.511-.865 1.094-1.29 1.422-.142.123-.297.338-.336.491-.052.154-.464.604-.916 1.003-.826.737-.942.982-.374.808.245-.071.335-.05.477.123.31.358.607.174.53-.307-.065-.379-.04-.42.425-.675.27-.144.58-.266.67-.266.272 0 .53.624.452 1.084-.051.318-.012.46.168.604.142.102.4.532.58.962.246.594.375.768.543.747.141-.02.219.041.219.184 0 .113-.065.195-.142.174-.271-.04-.258.225 0 .338.335.133.348.46.051.604-.219.102-.219.102 0 .112.117 0 .22.072.22.154s-.065.153-.13.153c-.077 0-.05.103.052.236.181.215.207.655.194 3.346-.013.43-.258 1.556-.477 2.077-.104.277-.44.758-.736 1.075-.593.634-1.445 1.31-1.535 1.238-.039-.03.039-.327.168-.655.245-.604.49-2.23.425-2.691-.064-.379.336-1.904.633-2.415.141-.266.219-.512.18-.573-.039-.052.052-.45.194-.88.464-1.413.077-1.894-2.322-2.845-.671-.266-1.458-.522-1.742-.563-.439-.061-.542-.123-.839-.573a11.61 11.61 0 00-.684-.921c-.348-.42-.683-1.064-.864-1.678-.09-.267-.051-.502.13-.911.244-.563.347-1.075.45-2.487.026-.43.091-.91.143-1.054.064-.215.038-.266-.155-.266-.194 0-.168-.051.155-.317.206-.184.696-.522 1.083-.768.839-.532 1.368-.593 1.497-.194zm5.509-.082c.051.02.09.082.09.143 0 .123-.361.113-1.187-.03-.645-.113-.658-.123-.297-.195.361-.061 1.174-.02 1.394.082zm-1.78.727c-.375.43-1.73 1.35-1.949 1.35-.051 0-.039-.112 0-.256.078-.255.078-.255-.58.113-.568.307-.684.348-.839.225-.155-.112-.155-.194-.026-.42.09-.153.271-.276.387-.276.116 0 .31-.102.413-.225.284-.317.245-.491-.039-.215-.283.276-.4.297-.4.082 0-.215.31-.317 1.807-.563.748-.123 1.38-.245 1.406-.266a.34.34 0 01.168-.04c.051 0-.104.224-.349.49zm22.06 1.453c-.348.122-1.251.122-1.483 0-.13-.072.103-.103.774-.093.658 0 .89.031.71.093zm6.773.42c0 .06-.116.132-.245.163-.142.03-.27.143-.296.256-.052.266-.388.44-.658.358-.194-.062-.181-.102.077-.42.168-.204.413-.368.606-.399.181-.02.362-.05.426-.061.052 0 .09.04.09.102zm-27.995 1.514c0 .133-.039.215-.09.184-.04-.041-.155-.02-.258.051-.13.082-.22.082-.323 0-.168-.133 0-.358.232-.286.103.03.18.01.18-.041 0-.062-.064-.103-.141-.103-.103 0-.09-.05.013-.153.206-.195.387-.03.387.348zm3.535 3.12c1.974 1.761 3.444 2.692 7.03 4.463.517.255 1.407.706 1.988 1.002.58.297 1.277.635 1.548.748.27.112 1.2.573 2.064 1.023.864.46 1.91.962 2.322 1.136a7.89 7.89 0 011.484.829c.4.297.916.644 1.135.788.232.143.452.368.503.49l.09.246-.374-.184c-.71-.368-1.65-.9-1.935-1.105-.167-.112-.296-.143-.296-.082 0 .072.31.287.683.481 2.142 1.136 3.226 1.945 3.91 2.896.193.266.464.584.606.706.155.144.22.287.155.44-.078.195-.117.174-.53-.225-.232-.245-.438-.49-.438-.552 0-.246-2.606-2.6-2.877-2.6-.064 0-.284-.112-.49-.255-.684-.45-3.625-1.832-6.631-3.111-.53-.226-2.18-1.055-3.6-1.812-1.277-.675-4.335-2.578-4.335-2.691 0-.041-.49-.41-1.096-.819a12.518 12.518 0 01-2.077-1.77c-.852-.9-1.6-1.883-1.6-2.088 0-.133 1.87 1.259 2.76 2.047zm-3.084.717c.53.84.71 1.29.503 1.29-.051 0-.374-.123-.722-.277-.658-.286-1.2-.88-1.11-1.238.026-.133.155-.082.568.215.297.205.568.379.62.379.219 0 .025-.307-.426-.655-.568-.44-.865-.89-.736-1.146.117-.236.542.245 1.303 1.432zm1.11-.327c.258.522.18.624-.206.286-.168-.143-.272-.174-.336-.092-.142.184-.4-.286-.31-.532.155-.368.581-.194.852.338zm25.196 1.637c-.052.297-.142.583-.22.645-.128.112-.038-.89.104-1.075.168-.215.193-.082.116.43zM53 56.38c2.529.348 3.148.45 4.193.685 1.496.338 3.315 1.085 3.754 1.535.413.43.348.737-.452 2.18-.335.593-.67 1.187-.748 1.33-.116.185-.155.205-.155.072-.013-.092-.051-.174-.116-.174-.193 0-.412.85-.541 2.047-.065.665-.181 1.443-.259 1.709-.322 1.156-.993 2.497-1.148 2.292-.232-.287-.593.43-1.303 2.61-.284.89-.645 1.903-.787 2.23-.142.338-.232.717-.18.85.129.42-1.639 4.451-1.923 4.37-.09-.031-.206.184-.322.542-.271.941-1.097 2.077-1.69 2.343-.684.307-1.51.85-1.613 1.044a.19.19 0 00.078.235c.258.123-.388.215-.994.144-.374-.041-.568-.113-.568-.215 0-.184-.064-.184-.903.071-.387.123-.954.246-1.264.297-.426.051-.722.195-1.226.583-.374.287-.838.594-1.057.676a4.314 4.314 0 00-.865.522c-.31.245-.503.327-.568.245-.051-.061 0-.163.104-.225.103-.061.232-.368.284-.675.129-.819.554-2.733.916-4.093.18-.645.645-2.436 1.032-3.981 1.38-5.363 2.128-7.532 3.483-10.09 1.213-2.282 1.161-2.047 1.161-5.496 0-2.947.013-3.05.271-3.254.58-.47 1.884-.624 3.406-.41zm13.65.839c-.026.071.103.133.283.133.387.01 1.213.389 1.458.665.09.113.426.287.748.4.31.101.839.347 1.174.542 1.432.818 3.47 1.923 3.535 1.923.116 0 2.31 1.106 2.71 1.372a7.1 7.1 0 00.71.399c1.65.706 3.856 2.19 4.192 2.804.206.378.232.583.064.501-.064-.03-.154.062-.206.215-.052.194 0 .348.18.553.156.163.272.317.272.348 0 .03.116.143.258.255.27.215.335.614.129.911-.155.236.141.46.851.655l.503.143-.451.185c-.245.102-.542.194-.658.194-.194.01-1.02.501-1.02.614 0 .03.09.061.194.061.271 0 .245.174-.052.307-.348.144-.503.133-.554-.05-.026-.124-.168-.093-.71.122-.374.154-.684.317-.684.358 0 .041.233.082.516.082.284 0 .516.051.516.113 0 .061-.116.082-.258.04-.141-.04-.258-.02-.258.041 0 .062.09.113.194.113.27 0 .245.174-.065.307-.141.061-.258.205-.258.317 0 .184.026.184.336.062.18-.072.4-.246.477-.379.194-.297.568-.43.413-.143-.064.112-.116.552-.129.992-.013.44-.09.85-.18.921-.078.062-.142.215-.142.338 0 .123-.09.256-.207.287-.297.092-.361.01-.194-.225.194-.287.181-.328-.064-.328-.155 0-.18-.04-.09-.133.077-.061.167-.246.219-.41.13-.43-.245-.357-1.11.246l-.76.532-.388-.296-.374-.287v.256l-.013.246-.232-.236c-.284-.256-.529-.297-.529-.071 0 .082-.026.153-.064.153-.142 0-.58-.368-.58-.491 0-.072-.091-.246-.207-.379-.194-.235-.22-.235-.504-.092-.283.143-.36.143-.915-.051-.749-.266-.775-.266-.865 0-.051.164.013.235.297.317.529.144.632.471.245.727-.168.112-.297.235-.284.266.013.04-.335.051-.774.04-.439-.02-.864 0-.929.042-.18.112-.967 1.064-.967 1.177 0 .255 1.277-.082 1.445-.39.167-.286.735-.327 1.264-.091.18.081.606.143.942.153.529 0 .683.051.954.297.284.245.413.286.749.245.71-.092 1.587.185 3.973 1.27.155.071.387.132.516.132.116 0 .452.113.71.246.89.44 2.903 1.208 4.347 1.648 2.142.665 3.38 1.084 4.451 1.535 1.123.47 2.452 1.453 2.452 1.8 0 .257.335.605.593.605.13 0 .142.06.052.266-.18.368-.155 1.084.038 1.32.284.317.607 1.177.607 1.576 0 .48-.22 1.105-.426 1.207-.09.051-.323.297-.516.553-.18.266-.426.501-.516.532-.103.03-.503.44-.89.91-1.032 1.218-1.471 1.628-2.064 1.894-.542.245-.775.266-.426.03.103-.071.193-.184.193-.255 0-.072.09-.184.207-.256.103-.082.348-.338.529-.594.27-.368.31-.49.193-.644-.103-.133-.103-.267 0-.502.103-.256.103-.348-.026-.41-.245-.122-.09-.47.181-.429.245.041.465-.133.465-.368 0-.072-.104-.123-.22-.103-.387.051-.374-.48.013-.85.387-.357.413-.48.155-.562-.361-.112-.671.143-.826.686-.206.706-.516 1.187-.787 1.248-.142.03-.361.369-.645 1.003-.245.532-.542 1.146-.67 1.361-.143.225-.246.481-.246.563 0 .092-.09.256-.193.358-.104.113-.194.297-.194.41 0 .112-.168.347-.374.521-.348.287-1.432 1.822-1.432 2.037 0 .051-.258.542-.58 1.085-.31.552-.684 1.33-.826 1.74-.297.849-.452 1.023-.865 1.023-.167 0-.322.081-.374.194-.077.215-1.341.993-1.858 1.156-.748.236-.916.328-.864.46.142.277-.206.124-.413-.194a3.353 3.353 0 00-.58-.603c-.233-.174-.323-.297-.233-.338.078-.041.142-.235.142-.43 0-.204.065-.46.142-.583.194-.297 1.032-.993 1.213-.993.064 0 .297-.194.49-.44.194-.235.71-.757 1.136-1.146 1.044-.982 2.025-2.088 2.76-3.121.349-.481.736-.983.865-1.116.129-.133.232-.307.232-.388 0-.082.116-.236.245-.348.284-.236.774-1.249.877-1.812.04-.204.13-.46.194-.563.077-.122.077-.235-.013-.317-.077-.082-.116-.204-.077-.286.038-.082-.078-.256-.258-.39-.181-.132-.323-.316-.323-.409 0-.184-.413-.521-.864-.706-.168-.061-.297-.215-.297-.327 0-.154-.078-.195-.348-.174-.207.01-.49-.041-.645-.113-.22-.092-.362-.092-.568 0-.206.082-.4.072-.813-.04-.993-.287-1.69-.328-6.205-.338-5.328-.01-8.876-.205-10.025-.543-.36-.102-1.909-.092-2.128.02a.357.357 0 00-.168.287c0 .307-.542.46-1.148.318-.568-.144-.787-.358-1.097-1.116-.193-.46-.206-.655-.09-1.228.284-1.453.31-2.6.09-3.52-.116-.481-.206-1.085-.206-1.34 0-.543-.439-1.966-.71-2.303-.103-.123-.193-.317-.193-.44 0-.246.025-.246-.58-.051-.362.122-.517.133-.659.04-.142-.092-.18-.081-.18.052 0 .092-.104.163-.245.163-.142 0-.297.052-.349.113-.142.184-.348-.072-.245-.307.039-.123.194-.215.335-.215.13 0 .246-.061.246-.143 0-.082.193-.276.425-.44.4-.276.413-.307.194-.44-.22-.143-.22-.174.038-.768.142-.337.233-.706.194-.808-.039-.113.052-.358.194-.543.374-.47 1.122-.87.941-.501-.038.082-.013.174.052.205.116.061.348-.236.993-1.27.362-.583.645-1.831.465-1.974-.18-.144-.194-.819-.013-.737a.39.39 0 00.284-.01c.103-.052.077-.113-.09-.205-.181-.113-.194-.154-.052-.195.142-.04.18-.419.18-1.934 0-1.033-.038-1.913-.077-1.954-.052-.03-.026-.225.052-.42.103-.266.09-.45-.026-.716-.09-.194-.13-.491-.078-.655.04-.164.026-.389-.051-.501-.09-.113-.09-.226-.026-.256.065-.031.09-.154.052-.277-.04-.122.077-.48.283-.839.813-1.453.787-1.422 1.871-1.668.761-.163.916-.163.877-.02zM27.894 58.65c-.49.645-2.567 2.743-2.683 2.712-.271-.071-.232-.389.116-.941.348-.563 1.2-1.177 1.625-1.177.13 0 .387-.164.581-.358.335-.348.555-.491.361-.236zm13.288-.01c-.064.092.04.103.362.051.348-.05.477-.03.529.082.051.092.18.123.36.092.207-.05.362.01.556.185.154.143.503.317.787.388.283.082.683.246.877.38.206.132.426.245.503.245.155 0 1.432.91 1.51 1.074.025.051.348.47.722.921.916 1.116 1.045 1.423.851 2.057a5.9 5.9 0 01-.4.91c-.541.953-1.264 2.713-2.141 5.25-.116.359-.284.625-.361.604a.201.201 0 01-.142-.184c0-.123-.658-.358-2.064-.706-.84-.215-1.33-.46-2.09-1.064-.452-.338-.813-.676-.813-.727 0-.061-.207-.235-.465-.399-.335-.215-.438-.348-.387-.501.039-.123-.038-.307-.193-.46-.13-.144-.22-.277-.18-.308.038-.03.154.03.257.143.18.185.18.185.194-.061 0-.348-.168-.532-.426-.45-.168.05-.22 0-.22-.205 0-.184.052-.245.194-.205.155.052.194-.02.194-.327 0-.205-.078-.46-.181-.542-.413-.39-.645-3.009-.27-3.122.128-.03.193-.194.193-.46 0-.4.4-1.382.838-2.047.168-.266.245-.307.387-.215a.53.53 0 00.413.051c.22-.071.206-.081-.026-.153-.232-.061-.219-.082.13-.235.464-.195.632-.215.502-.062zm51.928 4.441c0 .164-.104.512-.245.758-.31.522-.31.532-.09.491.27-.04.257.532-.052.91-.207.277-.31.328-.387.226-.142-.164-.155-.635-.026-.737.168-.133.413-1.207.426-1.903.025-.645.025-.655.193-.358.103.163.18.44.18.613zm-84.232.952c0 .051-.439.328-.968.614-.529.297-.993.584-1.032.635-.039.061-.193.153-.348.215-.22.092-.245.082-.142-.041.103-.154 1.122-.89 1.767-1.28.375-.225.723-.296.723-.143zM91.73 65.61c-.348.43-.903.9-1.07.9-.078 0-.026-.102.103-.235 1.032-1.033 1.51-1.36.967-.665zm-3.315 1.146c.142.174.18.359.116.614-.065.297-.039.369.129.369.116 0 .206.04.206.102 0 .051-.051.102-.116.102-.064 0-.09.174-.052.379.065.481-.206 1.249-.515 1.402-.362.174-.49-.092-.272-.583.259-.584.233-.9-.077-.962-.142-.03-.258-.123-.258-.205 0-.123.039-.133.168-.04.206.132.348.05.348-.216 0-.204-.258-.266-.258-.061-.013.184-.387-.225-.387-.41 0-.081.078-.122.194-.081.219.061.245-.031.064-.39-.116-.245-.09-.265.194-.265.193 0 .4.092.516.245zM61.129 68.25c0 .195-1.071.983-1.639 1.218-.374.143-.529.266-.477.369.052.102-.039.184-.271.255-.503.154-.645.123-.413-.081.13-.103.18-.215.142-.256-.09-.072.439-1.28.594-1.351.193-.092.503.061.425.215-.103.235.232.163.865-.164.619-.327.774-.368.774-.205zm25.338 1.392c.09.174-.13.553-.31.553-.077 0-.129.05-.129.112s-.129.195-.284.297c-.27.174-.27.205-.103.624.09.246.232.502.284.573.077.072.051.236-.078.41l-.193.286.013-.337c.013-.195-.039-.38-.103-.41-.181-.112-.697-.91-.697-1.105 0-.102.064-.143.18-.113.117.031.271-.04.388-.194.116-.133.322-.246.464-.246.206 0 .258-.071.258-.307 0-.327.18-.409.31-.143zm-1.807.061c-.051.072-.116.4-.129.748-.013.337-.09.798-.154 1.013-.09.256-.09.47-.013.583.167.266.142.563-.078.706-.154.102-.206.092-.27-.04-.142-.287-.53-.195-.607.142-.09.348-.284.4-.387.103-.077-.225-.465-.277-.71-.082-.258.205-.335 0-.206-.532.077-.287.116-.512.077-.512-.025 0-.154.102-.296.225l-.245.236.077-.359c.077-.337.077-.348-.116-.153-.207.194-.207.194-.22-.133 0-.256.065-.358.297-.42.155-.05.413-.235.58-.409.35-.379.543-.41.543-.061 0 .215.064.255.387.255.219 0 .425 0 .477.01.232.021.142-.194-.116-.286-.284-.102-.271-.112.387-.624.67-.522.916-.655.722-.41zm-82.09.788c-.077.103-.284.901-.451 1.76-.181.87-.387 1.74-.465 1.935-.064.194-.129.48-.129.634 0 .184-.064.287-.193.287-.233 0-.258.532-.065 1.187.065.235.18.808.245 1.279a3.59 3.59 0 00.58 1.576c.246.4.62 1.105.84 1.576.335.737.36.829.141.675-.142-.102-.284-.266-.322-.368-.103-.256-.284-.246-.387.02-.078.174-.116.195-.207.082a.686.686 0 01-.116-.368c0-.164.052-.215.207-.164.167.051.154-.01-.065-.338-.155-.215-.27-.44-.27-.49 0-.052-.143-.38-.323-.727-.194-.4-.362-.993-.426-1.607-.065-.532-.168-1.044-.232-1.136-.155-.205.026-2.251.206-2.528.078-.102.078-.215.013-.245-.168-.082.516-1.945.774-2.067.065-.031.116-.144.116-.266 0-.267.374-.9.53-.9.077 0 .064.08 0 .194zm85.316.195c.038.051-.078.266-.233.501-.167.225-.425.737-.593 1.116-.413 1.033-1.29 2.466-1.935 3.131-.297.328-.606.594-.658.594-.168 0-.142-.062.232-.645.194-.297.349-.553.361-.583 0-.03.245-.42.53-.87.528-.808 1.25-2.282 1.406-2.845.077-.327.722-.614.89-.4zm-43.374.47c.555.082.632.205.477.737-.051.226-.116.584-.116.809 0 .44-.774 3.633-1.096 4.554-.104.307-.49 1.944-.852 3.633-.361 1.688-.684 3.09-.71 3.12-.116.083-.31-.245-.31-.531 0-.154.065-.307.13-.338.168-.082.168-.573 0-.767-.206-.246-.555.173-.464.583.025.184-.013.399-.117.511-.167.164-.18.123-.193-.409 0-.645-.194-.788-.336-.225-.077.338-.31.604-.31.368 0-.061-.077-.112-.18-.112s-.206-.051-.232-.113c-.078-.194-.606.082-.697.369-.116.378-.31.307-.219-.093.09-.43-.129-.542-.477-.266-.323.256-.387.256-.387.01 0-.102-.09-.245-.194-.317-.103-.071-.194-.214-.194-.317 0-.184-.116-.235-.451-.204-.077 0-.245-.185-.4-.43-.232-.39-.297-.43-.658-.4-.477.042-.658-.143-.374-.368.194-.153.206-.153.206.01 0 .093.065.175.13.175.154 0 .154-.021 0-.349-.065-.143-.207-.266-.297-.266-.104 0-.258-.112-.349-.255-.206-.297-.387-.338-.387-.082 0 .153-.026.164-.129.03a.864.864 0 01-.129-.44c0-.409-.206-.255-.31.236-.09.43-.335.48-.335.071 0-.133-.09-.327-.193-.46-.233-.256-.284-.635-.155-1.177.129-.48-.18-.532-.426-.072-.155.297-.18.308-.4.144-.142-.103-.245-.236-.245-.317a.137.137 0 00-.129-.134c-.077 0-.18-.102-.245-.235a4.849 4.849 0 00-.426-.593c-.206-.226-.348-.584-.413-.952-.09-.604-.36-1.157-.683-1.34-.22-.134-.078-.492.167-.42.116.03.181-.062.207-.328.026-.286.129-.42.425-.563.22-.102.852-.42 1.407-.695.567-.277 1.303-.574 1.638-.655.323-.093.697-.246.826-.359.31-.276 1.6-.593 2.89-.716.593-.061 1.187-.153 1.316-.205.516-.225 1.96-.266 2.954-.092a23.8 23.8 0 001.445.236zm11.534 3.92a7.302 7.302 0 01-.207.696 53.99 53.99 0 00-.593 1.801c-.258.829-.503 1.545-.555 1.596-.116.133-.761.44-.916.44-.22 0-.155-.245.374-1.289.284-.563.787-1.566 1.11-2.241.335-.675.632-1.259.67-1.31.142-.184.194-.04.117.307zm-25.932.614c.297.522.323.778.09.624-.232-.143-.36-.358-.477-.726-.129-.41.142-.338.387.102zM56.6 77.94c.078.133.233.236.336.236.116 0 .193.061.18.123-.064.44.439.542.852.184.129-.113.31-.205.4-.205.258 0 .477.389.387.675-.052.144-.026.246.051.246.065 0 .13.092.13.205 0 .276.232.256.296-.03.039-.206.052-.206.142-.042.078.123.039.246-.116.379-.258.225-.142.491.129.307.31-.205.361.092.065.45-.207.276-.284.573-.323 1.33-.052.942-.039.983.194.88.412-.174.593-.112.812.256.22.369.18.666-.103.666-.09 0-.193.071-.245.153-.103.215-.387.194-.658-.051-.194-.164-.206-.225-.064-.358.193-.185.18-.205-.271-.287-.271-.051-.362-.02-.478.184-.129.215-.206.246-.49.195-.336-.072-.348-.062-.258.307.052.204.065.368.026.368-.039 0-.233-.245-.413-.542-.194-.287-.477-.676-.645-.85-.452-.47-.852-1.248-.761-1.483.051-.113-.039-.44-.207-.758l-.284-.552.271-.809c.155-.45.284-.952.284-1.125 0-.256.052-.307.323-.287.18 0 .36.102.438.235zm-23.08.89c0 .031-.052.083-.129.113-.064.031-.129.01-.129-.04 0-.062.065-.113.13-.113.076 0 .128.02.128.04zm20.577 2.436c.078.154.271.246.49.266.233.02.4.113.478.277a.671.671 0 00.374.307c.155.03.271.122.271.194 0 .194-.542.358-1.548.47-.477.052-1.032.144-1.226.206-.193.06-.374.092-.4.081-.012-.02.078-.235.207-.49.129-.257.297-.605.387-.779.155-.327.58-.757.748-.757.052 0 .155.103.22.225zm-50.882.491c.207.164.374.369.374.45 0 .216.284.676.413.676.065 0 .026-.143-.09-.307-.258-.399-.065-.399.232 0 .232.307.207.512-.077.512-.155 0-.813-.727-1.174-1.31-.258-.41-.155-.42.322-.02zm49.025.492c-.349 1.064-.426 1.125-1.213 1.166-.477.02-.658.072-.632.174.013.072-.026.195-.116.277-.078.071-.103.184-.052.245.13.154 1.394.123 1.935-.061.258-.082.542-.133.62-.113.219.051-.903.594-1.652.788-.684.184-1.612.164-1.612-.04 0-.205.645-1.219 1.07-1.69.452-.5 1.6-1.442 1.768-1.442.051 0 0 .307-.116.696zm-2.27.808c-.788 1.085-1.162 1.504-1.2 1.34-.04-.184.58-1.033 1.109-1.514.477-.43.49-.389.09.174zm-1.304.46c-.116.287-.993 1.31-1.342 1.566l-.258.184.323.277.335.276-.98.379c-.555.204-1.058.368-1.123.368-.077 0-.103-.143-.038-.389.22-.93.27-1.35.18-1.35-.245 0-.903 2.363-.864 3.09.013.215.09.389.168.389.09 0 .258.082.374.194.297.256 1.638.727 2.245.788.438.041.451.041.154-.071a16.73 16.73 0 00-.903-.318c-.812-.276-.967-.348-.967-.44 0-.05.4-.245.89-.44a9.964 9.964 0 001.677-.941l.774-.583.774.388c.413.225.877.4 1.007.4.438 0 .993.296 1.083.583.168.491.026.563-2.864 1.412-.916.266-1.045.317-1.419.583-.258.184-.31.184-.761.041-.697-.235-.993-.194-.4.041.529.215.722.369.722.584 0 .235-.374.143-1.316-.328-.516-.256-1.044-.46-1.186-.46-.245 0-.245-.01-.052-.164.155-.123.258-.143.464-.051.568.235.517.081-.167-.625-.387-.409-.787-.941-.903-1.197-.181-.42-.168-.501.077-1.156.142-.39.245-.809.22-.931-.04-.205-.065-.195-.272.102-.116.184-.219.46-.219.614 0 .44-.284.685-1.225 1.044a13.96 13.96 0 01-.904.317c-.103 0-.064-.491.04-.532.05-.02.334-.256.644-.522.413-.358.53-.543.477-.696-.103-.256.426-.89 1.02-1.248.58-.348 2.76-1.136 3.083-1.126.155.01.335-.02.413-.072.064-.04.31-.102.516-.133.22-.02.439-.051.49-.061.065 0 .065.092.013.215zm-12.256.277c.129.112.62.327 1.084.47 1.251.4 1.251.4 1.29.758.038.245-.09.522-.465 1.013-.284.379-.658.9-.838 1.156-.194.266-.878.932-1.523 1.484-.645.563-1.277 1.136-1.393 1.29-.129.153-.62.552-1.11.87-.825.562-2.373 1.862-2.98 2.537l-.283.307.116-.552c.129-.665.335-1.187.632-1.576.129-.164.206-.369.168-.46-.026-.093.27-.707.658-1.351.387-.645.941-1.781 1.238-2.508 1.02-2.537 1.084-2.65 1.393-2.763.155-.05.323-.184.362-.286.09-.236.787-.584 1.16-.584.143 0 .375.093.491.195zm17.881.317c0 .051-.077.102-.155.102-.09 0-.516.144-.929.308-1.019.409-1.16.378-.464-.103.451-.317.684-.399 1.07-.41.259 0 .478.042.478.103zm2.206.502c.594.378.207 1.35-.838 2.159-.413.307-.504.337-.723.225a10.414 10.414 0 00-.864-.307c-.723-.215-2.103-.9-2.103-1.034 0-.143 2.077-1.013 2.657-1.125.852-.154 1.549-.133 1.871.082zm-13.869.736c.065.287.013.42-.258.676-.18.174-.503.368-.722.44-.413.133-.594.46-.452.808.052.144-.013.246-.245.369-.425.225-.877.839-.787 1.074.039.092.18.256.323.358.387.277.335.655-.116.778-.22.061-.594.358-.968.778-.851.931-.877 1.023-.22.757.388-.164.594-.327.736-.624.271-.543.568-.543.568 0 0 .215-.065.511-.142.655-.13.215-.103.348.155.777.258.43.425.563.916.748.71.266.735.44.116.736-.645.307-1.535.962-1.639 1.198-.038.112.013.276.13.378.283.246.283.492 0 .307-.414-.266-.465-.603-.181-1.054.31-.511.31-.573.077-.573-.103 0-.31.144-.477.317-.426.481-.284.973.606 2.006.4.481.864.911 1.02.972.386.144 2.902 2.272 4.205 3.562.58.593 1.432 1.371 1.884 1.729.451.358.813.686.813.727 0 .051.36.409.812.798a17.65 17.65 0 011.355 1.361c1.78 2.087 1.96 2.435 1.96 3.796 0 .85-.18 1.065-.322.389-.116-.542-.283-.603-.36-.122-.259 1.391-.259 1.483-.053 1.422.13-.041.22.02.271.164.078.194.116.163.323-.225.18-.348.245-.41.31-.277.051.103.09.297.09.44 0 .144.064.451.155.676.129.348.129.419-.078.532-.206.123-.193.153.09.399.504.43.671 1.074.504 1.883a29.67 29.67 0 00-.349 1.944c-.27 1.75-.632 2.374-1.367 2.374-.194 0-.49-.051-.658-.112-.348-.143-2.838-2.252-3.2-2.722-.425-.563-.67-1.259-.503-1.423.116-.112.103-.184-.064-.327-.194-.174-.168-.205.322-.461.336-.174.594-.245.684-.194.077.051.413.143.748.215.516.092.697.092 1.084-.041.297-.092.529-.123.62-.062.219.144 2.038.318 2.257.215.142-.061.065-.102-.31-.153a4.782 4.782 0 01-.89-.225c-.206-.082-.748-.195-1.2-.246-1.728-.194-2.619-.737-2.619-1.607 0-.419.323-.839.645-.839.065 0 .22-.143.336-.317.142-.235.232-.286.31-.194.077.092.167.041.322-.195.116-.184.194-.348.168-.368-.026-.01-.568-.236-1.226-.502-.645-.255-1.277-.573-1.38-.695-.116-.123-.207-.174-.207-.103 0 .062-.064.123-.142.123-.09 0-.116-.123-.064-.348.103-.45-.723-3.111-1.148-3.694-.374-.522-3.11-2.64-4.18-3.234a67.301 67.301 0 00-1.858-.993c-1.38-.706-1.987-1.187-3.019-2.404-.477-.543-.903-.993-.968-.993-.167 0-.116.194.104.47.31.369.142.41-.245.042-.181-.164-.413-.307-.53-.307-.632 0-2.064-.788-3.044-1.679-.735-.665-.645-1.842.194-2.466.232-.174.464-.42.503-.542.051-.133.374-.359.696-.512.62-.276 3.329-2.436 3.896-3.09.168-.195.594-.604.93-.911.348-.297.864-.931 1.16-1.433.284-.48.594-.91.671-.952.297-.153.916-.081 2.49.277.374.092.53-.277.232-.625-.116-.133-.167-.296-.116-.358.13-.174.439.133.516.532zm7.057-.05c.4.194.736.409.736.46 0 .05.193.153.425.235.22.072 1.071.46 1.884.86.8.409 1.574.757 1.716.798.335.082.232.266-.207.358-.27.061-.464.02-.825-.184-.258-.133-1.161-.532-2-.87-.839-.338-1.561-.686-1.6-.757-.038-.082-.283-.184-.554-.246-.271-.061-.62-.184-.787-.297-.284-.184-.284-.184-.04-.45.13-.153.31-.276.375-.276.077 0 .465.164.877.368zm32.86.255c0 .154-.336.819-.903 1.78-.323.563-1.768 3.419-2.155 4.299-.18.389-.555 1.402-.826 2.251-.658 2.047-.748 2.303-.825 2.63-.065.287-.478.4-.645.184-.039-.061-.246-.102-.439-.102-.206 0-.58-.072-.826-.154-.967-.317-2.464-.122-3.173.4-.258.194-.813.593-1.239.89-.426.297-.813.614-.864.716-.09.174-.349.348-.426.287-.013-.02.077-.318.22-.655.167-.4.245-.86.232-1.3-.013-.552.025-.686.167-.634.207.061.297-.215.413-1.26.078-.767.22-1.421.53-2.588.193-.757.244-1.023.347-1.77.04-.215.233-.584.439-.82.22-.234.593-.736.864-1.115.53-.767.852-1.043.852-.736 0 .174.013.174.206-.02.194-.185.194-.185.116.06-.245.747-.245.778-.025.625.193-.123.219-.113.219.082 0 .112-.078.215-.168.215-.129 0-.167.174-.129.716.026.47-.026.85-.142 1.074-.374.686.013.348.684-.614.374-.542.826-1.054.993-1.146.246-.123.284-.194.168-.297-.168-.153-.103-.245.62-.849.219-.194.438-.47.49-.614.09-.307.812-.931 1.058-.931.103 0 .464-.164.825-.358.361-.195.839-.369 1.058-.4.232-.03.632-.071.916-.102l.49-.05-.09.357a2.61 2.61 0 01-.155.512c-.038.082-.013.143.065.143.064 0 .168-.123.22-.276.038-.154.167-.44.27-.635.18-.337.194-.337.374-.153.103.102.194.266.194.358zm2.36-.205c.155.062.413.205.568.318.155.112.336.174.4.143.349-.164 1.316 1.207 1.316 1.842 0 .46-.426 1.453-.89 2.067-.194.266-.568.778-.826 1.146-.245.369-.67.84-.929 1.054-.258.215-.774.768-1.148 1.228a8.433 8.433 0 01-1.638 1.505A68.789 68.789 0 0079.5 96.36c-1.135.92-1.6 1.207-1.6.992 0-.03.103-.184.245-.327.142-.174.233-.45.233-.758 0-.266.064-.542.141-.624.078-.071.323-.522.516-1.003.84-1.924 1.226-2.712 1.471-2.988.142-.153.22-.348.18-.44-.038-.082.298-.737.75-1.453.812-1.29 2.05-3.398 2.438-4.145.219-.409.503-.48 1.032-.266zm-36.549.706c.246.123.078.246-.554.41-.258.061-.761.276-1.11.46-.76.42-1.303.553-1.303.338 0-.215.31-.4 1.42-.89 1.006-.43 1.225-.481 1.547-.318zm-4.54 1.505c.05.286-.35.501-1.433.757-.813.205-1.316.195-.864-.01.103-.051.606-.297 1.096-.553.504-.256.968-.45 1.033-.43.077.01.141.123.167.236zm.373.757c.181.143.078.4-.167.4-.09 0-.594.296-1.11.664-.864.614-1.432.87-1.6.737-.283-.225.994-1.422 1.82-1.72.619-.214.864-.234 1.057-.08zm2.787 2.569c.194.112.348.255.348.317 0 .112-1.586 1.003-2.296 1.29-.168.07-.748.184-1.29.265-1.02.133-1.239.113-1.729-.235-.374-.256-.27-.553.413-1.218.361-.348.645-.675.645-.726 0-.174.748-.655.8-.522.039.102.129.092.361-.041.284-.154.336-.143 1.342.256.568.225 1.2.501 1.406.614zm-4.296-.471c0 .03-.194.245-.413.48-.232.226-.555.584-.71.779-.232.296-.283.327-.296.153-.013-.614.632-1.474 1.11-1.474.167 0 .309.031.309.062zm43.967 3.48c-.155.327-.27.634-.258.664 0 .041-.103.154-.232.246-.245.174-.258.174-.258.01 0-.256.955-1.872 1.006-1.688.026.092-.09.43-.258.767zm-79.368.603c-.245.522-.27.154-.039-.532.142-.44.155-.46.194-.184.013.174-.052.49-.155.716zm.813.317c.013.666-.039.983-.18 1.126-.181.184-.181.184-.207-.061l-.013-.256-.103.256c-.052.143-.116.808-.13 1.483-.012 1.136-.038 1.208-.193.911-.103-.174-.22-.655-.258-1.074-.064-.635-.026-.921.258-1.78.194-.564.413-1.219.503-1.464.194-.614.31-.297.323.86zm19.468 2.661l-.155.297-.052-.369a1.474 1.474 0 01.13-.665l.154-.297.052.369c.013.194-.039.491-.13.665zm48.147-.358c0 .051.065.071.129.04.206-.102.62.052.71.257.09.235 0 .388-.916 1.401l-.723.799.052.921c.038.829.013.921-.18.911-.181-.011-.207.04-.156.225.116.358 0 .307-.4-.215l-.374-.461-.155.307c-.219.41-.36.389-.258-.041.065-.286.04-.378-.167-.46-.142-.062-.349-.082-.452-.051-.142.041-.206.01-.206-.103 0-.204.606-1.003.851-1.115.155-.072.955-.952.955-1.054 0-.02-.078-.041-.18-.041-.104 0-.388.225-.633.501-.542.584-1.213.921-1.342.655-.038-.092 0-.215.104-.276.258-.164.541-.583.438-.655-.051-.04-.22.051-.374.205-.155.163-.348.286-.426.286-.077 0-.18.072-.219.164-.039.082-.129.123-.206.092-.233-.112-.142-.245.27-.41.22-.091.826-.48 1.342-.859 1.187-.87 2.516-1.412 2.516-1.023zM77.9 99.03c0 .226.245.43.516.43.116 0 .271.144.362.338.206.45.193.481-.078.481-.129 0-.348.072-.49.153a1.14 1.14 0 01-.516.154c-.142 0-.374.072-.516.153-.323.195-.439.195-.439-.01 0-.123-.064-.143-.22-.092-.412.143-1.031.174-1.122.061-.116-.153.155-.521.374-.521.104 0 .194-.072.194-.154 0-.092.09-.153.206-.133.142.02.271-.092.375-.327l.154-.359.168.277c.168.276.645.409.645.184 0-.061-.103-.102-.22-.102-.219-.01-.219-.01 0-.113.156-.072.194-.174.143-.358-.065-.205-.026-.246.193-.246.18 0 .271.062.271.184zm-35.323 4.247c.425.389.567.471.593.338.052-.174.065-.174.297 0a.662.662 0 01.245.461c0 .194.077.307.258.347.271.072.903.84.903 1.085 0 .082-.142 0-.296-.164-.155-.174-.852-.788-1.562-1.381a112.955 112.955 0 01-1.935-1.689l-.658-.614.8.543c.439.297 1.058.778 1.355 1.074zm26.886 4.851c-.026.327-.065.655-.065.727-.013.071-.064.102-.142.071-.27-.133-.09-1.381.194-1.381.039 0 .039.266.013.583zm-40.652 11.84c.13.348.155.542.065.614-.09.072-.13.031-.13-.113 0-.112-.115-.409-.257-.655-.142-.245-.258-.521-.245-.603 0-.277.36.215.567.757zm10.037 3.305c.207.573.194.778-.026.584-.154-.123-.4-1.167-.27-1.167.051 0 .18.266.296.583z" fill="#000"/><path d="M35.752 22.107c-.348 1.075-.49 1.924-.374 2.293.052.153.116.255.142.235.103-.072.594-2.968.555-3.193-.026-.123-.168.184-.323.665zm18.127-.512c-.336.154-.284.368.116.522.451.174.503.327.155.45-.271.102-.271.113-.052.287.13.092.348.163.49.143.542-.061.336-1.28-.232-1.453-.258-.072-.206-.082-.477.051zM42.036 22.68c.064.153.219.501.348.778.168.358.194.522.09.655-.09.122-.077.317.039.685.09.287.168.932.155 1.443-.013.502.051 1.3.142 1.77.09.471.129 1.239.103 1.72-.052.86-.052.87.193.675.181-.153.284-.43.362-1.074.064-.471.167-.993.245-1.146.116-.246.103-.308-.065-.39-.245-.102-.167-.572.142-.972.232-.286.503-.307.31-.03-.155.245-.168.317-.013.317.168 0 .49-.829.658-1.637.168-.84.168-.819-.052-.819-.129 0-.206.205-.27.686-.104.777-.168.951-.349.951-.09 0-.103-.358-.039-1.023.065-.778.052-1.023-.064-1.023-.103 0-.13-.092-.078-.266.065-.195.04-.256-.077-.215-.116.03-.168.225-.155.624.026.675-.142.747-.335.133a5.669 5.669 0 00-.813-1.648c-.348-.501-.645-.614-.477-.194zm4.541-.154c-.207.164-.194.645.025.788.284.185 1.033.103 1.084-.112.039-.154-.026-.174-.322-.123-.53.082-.813-.184-.49-.47.18-.164.193-.205.051-.205a.647.647 0 00-.348.122zm8.101.881c0 .051.155.379.336.737.18.348.374 1.023.451 1.504.117.85.362 1.443.478 1.177.026-.061.103-.123.168-.123.206 0 .129.317-.142.594-.181.174-.22.296-.142.358.206.164.774-.082.916-.4.193-.388.026-.726-.478-.961-.413-.195-.451-.246-.387-.594.052-.297-.051-.604-.464-1.381-.465-.86-.736-1.198-.736-.911zm-7.301 3.755c-.336.41-.013.972.58.972.426 0 .555-.082.748-.44.181-.317.168-.317-.27-.164-.259.092-.375.092-.53-.01-.18-.123-.18-.154 0-.307.259-.225.246-.307-.064-.307-.142 0-.348.113-.464.256zm-12.786 2.047c.013 1.135.078 1.81.181 1.944.129.164.142-.154.077-1.535-.103-2.323-.296-2.63-.258-.41zm21.572-.349c.051.584.141 1.474.18 1.986.065.777.116.92.284.89.116-.01.245.041.297.133.064.154.026.194-.568.553-.439.266-.27.358.374.215.361-.072.594-.195.684-.369.129-.215.09-.307-.258-.685-.361-.4-.413-.553-.542-1.668-.18-1.576-.258-1.976-.426-2.057-.09-.041-.09.286-.026 1.002zm-7.548 3.06c-.542.43-.129 1.228.568 1.085.438-.082.619-.378.516-.88-.078-.368-.116-.41-.452-.41-.206 0-.49.093-.632.206zm7.831 1.597c-.168 1.29-.155 3.142 0 3.183.284.082.477-.42.31-.798-.09-.215-.117-.727-.065-1.474.052-.716.039-1.218-.039-1.33-.116-.154-.154-.072-.206.42zm-9.921 8.443c-.361.215-.361.44-.013.675.142.092.323.082.761-.04.465-.124.568-.195.568-.4 0-.174-.103-.276-.335-.348-.452-.143-.58-.123-.98.113zm-2.425.511c-.206.297.052.502.645.502.645 0 .903-.236.58-.512-.322-.276-1.044-.276-1.225.01zM96.995 29.25c-.104.05-.684.112-1.29.153-1.458.092-1.974.225-2.62.686l-.541.389.426.071c.348.051.412.113.412.358 0 .154.065.318.13.348.077.031.128 0 .128-.081 0-.277.504-.277.723-.01a.746.746 0 00.516.245c.155 0 .335.051.374.102.052.062.284.082.555.051.335-.05.426-.03.296.031-.206.123-.541.819-.412.88.051.03.451.082.903.123.645.051.838.113.877.256.065.164.103.153.439-.113.335-.266.374-.358.374-.992v-.696l.245.358c.129.194.206.42.168.501-.039.092-.013.123.077.072.206-.102.194-.85 0-.952a1.078 1.078 0 00-.361-.082c-.142 0-.194-.112-.194-.378-.013-.215-.077-.44-.167-.512-.09-.072-.155-.246-.155-.41 0-.378-.465-.593-.903-.398zm.955 3.848c-.194.225-.194.286-.026.44.27.256.503.737.425.85-.051.05-.013.091.052.091.155 0 .193-.163.155-.777-.026-.236.026-.461.116-.502.103-.051.103-.102-.013-.215-.22-.215-.477-.174-.71.113zm-27.777 6.364c-.413.666-.645 1.157-.542 1.157.168 0 .49-.43.787-1.023.297-.594.116-.696-.245-.133zm-14.411 5.66c-.503.153-3.419.511-4.231.511-.452 0-1.33-.071-1.974-.163-.645-.082-1.458-.143-1.794-.123l-.632.03.516.082c.284.041.839.134 1.226.205 1.045.184 4.232.143 5.419-.071 1.586-.287 1.935-.369 1.935-.471 0-.123-.103-.123-.465 0zm-8.824 1.627c0 .184.542.388 1.174.45.71.072 1.277.266 1.277.43 0 .133.542.358.839.358.09 0 .348.123.567.266.826.553 2.993.941 3.806.696.426-.133.194-.256-.348-.195-.71.082-1.497-.153-3.445-1.023-.812-.368-1.69-.686-1.935-.716-.697-.082-1.458-.226-1.703-.307-.142-.041-.232-.031-.232.04z" fill="#000"/><path d="M52.06 47.895c.283.225 2.36.41 2.36.215 0-.082-1.586-.328-2.154-.328-.258 0-.31.031-.206.113zm31.324 3.93c-.18.133-.323.327-.323.42 0 .133.052.112.258-.072.271-.266.336-.205.13.112-.104.144-.065.256.18.481.22.205.284.348.193.45-.193.236-.129.308.155.185.22-.092.297-.082.387.02.18.225.142-.04-.077-.532-.116-.245-.168-.563-.13-.716.052-.174.014-.328-.128-.44-.271-.215-.271-.215-.645.092zm5.831.45c-.116.44-.116.829.013.829.052 0 .207-.072.336-.154.232-.143.232-.163.051-.286-.116-.061-.232-.266-.258-.43l-.039-.307-.103.348zm-8.927 29.268c-.142.05-1.007.112-1.935.153-.916.041-1.923.143-2.22.225-.58.143-1.109.174-3.38.154-.98-.01-1.587.04-2.309.194-1.406.307-1.574.43-.503.379.477-.031.864-.01.864.04 0 .134.878.113.93-.02.025-.061.257.01.528.154.555.296.787.317 1.252.112.18-.082.49-.143.683-.153.349 0 .362.02.271.358-.051.235-.026.358.065.358.077 0 .142-.092.142-.194 0-.277.129-.318 1.11-.338.76-.02.864-.051.967-.256.077-.174.206-.235.503-.235.387 0 .387 0 .18.256-.129.153-.154.255-.064.255.077 0 .142-.05.142-.102 0-.061.193-.082.516-.04.426.05.516.04.516-.103 0-.092-.09-.164-.22-.164-.193 0-.193-.02.014-.194.141-.123.387-.195.658-.185l.438.01-.387.349c-.503.45-.387.542.194.163 1.316-.86 1.574-.91 3.225-.603a8.014 8.014 0 001.458.143c.348-.01.787.04.98.102.452.143.478.143.478.01 0-.255-1.33-.501-3.638-.675-.49-.04-.878-.112-.878-.153 0-.113-.232-.113-.58 0zm-41.542 7.173c-.774.829-1.136 1.075-.774.512.245-.39.077-.4-.271-.031-.813.87-1.187 1.35-1.123 1.402.04.03.155.01.258-.061.09-.062.207-.082.246-.062.038.03-.349.41-.839.83-.826.705-.903.746-.826.46.103-.42-.142-.307-.477.235-.142.215-.348.4-.452.4-.206 0-.283.163-.387.971-.103.778.065 1.177.504 1.177.4 0 .516-.143.27-.307-.258-.174-.245-.399.065-.767.142-.174.258-.39.258-.492 0-.112.67-.747 1.484-1.432.812-.676 1.483-1.27 1.483-1.32 0-.052.271-.39.594-.747.322-.359.632-.788.696-.942.052-.153.142-.368.194-.47.206-.41-.194-.124-.903.644zm1.974-40.064c-.349.553-.916 1.32-1.149 1.607-.142.143-.245.307-.245.358 0 .04-.18.266-.387.48-.606.635-1.522 2.774-2.077 4.82-.129.482-.155 1.137-.039 1.044.052-.03.361-.9.697-1.934.851-2.61 1.02-3.019 1.561-3.663 1.161-1.402 1.535-1.883 1.535-2.016 0-.082.09-.287.207-.45.103-.174.167-.369.142-.43-.026-.062-.13.02-.246.184zm-3.716 3.726c0 .112-.052.225-.116.255-.116.062-.452 1.556-.387 1.75.013.052-.039.236-.116.39-.245.47-.336 1.104-.168 1.186.103.051.052.287-.18.819-.168.42-.44 1.105-.594 1.535-.155.43-.645 1.402-1.084 2.16-.451.757-.903 1.606-1.032 1.892a5.618 5.618 0 01-.542.952c-.387.542-.31.675.13.205.283-.297.619-.88 1.509-2.64.129-.256.503-.86.813-1.361.322-.492.619-1.075.67-1.29.052-.225.155-.43.246-.45.193-.062.4-.88.593-2.272.064-.512.245-1.402.4-1.985.142-.573.232-1.116.193-1.197-.103-.215-.335-.174-.335.05zM12.621 65.312c-.168.236-.477.624-.684.87-.516.614-.348.655.207.051.425-.47.916-1.248.825-1.32-.025-.02-.18.154-.348.4zm10.837 1.577c-.013.05-.064.43-.142.849-.206 1.29-.361 5.976-.193 6.058.36.195 1.625-.051 3.69-.737 1.212-.399 2.54-.736 4.192-1.064 1.47-.297 2.774-.645 3.819-1.013.735-.266 3.677-.89 4.167-.89.155 0 .4-.072.542-.164.232-.143.18-.154-.658-.102-1.239.061-2.619.358-4.877 1.033a51.835 51.835 0 01-3.418.89c-.826.164-2.349.553-3.38.84-1.033.296-2.284.634-2.8.747l-.916.204.038-2.261c.026-1.249.104-2.722.181-3.275.065-.563.103-1.054.065-1.105-.078-.103-.31-.113-.31-.01zm-19.92 5.883c-.116.348-.09.9.04.9.141 0 .257-.94.141-1.053-.052-.051-.129.02-.18.153zm-.516 1.986c-.155.317-.077.85.258 1.74.18.501.413 1.258.53 1.678.27 1.115.644 2.077.89 2.302.167.174.193.184.128.02a16.26 16.26 0 01-.67-2.322c-.09-.481-.323-1.29-.49-1.791-.181-.512-.323-1.095-.323-1.3-.013-.409-.194-.593-.323-.327zm3.2.613c.142.481.967 2.14 1.174 2.354.335.348.22-.051-.31-1.033-.284-.522-.555-1.065-.606-1.218-.039-.144-.142-.297-.22-.338-.077-.04-.103.041-.038.236zm2.051 3.081c.039.153 0 .235-.142.256-.155.02-.064.163.374.532 1.342 1.197 3.458 2.865 3.548 2.804.039-.041-.58-.614-1.38-1.29-.813-.665-1.69-1.504-1.974-1.872-.271-.359-.465-.553-.426-.43zm-1.638 2.201c.038.132.167.358.258.5.09.154.374.727.632 1.28.67 1.443.684 1.484.696 1.146.026-.501-1.354-3.152-1.625-3.152-.026 0-.013.103.039.225zm3.87 1.841c.426.358 1.032.91 1.329 1.238.632.655.89.717.348.072-.425-.512-2.129-1.944-2.31-1.944-.076 0 .22.286.633.634zm-2.838 3.224c.619.839.929 1.156.774.798-.155-.338-1.136-1.587-1.252-1.587-.051 0 .155.359.478.788zm3.018 3.213c0 .082.181.379.4.635.4.48 1.007 1.709 1.02 2.036 0 .102.064.184.129.184.193 0 .155-.204-.13-.87-.219-.511-.85-1.484-1.29-1.995-.103-.133-.129-.133-.129.01zm.13 1.35c0 .123.645 1.853.71 1.904.115.082.064-.154-.194-.972-.142-.44-.323-.85-.387-.9-.078-.062-.13-.073-.13-.032zm2.502 1.055c.039.092.078.614.078 1.177 0 .603.051 1.013.129 1.013.077 0 .129-.328.129-.798 0-.942-.117-1.556-.284-1.556-.078 0-.09.072-.052.164zm-4.037 3.06c0 .164.103.88.232 1.586.18.993.258 1.218.335.993.09-.277-.245-2.252-.464-2.681-.078-.174-.104-.154-.104.102zm3.805 1.391c-.116.297-.206.614-.206.696.013.328.374-.205.464-.675.117-.645-.025-.655-.258-.02zm-1.883-.245c.025.194.335 1.054.425 1.115.052.041.09-.04.09-.174 0-.368-.257-1.013-.386-1.013-.078 0-.13.03-.13.072zm4.231.91c-.168.205-.245 1.208-.129 1.525.103.276.13.246.207-.358.116-.737.064-1.34-.078-1.167zm-6.025 2.395c-.013.747.18 1.198.903 2.078.374.46.93 1.228 1.239 1.709.516.818.555.921.542 1.688-.026.942-.207.624-.232-.389-.013-.348-.065-.583-.155-.583-.104 0-.116.307-.052.993l.116 1.668c.013.368.103.869.194 1.125.09.256.22.635.284.839.09.287.193.389.374.389.31 0 .322-.041.051-.358-.27-.327-.413-1.586-.258-2.354.323-1.616.09-2.619-.864-3.745l-.89-1.044c-.336-.389-.839-1.35-1.11-2.118l-.129-.358-.013.46zm2.116.737c.168.808.606 1.76 1.303 2.865.877 1.382 1.174 2.252 1.355 3.869.116 1.002.219 1.381.464 1.739.387.594 1.148 1.3 1.277 1.208.052-.051 0-.164-.103-.256-.451-.43-1.006-1.351-1.006-1.699 0-.614-.516-2.814-.774-3.346a32.308 32.308 0 00-.916-1.556c-.71-1.105-1.406-2.62-1.406-3.018 0-.133-.065-.236-.142-.236-.09 0-.104.144-.052.43zm3.806-.204c0 .153.31 1.35.503 1.974.22.747.439 1.863.374 2.006-.038.082-.142-.133-.232-.471-.168-.665-.632-1.463-.955-1.678-.116-.082-.051.113.181.471.206.327.452.952.555 1.402.103.44.27.839.361.89.116.051.129.113.026.215-.194.195-.349 1.883-.18 1.975.141.062.193-.071.154-.338-.026-.081.064-.307.18-.501.181-.307.207-.614.168-1.965-.051-1.392-.103-1.699-.387-2.364-.18-.419-.374-.982-.425-1.258-.04-.266-.13-.481-.207-.481-.064 0-.116.061-.116.122zm1.135 1.104c.026.164.116.307.18.307.065 0 .246.215.4.481.207.369.297.768.35 1.607.038.767.115 1.136.231 1.166.349.093.065-2.292-.374-3.008a2.714 2.714 0 00-.542-.635l-.31-.225.065.307zm-.619 6.14c0 .369.735 2.866.877 2.988.155.123.078-1.187-.064-1.402-.078-.122-.258-.573-.4-1.013-.297-.9-.413-1.064-.413-.573zm63.41 13.509c-.052.061-.142.716-.207 1.463-.064.737-.142 1.402-.18 1.474-.026.061 0 .133.064.153.064.021.155.952.22 2.078.09 1.821.128 2.046.335 2.077.168.031.22-.031.22-.286 0-.481.386-.359.747.225.323.542.478.603.594.266.103-.307.103-1.453 0-1.658-.103-.205-.31-.113-.31.143 0 .103-.064.225-.129.256-.116.051-.18-.041-.464-.665-.052-.123-.116-.102-.297.092l-.232.246-.078-.348c-.116-.502-.129-3.674-.013-4.728.065-.614.052-.89-.051-.89a.323.323 0 00-.22.102zm5.224.532c0 .184-.038.44-.077.562-.064.174-.026.236.13.236.141 0 .206.092.206.276 0 .164.064.358.129.44.142.184.154-.471.025-1.269-.103-.593-.412-.778-.412-.245zm-20.68.869c-.052.031-.09.328-.09.645 0 .522.141.819.412.819.116 0 .13-.614.026-1.157-.077-.368-.18-.45-.348-.307zm-22.474.85c-.052.164-.09.573-.078.9 0 .318-.064 1.034-.142 1.587-.129 1.002-.064 2.149.155 2.425.09.112.142.112.297.01.284-.174.348-.031.426.829.077.911.155 1.208.297 1.208.219 0 .412-.594.529-1.607.064-.583.154-1.105.193-1.167.129-.163.323 0 .323.277 0 .143.116.552.27.921.207.501.323.655.49.634.168-.031.207-.205.246-1.105.013-.594.077-1.105.142-1.157.051-.04.142.287.193.737.09.911.271 1.392.465 1.29.193-.092.154-.686-.065-1.106-.142-.276-.193-.787-.193-1.985-.013-1.443-.026-1.596-.194-1.422-.103.112-.193.358-.193.552 0 .185-.052.42-.13.522-.064.103-.154.614-.206 1.146-.077.993-.22 1.31-.374.901a1.1 1.1 0 00-.27-.399c-.091-.082-.181-.43-.207-.757-.052-.809-.31-.86-.413-.093-.155 1.116-.374 1.986-.465 1.853-.051-.072-.128-.358-.18-.625-.103-.675-.194-.757-.49-.47-.245.245-.245.235-.155-1.597.038-1.013.09-1.995.103-2.19.013-.44-.258-.532-.374-.112zm-16.81-.041c-.142.123-.155.522-.09 1.863.09 2.005.154 2.404.36 2.343.117-.031.143-.358.104-1.156-.026-.614-.013-1.095.026-1.065.038.031.142.471.22.973.283 1.78.476 2.292.696 1.831.129-.255.09-.859-.052-.859-.064 0-.129-.154-.129-.338 0-.184-.116-.839-.245-1.453a57.226 57.226 0 01-.335-1.607c-.09-.552-.297-.747-.555-.532zm58.184.011c-.09.133-.065.419.116 1.002.13.451.284 1.116.323 1.484.09.747.348 1.331.58 1.331.078 0 .232.081.323.174.27.296.425.041.516-.819.064-.563.051-.788-.065-.788-.077 0-.142.112-.142.256 0 .143-.051.256-.129.256-.064 0-.129-.103-.129-.236a.726.726 0 00-.129-.378c-.103-.133-.142-.123-.296.041-.168.184-.181.184-.271 0-.052-.103-.155-.676-.233-1.269-.154-1.136-.258-1.372-.464-1.054zm2.193 1.688c.065 1.76.31 1.913 1.226.788.413-.522.439-.532.387-.225-.026.245 0 .307.103.235.18-.123.774-1.146.903-1.566.13-.409-.27-.368-.555.051-.296.451-1.535 1.484-1.65 1.382-.053-.041-.13-.461-.169-.931-.116-1.382-.31-1.167-.245.266zm-17.61-.338c-.168.164-.684.819-1.123 1.464-.864 1.238-1.406 1.872-1.509 1.78-.039-.031-.142-.297-.245-.593l-.155-.543-.013 1.003c-.013 1.085.13 1.504.452 1.289.103-.061.18-.245.18-.409 0-.153.052-.317.13-.348.064-.03.386-.46.709-.962 1.006-1.545 1.303-1.668.516-.215-.49.911-.568 1.29-.258 1.187.168-.04.168-.02.064.144-.219.317-.141.573.181.696.4.143.49.061.387-.348-.064-.307-.013-.399.58-.891.362-.307.659-.583.659-.614 0-.153-.387-.051-.761.195-.22.143-.516.245-.659.225-.245-.031-.245-.072.207-.798.606-.983 1.342-2.344 1.342-2.467 0-.194-.374-.081-.684.205zm-31.775.061c-.155.174-.452.574-.671.901-.542.798-1.561 1.934-1.69 1.863-.103-.041-.297-.778-.465-1.791-.09-.553-.284-.768-.529-.604-.232.153-.219.501.013.747a.893.893 0 01.194.512c.013.501.567 2.343.722 2.384.09.02.18-.133.22-.368.077-.471 1.173-2.016 1.548-2.17.129-.061.413-.409.619-.788.439-.778.464-1.166.039-.686zm28.124.461l-.103.46-.065-.347c-.18-.84-.554-.328-.735.982-.09.665-.31.89-.31.317 0-.409-.387-1.514-.529-1.514-.18 0-.477 1.258-.554 2.404-.026.42.258.246.451-.276l.194-.542.167.87c.233 1.187.387 1.657.555 1.617.09-.031.142-.471.155-1.239.013-.726.065-1.228.155-1.299.116-.092.168-.052.232.143.09.307.4.348.529.082.155-.317.22-1.597.09-1.863-.116-.235-.129-.225-.232.205zm-40.226.113c-.284 1.351-.426 3.776-.22 3.776.207 0 .272-.297.285-1.259.026-1.391.167-1.77.284-.716.103 1.003.374 1.596.696 1.545.348-.051.374-.532.039-.778-.22-.153-.336-.48-.53-1.463-.27-1.34-.438-1.678-.554-1.105zm24.061.276c-.245.368-.168.941.142 1.146.168.102.322.174.361.153.039-.02.039-.317 0-.655-.09-.716-.284-.962-.503-.644z" fill="#000"/><path d="M80.79 124.778c-.103.318-.025.727.143.727.077 0 .142-.215.167-.491.04-.502-.167-.676-.31-.236zm-54.48.216c-.027.87.296 3.428.438 3.428.077 0 .296-.062.49-.133.323-.113.348-.154.27-.532a4.219 4.219 0 00-.18-.614c-.09-.174-.129-.154-.206.153l-.103.358-.104-.307c-.051-.174-.116-.634-.129-1.023-.013-.399-.064-.788-.116-.87a3.128 3.128 0 01-.219-.511l-.129-.359-.013.41zm19.97-.185c-.077.502-.026 1.566.09 1.771.078.143.22.563.31.941.103.44.22.696.322.696.336 0 .568-1.013.375-1.607-.104-.317-.31-.194-.31.185 0 .317-.18.399-.31.133-.038-.092-.077-.471-.077-.86 0-.788-.116-1.33-.271-1.33-.065 0-.116.03-.129.071zm-17.365.952c.065.44.4.921.607.921.193 0 .154-.297-.09-.849-.285-.614-.62-.666-.517-.072zm7.818-.113c-.103.113-.439.44-.761.737-.323.297-.477.512-.348.471.116-.031.219-.021.219.03 0 .277.232.082 1.058-.91.387-.451.22-.758-.168-.328z" fill="#000"/><path d="M37.74 125.526c-.052.03-.091.368-.091.747 0 .378-.09.91-.194 1.187a2.186 2.186 0 00-.103 1.043c.052.4.013.635-.154.942-.4.696-.607.481-.89-.911-.104-.501-.259-1.023-.349-1.146l-.142-.225-.232.245c-.336.338-.4.727-.168.932.206.184.194.204-.387 1.545-.193.45-.22.624-.103.716.22.174.477-.082.697-.685.09-.287.245-.532.31-.543.077-.02.231.307.36.737.13.471.297.809.4.839.116.031.362-.061.58-.235.375-.276.375-.297.388-1.412 0-.625.103-1.709.232-2.415.13-.707.207-1.31.18-1.361-.064-.093-.218-.093-.335 0zm48.301.163c-.206.164-.18.481.052.542.116.041.194.195.194.399 0 .328.258.625.425.492.13-.103.104-.901-.026-1.188-.141-.296-.438-.409-.645-.245zm-15.184.634c-.039.133-.013.399.064.573.078.174.194.921.284 1.658.168 1.658.271 2.139.452 2.19.168.041.387-.327.503-.829.052-.204.168-.368.258-.368.284 0 .335-.317.129-.89-.245-.645-.452-.625-.452.051 0 .522-.193.9-.31.634-.038-.082-.167-.747-.27-1.484-.232-1.504-.31-1.79-.465-1.79-.064 0-.141.112-.193.255zm-37.065.983c-.22.451-.4.911-.4 1.024 0 .389.477.204 1.135-.44.684-.655.774-.829.258-.553-.477.266-.62.215-.477-.164.361-.992-.026-.9-.516.133zm36.794.972c-.284.574-.452 1.075-.387 1.136.167.123.335-.112.477-.634.168-.655.116-.942-.09-.502z" fill="#000"/></svg>