<svg width="95" height="16" viewBox="0 0 95 16" fill="none" xmlns="http://www.w3.org/2000/svg">
<path d="M7.89671 15.1715C11.417 14.7376 14.3309 14.3675 14.3827 14.3675C14.4345 14.3547 15.1445 13.2317 15.9654 11.8662L17.4593 9.37768L19.0937 9.37768C19.996 9.37768 24.7514 9.32663 29.6769 9.25006C34.595 9.18625 43.2183 9.0714 48.8316 8.99483C54.4449 8.93102 63.8744 8.8034 69.7909 8.72683C77.0978 8.6375 80.559 8.62474 80.6108 8.71407C80.6551 8.79064 80.6699 8.98207 80.6403 9.16073C80.6182 9.32663 80.0117 10.8836 79.2943 12.6191C78.5843 14.3547 78.0075 15.7968 78.0223 15.8223C78.0371 15.8478 78.895 15.2353 79.9304 14.4696C82.5484 12.517 84.1755 11.4068 85.6916 10.5262C88.5019 8.89273 90.9647 8.10151 93.2351 8.10151C93.8046 8.10151 94.3519 8.05047 94.4554 7.9739C94.7143 7.80799 94.7069 7.32305 94.4406 6.81258L94.2262 6.40421L91.5711 5.91927C86.3942 4.97491 84.0128 4.20921 81.8089 2.80543C80.9657 2.26944 79.7233 1.17193 79.1094 0.418997C78.6953 -0.0787078 78.6805 -0.0787078 78.4882 0.13824C78.2885 0.355188 78.0814 0.929463 78.0814 1.2485C78.0814 1.3506 78.466 2.2822 78.9319 3.32865C79.3979 4.37511 79.7824 5.29395 79.7824 5.37052C79.7824 5.61299 78.1036 5.66404 66.2484 5.80442C55.5173 5.93203 46.4946 6.05965 29.3071 6.31488C24.6257 6.37869 20.0182 6.4425 19.0641 6.4425L17.3262 6.4425L15.2924 4.15816L13.2586 1.87383L7.061 1.74621C3.20787 1.66964 0.745117 1.66964 0.545434 1.74621C0.138673 1.88659 -0.0536135 2.23115 0.0129474 2.66505C0.0795083 3.14999 0.478874 3.86465 0.863447 4.20921C1.18886 4.48997 3.44453 6.2766 3.94743 6.64669L4.1767 6.81259L4.03618 7.54C3.87348 8.35675 3.89566 8.89274 4.12493 9.65844L4.26545 10.1306L2.49789 12.1725C1.50687 13.321 0.715535 14.3292 0.685952 14.4696C0.6046 14.9035 0.841261 15.6181 1.1223 15.8223C1.27021 15.9244 1.41073 16.001 1.44031 16.001C1.46989 15.9882 4.37638 15.6181 7.89671 15.1715ZM4.08795 14.0995C4.14712 13.8953 4.26545 13.6656 4.3468 13.589C4.53909 13.4104 4.53909 13.0786 4.3468 13.0786C4.22847 13.0786 4.21368 13.0275 4.26545 12.7978C4.29503 12.6447 4.39117 12.4532 4.46513 12.3894C4.53909 12.3129 4.73137 12.1214 4.88668 11.9555C5.04939 11.7896 5.30823 11.5727 5.47833 11.4706C5.64843 11.3685 5.83333 11.2026 5.89989 11.1133C6.0552 10.8708 6.99444 10.539 7.31985 10.6156C7.51953 10.6666 7.66745 10.59 7.9263 10.3348L8.2665 9.99024L8.48836 10.2965C8.68065 10.5518 8.70284 10.6411 8.66586 11.075C8.61409 11.611 8.71763 11.6875 9.06523 11.3685C9.90093 10.5773 10.3151 10.3476 10.9659 10.271C11.5058 10.22 11.6759 10.1561 11.8608 9.91367C12.0235 9.69672 12.2306 9.59463 12.5634 9.54358L13.0367 9.46701L12.8518 9.82434C12.4746 10.5518 11.5797 11.7769 11.136 12.1852C10.8846 12.415 10.3817 12.734 10.0119 12.8999C9.64209 13.053 9.1096 13.3593 8.82856 13.5635C8.34045 13.9208 8.30347 13.9336 8.05202 13.7549C7.89671 13.6401 7.66745 13.589 7.47516 13.6273C7.29766 13.6528 7.15715 13.6528 7.16454 13.6018C7.16454 13.5635 7.31985 13.3593 7.51214 13.1424C7.70443 12.9382 7.85234 12.7085 7.84494 12.6319C7.83755 12.5681 7.71922 12.4532 7.5861 12.4022C7.4086 12.3256 7.11277 12.4022 6.48414 12.6829C5.64104 13.0403 5.48573 13.1551 4.49471 14.0484C4.22847 14.2782 4.0066 14.4823 3.99181 14.4823C3.98441 14.4823 4.02139 14.3164 4.08795 14.0995ZM10.7884 13.6401C10.6997 13.5125 10.8993 13.1679 11.1804 12.9509C11.3653 12.8233 11.7203 12.3511 11.9791 11.9045C12.238 11.4578 12.6373 10.9346 12.874 10.7304C13.2881 10.3731 13.3029 10.3731 13.4435 10.59C13.5692 10.7942 13.6209 10.7942 13.7763 10.6538C13.9168 10.5262 13.9981 10.5262 14.183 10.6538C14.3901 10.807 14.4714 10.7687 15.2036 10.2327C16.1355 9.55634 16.4609 9.42873 16.6606 9.6712C16.7789 9.82434 16.7863 9.87539 16.6901 10.1051C16.631 10.2455 16.3795 10.6538 16.1207 11.0239C15.8692 11.394 15.6178 11.8024 15.566 11.9428C15.5142 12.0959 15.3441 12.3256 15.1814 12.466C15.0187 12.6064 14.7821 12.8616 14.6489 13.0275C14.3975 13.3593 14.1608 13.4104 13.8576 13.2062C13.6357 13.0658 13.6062 12.7595 13.791 12.5809C13.865 12.517 13.902 12.415 13.8724 12.3639C13.8428 12.3256 13.6062 12.4277 13.3547 12.6191C12.1862 13.4486 11.491 13.806 11.1508 13.7422C10.9659 13.7166 10.8032 13.6656 10.7884 13.6401ZM79.849 13.2445C79.886 13.1168 80.3297 12.2873 80.8326 11.4068C81.4391 10.3348 81.9346 9.60739 82.3266 9.17349L82.9034 8.54817L82.0455 8.50989C81.2172 8.4716 81.195 8.4716 81.2838 8.22913C81.3651 7.98666 81.4687 7.9739 85.1813 7.9739L88.99 7.98666L88.1395 8.36951C86.8305 8.95654 84.634 10.2455 82.1121 11.9172C80.8474 12.7468 79.812 13.4359 79.7972 13.4486C79.7898 13.4486 79.812 13.3593 79.849 13.2445ZM16.6901 8.79064C16.6162 8.67579 16.3499 8.44608 16.0911 8.28018L15.6252 7.98666L24.3299 7.98666C31.2522 7.9739 33.0419 8.01218 33.0419 8.1398C33.0419 8.21637 33.0641 8.42056 33.0863 8.58646L33.1307 8.86721L31.1412 8.86721C30.0319 8.86721 29.0483 8.81617 28.9299 8.7396C28.4788 8.48436 26.7926 8.31846 24.7218 8.35675C22.9099 8.38227 22.5401 8.42056 22.3182 8.59922C22.1038 8.76512 21.7118 8.81617 20.1365 8.86721C19.0789 8.9055 17.903 8.95655 17.5185 8.96931C16.9638 8.99483 16.7937 8.95655 16.6901 8.79064ZM9.75302 8.72684C9.64209 8.58646 9.42022 8.39503 9.25751 8.29294C8.99127 8.12704 9.08002 8.11428 10.3817 8.10152C11.1582 8.10152 12.3563 8.07599 13.0441 8.03771C14.0499 7.98666 14.2422 8.01218 14.0499 8.12704C13.9094 8.20361 13.7319 8.43332 13.6431 8.6375L13.4878 8.99483L11.7277 8.99483C10.0636 8.99483 9.9527 8.98207 9.75302 8.72684ZM5.67802 8.62474C5.67802 8.16532 5.76676 8.10152 6.46935 8.10152C7.00923 8.10152 7.02403 8.11428 6.97965 8.39503C6.95746 8.54817 6.93528 8.75236 6.93528 8.84169C6.93528 8.95655 6.75778 8.99483 6.30665 8.99483L5.67802 8.99483L5.67802 8.62474ZM51.6938 8.39503L51.7159 8.03771L53.1803 7.99942L54.6446 7.9739L54.5189 8.28018C54.3932 8.62474 54.5189 8.61198 52.2484 8.71407L51.6716 8.7396L51.6938 8.39503ZM49.7931 8.35675L49.9114 7.9739L50.651 7.9739C51.3018 7.9739 51.3905 7.99942 51.3536 8.17808C51.3314 8.29294 51.3092 8.45884 51.3092 8.56093C51.3092 8.70131 51.1465 8.7396 50.4957 8.7396L49.6747 8.7396L49.7931 8.35675ZM41.9167 8.42056C41.9167 8.24189 41.9611 8.06323 42.0055 8.03771C42.0572 7.99942 43.7656 7.98666 45.7994 7.99942L49.4973 8.03771L48.6098 8.36951C47.7445 8.70131 47.6557 8.70131 44.8158 8.72683L41.9167 8.7396L41.9167 8.42056ZM37.4054 8.35675L37.0726 7.9739L38.7144 7.9739L40.3636 7.9739L40.3636 8.35675L40.3636 8.7396L39.0472 8.7396L37.7382 8.7396L37.4054 8.35675ZM67.0249 8.29294L66.5812 7.98666L69.3324 7.98666C71.736 7.9739 72.091 7.99942 72.091 8.16532C72.091 8.26741 72.1649 8.36951 72.2537 8.38227C72.4829 8.42055 70.0276 8.54817 68.615 8.57369C67.5648 8.59922 67.4317 8.57369 67.0249 8.29294ZM66.0709 8.22913L65.9156 7.94837L66.1079 8.02494C66.2188 8.06323 66.4481 8.21637 66.6256 8.35675L66.951 8.61198L66.5886 8.56093C66.3445 8.52265 66.1818 8.42055 66.0709 8.22913ZM65.6124 8.42055C65.531 8.07599 65.6198 7.99942 65.7529 8.3057C65.8712 8.57369 65.8712 8.61198 65.7677 8.61198C65.7011 8.61198 65.6346 8.52265 65.6124 8.42055ZM64.4734 8.29294C64.4734 7.98666 64.4956 7.9739 64.8802 7.9739C65.2648 7.9739 65.287 7.98666 65.287 8.29294C65.287 8.59922 65.2648 8.61198 64.8802 8.61198C64.4956 8.61198 64.4734 8.59922 64.4734 8.29294ZM57.5511 8.40779C57.5733 8.29294 57.5955 8.15256 57.5955 8.08875C57.5955 8.02494 58.9193 7.9739 60.8496 7.9739L64.1037 7.9739L64.1037 8.29294L64.1037 8.61198L60.8052 8.61198C57.8248 8.61198 57.5067 8.58646 57.5511 8.40779ZM55.1771 8.29294C55.2659 7.9739 55.2733 7.9739 56.2421 7.9739L57.2257 7.9739L57.2257 8.29294L57.2257 8.61198L56.1607 8.61198L55.0958 8.61198L55.1771 8.29294ZM78.7766 8.39503C78.7988 8.34398 78.7323 8.24189 78.6213 8.15256C78.4438 8.02494 78.6213 7.98666 79.7307 7.98666C81.0249 7.9739 81.0397 7.9739 80.951 8.22913C80.8622 8.45884 80.7735 8.48436 79.7898 8.48436C79.2056 8.48436 78.7471 8.44608 78.7766 8.39503ZM74.3097 8.26741L73.755 8.15256L74.6868 8.05047C75.9441 7.91009 78.1924 8.11427 78.3551 8.39503C78.4216 8.52265 75.064 8.40779 74.3097 8.26741ZM73.3186 8.36951C73.2743 8.26741 74.4502 8.33122 74.5241 8.43332C74.5389 8.45884 74.2875 8.48436 73.9547 8.48436C73.6293 8.48436 73.3408 8.43332 73.3186 8.36951ZM72.7344 8.39503C72.7862 8.36951 72.8897 8.36951 72.9563 8.39503C73.0302 8.43332 72.9858 8.45884 72.8675 8.45884C72.7418 8.45884 72.69 8.43332 72.7344 8.39503ZM41.5099 8.10151C41.4878 8.03771 41.5026 7.9739 41.5395 7.9739C41.5839 7.9739 41.6209 8.03771 41.6209 8.10151C41.6209 8.17808 41.6061 8.22913 41.5913 8.22913C41.5691 8.22913 41.5321 8.17808 41.5099 8.10151ZM77.6525 8.01218C77.7265 7.98666 77.8448 7.98666 77.9113 8.01218C77.9853 8.05047 77.9261 8.07599 77.7856 8.07599C77.6451 8.07599 77.5859 8.05047 77.6525 8.01218ZM5.82593 6.55736C5.68541 6.41698 5.5375 6.31488 5.49313 6.31488C5.45615 6.30212 5.28605 6.1107 5.12334 5.86823C4.87929 5.5109 4.84231 5.40881 4.92366 5.26843C5.00501 5.12805 5.07157 5.15357 5.31563 5.39605C5.60406 5.68956 5.8777 5.68956 5.98124 5.38328C6.01082 5.31948 6.06999 5.38328 6.12176 5.54919C6.16613 5.70232 6.31404 5.99584 6.43977 6.20003C6.66903 6.55736 6.66903 6.58288 6.53591 6.76154C6.37321 6.96573 6.23269 6.92744 5.82593 6.55736ZM7.14236 5.89375C6.69862 5.20462 6.64685 4.98767 6.81695 4.5793C7.00923 4.13264 7.55651 4.2475 8.32566 4.89834C9.21314 5.65128 9.47199 5.5109 8.96908 4.54101C8.66586 3.95398 8.64367 3.83912 8.89513 4.04331C9.03564 4.1454 9.12439 4.1454 9.26491 4.04331C9.36845 3.95398 9.56073 3.89017 9.68646 3.89017C9.99708 3.89017 11.0251 4.86006 11.417 5.52366C11.5945 5.81718 11.772 6.05965 11.8164 6.05965C11.9939 6.05965 11.8682 6.28936 11.6093 6.41698C11.1952 6.63393 11.1804 6.63393 9.31668 6.59564L7.5713 6.54459L7.14236 5.89375ZM14.8043 6.23831C14.7377 6.05965 14.5824 5.82994 14.4714 5.72785C14.3531 5.62575 14.257 5.47261 14.257 5.38328C14.257 5.29395 14.1904 5.00043 14.1017 4.73244C13.9685 4.28578 13.9611 4.22197 14.0647 4.04331C14.1534 3.87741 14.2274 3.86465 14.4345 3.9795C14.7451 4.1454 16.3278 5.9448 16.3278 6.13622C16.3278 6.39145 16.0023 6.55735 15.4625 6.55735C14.967 6.57012 14.9152 6.54459 14.8043 6.23831ZM12.8074 6.17451C12.5708 5.95756 12.3267 5.68956 12.2823 5.57471C12.2306 5.44709 12.0605 5.14081 11.9126 4.88558L11.6389 4.40064L12.0383 4.4134C12.5116 4.4134 12.8444 4.63035 13.5766 5.42157C14.1608 6.05965 14.22 6.32765 13.8132 6.45526C13.3473 6.59564 13.2438 6.57012 12.8074 6.17451Z" fill="#010101"/>
</svg>
