<svg width="95" height="16" viewBox="0 0 95 16" fill="none" xmlns="http://www.w3.org/2000/svg">
<path d="M86.7483 0.829507C83.228 1.2634 80.3141 1.63349 80.2623 1.63349C80.2106 1.64625 79.5006 2.76928 78.6797 4.13478L77.1857 6.6233L75.5513 6.6233C74.649 6.6233 69.8936 6.67435 64.9681 6.75092C60.05 6.81472 51.4267 6.92958 45.8134 7.00615C40.2001 7.06996 30.7706 7.19757 24.8541 7.27414C17.5472 7.36348 14.086 7.37624 14.0343 7.28691C13.9899 7.21034 13.9751 7.01891 14.0047 6.84025C14.0269 6.67435 14.6333 5.11742 15.3507 3.38184C16.0607 1.64625 16.6375 0.204187 16.6227 0.178664C16.6079 0.15314 15.7501 0.7657 14.7147 1.5314C12.0966 3.48393 10.4696 4.5942 8.95345 5.47475C6.1431 7.10824 3.68035 7.89946 1.40988 7.89946C0.840419 7.89946 0.29314 7.95051 0.189601 8.02708C-0.0692464 8.19298 -0.0618508 8.67793 0.204393 9.18839L0.418867 9.59676L3.07391 10.0817C8.25086 11.0261 10.6323 11.7918 12.8362 13.1956C13.6793 13.7315 14.9217 14.829 15.5356 15.582C15.9497 16.0797 15.9645 16.0797 16.1568 15.8627C16.3565 15.6458 16.5636 15.0715 16.5636 14.7525C16.5636 14.6504 16.179 13.7188 15.7131 12.6723C15.2471 11.6259 14.8626 10.707 14.8626 10.6305C14.8626 10.388 16.5414 10.3369 28.3966 10.1966C39.1277 10.0689 48.1504 9.94133 65.3379 9.6861C70.0193 9.62229 74.6268 9.55848 75.5809 9.55848L77.3189 9.55848L79.3527 11.8428L81.3865 14.1272L87.584 14.2548C91.4372 14.3313 93.8999 14.3313 94.0996 14.2548C94.5063 14.1144 94.6986 13.7698 94.6321 13.3359C94.5655 12.851 94.1661 12.1363 93.7816 11.7918C93.4562 11.511 91.2005 9.72438 90.6976 9.35429L90.4683 9.18839L90.6088 8.46098C90.7715 7.64423 90.7494 7.10824 90.5201 6.34254L90.3796 5.87036L92.1471 3.8285C93.1382 2.67995 93.9295 1.67178 93.9591 1.5314C94.0404 1.0975 93.8038 0.382849 93.5227 0.178663C93.3748 0.0765695 93.2343 -4.10308e-07 93.2047 -4.09956e-07C93.1751 0.0127612 90.2686 0.382849 86.7483 0.829507ZM90.5571 1.90149C90.4979 2.10567 90.3796 2.33538 90.2982 2.41195C90.1059 2.59062 90.1059 2.92242 90.2982 2.92242C90.4166 2.92242 90.4313 2.97347 90.3796 3.20317C90.35 3.35631 90.2538 3.54774 90.1799 3.61155C90.1059 3.68812 89.9136 3.87954 89.7583 4.04544C89.5956 4.21135 89.3368 4.42829 89.1667 4.53039C88.9966 4.63248 88.8117 4.79838 88.7451 4.88771C88.5898 5.13018 87.6506 5.46199 87.3252 5.38542C87.1255 5.33437 86.9776 5.41094 86.7187 5.66617L86.3785 6.01074L86.1567 5.70446C85.9644 5.44923 85.9422 5.35989 85.9792 4.926C86.0309 4.39001 85.9274 4.31344 85.5798 4.63248C84.7441 5.4237 84.3299 5.65341 83.6791 5.72998C83.1392 5.78103 82.9691 5.84484 82.7842 6.08731C82.6215 6.30426 82.4145 6.40635 82.0817 6.4574L81.6083 6.53397L81.7932 6.17664C82.1704 5.44923 83.0653 4.22411 83.509 3.81573C83.7605 3.58602 84.2634 3.26698 84.6332 3.10108C85.0029 2.94794 85.5354 2.64166 85.8165 2.43748C86.3046 2.08015 86.3415 2.06739 86.593 2.24605C86.7483 2.36091 86.9776 2.41195 87.1699 2.37367C87.3474 2.34814 87.4879 2.34814 87.4805 2.39919C87.4805 2.43748 87.3252 2.64166 87.1329 2.85861C86.9406 3.0628 86.7927 3.29251 86.8001 3.36908C86.8075 3.43288 86.9258 3.54774 87.0589 3.59879C87.2364 3.67536 87.5322 3.59879 88.1609 3.31803C89.004 2.9607 89.1593 2.84585 90.1503 1.95253C90.4166 1.72282 90.6384 1.51864 90.6532 1.51864C90.6606 1.51864 90.6236 1.68454 90.5571 1.90149ZM83.8566 2.36091C83.9454 2.48852 83.7457 2.83309 83.4646 3.05004C83.2797 3.17765 82.9248 3.64983 82.6659 4.09649C82.4071 4.54315 82.0077 5.06638 81.771 5.27056C81.3569 5.62789 81.3421 5.62789 81.2016 5.41094C81.0758 5.20675 81.0241 5.20675 80.8688 5.34713C80.7282 5.47475 80.6469 5.47475 80.462 5.34713C80.2549 5.19399 80.1736 5.23228 79.4414 5.76827C78.5096 6.44464 78.1841 6.57225 77.9845 6.32978C77.8661 6.17664 77.8587 6.12559 77.9549 5.89588C78.014 5.75551 78.2655 5.34713 78.5243 4.97705C78.7758 4.60696 79.0272 4.19858 79.079 4.05821C79.1308 3.90507 79.3009 3.67536 79.4636 3.53498C79.6263 3.3946 79.863 3.13937 79.9961 2.97347C80.2475 2.64166 80.4842 2.59062 80.7874 2.7948C81.0093 2.93518 81.0389 3.24146 80.854 3.42012C80.78 3.48393 80.743 3.58602 80.7726 3.63707C80.8022 3.67536 81.0389 3.57326 81.2903 3.38184C82.4588 2.55233 83.154 2.195 83.4942 2.25881C83.6791 2.28434 83.8418 2.33538 83.8566 2.36091ZM14.796 2.75652C14.759 2.88413 14.3153 3.71364 13.8124 4.5942C13.2059 5.66618 12.7104 6.39359 12.3185 6.82749L11.7416 7.45281L12.5995 7.49109C13.4278 7.52938 13.45 7.52938 13.3613 7.77185C13.2799 8.01432 13.1764 8.02708 9.46375 8.02708L5.65499 8.01432L6.50549 7.63147C7.81452 7.04443 10.011 5.75551 12.5329 4.08373C13.7976 3.25422 14.833 2.56509 14.8478 2.55233C14.8552 2.55233 14.833 2.64166 14.796 2.75652ZM77.9549 7.21033C78.0288 7.32519 78.2951 7.5549 78.5539 7.7208L79.0199 8.01432L70.3152 8.01432C63.3928 8.02708 61.6031 7.9888 61.6031 7.86118C61.6031 7.78461 61.5809 7.58042 61.5587 7.41452L61.5143 7.13376L63.5038 7.13376C64.6131 7.13376 65.5967 7.18481 65.7151 7.26138C66.1662 7.51661 67.8524 7.68252 69.9232 7.64423C71.7351 7.61871 72.1049 7.58042 72.3268 7.40176C72.5413 7.23586 72.9332 7.18481 74.5085 7.13376C75.5661 7.09548 76.742 7.04443 77.1266 7.03167C77.6812 7.00615 77.8513 7.04443 77.9549 7.21033ZM84.892 7.27414C85.0029 7.41452 85.2248 7.60595 85.3875 7.70804C85.6538 7.87394 85.565 7.8867 84.2634 7.89946C83.4868 7.89946 82.2887 7.92499 81.6009 7.96327C80.5951 8.01432 80.4028 7.9888 80.5951 7.87394C80.7356 7.79737 80.9131 7.56766 81.0019 7.36347L81.1572 7.00615L82.9174 7.00615C84.5814 7.00615 84.6923 7.01891 84.892 7.27414ZM88.967 7.37624C88.967 7.83566 88.8783 7.89946 88.1757 7.89946C87.6358 7.89946 87.621 7.8867 87.6654 7.60595C87.6876 7.45281 87.7097 7.24862 87.7097 7.15929C87.7097 7.04443 87.8872 7.00615 88.3384 7.00615L88.967 7.00615L88.967 7.37624ZM42.9513 7.60595L42.9291 7.96327L41.4647 8.00156L40.0004 8.02708L40.1261 7.7208C40.2518 7.37624 40.1261 7.389 42.3966 7.2869L42.9734 7.26138L42.9513 7.60595ZM44.8519 7.64423L44.7336 8.02708L43.994 8.02708C43.3432 8.02708 43.2545 8.00156 43.2915 7.82289C43.3136 7.70804 43.3358 7.54214 43.3358 7.44004C43.3358 7.29967 43.4985 7.26138 44.1494 7.26138L44.9703 7.26138L44.8519 7.64423ZM52.7283 7.58042C52.7283 7.75909 52.6839 7.93775 52.6396 7.96327C52.5878 8.00156 50.8794 8.01432 48.8456 8.00156L45.1478 7.96327L46.0352 7.63147C46.9005 7.29967 46.9893 7.29967 49.8292 7.27414L52.7283 7.26138L52.7283 7.58042ZM57.2397 7.64423L57.5725 8.02708L55.9306 8.02708L54.2814 8.02708L54.2814 7.64423L54.2814 7.26138L55.5978 7.26138L56.9069 7.26138L57.2397 7.64423ZM27.6201 7.70804L28.0638 8.01432L25.3126 8.01432C22.909 8.02708 22.5541 8.00156 22.5541 7.83566C22.5541 7.73356 22.4801 7.63147 22.3913 7.61871C22.1621 7.58042 24.6174 7.45281 26.03 7.42728C27.0802 7.40176 27.2133 7.42728 27.6201 7.70804ZM28.5741 7.77185L28.7294 8.0526L28.5371 7.97603C28.4262 7.93775 28.1969 7.78461 28.0194 7.64423L27.694 7.389L28.0564 7.44004C28.3005 7.47833 28.4632 7.58042 28.5741 7.77185ZM29.0326 7.58042C29.114 7.92499 29.0252 8.00156 28.8921 7.69528C28.7738 7.42728 28.7738 7.389 28.8773 7.389C28.9439 7.389 29.0105 7.47833 29.0326 7.58042ZM30.1716 7.70804C30.1716 8.01432 30.1494 8.02708 29.7648 8.02708C29.3802 8.02708 29.3581 8.01432 29.3581 7.70804C29.3581 7.40176 29.3802 7.389 29.7648 7.389C30.1494 7.389 30.1716 7.40176 30.1716 7.70804ZM37.0939 7.59318C37.0717 7.70804 37.0495 7.84842 37.0495 7.91223C37.0495 7.97603 35.7257 8.02708 33.7954 8.02708L30.5414 8.02708L30.5414 7.70804L30.5414 7.389L33.8398 7.389C36.8203 7.389 37.1383 7.41452 37.0939 7.59318ZM39.4679 7.70804C39.3792 8.02708 39.3718 8.02708 38.4029 8.02708L37.4193 8.02708L37.4193 7.70804L37.4193 7.389L38.4843 7.389L39.5493 7.389L39.4679 7.70804ZM15.8684 7.60595C15.8462 7.65699 15.9128 7.75909 16.0237 7.84842C16.2012 7.97603 16.0237 8.01432 14.9143 8.01432C13.6201 8.02708 13.6053 8.02708 13.6941 7.77185C13.7828 7.54214 13.8716 7.51662 14.8552 7.51662C15.4394 7.51662 15.898 7.5549 15.8684 7.60595ZM20.3354 7.73356L20.89 7.84842L19.9582 7.95051C18.7009 8.09089 16.4526 7.8867 16.2899 7.60595C16.2234 7.47833 19.581 7.59318 20.3354 7.73356ZM21.3264 7.63147C21.3707 7.73356 20.1948 7.66975 20.1209 7.56766C20.1061 7.54214 20.3575 7.51661 20.6903 7.51661C21.0158 7.51661 21.3042 7.56766 21.3264 7.63147ZM21.9106 7.60595C21.8589 7.63147 21.7553 7.63147 21.6888 7.60595C21.6148 7.56766 21.6592 7.54214 21.7775 7.54214C21.9032 7.54214 21.955 7.56766 21.9106 7.60595ZM53.1351 7.89946C53.1573 7.96327 53.1425 8.02708 53.1055 8.02708C53.0611 8.02708 53.0241 7.96327 53.0241 7.89946C53.0241 7.82289 53.0389 7.77185 53.0537 7.77185C53.0759 7.77185 53.1129 7.82289 53.1351 7.89946ZM16.9925 7.9888C16.9186 8.01432 16.8002 8.01432 16.7337 7.9888C16.6597 7.95051 16.7189 7.92499 16.8594 7.92499C16.9999 7.92499 17.0591 7.95051 16.9925 7.9888ZM88.8191 9.44362C88.9596 9.584 89.1075 9.6861 89.1519 9.6861C89.1889 9.69886 89.359 9.89028 89.5217 10.1328C89.7657 10.4901 89.8027 10.5922 89.7214 10.7326C89.64 10.8729 89.5734 10.8474 89.3294 10.6049C89.041 10.3114 88.7673 10.3114 88.6638 10.6177C88.6342 10.6815 88.575 10.6177 88.5233 10.4518C88.4789 10.2987 88.331 10.0051 88.2053 9.80095C87.976 9.44362 87.976 9.4181 88.1091 9.23944C88.2718 9.03525 88.4123 9.07354 88.8191 9.44362ZM87.5027 10.1072C87.9464 10.7964 87.9982 11.0133 87.8281 11.4217C87.6358 11.8683 87.0885 11.7535 86.3194 11.1026C85.4319 10.3497 85.173 10.4901 85.6759 11.46C85.9792 12.047 86.0013 12.1619 85.7499 11.9577C85.6094 11.8556 85.5206 11.8556 85.3801 11.9577C85.2766 12.047 85.0843 12.1108 84.9586 12.1108C84.6479 12.1108 83.6199 11.1409 83.228 10.4773C83.0505 10.1838 82.873 9.94133 82.8286 9.94133C82.6511 9.94133 82.7768 9.71162 83.0357 9.584C83.4498 9.36705 83.4646 9.36705 85.3283 9.40534L87.0737 9.45639L87.5027 10.1072ZM79.8408 9.76267C79.9073 9.94133 80.0626 10.171 80.1736 10.2731C80.2919 10.3752 80.388 10.5284 80.388 10.6177C80.388 10.707 80.4546 11.0005 80.5434 11.2685C80.6765 11.7152 80.6839 11.779 80.5803 11.9577C80.4916 12.1236 80.4176 12.1363 80.2106 12.0215C79.8999 11.8556 78.3173 10.0562 78.3173 9.86476C78.3173 9.60953 78.6427 9.44362 79.1826 9.44362C79.6781 9.43086 79.7298 9.45639 79.8408 9.76267ZM81.8376 9.82647C82.0743 10.0434 82.3183 10.3114 82.3627 10.4263C82.4145 10.5539 82.5846 10.8602 82.7325 11.1154L83.0061 11.6003L82.6067 11.5876C82.1334 11.5876 81.8006 11.3706 81.0684 10.5794C80.4842 9.94133 80.425 9.67333 80.8318 9.54572C81.2977 9.40534 81.4013 9.43086 81.8376 9.82647Z" fill="#010101"/>
</svg>
