<svg xmlns="http://www.w3.org/2000/svg" width="80" height="80" viewBox="0 0 400 400"><g transform="matrix(.39 0 0 .39 200 200)" id="Apple"><linearGradient id="SVGID_Nepojmenovaný_přechod_27_1" gradientUnits="userSpaceOnUse" gradientTransform="translate(-256 -256)" x1="328.27" y1="508.05" x2="183.73" y2="3.95"><stop offset="0%" stop-color="#ffdb73"/><stop offset="8%" stop-color="#fdad4e"/><stop offset="15%" stop-color="#fb832e"/><stop offset="19%" stop-color="#fa7321"/><stop offset="23%" stop-color="#f6692f"/><stop offset="37%" stop-color="#e84a5a"/><stop offset="48%" stop-color="#e03675"/><stop offset="55%" stop-color="#dd2f7f"/><stop offset="68%" stop-color="#b43d97"/><stop offset="97%" stop-color="#4d60d4"/><stop offset="100%" stop-color="#4264db"/></linearGradient><rect x="-232.53" y="-232.53" rx="107.23" ry="107.23" width="465.06" height="465.06" fill="url(#SVGID_Nepojmenovaný_přechod_27_1)"/></g><path transform="matrix(.39 0 0 .39 100.16 100.16)" d="M331 115.22a66.92 66.92 0 0166.65 66.65v148.26A66.92 66.92 0 01331 396.78H181a66.92 66.92 0 01-66.65-66.65V181.87A66.92 66.92 0 01181 115.22h150m0-31H181c-53.71 0-97.66 44-97.66 97.66v148.25c0 53.71 44 97.66 97.66 97.66h150c53.71 0 97.66-44 97.66-97.66V181.87c0-53.71-43.95-97.66-97.66-97.66z" fill="#fff" id="Apple"/><path transform="matrix(.39 0 0 .39 100.16 100.16)" d="M256 198.13A57.87 57.87 0 11198.13 256 57.94 57.94 0 01256 198.13m0-31A88.87 88.87 0 10344.87 256 88.87 88.87 0 00256 167.13z" fill="#fff" id="Apple"/><circle r="21.07" fill="#fff" transform="matrix(.39 0 0 .39 235.47 163.76)" id="Apple"/></svg>