<svg xmlns="http://www.w3.org/2000/svg" width="70" height="70" viewBox="0 0 400 400"><circle r="67.204" stroke-width="1.058" stroke-linecap="round" stroke-linejoin="round" fill="#2298d5" transform="matrix(1.48 0 0 1.48 200 200)" id="path848"/><path transform="matrix(1.74 0 0 1.74 82.533 82.08)" d="M93.342 97.764s15.044-60.147 11.78-61.794c-3.265-1.647-74.354 27.308-74.354 27.308-7.449 3.517 18.903 9.994 18.903 9.994l43.638-27.175-33.285 31.937s30.79 29.166 33.318 19.73z" stroke-width=".224" fill="#fff" id="path898"/><path transform="matrix(1.74 0 0 1.74 82.524 82.136)" d="M60.024 78.034s-3.056 17.441-1.399 19.219L69.75 86.638c-5.47-4.575-9.726-8.604-9.726-8.604z" stroke-width=".224" fill="#b3b3b3" id="path900"/><path transform="matrix(1.74 0 0 1.74 82.537 82.094)" d="M93.309 46.097L49.67 73.272s4.956 21.532 8.954 23.98c-1.657-1.777 1.4-19.218 1.4-19.218z" stroke-width=".224" fill="#e6e6e6" id="path902"/></svg>