<svg width="149" height="178" fill="none" xmlns="http://www.w3.org/2000/svg"><path d="M72.059 8.48c.482.03 1.248.03 1.701 0 .44-.03.043-.046-.893-.046s-1.304.015-.808.045zm-5.742.147c.284.03.766.03 1.063 0 .284-.03.043-.06-.538-.06-.582 0-.823.03-.525.06zm12.051 0c.213.03.553.03.78 0 .212-.03.028-.06-.397-.06-.426 0-.61.03-.383.06zm-15.524.149c.17.03.453.03.638 0 .17-.03.028-.06-.326-.06-.355 0-.497.03-.312.06z" fill="#418585"/><path d="M65.991 8.835c-16.091.667-32.495 3.617-50.883 9.145-3.076.92-3.913 1.23-3.998 1.453-.07.163-.113.193-.113.074-.014-.118-.043-.178-.085-.148-.028.044-.17 1.705-.312 3.706-.298 4.565-.34 18.127-.07 22.515.212 3.483.694 9.294.878 10.82.071.608.241 1.912.355 2.89.326 2.802.78 5.93 1.063 7.486.07.37.184 1.067.27 1.556.084.49.283 1.571.453 2.416.156.845.27 1.601.241 1.69-.043.133-.17-.46-.978-4.832-.142-.8-.284-1.63-.284-1.853-.014-.237-.042-.296-.085-.133-.042.207.652 4.906 1.177 7.9.709 4.106 2.169 10.687 3.176 14.378.24.89.623 2.297.85 3.112 1.574 5.751 4.764 14.645 7.23 20.159 3.587 8.019 6.593 13.666 11.116 20.81 1.02 1.601 1.9 2.965 1.956 3.054.071.074.369.519.68.963.313.445.61.875.667.964.07.074.27.385.468.667.184.281.383.548.425.593.043.044.241.311.425.593.185.281.383.548.426.593.042.044.24.311.425.592.184.282.383.549.425.593.043.045.298.371.568.741.269.371.524.697.567.742.042.044.297.37.567.741.27.37.524.696.567.741.042.044.354.444.709.889.354.445.666.845.709.889.042.045.425.504.85 1.038.426.534.88 1.067.993 1.186.113.118.68.785 1.261 1.482 1.106 1.304 7.869 8.419 9.23 9.709 2.963 2.772 3.587 3.335 5.657 5.113.836.712 2.977 2.313 3.416 2.55.185.104.695.415 1.12.682 2.51 1.541 5.742 2.164 8.365 1.586 1.262-.267 2.977-.964 3.998-1.586.425-.267.936-.578 1.12-.682.44-.237 2.58-1.838 3.417-2.55 2.098-1.793 3.076-2.668 5.657-5.113 1.403-1.319 8.137-8.419 9.229-9.709a58.46 58.46 0 011.262-1.482c.113-.119.567-.652.992-1.186.426-.534.808-.993.851-1.038.042-.044.354-.444.709-.889.354-.445.666-.845.709-.889.042-.045.297-.371.567-.741.269-.371.524-.697.567-.741.042-.045.496-.638.992-1.334.511-.697.95-1.29.993-1.334.042-.045.241-.312.425-.593.184-.282.383-.549.425-.593.043-.045.553-.771 1.134-1.631.582-.859 1.092-1.586 1.135-1.63.113-.089 3.303-5.129 3.955-6.226.27-.444.78-1.319 1.134-1.927.766-1.289 2.85-5.113 4.069-7.485 2.878-5.558 5.983-12.88 8.422-19.862 1.474-4.21 3.884-12.525 4.621-15.934.057-.282.128-.593.142-.667.014-.089.199-.89.411-1.779.454-1.97 1.772-8.79 1.758-9.026-.014-.09-.099.163-.198.578-.284 1.126-.227.31.057-1.038.155-.741.283-1.082.326-.89.042.164.056-.044.014-.444-.057-.578-.029-.697.099-.519.128.178.142.163.071-.103-.043-.163.057-1.097.213-2.076.269-1.541.496-3.083.992-6.566.213-1.556.68-5.944.922-8.671.808-9.19.921-19.966.311-30.075l-.17-2.95-2.268-.637c-26.483-7.589-48.657-10.716-69.54-9.827zM13.918 73.031c-.043.118-.085.074-.085-.09-.015-.162.028-.251.07-.192.043.045.057.178.015.282zm.141.741c-.042.104-.07.03-.07-.178 0-.207.028-.281.07-.193a.819.819 0 010 .371zm120.65 0c-.043.119-.085.074-.085-.089-.015-.163.028-.252.07-.193.043.045.057.178.015.282zm-120.508.593c-.042.119-.085.074-.085-.089-.014-.163.028-.252.07-.193.043.045.058.178.015.282zm120.366.148c-.043.104-.071.03-.071-.178 0-.207.028-.281.071-.192a.827.827 0 010 .37zm-120.224.593c-.043.104-.071.03-.071-.178 0-.207.028-.281.07-.192a.816.816 0 010 .37zm120.082 0c-.042.119-.085.074-.085-.089-.014-.163.028-.252.071-.193.042.045.057.178.014.282zm-.241 1.156l-.156.37.085-.37c.029-.207.071-.504.085-.667.029-.281.029-.281.085 0a1.39 1.39 0 01-.099.667zm-119.558.178c-.042.119-.085.074-.085-.089-.014-.163.029-.252.071-.193.043.045.057.178.014.282zm.142.593c-.042.118-.085.074-.085-.089-.014-.163.028-.252.071-.193.043.045.057.178.014.282zM134 77.18c-.043.119-.085.074-.085-.089-.014-.163.028-.252.071-.192.042.044.056.177.014.281zm-119.09.445c-.043.118-.085.074-.085-.09-.014-.162.028-.251.07-.192.043.045.058.178.015.282zm.142.593c-.043.118-.085.074-.085-.09-.014-.162.028-.251.07-.192.043.045.057.178.015.282zm118.664 0c-.042.118-.085.074-.085-.09-.014-.162.028-.251.071-.192.043.045.057.178.014.282zm-118.523.593c-.042.118-.085.074-.085-.09-.014-.162.029-.251.071-.192.043.044.057.178.014.282z" fill="#418585"/><path d="M82.267 8.776c.17.03.453.03.638 0 .17-.03.028-.06-.326-.06-.355 0-.497.03-.312.06zm-21.479.148c.128.03.354.03.496 0 .128-.045.014-.075-.255-.075-.27 0-.383.03-.241.075zm23.747 0a.71.71 0 00.355 0c.085-.045.014-.075-.185-.075-.198 0-.27.03-.17.075zm-25.874.148c.128.03.355.03.496 0 .128-.044.015-.074-.255-.074s-.383.03-.24.074zm28.213 0c.128.03.326.03.426 0 .085-.044-.015-.074-.256-.074-.227 0-.311.03-.17.074zm-30.127.148c.1.045.227.03.27-.015.056-.044-.029-.089-.184-.074-.157 0-.199.045-.086.09zm.567 0c.1.045.227.03.27-.015.056-.044-.029-.089-.184-.074-.156 0-.199.045-.086.09zm31.049 0c.085.03.255.03.354 0 .085-.044.014-.074-.184-.074s-.27.03-.17.074zm-32.892.149a.71.71 0 00.355 0c.085-.045.014-.075-.184-.075-.199 0-.27.03-.17.075zm34.735 0a.71.71 0 00.355 0c.084-.045.014-.075-.185-.075-.198 0-.27.03-.17.075zm-36.01.148c.085.03.255.03.354 0 .085-.045.014-.075-.184-.075-.199 0-.27.03-.17.075zm37.357 0c.127.03.326.03.425 0 .085-.045-.014-.075-.255-.075-.227 0-.312.03-.17.075zm-38.775.148c.099.045.227.03.27-.015.056-.045-.03-.09-.185-.075-.156 0-.199.045-.085.09zm40.263 0c.1.045.227.03.27-.015.056-.045-.029-.09-.185-.075-.156 0-.198.045-.085.09zm-41.611.148c.128.03.355.03.497 0 .128-.044.014-.074-.255-.074-.27 0-.383.03-.241.074zm42.746 0c.085.03.255.03.354 0 .085-.044.014-.074-.184-.074-.199 0-.27.03-.17.074zm-43.95.149c.085.03.255.03.354 0 .085-.045.014-.075-.184-.075-.199 0-.27.03-.17.075zm45.367-.001c.1.045.227.03.27-.015.056-.044-.029-.089-.185-.074-.156 0-.198.045-.085.09zm-46.43.149c.127.03.326.03.425 0 .085-.045-.014-.075-.255-.075-.227 0-.312.03-.17.075zm47.423 0c.099.044.227.03.27-.015.056-.045-.03-.09-.185-.075-.156 0-.199.045-.085.09zm-48.346.148c.1.045.228.03.27-.015.057-.045-.028-.09-.184-.075-.156 0-.199.045-.085.09zm49.622 0c.099.045.227.03.27-.015.056-.045-.03-.09-.185-.075-.156 0-.199.045-.085.09zm-50.755.148c.085.03.255.03.354 0 .085-.045.014-.074-.184-.074-.199 0-.27.03-.17.074zm51.747 0c.1.045.227.03.27-.015.056-.044-.029-.09-.185-.074-.156 0-.198.044-.085.09zm-52.74.148c.1.045.227.03.27-.015.056-.044-.029-.09-.185-.074-.155 0-.198.045-.085.09zm-.708.149c.099.045.226.03.269-.015.057-.045-.028-.09-.184-.075-.156 0-.199.045-.085.09zm55.433 0c.099.045.227.03.269-.015.057-.045-.028-.09-.184-.075-.156 0-.198.045-.085.09zm-56.568.147c.1.046.227.03.27-.014.056-.045-.029-.09-.185-.075-.156 0-.198.045-.085.09zm57.56 0c.1.046.227.03.27-.014.056-.045-.029-.09-.185-.075-.156 0-.198.045-.085.09zM43.35 11c.127.029.326.029.425 0 .085-.046-.014-.075-.255-.075-.227 0-.312.03-.17.074zm-.78.147c.1.045.227.03.27-.015.056-.044-.029-.09-.185-.074-.156 0-.198.044-.085.09zm-.85.149c.099.044.226.03.269-.015.056-.045-.029-.09-.185-.075-.156 0-.198.045-.085.09zm-.851.148c.099.044.227.03.269-.015.057-.045-.028-.09-.184-.075-.156 0-.199.045-.085.09zm-.851.148a.71.71 0 00.355 0c.085-.045.014-.075-.185-.075-.198 0-.27.03-.17.075zm-.708.148c.098.045.226.03.268-.015.057-.045-.028-.09-.184-.074-.156 0-.198.044-.085.09zm-.851.148c.085.03.255.03.354 0 .085-.044.014-.074-.184-.074-.199 0-.27.03-.17.074zm-.709.149c.099.044.227.03.27-.015.056-.045-.03-.09-.185-.075-.156 0-.199.045-.085.09zm-.71.148c.1.045.228.03.27-.015.057-.045-.028-.09-.184-.075-.156 0-.198.045-.085.09zm-1.559.296a.71.71 0 00.355 0c.085-.044.014-.074-.184-.074-.199 0-.27.03-.17.074zm-1.276.297c.1.044.227.03.27-.015.056-.045-.029-.09-.184-.075-.156 0-.199.045-.086.09zm-.709.148c.1.045.227.03.27-.015.056-.045-.029-.09-.184-.075-.156 0-.199.045-.086.09zm-.708.148c.085.03.255.03.354 0 .085-.044.014-.074-.184-.074-.199 0-.27.03-.17.074zm-1.276.296c.099.045.226.03.269-.014.057-.045-.028-.09-.184-.075-.156 0-.199.045-.085.09zm-1.276.297c.099.045.226.03.27-.015.056-.045-.03-.09-.185-.074-.156 0-.199.044-.085.09zm-1.276.297c.085.03.255.03.354 0 .085-.045.014-.075-.184-.075-.199 0-.27.03-.17.075zm-.567.148c.099.044.226.03.27-.015.056-.045-.03-.09-.185-.075-.156 0-.199.045-.085.09zm-.567.148c.099.045.226.03.269-.015.057-.045-.028-.09-.184-.075-.156 0-.199.045-.085.09zm-1.276.296c.099.045.226.03.27-.015.056-.044-.03-.089-.185-.074-.156 0-.199.045-.085.09zm-1.135.297c.1.045.227.03.27-.015.056-.045-.029-.09-.184-.075-.157 0-.199.045-.086.09zm-1.134.297c.1.044.227.03.27-.016.056-.044-.029-.09-.185-.074-.156 0-.198.045-.085.09zm-1.134.296c.1.044.227.03.27-.015.056-.045-.029-.09-.185-.075-.156 0-.198.045-.085.09zm-3.261.889c.1.045.227.03.27-.015.056-.045-.029-.09-.185-.074-.155 0-.198.044-.085.09zm-8.464 42.377c0 .163.043.208.085.09.042-.104.028-.238-.014-.282-.042-.06-.085.03-.07.192zm.284 2.372c0 .163.042.208.084.089.043-.104.029-.237-.014-.282-.042-.059-.084.03-.07.193zm.156 1.096c0 .208.028.282.07.179a.824.824 0 000-.37c-.042-.09-.07-.016-.07.192zm.128.83c0 .164.042.209.084.09.042-.104.028-.237-.014-.282-.043-.059-.085.03-.07.193zm.155.95c0 .281.028.4.07.252a1.6 1.6 0 000-.52c-.042-.133-.07-.014-.07.268zm.142 1.037c0 .207.028.282.07.178a.821.821 0 000-.37c-.041-.09-.07-.016-.07.192zm122.918 6.522c0 .207.028.282.07.178a.827.827 0 000-.37c-.042-.09-.07-.016-.07.192z" fill="#418585"/></svg>