<svg width="149" height="178" fill="none" xmlns="http://www.w3.org/2000/svg"><mask id="path-1-inside-1_20_17" fill="#fff"><path d="M72.059 8.48c.482.03 1.248.03 1.701 0 .44-.03.043-.046-.893-.046s-1.304.015-.808.045z"/></mask><path d="M72.059 8.48c.482.03 1.248.03 1.701 0 .44-.03.043-.046-.893-.046s-1.304.015-.808.045z" fill="#fff"/><path d="M72.059 8.48l.06-.999h.002l-.062.998zm1.701 0l.068.997h-.002l-.066-.998zm-1.639-.999c.442.028 1.165.027 1.573 0l.132 1.996c-.499.033-1.307.033-1.83 0l.125-1.996zm1.571 0l.083-.006c.006 0-.007 0-.03.005a.87.87 0 00-.071.015c-.016.005-.115.03-.228.094a.997.997 0 00.344 1.855c.025.003.03.002-.007 0-.134-.006-.444-.01-.916-.01v-2c.464 0 .82.004 1.009.013.042.002.107.005.169.013a1.01 1.01 0 01.84.67 1.001 1.001 0 01-.456 1.2c-.115.066-.218.092-.24.098a1.126 1.126 0 01-.192.034c-.05.006-.109.01-.169.015l-.136-1.995zm-.825 1.953c-.474 0-.773.004-.89.01-.042.002-.012.003.04-.006a.937.937 0 00.279-.094.996.996 0 00.462-1.279.997.997 0 00-.376-.447c-.137-.089-.264-.12-.274-.123-.09-.025-.16-.027-.103-.022l.114.008L72 9.477a5.823 5.823 0 01-.178-.013 1.382 1.382 0 01-.24-.04c-.015-.004-.146-.037-.286-.127a1.003 1.003 0 01.388-1.831c.08-.014.16-.018.192-.02.177-.008.53-.012.992-.012v2z" fill="#000" mask="url(#path-1-inside-1_20_17)"/><mask id="path-3-inside-2_20_17" fill="#fff"><path d="M66.317 8.627c.284.03.766.03 1.063 0 .284-.03.043-.06-.538-.06-.582 0-.823.03-.525.06z"/></mask><path d="M66.317 8.627c.284.03.766.03 1.063 0 .284-.03.043-.06-.538-.06-.582 0-.823.03-.525.06z" fill="#fff"/><path d="M66.317 8.627l.1-.995h.005l-.105.995zm1.063 0l.105.995h-.005l-.1-.995zm-.958-.994c.212.022.626.023.859 0l.199 1.99a7.292 7.292 0 01-1.267-.001l.209-1.99zm.854 0c.024-.003.02-.003 0 0a.793.793 0 00-.085.022c-.003.001-.175.047-.342.19a.996.996 0 00.448 1.731l.024.004h-.01a1.4 1.4 0 00-.133-.008 14.25 14.25 0 00-.336-.004v-2c.289 0 .546.007.707.025.03.003.126.014.23.046a1.013 1.013 0 01.433.262 1.003 1.003 0 01-.066 1.466c-.171.146-.351.195-.366.2a1.216 1.216 0 01-.132.032 2.035 2.035 0 01-.163.023l-.21-1.99zm-.434 1.935a10.576 10.576 0 00-.44.009l-.036.003.028-.005a.85.85 0 00.27-.095.998.998 0 00.093-1.7c-.142-.097-.274-.13-.282-.132a.817.817 0 00-.07-.016c-.016-.003-.015-.002.012 0l-.2 1.99a2.207 2.207 0 01-.16-.02 1.275 1.275 0 01-.122-.028c-.02-.006-.162-.043-.309-.144a1.006 1.006 0 01.262-1.785c.114-.037.22-.049.246-.052.16-.019.42-.025.708-.025v2z" fill="#000" mask="url(#path-3-inside-2_20_17)"/><path d="M78.738 8.65h.03a.497.497 0 000-.082h-.031v.004a.5.5 0 00.001.078zm-15.683.146a2.587 2.587 0 00.206 0 .478.478 0 00.002-.079 5.401 5.401 0 00-.209 0 .484.484 0 00.001.08z" fill="#fff" stroke="#000"/><mask id="path-7-inside-3_20_17" fill="#fff"><path d="M65.991 8.835c-16.091.667-32.495 3.617-50.883 9.145-3.076.92-3.913 1.23-3.998 1.453-.07.163-.113.193-.113.074-.014-.118-.043-.178-.085-.148-.028.044-.17 1.705-.312 3.706-.298 4.565-.34 18.127-.07 22.515.212 3.483.694 9.294.878 10.82.071.608.241 1.912.355 2.89.326 2.802.78 5.93 1.063 7.486.07.37.184 1.067.27 1.556.084.49.283 1.571.453 2.416.156.845.27 1.601.241 1.69-.043.133-.17-.46-.978-4.832-.142-.8-.284-1.63-.284-1.853-.014-.237-.042-.296-.085-.133-.042.207.652 4.906 1.177 7.9.709 4.106 2.169 10.687 3.176 14.378.24.89.623 2.297.85 3.112 1.574 5.751 4.764 14.645 7.23 20.159 3.587 8.019 6.593 13.666 11.116 20.81 1.02 1.601 1.9 2.965 1.956 3.054.071.074.369.519.68.963.313.445.61.875.667.964.07.074.27.385.468.667.184.281.383.548.425.593.043.044.241.311.425.593.185.281.383.548.426.593.042.044.24.311.425.592.184.282.383.549.425.593.043.045.298.371.568.741.269.371.524.697.567.742.042.044.297.37.567.741.27.37.524.696.567.741.042.044.354.444.709.889.354.445.666.845.709.889.042.045.425.504.85 1.038.426.534.88 1.067.993 1.186.113.118.68.785 1.261 1.482 1.106 1.304 7.869 8.419 9.23 9.709 2.963 2.772 3.587 3.335 5.657 5.113.836.712 2.977 2.313 3.416 2.55.185.104.695.415 1.12.682 2.51 1.541 5.742 2.164 8.365 1.586 1.262-.267 2.977-.964 3.998-1.586.425-.267.936-.578 1.12-.682.44-.237 2.58-1.838 3.417-2.55 2.098-1.793 3.076-2.668 5.657-5.113 1.403-1.319 8.137-8.419 9.229-9.709a58.46 58.46 0 011.262-1.482c.113-.119.567-.652.992-1.186.426-.534.808-.993.851-1.038.042-.044.354-.444.709-.889.354-.445.666-.845.709-.889.042-.045.297-.371.567-.741.269-.371.524-.697.567-.741.042-.045.496-.638.992-1.334.511-.697.95-1.29.993-1.334.042-.045.241-.312.425-.593.184-.282.383-.549.425-.593.043-.045.553-.771 1.134-1.631.582-.859 1.092-1.586 1.135-1.63.113-.089 3.303-5.129 3.955-6.226.27-.444.78-1.319 1.134-1.927.766-1.289 2.85-5.113 4.069-7.485 2.878-5.558 5.983-12.88 8.422-19.862 1.474-4.21 3.884-12.525 4.621-15.934.057-.282.128-.593.142-.667.014-.089.199-.89.411-1.779.454-1.97 1.772-8.79 1.758-9.026-.014-.09-.099.163-.198.578-.284 1.126-.227.31.057-1.038.155-.741.283-1.082.326-.89.042.164.056-.044.014-.444-.057-.578-.029-.697.099-.519.128.178.142.163.071-.103-.043-.163.057-1.097.213-2.076.269-1.541.496-3.083.992-6.566.213-1.556.68-5.944.922-8.671.808-9.19.921-19.966.311-30.075l-.17-2.95-2.268-.637c-26.483-7.589-48.657-10.716-69.54-9.827zM13.918 73.031c-.043.118-.085.074-.085-.09-.015-.162.028-.251.07-.192.043.045.057.178.015.282zm.141.741c-.042.104-.07.03-.07-.178 0-.207.028-.281.07-.193a.819.819 0 010 .371zm120.65 0c-.043.119-.085.074-.085-.089-.015-.163.028-.252.07-.193.043.045.057.178.015.282zm-120.508.593c-.042.119-.085.074-.085-.089-.014-.163.028-.252.07-.193.043.045.058.178.015.282zm120.366.148c-.043.104-.071.03-.071-.178 0-.207.028-.281.071-.192a.827.827 0 010 .37zm-120.224.593c-.043.104-.071.03-.071-.178 0-.207.028-.281.07-.192a.816.816 0 010 .37zm120.082 0c-.042.119-.085.074-.085-.089-.014-.163.028-.252.071-.193.042.045.057.178.014.282zm-.241 1.156l-.156.37.085-.37c.029-.207.071-.504.085-.667.029-.281.029-.281.085 0a1.39 1.39 0 01-.099.667zm-119.558.178c-.042.119-.085.074-.085-.089-.014-.163.029-.252.071-.193.043.045.057.178.014.282zm.142.593c-.042.118-.085.074-.085-.089-.014-.163.028-.252.071-.193.043.045.057.178.014.282zM134 77.18c-.043.119-.085.074-.085-.089-.014-.163.028-.252.071-.192.042.044.056.177.014.281zm-119.09.445c-.043.118-.085.074-.085-.09-.014-.162.028-.251.07-.192.043.045.058.178.015.282zm.142.593c-.043.118-.085.074-.085-.09-.014-.162.028-.251.07-.192.043.045.057.178.015.282zm118.664 0c-.042.118-.085.074-.085-.09-.014-.162.028-.251.071-.192.043.045.057.178.014.282zm-118.523.593c-.042.118-.085.074-.085-.09-.014-.162.029-.251.071-.192.043.044.057.178.014.282z"/></mask><path d="M65.991 8.835c-16.091.667-32.495 3.617-50.883 9.145-3.076.92-3.913 1.23-3.998 1.453-.07.163-.113.193-.113.074-.014-.118-.043-.178-.085-.148-.028.044-.17 1.705-.312 3.706-.298 4.565-.34 18.127-.07 22.515.212 3.483.694 9.294.878 10.82.071.608.241 1.912.355 2.89.326 2.802.78 5.93 1.063 7.486.07.37.184 1.067.27 1.556.084.49.283 1.571.453 2.416.156.845.27 1.601.241 1.69-.043.133-.17-.46-.978-4.832-.142-.8-.284-1.63-.284-1.853-.014-.237-.042-.296-.085-.133-.042.207.652 4.906 1.177 7.9.709 4.106 2.169 10.687 3.176 14.378.24.89.623 2.297.85 3.112 1.574 5.751 4.764 14.645 7.23 20.159 3.587 8.019 6.593 13.666 11.116 20.81 1.02 1.601 1.9 2.965 1.956 3.054.071.074.369.519.68.963.313.445.61.875.667.964.07.074.27.385.468.667.184.281.383.548.425.593.043.044.241.311.425.593.185.281.383.548.426.593.042.044.24.311.425.592.184.282.383.549.425.593.043.045.298.371.568.741.269.371.524.697.567.742.042.044.297.37.567.741.27.37.524.696.567.741.042.044.354.444.709.889.354.445.666.845.709.889.042.045.425.504.85 1.038.426.534.88 1.067.993 1.186.113.118.68.785 1.261 1.482 1.106 1.304 7.869 8.419 9.23 9.709 2.963 2.772 3.587 3.335 5.657 5.113.836.712 2.977 2.313 3.416 2.55.185.104.695.415 1.12.682 2.51 1.541 5.742 2.164 8.365 1.586 1.262-.267 2.977-.964 3.998-1.586.425-.267.936-.578 1.12-.682.44-.237 2.58-1.838 3.417-2.55 2.098-1.793 3.076-2.668 5.657-5.113 1.403-1.319 8.137-8.419 9.229-9.709a58.46 58.46 0 011.262-1.482c.113-.119.567-.652.992-1.186.426-.534.808-.993.851-1.038.042-.044.354-.444.709-.889.354-.445.666-.845.709-.889.042-.045.297-.371.567-.741.269-.371.524-.697.567-.741.042-.045.496-.638.992-1.334.511-.697.95-1.29.993-1.334.042-.045.241-.312.425-.593.184-.282.383-.549.425-.593.043-.045.553-.771 1.134-1.631.582-.859 1.092-1.586 1.135-1.63.113-.089 3.303-5.129 3.955-6.226.27-.444.78-1.319 1.134-1.927.766-1.289 2.85-5.113 4.069-7.485 2.878-5.558 5.983-12.88 8.422-19.862 1.474-4.21 3.884-12.525 4.621-15.934.057-.282.128-.593.142-.667.014-.089.199-.89.411-1.779.454-1.97 1.772-8.79 1.758-9.026-.014-.09-.099.163-.198.578-.284 1.126-.227.31.057-1.038.155-.741.283-1.082.326-.89.042.164.056-.044.014-.444-.057-.578-.029-.697.099-.519.128.178.142.163.071-.103-.043-.163.057-1.097.213-2.076.269-1.541.496-3.083.992-6.566.213-1.556.68-5.944.922-8.671.808-9.19.921-19.966.311-30.075l-.17-2.95-2.268-.637c-26.483-7.589-48.657-10.716-69.54-9.827zM13.918 73.031c-.043.118-.085.074-.085-.09-.015-.162.028-.251.07-.192.043.045.057.178.015.282zm.141.741c-.042.104-.07.03-.07-.178 0-.207.028-.281.07-.193a.819.819 0 010 .371zm120.65 0c-.043.119-.085.074-.085-.089-.015-.163.028-.252.07-.193.043.045.057.178.015.282zm-120.508.593c-.042.119-.085.074-.085-.089-.014-.163.028-.252.07-.193.043.045.058.178.015.282zm120.366.148c-.043.104-.071.03-.071-.178 0-.207.028-.281.071-.192a.827.827 0 010 .37zm-120.224.593c-.043.104-.071.03-.071-.178 0-.207.028-.281.07-.192a.816.816 0 010 .37zm120.082 0c-.042.119-.085.074-.085-.089-.014-.163.028-.252.071-.193.042.045.057.178.014.282zm-.241 1.156l-.156.37.085-.37c.029-.207.071-.504.085-.667.029-.281.029-.281.085 0a1.39 1.39 0 01-.099.667zm-119.558.178c-.042.119-.085.074-.085-.089-.014-.163.029-.252.071-.193.043.045.057.178.014.282zm.142.593c-.042.118-.085.074-.085-.089-.014-.163.028-.252.071-.193.043.045.057.178.014.282zM134 77.18c-.043.119-.085.074-.085-.089-.014-.163.028-.252.071-.192.042.044.056.177.014.281zm-119.09.445c-.043.118-.085.074-.085-.09-.014-.162.028-.251.07-.192.043.045.058.178.015.282zm.142.593c-.043.118-.085.074-.085-.09-.014-.162.028-.251.07-.192.043.045.057.178.015.282zm118.664 0c-.042.118-.085.074-.085-.09-.014-.162.028-.251.071-.192.043.045.057.178.014.282zm-118.523.593c-.042.118-.085.074-.085-.09-.014-.162.029-.251.071-.192.043.044.057.178.014.282z" fill="#fff" stroke="#000" stroke-width="2" mask="url(#path-7-inside-3_20_17)"/><path d="M82.478 8.796a2.587 2.587 0 00.206 0 .478.478 0 00.002-.079 5.401 5.401 0 00-.209 0 .484.484 0 00.001.08zm-21.449.054c-.078 0-.142.002-.191.006a.483.483 0 000 .077 1.468 1.468 0 00.386 0 .488.488 0 00.002-.076 2.12 2.12 0 00-.197-.008zm23.861.074c.053-.028.045-.05-.02-.063l.02.063zm0 0a.677.677 0 01-.185.022.56.56 0 01-.17-.022m.355 0l-.035-.066a1.045 1.045 0 00-.15-.009c-.058 0-.105.003-.14.008l-.03.067m0 0c-.068-.03-.056-.055.023-.066l-.023.066zm-25.633.074a2.15 2.15 0 00-.191.007.484.484 0 000 .077 1.47 1.47 0 00.386 0 .488.488 0 00.002-.077 2.12 2.12 0 00-.197-.007zm28.398.074l-.018-.057a.189.189 0 01.023.007c0 .016 0 .032-.002.048l-.003.002zm0 0a.862.862 0 01-.256.021.955.955 0 01-.17-.02m.426 0l-.032-.061a1.307 1.307 0 00-.224-.014c-.06 0-.11.002-.148.006l-.022.068m0 0a.333.333 0 01-.044-.017v-.04a.345.345 0 01.06-.01l-.016.067zm-29.936.058a.538.538 0 00-.105 0l-.046.002h-.005c-.113.01-.135.049-.035.088a.31.31 0 00.096.025c.074.008.144-.009.174-.04.038-.03.012-.06-.057-.072a.338.338 0 00-.022-.003zm.567 0a.538.538 0 00-.105 0l-.046.002h-.005c-.113.01-.135.049-.035.088a.311.311 0 00.096.025c.074.008.144-.009.174-.04.038-.03.012-.06-.057-.072a.338.338 0 00-.022-.003zm31.212.09c.054-.028.046-.05-.019-.063l.02.063zm0 0a.677.677 0 01-.184.023.56.56 0 01-.17-.023m.354 0l-.034-.066a1.045 1.045 0 00-.15-.008c-.058 0-.105.002-.14.007l-.03.067m0 0c-.069-.03-.056-.054.023-.066l-.023.066zm-32.537.149c.054-.029.045-.051-.02-.064l.02.064zm0 0a.677.677 0 01-.184.022.56.56 0 01-.17-.022m.354 0l-.035-.066a1.045 1.045 0 00-.15-.009c-.057 0-.104.003-.14.007l-.03.068m0 0c-.068-.031-.056-.055.024-.067l-.024.067zm35.089 0c.054-.029.046-.051-.019-.064l.02.064zm0 0a.677.677 0 01-.184.022.56.56 0 01-.17-.022m.355 0l-.035-.066a1.044 1.044 0 00-.15-.009c-.058 0-.105.003-.14.007l-.03.068m0 0c-.068-.031-.056-.055.023-.067l-.023.067zm-35.656.148c.054-.028.045-.05-.02-.063l.02.063zm0 0a.675.675 0 01-.184.022.56.56 0 01-.17-.022m.354 0l-.035-.066a1.043 1.043 0 00-.15-.009c-.057 0-.104.003-.14.008l-.03.067m0 0c-.068-.03-.056-.055.024-.066l-.023.066zm37.783 0l-.017-.057a.185.185 0 01.022.006v.049a.145.145 0 01-.005.002zm0 0a.86.86 0 01-.255.021.954.954 0 01-.17-.021m.425 0l-.032-.06a1.305 1.305 0 00-.223-.015c-.06 0-.11.002-.148.006l-.022.069m0 0a.333.333 0 01-.045-.017v-.04a.34.34 0 01.06-.011l-.015.068zm-38.585.058a.538.538 0 00-.105 0l-.046.002h-.005c-.113.01-.134.049-.034.088a.309.309 0 00.096.025c.073.008.144-.009.173-.04.038-.03.012-.06-.057-.072a.338.338 0 00-.022-.003zm40.264 0a.539.539 0 00-.106 0l-.045.002h-.005c-.113.01-.135.049-.035.088a.31.31 0 00.096.025c.074.008.144-.009.174-.04.038-.03.012-.06-.057-.072a.326.326 0 00-.022-.003zm-41.56.164c-.078 0-.142.002-.191.007a.508.508 0 000 .077 1.47 1.47 0 00.386 0 .476.476 0 00.001-.077 2.118 2.118 0 00-.196-.007zm42.858.074c.054-.028.045-.05-.019-.063l.02.063zm0 0a.677.677 0 01-.184.023.56.56 0 01-.17-.023m.354 0l-.035-.066a1.045 1.045 0 00-.15-.008c-.057 0-.104.002-.139.007l-.03.067m0 0c-.069-.03-.056-.054.023-.066l-.023.066zm-43.596.149c.054-.029.045-.051-.019-.064l.02.064zm0 0a.676.676 0 01-.184.022.56.56 0 01-.17-.022m.354 0l-.035-.066a1.044 1.044 0 00-.15-.009c-.057 0-.104.002-.139.007l-.03.068m0 0c-.069-.031-.056-.055.023-.067l-.023.067zm45.558-.091a.538.538 0 00-.106 0l-.045.002h-.005c-.114.01-.135.049-.035.088a.31.31 0 00.096.026c.074.007.144-.01.174-.04.038-.03.012-.06-.057-.073a.332.332 0 00-.022-.003zm-46.196.239l-.017-.057a.192.192 0 01.022.006.46.46 0 01-.001.049l-.004.002zm0 0a.86.86 0 01-.255.02.946.946 0 01-.17-.02m.425 0l-.032-.06a1.316 1.316 0 00-.223-.015c-.06 0-.11.002-.149.006l-.021.069m0 0a.322.322 0 01-.045-.017v-.04a.343.343 0 01.06-.011l-.015.068zm47.613-.09a.538.538 0 00-.105 0c-.017 0-.032 0-.046.002h-.005c-.113.009-.134.048-.034.088a.31.31 0 00.085.024h.01c.074.008.145-.008.174-.04.038-.03.012-.06-.057-.071a.332.332 0 00-.022-.003zm-48.345.148a.545.545 0 00-.105 0 .31.31 0 00-.045.002h-.006c-.113.009-.134.048-.034.088a.311.311 0 00.096.025c.073.008.144-.009.173-.04.038-.03.012-.06-.057-.072a.384.384 0 00-.022-.003zm49.621 0a.545.545 0 00-.105 0c-.017 0-.032 0-.046.002h-.005c-.113.009-.134.048-.034.088a.31.31 0 00.085.024l.01.001c.074.008.145-.009.174-.04.038-.03.012-.06-.057-.072a.41.41 0 00-.022-.003zm-50.591.238c.054-.028.045-.05-.019-.063l.02.063zm0 0a.676.676 0 01-.184.022.561.561 0 01-.17-.022m.354 0l-.035-.066a1.033 1.033 0 00-.15-.008 1.1 1.1 0 00-.139.007l-.03.067m0 0c-.069-.03-.056-.054.023-.066l-.023.066zm51.937-.09a.54.54 0 00-.105 0 .7.7 0 00-.05.002c-.114.01-.135.049-.035.088.027.012.056.02.085.024l.011.001c.074.008.144-.009.174-.04.038-.03.011-.06-.057-.072a.329.329 0 00-.022-.003zm-52.739.148a.538.538 0 00-.106 0l-.045.002h-.005c-.113.01-.135.049-.035.088a.31.31 0 00.096.025c.074.008.144-.009.174-.04.038-.03.012-.06-.057-.072a.332.332 0 00-.022-.003zm-.709.149a.537.537 0 00-.105 0 .633.633 0 00-.05.002c-.114.009-.136.048-.035.088.026.012.056.02.085.024h.01c.074.008.144-.008.174-.04.038-.03.012-.06-.057-.071a.332.332 0 00-.022-.003zm55.433 0a.535.535 0 00-.105 0c-.016 0-.031 0-.045.002h-.005c-.114.009-.135.048-.035.088.027.012.056.02.085.024h.011c.073.008.144-.008.173-.04.039-.03.012-.06-.057-.071a.309.309 0 00-.022-.003zm-56.567.147a.538.538 0 00-.106.001c-.016 0-.031 0-.045.002h-.005c-.113.009-.135.048-.035.088a.31.31 0 00.096.025c.074.008.144-.01.174-.04.038-.03.012-.06-.057-.072a.332.332 0 00-.022-.003zm57.56 0a.546.546 0 00-.106.001.633.633 0 00-.05.002c-.113.009-.135.048-.035.088a.31.31 0 00.085.024l.011.001c.074.008.144-.01.174-.04.038-.03.012-.06-.057-.072a.415.415 0 00-.022-.003zM43.775 11l-.017-.058a.172.172 0 01.022.007l-.001.048-.004.002zm0 0a.858.858 0 01-.255.02.948.948 0 01-.17-.02m.425 0l-.032-.061a1.302 1.302 0 00-.223-.014c-.06 0-.11.002-.149.006l-.021.068m0 0a.332.332 0 01-.045-.017v-.04a.344.344 0 01.06-.01l-.015.067zm-.59.058a.539.539 0 00-.105 0l-.045.002h-.005c-.114.01-.135.049-.035.088a.31.31 0 00.096.025c.074.008.144-.009.173-.04.039-.03.013-.06-.056-.072a.329.329 0 00-.023-.003zm-.85.148a.546.546 0 00-.106.001c-.016 0-.031 0-.045.002h-.005c-.113.009-.135.048-.035.088a.31.31 0 00.096.025c.074.007.144-.01.174-.04.038-.03.012-.06-.057-.073a.41.41 0 00-.022-.003zm-.851.149a.538.538 0 00-.105 0c-.017 0-.032 0-.046.002h-.005c-.113.009-.134.048-.034.088a.312.312 0 00.096.025c.073.008.143-.01.173-.04.038-.03.012-.06-.057-.072a.332.332 0 00-.022-.003zm-.686.238c.053-.028.045-.05-.02-.063l.02.063zm0 0a.676.676 0 01-.185.022.562.562 0 01-.17-.022m.355 0l-.035-.066a1.052 1.052 0 00-.15-.008 1.1 1.1 0 00-.14.007l-.03.067m0 0c-.068-.03-.056-.055.023-.066l-.023.066zm-.518.058a.53.53 0 00-.106 0 .7.7 0 00-.045.002h-.005c-.114.01-.135.049-.035.088a.31.31 0 00.085.024l.011.001c.074.008.144-.009.173-.04.039-.03.012-.06-.056-.072a.32.32 0 00-.023-.003zm-.687.238c.054-.028.045-.05-.019-.063l.019.063zm0 0a.68.68 0 01-.184.023.561.561 0 01-.17-.023m.354 0l-.035-.066a1.049 1.049 0 00-.15-.008c-.057 0-.104.002-.139.007l-.03.067m0 0c-.069-.03-.056-.054.023-.066l-.023.066zm-.519.058a.546.546 0 00-.105.001.703.703 0 00-.05.002c-.114.009-.135.048-.035.088a.31.31 0 00.096.025c.073.007.144-.01.173-.04.038-.03.012-.06-.057-.072a.33.33 0 00-.022-.004zm-.709.149a.537.537 0 00-.105 0c-.016 0-.032 0-.045.002h-.006c-.113.009-.134.049-.034.088a.31.31 0 00.085.024l.01.001c.074.008.145-.009.174-.04.038-.03.012-.06-.057-.072a.332.332 0 00-.022-.003zm-1.395.386c.054-.028.045-.05-.02-.063l.02.063zm0 0a.68.68 0 01-.184.023.562.562 0 01-.17-.023m.354 0l-.035-.066a1.035 1.035 0 00-.15-.008c-.057 0-.104.002-.14.007l-.03.067m0 0c-.068-.03-.056-.054.024-.066l-.024.066zm-1.085.207a.538.538 0 00-.105 0c-.017 0-.032 0-.046.002h-.005c-.113.009-.135.048-.035.088.027.012.057.02.086.024h.01c.074.008.144-.008.174-.04.038-.03.012-.06-.057-.071a.32.32 0 00-.022-.003zm-.709.148a.546.546 0 00-.105 0c-.017 0-.032 0-.046.002h-.005c-.113.009-.135.048-.035.088.027.012.057.02.085.024l.011.001c.074.008.144-.009.174-.04.038-.03.012-.06-.057-.072a.32.32 0 00-.022-.003zm-.545.238c.054-.028.045-.05-.019-.063l.02.063zm0 0a.679.679 0 01-.184.023.561.561 0 01-.17-.023m.354 0l-.035-.066a1.034 1.034 0 00-.15-.008c-.057 0-.104.002-.139.007l-.03.067m0 0c-.069-.03-.056-.054.023-.066l-.023.066zm-1.086.206a.545.545 0 00-.105.001.7.7 0 00-.046.002h-.005c-.113.009-.134.048-.034.088a.31.31 0 00.085.024h.01c.074.008.145-.008.174-.04.038-.03.012-.06-.057-.071a.33.33 0 00-.022-.004zm-1.276.297a.538.538 0 00-.105 0l-.046.002h-.005c-.113.01-.134.049-.034.088a.31.31 0 00.085.024l.01.001c.074.008.145-.009.174-.04.038-.03.012-.06-.057-.072a.32.32 0 00-.022-.003zm-1.112.387c.054-.029.045-.051-.019-.064l.019.064zm0 0a.68.68 0 01-.184.022.561.561 0 01-.17-.022m.354 0l-.035-.066a1.035 1.035 0 00-.15-.009 1.12 1.12 0 00-.14.007l-.03.068m0 0c-.068-.031-.055-.055.024-.067l-.023.067zm-.376.057a.546.546 0 00-.105.001.7.7 0 00-.046.002h-.005c-.113.009-.134.048-.034.088a.31.31 0 00.096.025c.073.007.144-.01.173-.04.038-.03.012-.06-.057-.072a.393.393 0 00-.022-.004zm-.567.149a.546.546 0 00-.105 0c-.017 0-.032 0-.046.002h-.005c-.113.009-.134.048-.034.088a.31.31 0 00.085.024l.01.001c.074.008.144-.009.174-.04.038-.03.012-.06-.057-.072a.33.33 0 00-.022-.003zm-1.276.296a.538.538 0 00-.105 0l-.046.002h-.005c-.113.01-.134.049-.034.088a.31.31 0 00.085.024l.01.002c.074.007.145-.01.174-.04.038-.03.012-.06-.057-.073a.332.332 0 00-.022-.003zm-1.134.297a.546.546 0 00-.106 0 .7.7 0 00-.045.002h-.005c-.113.009-.135.048-.035.088a.31.31 0 00.096.025c.074.008.144-.01.174-.04.038-.03.012-.06-.057-.072a.318.318 0 00-.022-.003zm-1.135.297a.539.539 0 00-.105 0 .633.633 0 00-.05.002c-.114.008-.135.048-.035.087a.311.311 0 00.096.025c.074.008.144-.009.174-.04.038-.03.012-.06-.057-.072a.329.329 0 00-.023-.003zm-1.134.296a.538.538 0 00-.105 0c-.016 0-.031 0-.045.002h-.005c-.114.009-.135.048-.035.088a.31.31 0 00.096.025c.074.007.144-.01.174-.04.038-.03.011-.06-.058-.072a.32.32 0 00-.022-.003zm-3.26.889a.547.547 0 00-.106 0l-.045.002h-.005c-.113.01-.135.049-.035.088.027.012.056.02.085.024l.011.001c.074.008.144-.009.174-.04.038-.03.012-.06-.057-.072a.318.318 0 00-.022-.003zM11.53 58.703c.008-.077-.008-.152-.037-.183-.027-.038-.054-.016-.066.047a.584.584 0 00-.005.146.766.766 0 00.003.06c.009.112.045.13.082.028a.35.35 0 00.022-.089l.001-.009zm.284 2.372c.008-.078-.008-.153-.038-.184-.027-.037-.053-.015-.066.047a.592.592 0 00-.004.146c0 .02 0 .039.002.055v.005c.01.112.046.132.082.029a.35.35 0 00.024-.098zm.118 1.284l-.063-.026a1.228 1.228 0 01-.007-.152c0-.07.003-.125.009-.164l.061-.029m0 .37a.644.644 0 00.021-.177.78.78 0 00-.02-.193m0 .37l-.063-.019c.012.079.034.09.062.02zm0-.37l-.06.016c.012-.063.033-.071.06-.016zm.164 1.014c.008-.078-.008-.153-.037-.184-.027-.037-.054-.015-.066.047a.584.584 0 00-.005.146l.002.055v.005c.01.112.046.131.083.029a.35.35 0 00.022-.09l.001-.008zm.13 1.134a1.592 1.592 0 000-.358.476.476 0 00-.076-.001 2.657 2.657 0 000 .36.499.499 0 00.076 0zm.131 1.039l-.063-.026a1.231 1.231 0 01-.008-.152c0-.07.004-.125.01-.164l.06-.029m0 .37a.642.642 0 00.022-.177.78.78 0 00-.021-.193m0 .37l-.062-.019c.011.079.033.09.062.02zm0-.37l-.06.016c.013-.063.034-.07.06-.016zm122.917 6.893l-.063-.026a1.228 1.228 0 01-.007-.152c0-.07.003-.125.009-.164l.061-.029m0 .37a.637.637 0 00.021-.177c0-.07-.007-.14-.021-.193m0 .37l-.062-.019c.012.079.034.09.062.02zm0-.37l-.059.016c.012-.063.033-.071.059-.016z" fill="#fff" stroke="#000"/><path d="M20.02 34.46c.017.133.093.684.169 1.21.303 2.232.708 3.928 2.141 8.9a563.07 563.07 0 011.897 6.685c.06.226.413 1.546.784 2.925.38 1.379.835 3.1 1.02 3.819.355 1.345.76 2.916 1.35 5.18.185.703.514 1.956.725 2.783a384.79 384.79 0 001.652 6.226l.843 3.091a584.259 584.259 0 002.226 7.73c.152.501.422 1.37.59 1.922 2.276 7.428 4.612 13.295 6.787 17.005 3.33 5.69 7.225 9.96 10.632 11.665 1.45.719 2.495.986 3.87.986 1.146-.008 1.922-.192 2.933-.693 2.21-1.103 4.2-3.619 5.691-7.195.169-.393.548-1.463.86-2.382.312-.919.692-1.947.843-2.273.717-1.537 1.67-2.364 2.437-2.114.81.259 1.324 1.446 1.568 3.593.186 1.63.464 3.569.81 5.599.354 2.031.413 4.521.16 6.309-.026.184-.135 1.103-.253 2.047-.793 6.435-.65 7.579 1.425 11.574 2.183 4.178 3.659 6.192 4.215 5.732.16-.134.304-.744.304-1.278 0-1.162 1.627-6.284 3.305-10.429.843-2.064 1.23-2.858 1.854-3.81 2.117-3.201 4.477-8.774 5.464-12.902.43-1.805.97-3.535 1.138-3.677.11-.092.177-.05.438.217.97 1.02 2.825 4.337 4.022 7.203.337.811.767 1.78.961 2.148.759 1.487 1.77 2.615 2.79 3.117.608.3.667.309 1.518.309 1.096 0 1.636-.176 2.707-.886 3.524-2.34 7.571-8.724 12.073-19.044 2.546-5.84 4.173-10.696 6.753-20.138a1293.79 1293.79 0 002.42-8.9 483.838 483.838 0 011.349-5.013c.126-.46.396-1.421.59-2.131a222.73 222.73 0 013.372-11.03c1.155-3.418 1.375-4.346 1.383-5.808.008-1.262-.118-1.713-.582-2.123-.708-.61-1.711-.543-3.372.234-2.833 1.33-6.467 4.287-11.551 9.384-5.311 5.315-7.773 8.499-9.982 12.869-1.509 2.983-2.69 6.184-3.912 10.638-.202.743-.438 1.487-.523 1.654-.295.618-.716.384-2.487-1.404-2.824-2.84-5.42-4.144-8.27-4.144-1.383 0-2.353.259-3.744.977-.312.15-.624.284-.708.284-.405 0-.548-.526-.675-2.423-.472-7.128-.337-10.788.624-16.67.987-5.992 2.622-11.407 4.587-15.167 1.509-2.9 1.475-2.816 1.509-3.326.034-.551-.177-1.22-.573-1.763-.43-.577-.835-.46-2.032.593-.641.568-3.39 3.443-4.376 4.58-3.971 4.587-5.834 8.748-7.032 15.709-.11.669-.286 1.721-.379 2.34-.354 2.214-.556 2.883-.717 2.315a263.3 263.3 0 01-.556-2.399c-.278-1.22-.54-2.365-.59-2.548-1.012-3.702-4.064-9.76-7.023-13.939-2.26-3.2-3.87-4.637-5.674-5.063-.363-.084-.48-.084-.742.025-1.189.493-.48 3.284 2.167 8.531 3.237 6.418 4.038 9 5.868 18.969.177.936.438 2.532.598 3.61.11.769.11 2.064 0 2.465-.11.376-.438.777-.775.953-.135.066-.692.275-1.231.46-1.08.367-1.729.701-2.555 1.294-1.855 1.346-3.398 3.159-5.379 6.3-.978 1.547-1.4 2.09-1.636 2.09-.312-.008-.59-.435-1.382-2.14-1.459-3.1-2.268-4.119-7.782-9.768-3.474-3.56-4.165-4.312-5.025-5.44-.8-1.06-1.273-1.972-1.973-3.835-1.703-4.512-3.17-7.345-5.219-10.07-.261-.342-1.138-1.303-1.947-2.13-1.804-1.83-2.184-2.323-2.437-3.092-.514-1.596-2.63-4.32-4.325-5.582-.784-.585-1.787-1.63-2.706-2.816-1.408-1.83-2.175-2.398-2.774-2.08-.354.192-.514.776-.54 1.997-.008.618 0 1.236.017 1.378z" fill="#418585"/></svg>