<svg width="23" height="5" viewBox="0 0 23 5" fill="none" xmlns="http://www.w3.org/2000/svg">
<path d="M1.91901 4.74079C2.77449 4.60521 3.48261 4.48956 3.49519 4.48956C3.50777 4.48557 3.6803 4.13465 3.8798 3.70796L4.24284 2.93034L4.64003 2.93034C4.85929 2.93034 6.01492 2.91439 7.21188 2.89047C8.40705 2.87053 10.5026 2.83464 11.8667 2.81071C13.2308 2.79077 15.5223 2.75089 16.9601 2.72697C18.7358 2.69905 19.5769 2.69507 19.5895 2.72298C19.6003 2.74691 19.6039 2.80672 19.5967 2.86255C19.5913 2.91439 19.4439 3.4009 19.2696 3.94324C19.097 4.48558 18.9569 4.93619 18.9605 4.94417C18.964 4.95215 19.1725 4.76073 19.4241 4.52147C20.0604 3.91134 20.4558 3.5644 20.8242 3.28924C21.5071 2.77881 22.1056 2.53157 22.6574 2.53157C22.7958 2.53157 22.9288 2.51562 22.9539 2.49169C23.0168 2.43985 23.015 2.28831 22.9503 2.1288L22.8982 2.00119L22.253 1.84966C20.9949 1.55456 20.4162 1.3153 19.8806 0.876642C19.6758 0.709155 19.3738 0.366207 19.2246 0.130928C19.124 -0.0245952 19.1204 -0.0245953 19.0737 0.0431969C19.0252 0.110989 18.9748 0.290439 18.9748 0.390133C18.9748 0.422035 19.0683 0.713143 19.1815 1.04014C19.2947 1.36714 19.3882 1.65426 19.3882 1.67818C19.3882 1.75395 18.9802 1.7699 16.0992 1.81377C13.4914 1.85365 11.2988 1.89352 7.12202 1.97328C5.98437 1.99322 4.86469 2.01316 4.63284 2.01316L4.21049 2.01316L3.71625 1.29934L3.22201 0.585533L1.71592 0.545655C0.779556 0.521728 0.181074 0.521728 0.132549 0.545655C0.0337006 0.58952 -0.0130276 0.69719 0.00314752 0.832774C0.0193227 0.98431 0.116374 1.20763 0.20983 1.31529C0.288909 1.40303 0.837068 1.96131 0.95928 2.07696L1.01499 2.1288L0.980847 2.3561C0.941308 2.61132 0.946699 2.77881 1.00241 3.01807L1.03656 3.16562L0.60702 3.80367C0.36619 4.16257 0.173885 4.4776 0.166696 4.52146C0.146927 4.65705 0.204438 4.88036 0.272733 4.94417C0.308678 4.97607 0.342826 5 0.350015 5C0.357204 4.99601 1.06352 4.88036 1.91901 4.74079ZM0.993427 4.40582C1.00781 4.34201 1.03656 4.27023 1.05633 4.24631C1.10306 4.19048 1.10306 4.0868 1.05633 4.0868C1.02758 4.0868 1.02398 4.07085 1.03656 3.99907C1.04375 3.95121 1.06711 3.8914 1.08509 3.87146C1.10306 3.84753 1.14979 3.78771 1.18753 3.73587C1.22707 3.68403 1.28997 3.61624 1.33131 3.58434C1.37265 3.55244 1.41758 3.50059 1.43375 3.47268C1.47149 3.39691 1.69974 3.29323 1.77882 3.31716C1.82735 3.33311 1.86329 3.30918 1.9262 3.22943L2.00887 3.12176L2.06279 3.21746C2.10951 3.29722 2.11491 3.32513 2.10592 3.46072C2.09334 3.6282 2.1185 3.65213 2.20297 3.55244C2.40606 3.30519 2.50671 3.23341 2.66486 3.20949C2.79606 3.19354 2.8374 3.1736 2.88233 3.09783C2.92187 3.03004 2.97219 2.99814 3.05307 2.98218L3.16809 2.95826L3.12316 3.06992C3.0315 3.29722 2.81403 3.68004 2.7062 3.80765C2.64509 3.87943 2.52288 3.97913 2.43302 4.03097C2.34316 4.07882 2.21375 4.17453 2.14546 4.23833C2.02684 4.34999 2.01786 4.35398 1.95675 4.29815C1.91901 4.26226 1.86329 4.24631 1.81656 4.25827C1.77343 4.26625 1.73928 4.26625 1.74108 4.2503C1.74108 4.23833 1.77882 4.17453 1.82555 4.10674C1.87228 4.04293 1.90822 3.97115 1.90643 3.94723C1.90463 3.92729 1.87587 3.8914 1.84352 3.87545C1.80039 3.85152 1.7285 3.87545 1.57573 3.96318C1.37085 4.07483 1.33311 4.11072 1.09228 4.38987C1.02757 4.46165 0.973658 4.52545 0.970063 4.52545C0.968266 4.52545 0.977252 4.47361 0.993427 4.40582ZM2.62173 4.26226C2.60016 4.22238 2.64869 4.11471 2.71698 4.04692C2.76191 4.00704 2.84818 3.85949 2.91108 3.71992C2.97399 3.58035 3.07104 3.41685 3.12855 3.35305C3.2292 3.24139 3.23279 3.24139 3.26694 3.30918C3.29749 3.37299 3.31007 3.37299 3.34781 3.32912C3.38196 3.28924 3.40173 3.28924 3.44666 3.32912C3.49699 3.37697 3.51675 3.36501 3.69468 3.19752C3.92113 2.98617 4.00021 2.94629 4.04874 3.02206C4.07749 3.06992 4.07929 3.08587 4.05593 3.15765C4.04155 3.20151 3.98044 3.32912 3.91754 3.44477C3.85643 3.56041 3.79533 3.68802 3.78275 3.73189C3.77017 3.77974 3.72883 3.85152 3.68929 3.89538C3.64975 3.93925 3.59224 4.01901 3.55989 4.07085C3.49878 4.17453 3.44127 4.19048 3.36758 4.12668C3.31367 4.08281 3.30648 3.9871 3.35141 3.93127C3.36938 3.91134 3.37837 3.87943 3.37118 3.86348C3.36399 3.85152 3.30648 3.88342 3.24537 3.94324C2.96141 4.20244 2.79247 4.3141 2.70979 4.29416C2.66486 4.28619 2.62532 4.27024 2.62173 4.26226ZM19.4044 4.13864C19.4134 4.09876 19.5212 3.83956 19.6434 3.5644C19.7908 3.22943 19.9112 3.00212 20.0064 2.86654L20.1466 2.67114L19.9382 2.65918C19.7369 2.64721 19.7315 2.64721 19.753 2.57145C19.7728 2.49568 19.798 2.49169 20.7002 2.49169L21.6258 2.49568L21.4191 2.61531C21.101 2.79875 20.5672 3.20151 19.9543 3.72391C19.647 3.98312 19.3954 4.19846 19.3918 4.20244C19.39 4.20244 19.3954 4.17453 19.4044 4.13864ZM4.05593 2.74691C4.03796 2.71102 3.97325 2.63924 3.91035 2.58739L3.79712 2.49568L5.91248 2.49568C7.5947 2.49169 8.02963 2.50365 8.02963 2.54353C8.02963 2.56746 8.03502 2.63126 8.04041 2.6831L8.0512 2.77083L7.56774 2.77083C7.29815 2.77083 7.05912 2.75488 7.03036 2.73095C6.92073 2.6512 6.51096 2.59936 6.00773 2.61132C5.56741 2.6193 5.47755 2.63126 5.42363 2.68709C5.37151 2.73893 5.27625 2.75488 4.89344 2.77083C4.63644 2.7828 4.35068 2.79875 4.25722 2.80273C4.12243 2.81071 4.08109 2.79875 4.05593 2.74691ZM2.37011 2.72697C2.34316 2.6831 2.28924 2.62328 2.2497 2.59138C2.185 2.53954 2.20657 2.53555 2.52288 2.53157C2.71159 2.53157 3.00274 2.52359 3.16989 2.51163C3.41431 2.49568 3.46104 2.50365 3.41431 2.53954C3.38016 2.56347 3.33703 2.63525 3.31546 2.69905L3.27772 2.81071L2.84998 2.81071C2.4456 2.81071 2.41864 2.80672 2.37011 2.72697ZM1.37983 2.69506C1.37983 2.5515 1.4014 2.53157 1.57214 2.53157C1.70334 2.53157 1.70693 2.53555 1.69615 2.62328C1.69076 2.67114 1.68537 2.73494 1.68537 2.76286C1.68537 2.79875 1.64223 2.81071 1.5326 2.81071L1.37983 2.81071L1.37983 2.69506ZM12.5623 2.62329L12.5677 2.51163L12.9235 2.49966L13.2794 2.49169L13.2488 2.5874C13.2183 2.69507 13.2488 2.69108 12.6971 2.72298L12.5569 2.73096L12.5623 2.62329ZM12.1004 2.61132L12.1291 2.49169L12.3089 2.49169C12.467 2.49169 12.4886 2.49966 12.4796 2.55549C12.4742 2.59138 12.4688 2.64322 12.4688 2.67513C12.4688 2.71899 12.4293 2.73096 12.2711 2.73096L12.0716 2.73096L12.1004 2.61132ZM10.1863 2.63126C10.1863 2.57543 10.1971 2.5196 10.2079 2.51163C10.2205 2.49966 10.6356 2.49568 11.1299 2.49966L12.0285 2.51163L11.8128 2.61531C11.6025 2.71899 11.581 2.71899 10.8908 2.72697L10.1863 2.73096L10.1863 2.63126ZM9.09 2.61132L9.00913 2.49169L9.40811 2.49169L9.8089 2.49169L9.8089 2.61132L9.8089 2.73096L9.48899 2.73096L9.17088 2.73096L9.09 2.61132ZM16.288 2.59138L16.1801 2.49568L16.8487 2.49568C17.4328 2.49169 17.5191 2.49967 17.5191 2.55151C17.5191 2.58341 17.537 2.61531 17.5586 2.6193C17.6143 2.63126 17.0176 2.67114 16.6744 2.67911C16.4192 2.68709 16.3868 2.67911 16.288 2.59138ZM16.0561 2.57144L16.0184 2.48371L16.0651 2.50764C16.0921 2.5196 16.1478 2.56746 16.1909 2.61132L16.27 2.69108L16.1819 2.67513C16.1226 2.66316 16.0831 2.63126 16.0561 2.57144ZM15.9447 2.63126C15.9249 2.52359 15.9465 2.49966 15.9788 2.59537C16.0076 2.67911 16.0076 2.69108 15.9824 2.69108C15.9662 2.69108 15.9501 2.66316 15.9447 2.63126ZM15.6679 2.59138C15.6679 2.49568 15.6733 2.49169 15.7668 2.49169C15.8602 2.49169 15.8656 2.49568 15.8656 2.59138C15.8656 2.68709 15.8602 2.69108 15.7668 2.69108C15.6733 2.69108 15.6679 2.68709 15.6679 2.59138ZM13.9857 2.62727C13.9911 2.59138 13.9965 2.54752 13.9965 2.52758C13.9965 2.50764 14.3182 2.49169 14.7873 2.49169L15.578 2.49169L15.578 2.59138L15.578 2.69108L14.7765 2.69108C14.0522 2.69108 13.9749 2.6831 13.9857 2.62727ZM13.4088 2.59138C13.4303 2.49169 13.4321 2.49169 13.6676 2.49169L13.9066 2.49169L13.9066 2.59138L13.9066 2.69108L13.6478 2.69108L13.389 2.69108L13.4088 2.59138ZM19.1438 2.62329C19.1492 2.60734 19.133 2.57543 19.106 2.54752C19.0629 2.50764 19.106 2.49568 19.3756 2.49568C19.6901 2.49169 19.6937 2.49169 19.6722 2.57145C19.6506 2.64323 19.629 2.6512 19.39 2.6512C19.248 2.6512 19.1366 2.63924 19.1438 2.62329ZM18.0582 2.58341L17.9234 2.54752L18.1499 2.51562C18.4554 2.47175 19.0018 2.53556 19.0413 2.62329C19.0575 2.66316 18.2416 2.62727 18.0582 2.58341ZM17.8174 2.61531C17.8066 2.58341 18.0924 2.60335 18.1104 2.63525C18.114 2.64322 18.0528 2.6512 17.972 2.6512C17.8929 2.6512 17.8228 2.63525 17.8174 2.61531ZM17.6754 2.62329C17.688 2.61531 17.7132 2.61531 17.7293 2.62329C17.7473 2.63525 17.7365 2.64322 17.7078 2.64322C17.6772 2.64322 17.6646 2.63525 17.6754 2.62329ZM10.0875 2.53157C10.0821 2.51163 10.0857 2.49169 10.0947 2.49169C10.1054 2.49169 10.1144 2.51163 10.1144 2.53157C10.1144 2.55549 10.1108 2.57144 10.1072 2.57144C10.1018 2.57144 10.0929 2.55549 10.0875 2.53157ZM18.8706 2.50365C18.8886 2.49568 18.9173 2.49568 18.9335 2.50365C18.9515 2.51562 18.9371 2.52359 18.9029 2.52359C18.8688 2.52359 18.8544 2.51562 18.8706 2.50365ZM1.41578 2.04905C1.38163 2.00518 1.34569 1.97328 1.3349 1.97328C1.32592 1.96929 1.28458 1.90947 1.24504 1.83371C1.18573 1.72205 1.17675 1.69015 1.19652 1.64628C1.21629 1.60241 1.23246 1.61039 1.29177 1.68616C1.36186 1.77788 1.42836 1.77788 1.45352 1.68217C1.46071 1.66223 1.47509 1.68217 1.48767 1.73401C1.49845 1.78186 1.5344 1.87358 1.56495 1.93739C1.62066 2.04905 1.62066 2.05702 1.58831 2.11285C1.54878 2.17665 1.51463 2.16469 1.41578 2.04905ZM1.73569 1.84168C1.62785 1.62634 1.61527 1.55855 1.65661 1.43094C1.70334 1.29137 1.83633 1.32726 2.02325 1.53063C2.23892 1.76591 2.30182 1.72205 2.17961 1.41898C2.10592 1.23554 2.10053 1.19965 2.16163 1.26345C2.19578 1.29536 2.21735 1.29536 2.2515 1.26345C2.27666 1.23554 2.32339 1.2156 2.35394 1.2156C2.42942 1.2156 2.67924 1.51867 2.77449 1.72604C2.81763 1.81775 2.86076 1.89352 2.87155 1.89352C2.91468 1.89352 2.88413 1.9653 2.82122 2.00518C2.72058 2.07297 2.71698 2.07297 2.26408 2.06101L1.83993 2.04506L1.73569 1.84168ZM3.59763 1.94935C3.58146 1.89352 3.54371 1.82174 3.51676 1.78984C3.488 1.75794 3.46464 1.71008 3.46464 1.68217C3.46464 1.65426 3.44846 1.56254 3.42689 1.47879C3.39454 1.33922 3.39275 1.31928 3.41791 1.26345C3.43947 1.21161 3.45745 1.20763 3.50777 1.24352C3.58325 1.29536 3.96786 1.85763 3.96786 1.91745C3.96786 1.9972 3.88878 2.04905 3.75759 2.04905C3.63717 2.05303 3.62459 2.04506 3.59763 1.94935ZM3.11238 1.92941C3.05486 1.86162 2.99555 1.77788 2.98477 1.74199C2.97219 1.70211 2.93085 1.6064 2.89491 1.52665L2.82841 1.37511L2.92546 1.3791C3.04049 1.3791 3.12136 1.44689 3.29929 1.69413C3.44127 1.89352 3.45565 1.97727 3.3568 2.01714C3.24357 2.06101 3.21841 2.05303 3.11238 1.92941Z" fill="black"/>
</svg>
