<svg width="60" height="71" fill="none" xmlns="http://www.w3.org/2000/svg"><path d="M1.447.089A2.176 2.176 0 00.145 1.204l-.123.25-.018 19.719c-.011 13.756 0 20.046.047 20.8.14 2.369.416 4.033.968 5.864.85 2.795 2.24 5.047 4.338 7.033 1.83 1.736 3.225 2.64 7.968 5.18.639.345 1.77.977 2.521 1.404 2.11 1.215 2.832 1.592 5.282 2.762 1.261.6 2.475 1.199 2.698 1.332 1.407.815 2.608 2.002 4.045 3.982.715.988 1.085 1.276 1.817 1.404.376.066.68.033 1.12-.122.405-.144.733-.427 1.09-.932 1.613-2.269 3.56-3.994 6.057-5.358.575-.317 1.988-.993 4.016-1.93.563-.261 1.601-.8 2.305-1.199.703-.4 1.893-1.054 2.638-1.453 1.87-1.004 3.506-1.93 4.315-2.435 5.517-3.45 8.05-7.7 8.695-14.616.058-.672.076-4.737.076-21.078V1.564l-.152-.305A2.132 2.132 0 0057.743.05c-.569.039-.92.222-1.642.849a9.786 9.786 0 01-2.204 1.453c-2.674 1.32-6.086 2.014-9.926 2.014-5.007 0-8.126-.916-12.055-3.54-1.043-.698-1.301-.804-1.905-.804-.37 0-.504.028-.844.172-.217.1-.575.3-.792.45-3.066 2.13-5.793 3.19-9.21 3.583-1.08.122-3.935.172-5.072.089-2.99-.228-5.623-.849-7.669-1.814-1.084-.516-1.77-.96-2.632-1.714C3.48.516 3.117.255 2.936.172A2.25 2.25 0 001.446.09z" fill="#388590"/></svg>