<svg width="149" height="178" viewBox="0 0 149 178" fill="none" xmlns="http://www.w3.org/2000/svg">
<mask id="path-1-inside-1_20_17" fill="white">
<path d="M72.0589 8.47922C72.5409 8.50921 73.3065 8.50921 73.7602 8.47922C74.1997 8.44923 73.8027 8.43423 72.867 8.43423C71.9313 8.43423 71.5627 8.44923 72.0589 8.47922Z"/>
</mask>
<path d="M72.0589 8.47922C72.5409 8.50921 73.3065 8.50921 73.7602 8.47922C74.1997 8.44923 73.8027 8.43423 72.867 8.43423C71.9313 8.43423 71.5627 8.44923 72.0589 8.47922Z" fill="white"/>
<path d="M72.0589 8.47922L72.1192 7.48104L72.121 7.48115L72.0589 8.47922ZM73.7602 8.47922L73.8283 9.4769L73.8262 9.47704L73.7602 8.47922ZM72.121 7.48115C72.563 7.50865 73.2857 7.5084 73.6942 7.4814L73.8262 9.47704C73.3273 9.51001 72.5189 9.50977 71.9968 9.47729L72.121 7.48115ZM73.6921 7.48154C73.7422 7.47812 73.7674 7.47575 73.7754 7.47485C73.7809 7.47424 73.7678 7.47549 73.7452 7.47954C73.7343 7.48148 73.708 7.48638 73.6738 7.4955C73.6578 7.49978 73.5593 7.52486 73.4463 7.58854C73.3955 7.6172 73.2542 7.70106 73.1322 7.86754C72.9813 8.07353 72.8652 8.41208 72.9942 8.78464C73.0968 9.08103 73.3025 9.2333 73.3748 9.28259C73.4645 9.3438 73.544 9.37619 73.5808 9.3902C73.6576 9.4194 73.7197 9.43161 73.7366 9.43493C73.7622 9.43994 73.7816 9.44257 73.7901 9.44366C73.8154 9.44691 73.8208 9.44617 73.7829 9.4444C73.6487 9.43816 73.3388 9.43423 72.867 9.43423V7.43423C73.3309 7.43423 73.6874 7.4378 73.8758 7.44656C73.9184 7.44854 73.983 7.45202 74.0448 7.45995C74.0476 7.46031 74.1639 7.47221 74.2917 7.5208C74.3302 7.53545 74.4111 7.56849 74.5018 7.63036C74.575 7.6803 74.7813 7.83324 74.8841 8.13031C75.0133 8.50354 74.8971 8.84277 74.7457 9.04945C74.6232 9.21661 74.481 9.30117 74.4289 9.33053C74.3135 9.39563 74.211 9.42213 74.1895 9.42788C74.1498 9.43847 74.1165 9.44486 74.0971 9.44832C74.0575 9.45542 74.0213 9.45983 73.9973 9.4625C73.9467 9.46816 73.8881 9.47282 73.8283 9.4769L73.6921 7.48154ZM72.867 9.43423C72.3931 9.43423 72.0937 9.43823 71.9769 9.44418C71.9353 9.44631 71.9652 9.44652 72.017 9.43773C72.0316 9.43526 72.079 9.42707 72.1391 9.40835C72.1685 9.39919 72.2267 9.37969 72.2957 9.34429C72.3462 9.31841 72.5069 9.23294 72.6423 9.04966C72.8216 8.80699 72.9157 8.43592 72.7582 8.06534C72.6418 7.79148 72.4415 7.65634 72.3822 7.618C72.2447 7.52899 72.1177 7.49759 72.1076 7.49482C72.0177 7.4703 71.9488 7.46776 72.0046 7.4729C72.025 7.47478 72.0616 7.47756 72.1192 7.48104L71.9986 9.4774C71.9321 9.47338 71.8717 9.46913 71.821 9.46445C71.8056 9.46303 71.6914 9.45439 71.581 9.42425C71.5657 9.42008 71.435 9.38731 71.2954 9.29694C71.2352 9.25793 71.0342 9.12212 70.9175 8.84761C70.7597 8.47637 70.8539 8.10465 71.0336 7.86134C71.1695 7.6774 71.3312 7.5913 71.3828 7.56479C71.453 7.52876 71.5129 7.50864 71.5443 7.49886C71.6083 7.47891 71.6611 7.46952 71.6826 7.46588C71.7621 7.4524 71.8432 7.4484 71.8751 7.44678C72.0524 7.43774 72.4052 7.43423 72.867 7.43423V9.43423Z" fill="black" mask="url(#path-1-inside-1_20_17)"/>
<mask id="path-3-inside-2_20_17" fill="white">
<path d="M66.317 8.62742C66.6006 8.65723 67.0826 8.65723 67.3803 8.62742C67.6639 8.59762 67.4228 8.56781 66.8416 8.56781C66.2603 8.56781 66.0193 8.59762 66.317 8.62742Z"/>
</mask>
<path d="M66.317 8.62742C66.6006 8.65723 67.0826 8.65723 67.3803 8.62742C67.6639 8.59762 67.4228 8.56781 66.8416 8.56781C66.2603 8.56781 66.0193 8.59762 66.317 8.62742Z" fill="white"/>
<path d="M66.317 8.62742L66.4166 7.63239L66.4216 7.6329L66.317 8.62742ZM67.3803 8.62742L67.4849 9.62196L67.4799 9.62245L67.3803 8.62742ZM66.4216 7.6329C66.634 7.65524 67.0475 7.65574 67.2807 7.6324L67.4799 9.62245C67.1177 9.65872 66.5671 9.65923 66.2125 9.62194L66.4216 7.6329ZM67.2758 7.6329C67.3002 7.63033 67.2965 7.62996 67.2767 7.63369C67.2683 7.63529 67.2355 7.64155 67.1912 7.65521C67.1882 7.65614 67.016 7.70194 66.8488 7.84448C66.759 7.92104 66.5455 8.13216 66.5053 8.49216C66.4611 8.88923 66.6563 9.16985 66.7832 9.2996C66.9006 9.41963 67.0191 9.47926 67.065 9.50109C67.1223 9.52832 67.17 9.54402 67.1959 9.55193C67.2477 9.56773 67.2867 9.57453 67.2972 9.57633C67.3123 9.57892 67.3213 9.57992 67.3213 9.57993C67.3222 9.58002 67.3193 9.57969 67.3119 9.57908C67.3047 9.57849 67.2948 9.57777 67.2818 9.57699C67.2557 9.57541 67.2214 9.57381 67.1782 9.5724C67.0919 9.56958 66.9791 9.56781 66.8416 9.56781V7.56781C67.1306 7.56781 67.3884 7.57451 67.5492 7.59295C67.5786 7.59633 67.6749 7.60706 67.7796 7.63899C67.8107 7.6485 67.8627 7.66583 67.9235 7.6947C67.9729 7.71818 68.094 7.77947 68.213 7.90118C68.3415 8.03262 68.5375 8.31493 68.493 8.71372C68.4527 9.07543 68.2381 9.28829 68.1462 9.36659C67.9749 9.51263 67.7949 9.56197 67.7802 9.5665C67.7242 9.58375 67.676 9.59365 67.6481 9.59892C67.5895 9.60999 67.5313 9.61707 67.4849 9.62194L67.2758 7.6329ZM66.8416 9.56781C66.7041 9.56781 66.5913 9.56958 66.5052 9.5724C66.4622 9.57381 66.4282 9.5754 66.4025 9.57696C66.3752 9.57863 66.3644 9.57984 66.3657 9.57969C66.3664 9.57961 66.3769 9.57841 66.3939 9.57538C66.4051 9.5734 66.4503 9.56535 66.5094 9.54603C66.5385 9.53652 66.596 9.51633 66.6641 9.47993C66.7162 9.4521 66.8686 9.36664 66.9978 9.18941C67.1631 8.96267 67.2621 8.61275 67.1246 8.24912C67.0186 7.96902 66.8223 7.82547 66.7571 7.78076C66.6151 7.6834 66.4829 7.65019 66.4748 7.64792C66.4375 7.63747 66.4106 7.63269 66.4042 7.63155C66.3894 7.62893 66.39 7.62973 66.4166 7.6324L66.2174 9.62245C66.1696 9.61766 66.1127 9.61102 66.0563 9.60107C66.0291 9.59625 65.9855 9.58783 65.9353 9.57379C65.9144 9.56792 65.7733 9.53117 65.6262 9.43031C65.5584 9.38385 65.3605 9.23857 65.2539 8.95675C65.1157 8.59141 65.2151 8.23979 65.3816 8.01137C65.512 7.83246 65.6666 7.74534 65.7217 7.71586C65.7929 7.67782 65.8544 7.65601 65.8884 7.64489C66.0024 7.60767 66.1079 7.5962 66.1337 7.59319C66.2942 7.57444 66.5536 7.56781 66.8416 7.56781V9.56781Z" fill="black" mask="url(#path-3-inside-2_20_17)"/>
<path d="M78.7384 8.64976C78.7425 8.64977 78.7465 8.64978 78.7506 8.64978C78.7563 8.64978 78.762 8.64977 78.7677 8.64975C78.7703 8.62283 78.7708 8.59543 78.7689 8.56783C78.7628 8.56782 78.7567 8.56781 78.7506 8.56781C78.7462 8.56781 78.7418 8.56781 78.7375 8.56782C78.7374 8.5692 78.7373 8.57059 78.7372 8.57198C78.7355 8.59899 78.7361 8.62494 78.7384 8.64976Z" fill="white" stroke="black"/>
<path d="M63.0554 8.79611C63.0881 8.79741 63.1217 8.79807 63.1555 8.7981C63.1908 8.79812 63.2263 8.79744 63.2612 8.79606C63.2639 8.7687 63.2643 8.74234 63.2626 8.71707C63.2294 8.71641 63.1937 8.71606 63.1555 8.71606C63.1196 8.71606 63.0859 8.71637 63.0545 8.71695C63.0526 8.74417 63.053 8.77061 63.0554 8.79611Z" fill="white" stroke="black"/>
<mask id="path-7-inside-3_20_17" fill="white">
<path d="M65.991 8.83513C49.8997 9.50214 33.4965 12.4518 15.1085 17.9805C12.032 18.8995 11.1955 19.2108 11.1105 19.4331C11.0396 19.5962 10.997 19.6258 10.997 19.5072C10.9829 19.3887 10.9545 19.3294 10.912 19.359C10.8836 19.4035 10.7419 21.0636 10.6001 23.0646C10.3024 27.6299 10.2598 41.1924 10.5292 45.5798C10.7419 49.0631 11.2239 54.8735 11.4082 56.4002C11.4791 57.0079 11.6492 58.3122 11.7626 59.2905C12.0887 62.092 12.5424 65.2195 12.8259 66.7758C12.8968 67.1464 13.0102 67.843 13.0953 68.3322C13.1804 68.8213 13.3788 69.9034 13.549 70.7482C13.7049 71.5931 13.8183 72.349 13.79 72.438C13.7474 72.5714 13.6199 71.9785 12.8117 67.6059C12.67 66.8055 12.5282 65.9754 12.5282 65.7531C12.514 65.5159 12.4857 65.4566 12.4431 65.6197C12.4006 65.8272 13.0953 70.5259 13.6199 73.52C14.3287 77.6258 15.789 84.207 16.7956 87.8977C17.0366 88.7871 17.4194 90.1952 17.6462 91.0104C19.2199 96.7615 22.4098 105.655 24.8767 111.169C28.4635 119.188 31.4691 124.835 35.9917 131.979C37.0125 133.58 37.8915 134.944 37.9482 135.033C38.0191 135.107 38.3168 135.552 38.6287 135.996C38.9406 136.441 39.2383 136.871 39.295 136.96C39.3659 137.034 39.5644 137.345 39.7629 137.627C39.9472 137.908 40.1457 138.175 40.1882 138.22C40.2307 138.264 40.4292 138.531 40.6135 138.813C40.7978 139.094 40.9963 139.361 41.0389 139.406C41.0814 139.45 41.2799 139.717 41.4642 139.998C41.6485 140.28 41.847 140.547 41.8895 140.591C41.932 140.636 42.1872 140.962 42.4566 141.332C42.726 141.703 42.9811 142.029 43.0237 142.074C43.0662 142.118 43.3214 142.444 43.5908 142.815C43.8601 143.185 44.1153 143.511 44.1579 143.556C44.2004 143.6 44.5123 144 44.8667 144.445C45.2212 144.89 45.5331 145.29 45.5756 145.334C45.6181 145.379 46.0009 145.838 46.4262 146.372C46.8516 146.906 47.3052 147.439 47.4187 147.558C47.5321 147.676 48.0992 148.343 48.6804 149.04C49.7863 150.344 56.5489 157.459 57.9099 158.749C60.873 161.521 61.4968 162.084 63.5667 163.862C64.4031 164.574 66.5439 166.175 66.9834 166.412C67.1677 166.516 67.6781 166.827 68.1034 167.094C70.6128 168.635 73.8452 169.258 76.4681 168.68C77.7298 168.413 79.4453 167.716 80.4661 167.094C80.8914 166.827 81.4018 166.516 81.5861 166.412C82.0256 166.175 84.1664 164.574 85.0028 163.862C87.1011 162.069 88.0793 161.194 90.6596 158.749C92.0631 157.43 98.7974 150.33 99.889 149.04C100.47 148.343 101.037 147.676 101.151 147.558C101.264 147.439 101.718 146.906 102.143 146.372C102.569 145.838 102.951 145.379 102.994 145.334C103.036 145.29 103.348 144.89 103.703 144.445C104.057 144 104.369 143.6 104.412 143.556C104.454 143.511 104.709 143.185 104.979 142.815C105.248 142.444 105.503 142.118 105.546 142.074C105.588 142.029 106.042 141.436 106.538 140.74C107.049 140.043 107.488 139.45 107.531 139.406C107.573 139.361 107.772 139.094 107.956 138.813C108.14 138.531 108.339 138.264 108.381 138.22C108.424 138.175 108.934 137.449 109.515 136.589C110.097 135.73 110.607 135.003 110.65 134.959C110.763 134.87 113.953 129.83 114.605 128.733C114.875 128.289 115.385 127.414 115.739 126.806C116.505 125.517 118.589 121.693 119.808 119.321C122.686 113.763 125.791 106.441 128.23 99.4592C129.704 95.2496 132.114 86.9343 132.851 83.5251C132.908 83.2435 132.979 82.9322 132.993 82.8581C133.007 82.7692 133.192 81.9688 133.404 81.0794C133.858 79.1081 135.176 72.2898 135.162 72.0526C135.148 71.9637 135.063 72.2156 134.964 72.6307C134.68 73.7572 134.737 72.9419 135.021 71.5931C135.176 70.852 135.304 70.5111 135.347 70.7038C135.389 70.8668 135.403 70.6593 135.361 70.2591C135.304 69.681 135.332 69.5624 135.46 69.7403C135.588 69.9182 135.602 69.9034 135.531 69.6366C135.488 69.4735 135.588 68.5397 135.744 67.5614C136.013 66.0199 136.24 64.4784 136.736 60.9951C136.949 59.4388 137.416 55.0513 137.658 52.324C138.466 43.1341 138.579 32.3583 137.969 22.2494L137.799 19.2997L135.531 18.6624C109.048 11.0733 86.8742 7.94579 65.991 8.83513ZM13.9176 73.0309C13.875 73.1495 13.8325 73.105 13.8325 72.9419C13.8183 72.7789 13.8609 72.69 13.9034 72.7493C13.9459 72.7937 13.9601 72.9271 13.9176 73.0309ZM14.0594 73.772C14.0168 73.8758 13.9885 73.8016 13.9885 73.5941C13.9885 73.3866 14.0168 73.3125 14.0594 73.4014C14.0877 73.5052 14.0877 73.6831 14.0594 73.772ZM134.709 73.772C134.666 73.8906 134.624 73.8461 134.624 73.6831C134.609 73.52 134.652 73.4311 134.694 73.4904C134.737 73.5348 134.751 73.6682 134.709 73.772ZM14.2011 74.3649C14.1586 74.4835 14.1161 74.439 14.1161 74.276C14.1019 74.1129 14.1444 74.024 14.1869 74.0833C14.2295 74.1277 14.2437 74.2611 14.2011 74.3649ZM134.567 74.5131C134.524 74.6169 134.496 74.5428 134.496 74.3352C134.496 74.1277 134.524 74.0536 134.567 74.1426C134.595 74.2463 134.595 74.4242 134.567 74.5131ZM14.3429 75.106C14.3004 75.2098 14.272 75.1357 14.272 74.9281C14.272 74.7206 14.3004 74.6465 14.3429 74.7355C14.3713 74.8392 14.3713 75.0171 14.3429 75.106ZM134.425 75.106C134.383 75.2246 134.34 75.1801 134.34 75.0171C134.326 74.854 134.368 74.7651 134.411 74.8244C134.453 74.8689 134.468 75.0023 134.425 75.106ZM134.184 76.2622L134.028 76.6327L134.113 76.2622C134.142 76.0546 134.184 75.7582 134.198 75.5951C134.227 75.3135 134.227 75.3135 134.283 75.5951C134.312 75.773 134.269 76.0695 134.184 76.2622ZM14.6264 76.44C14.5839 76.5586 14.5414 76.5141 14.5414 76.3511C14.5272 76.188 14.5697 76.0991 14.6123 76.1584C14.6548 76.2029 14.669 76.3363 14.6264 76.44ZM14.7682 77.0329C14.7257 77.1515 14.6832 77.107 14.6832 76.944C14.669 76.7809 14.7115 76.692 14.754 76.7513C14.7966 76.7958 14.8108 76.9292 14.7682 77.0329ZM134 77.1811C133.957 77.2997 133.915 77.2553 133.915 77.0922C133.901 76.9292 133.943 76.8402 133.986 76.8995C134.028 76.944 134.042 77.0774 134 77.1811ZM14.91 77.6258C14.8675 77.7444 14.8249 77.6999 14.8249 77.5369C14.8108 77.3738 14.8533 77.2849 14.8958 77.3442C14.9383 77.3887 14.9525 77.5221 14.91 77.6258ZM15.0518 78.2187C15.0092 78.3373 14.9667 78.2928 14.9667 78.1298C14.9525 77.9667 14.9951 77.8778 15.0376 77.9371C15.0801 77.9816 15.0943 78.115 15.0518 78.2187ZM133.716 78.2187C133.674 78.3373 133.631 78.2928 133.631 78.1298C133.617 77.9667 133.659 77.8778 133.702 77.9371C133.745 77.9816 133.759 78.115 133.716 78.2187ZM15.1935 78.8116C15.151 78.9302 15.1085 78.8857 15.1085 78.7227C15.0943 78.5596 15.1368 78.4707 15.1794 78.53C15.2219 78.5744 15.2361 78.7079 15.1935 78.8116Z"/>
</mask>
<path d="M65.991 8.83513C49.8997 9.50214 33.4965 12.4518 15.1085 17.9805C12.032 18.8995 11.1955 19.2108 11.1105 19.4331C11.0396 19.5962 10.997 19.6258 10.997 19.5072C10.9829 19.3887 10.9545 19.3294 10.912 19.359C10.8836 19.4035 10.7419 21.0636 10.6001 23.0646C10.3024 27.6299 10.2598 41.1924 10.5292 45.5798C10.7419 49.0631 11.2239 54.8735 11.4082 56.4002C11.4791 57.0079 11.6492 58.3122 11.7626 59.2905C12.0887 62.092 12.5424 65.2195 12.8259 66.7758C12.8968 67.1464 13.0102 67.843 13.0953 68.3322C13.1804 68.8213 13.3788 69.9034 13.549 70.7482C13.7049 71.5931 13.8183 72.349 13.79 72.438C13.7474 72.5714 13.6199 71.9785 12.8117 67.6059C12.67 66.8055 12.5282 65.9754 12.5282 65.7531C12.514 65.5159 12.4857 65.4566 12.4431 65.6197C12.4006 65.8272 13.0953 70.5259 13.6199 73.52C14.3287 77.6258 15.789 84.207 16.7956 87.8977C17.0366 88.7871 17.4194 90.1952 17.6462 91.0104C19.2199 96.7615 22.4098 105.655 24.8767 111.169C28.4635 119.188 31.4691 124.835 35.9917 131.979C37.0125 133.58 37.8915 134.944 37.9482 135.033C38.0191 135.107 38.3168 135.552 38.6287 135.996C38.9406 136.441 39.2383 136.871 39.295 136.96C39.3659 137.034 39.5644 137.345 39.7629 137.627C39.9472 137.908 40.1457 138.175 40.1882 138.22C40.2307 138.264 40.4292 138.531 40.6135 138.813C40.7978 139.094 40.9963 139.361 41.0389 139.406C41.0814 139.45 41.2799 139.717 41.4642 139.998C41.6485 140.28 41.847 140.547 41.8895 140.591C41.932 140.636 42.1872 140.962 42.4566 141.332C42.726 141.703 42.9811 142.029 43.0237 142.074C43.0662 142.118 43.3214 142.444 43.5908 142.815C43.8601 143.185 44.1153 143.511 44.1579 143.556C44.2004 143.6 44.5123 144 44.8667 144.445C45.2212 144.89 45.5331 145.29 45.5756 145.334C45.6181 145.379 46.0009 145.838 46.4262 146.372C46.8516 146.906 47.3052 147.439 47.4187 147.558C47.5321 147.676 48.0992 148.343 48.6804 149.04C49.7863 150.344 56.5489 157.459 57.9099 158.749C60.873 161.521 61.4968 162.084 63.5667 163.862C64.4031 164.574 66.5439 166.175 66.9834 166.412C67.1677 166.516 67.6781 166.827 68.1034 167.094C70.6128 168.635 73.8452 169.258 76.4681 168.68C77.7298 168.413 79.4453 167.716 80.4661 167.094C80.8914 166.827 81.4018 166.516 81.5861 166.412C82.0256 166.175 84.1664 164.574 85.0028 163.862C87.1011 162.069 88.0793 161.194 90.6596 158.749C92.0631 157.43 98.7974 150.33 99.889 149.04C100.47 148.343 101.037 147.676 101.151 147.558C101.264 147.439 101.718 146.906 102.143 146.372C102.569 145.838 102.951 145.379 102.994 145.334C103.036 145.29 103.348 144.89 103.703 144.445C104.057 144 104.369 143.6 104.412 143.556C104.454 143.511 104.709 143.185 104.979 142.815C105.248 142.444 105.503 142.118 105.546 142.074C105.588 142.029 106.042 141.436 106.538 140.74C107.049 140.043 107.488 139.45 107.531 139.406C107.573 139.361 107.772 139.094 107.956 138.813C108.14 138.531 108.339 138.264 108.381 138.22C108.424 138.175 108.934 137.449 109.515 136.589C110.097 135.73 110.607 135.003 110.65 134.959C110.763 134.87 113.953 129.83 114.605 128.733C114.875 128.289 115.385 127.414 115.739 126.806C116.505 125.517 118.589 121.693 119.808 119.321C122.686 113.763 125.791 106.441 128.23 99.4592C129.704 95.2496 132.114 86.9343 132.851 83.5251C132.908 83.2435 132.979 82.9322 132.993 82.8581C133.007 82.7692 133.192 81.9688 133.404 81.0794C133.858 79.1081 135.176 72.2898 135.162 72.0526C135.148 71.9637 135.063 72.2156 134.964 72.6307C134.68 73.7572 134.737 72.9419 135.021 71.5931C135.176 70.852 135.304 70.5111 135.347 70.7038C135.389 70.8668 135.403 70.6593 135.361 70.2591C135.304 69.681 135.332 69.5624 135.46 69.7403C135.588 69.9182 135.602 69.9034 135.531 69.6366C135.488 69.4735 135.588 68.5397 135.744 67.5614C136.013 66.0199 136.24 64.4784 136.736 60.9951C136.949 59.4388 137.416 55.0513 137.658 52.324C138.466 43.1341 138.579 32.3583 137.969 22.2494L137.799 19.2997L135.531 18.6624C109.048 11.0733 86.8742 7.94579 65.991 8.83513ZM13.9176 73.0309C13.875 73.1495 13.8325 73.105 13.8325 72.9419C13.8183 72.7789 13.8609 72.69 13.9034 72.7493C13.9459 72.7937 13.9601 72.9271 13.9176 73.0309ZM14.0594 73.772C14.0168 73.8758 13.9885 73.8016 13.9885 73.5941C13.9885 73.3866 14.0168 73.3125 14.0594 73.4014C14.0877 73.5052 14.0877 73.6831 14.0594 73.772ZM134.709 73.772C134.666 73.8906 134.624 73.8461 134.624 73.6831C134.609 73.52 134.652 73.4311 134.694 73.4904C134.737 73.5348 134.751 73.6682 134.709 73.772ZM14.2011 74.3649C14.1586 74.4835 14.1161 74.439 14.1161 74.276C14.1019 74.1129 14.1444 74.024 14.1869 74.0833C14.2295 74.1277 14.2437 74.2611 14.2011 74.3649ZM134.567 74.5131C134.524 74.6169 134.496 74.5428 134.496 74.3352C134.496 74.1277 134.524 74.0536 134.567 74.1426C134.595 74.2463 134.595 74.4242 134.567 74.5131ZM14.3429 75.106C14.3004 75.2098 14.272 75.1357 14.272 74.9281C14.272 74.7206 14.3004 74.6465 14.3429 74.7355C14.3713 74.8392 14.3713 75.0171 14.3429 75.106ZM134.425 75.106C134.383 75.2246 134.34 75.1801 134.34 75.0171C134.326 74.854 134.368 74.7651 134.411 74.8244C134.453 74.8689 134.468 75.0023 134.425 75.106ZM134.184 76.2622L134.028 76.6327L134.113 76.2622C134.142 76.0546 134.184 75.7582 134.198 75.5951C134.227 75.3135 134.227 75.3135 134.283 75.5951C134.312 75.773 134.269 76.0695 134.184 76.2622ZM14.6264 76.44C14.5839 76.5586 14.5414 76.5141 14.5414 76.3511C14.5272 76.188 14.5697 76.0991 14.6123 76.1584C14.6548 76.2029 14.669 76.3363 14.6264 76.44ZM14.7682 77.0329C14.7257 77.1515 14.6832 77.107 14.6832 76.944C14.669 76.7809 14.7115 76.692 14.754 76.7513C14.7966 76.7958 14.8108 76.9292 14.7682 77.0329ZM134 77.1811C133.957 77.2997 133.915 77.2553 133.915 77.0922C133.901 76.9292 133.943 76.8402 133.986 76.8995C134.028 76.944 134.042 77.0774 134 77.1811ZM14.91 77.6258C14.8675 77.7444 14.8249 77.6999 14.8249 77.5369C14.8108 77.3738 14.8533 77.2849 14.8958 77.3442C14.9383 77.3887 14.9525 77.5221 14.91 77.6258ZM15.0518 78.2187C15.0092 78.3373 14.9667 78.2928 14.9667 78.1298C14.9525 77.9667 14.9951 77.8778 15.0376 77.9371C15.0801 77.9816 15.0943 78.115 15.0518 78.2187ZM133.716 78.2187C133.674 78.3373 133.631 78.2928 133.631 78.1298C133.617 77.9667 133.659 77.8778 133.702 77.9371C133.745 77.9816 133.759 78.115 133.716 78.2187ZM15.1935 78.8116C15.151 78.9302 15.1085 78.8857 15.1085 78.7227C15.0943 78.5596 15.1368 78.4707 15.1794 78.53C15.2219 78.5744 15.2361 78.7079 15.1935 78.8116Z" fill="white" stroke="black" stroke-width="2" mask="url(#path-7-inside-3_20_17)"/>
<path d="M82.4784 8.79611C82.5111 8.79741 82.5447 8.79807 82.5785 8.7981C82.6138 8.79812 82.6493 8.79744 82.6841 8.79606C82.6869 8.7687 82.6872 8.74234 82.6856 8.71707C82.6524 8.71641 82.6167 8.71606 82.5785 8.71606C82.5426 8.71606 82.5089 8.71637 82.4775 8.71695C82.4756 8.74417 82.476 8.77061 82.4784 8.79611Z" fill="white" stroke="black"/>
<path d="M61.029 8.8494C60.9515 8.8494 60.887 8.85186 60.8377 8.85643C60.8359 8.88196 60.8361 8.90771 60.8384 8.93346C60.8943 8.94194 60.9611 8.94621 61.029 8.94629C61.0963 8.94636 61.1646 8.9423 61.2245 8.9341C61.227 8.90757 61.2272 8.88178 61.2256 8.85691C61.1753 8.85203 61.109 8.8494 61.029 8.8494Z" fill="white" stroke="black"/>
<path d="M84.8895 8.92393C84.9434 8.89558 84.9346 8.87322 84.8705 8.86065L84.8895 8.92393ZM84.8895 8.92393C84.8394 8.93897 84.7713 8.94642 84.7052 8.94629C84.6402 8.94615 84.5772 8.9387 84.535 8.92393M84.8895 8.92393L84.8548 8.85794C84.8184 8.8524 84.7682 8.8494 84.7052 8.8494C84.6474 8.8494 84.6005 8.85192 84.5654 8.8566L84.535 8.92393M84.535 8.92393C84.4666 8.89312 84.479 8.86938 84.5583 8.8576L84.535 8.92393Z" fill="white" stroke="black"/>
<path d="M58.9023 8.99768C58.8248 8.99768 58.7603 9.00014 58.711 9.00472C58.7092 9.03025 58.7094 9.05602 58.7117 9.08177C58.7676 9.09025 58.8344 9.09453 58.9023 9.0946C58.9695 9.09468 59.0379 9.09061 59.0978 9.08242C59.1003 9.05587 59.1005 9.03007 59.0989 9.0052C59.0486 9.00032 58.9823 8.99768 58.9023 8.99768Z" fill="white" stroke="black"/>
<path d="M87.2996 9.07224L87.2824 9.01505C87.291 9.0171 87.2985 9.01931 87.3048 9.02168C87.3052 9.03791 87.3048 9.05407 87.3035 9.07009C87.3023 9.0708 87.3009 9.07152 87.2996 9.07224ZM87.2996 9.07224C87.2387 9.09052 87.1406 9.09759 87.0444 9.09346C86.9836 9.09085 86.9236 9.08378 86.8742 9.07224M87.2996 9.07224L87.2679 9.01197C87.2197 9.0028 87.1442 8.99768 87.0444 8.99768C86.9845 8.99768 86.9345 8.99976 86.8959 9.00365L86.8742 9.07224M86.8742 9.07224C86.8554 9.06631 86.8406 9.06063 86.8296 9.05526C86.8292 9.04149 86.8294 9.02807 86.8301 9.01501C86.8444 9.01065 86.8646 9.00703 86.8901 9.00425L86.8742 9.07224Z" fill="white" stroke="black"/>
<path d="M56.9377 9.13022C56.9082 9.12716 56.8727 9.12704 56.8325 9.13088C56.8161 9.13088 56.8009 9.13138 56.7871 9.13232C56.7854 9.13243 56.7837 9.13256 56.782 9.13269C56.6687 9.14146 56.6474 9.18089 56.7474 9.22032C56.7744 9.23249 56.8036 9.24024 56.8325 9.24418C56.8361 9.24468 56.8398 9.24511 56.8434 9.24549C56.9169 9.25309 56.9873 9.23641 57.0168 9.20541C57.055 9.17526 57.0288 9.14511 56.9599 9.13324C56.9529 9.13204 56.9455 9.13103 56.9377 9.13022Z" fill="white" stroke="black"/>
<path d="M57.5047 9.13022C57.4752 9.12716 57.4397 9.12704 57.3995 9.13088C57.3831 9.13088 57.3679 9.13138 57.3541 9.13232C57.3524 9.13243 57.3507 9.13256 57.349 9.13269C57.2357 9.14146 57.2144 9.18089 57.3144 9.22032C57.3415 9.23249 57.3706 9.24024 57.3995 9.24418C57.4032 9.24468 57.4068 9.24511 57.4105 9.24549C57.4839 9.25309 57.5543 9.23641 57.5838 9.20541C57.622 9.17526 57.5958 9.14511 57.5269 9.13324C57.5199 9.13204 57.5125 9.13103 57.5047 9.13022Z" fill="white" stroke="black"/>
<path d="M88.7174 9.22031C88.7713 9.19195 88.7625 9.16958 88.6983 9.15701L88.7174 9.22031ZM88.7174 9.22031C88.6673 9.23535 88.5992 9.24281 88.533 9.24267C88.4681 9.24254 88.4051 9.23509 88.3629 9.22031M88.7174 9.22031L88.6827 9.1543C88.6463 9.14876 88.5961 9.14575 88.533 9.14575C88.4753 9.14575 88.4284 9.14828 88.3933 9.15296L88.3629 9.22031M88.3629 9.22031C88.2945 9.18949 88.3069 9.16574 88.3862 9.15396L88.3629 9.22031Z" fill="white" stroke="black"/>
<path d="M55.8259 9.36862C55.8798 9.34027 55.871 9.3179 55.8068 9.30532L55.8259 9.36862ZM55.8259 9.36862C55.7758 9.38367 55.7077 9.39112 55.6415 9.39099C55.5766 9.39086 55.5136 9.3834 55.4714 9.36862M55.8259 9.36862L55.7911 9.30261C55.7548 9.29708 55.7046 9.29407 55.6415 9.29407C55.5838 9.29407 55.5369 9.29659 55.5018 9.30127L55.4714 9.36862M55.4714 9.36862C55.403 9.3378 55.4154 9.31406 55.4947 9.30227L55.4714 9.36862Z" fill="white" stroke="black"/>
<path d="M90.5605 9.36862C90.6144 9.34027 90.6056 9.3179 90.5414 9.30532L90.5605 9.36862ZM90.5605 9.36862C90.5104 9.38367 90.4423 9.39112 90.3762 9.39099C90.3112 9.39086 90.2482 9.3834 90.206 9.36862M90.5605 9.36862L90.5257 9.30261C90.4894 9.29708 90.4392 9.29407 90.3762 9.29407C90.3184 9.29407 90.2715 9.29659 90.2364 9.30127L90.206 9.36862M90.206 9.36862C90.1377 9.3378 90.15 9.31406 90.2293 9.30227L90.206 9.36862Z" fill="white" stroke="black"/>
<path d="M54.5499 9.51693C54.6039 9.48856 54.5951 9.46619 54.5309 9.45361L54.5499 9.51693ZM54.5499 9.51693C54.4999 9.53198 54.4318 9.53944 54.3657 9.5393C54.3007 9.53917 54.2377 9.53171 54.1955 9.51693M54.5499 9.51693L54.5152 9.4509C54.4788 9.44536 54.4287 9.44235 54.3657 9.44235C54.3079 9.44235 54.261 9.44488 54.2259 9.44955L54.1955 9.51693M54.1955 9.51693C54.1272 9.4861 54.1395 9.46234 54.2188 9.45055L54.1955 9.51693Z" fill="white" stroke="black"/>
<path d="M91.9781 9.51693L91.9609 9.45973C91.9696 9.46178 91.9771 9.464 91.9834 9.46637C91.9838 9.4826 91.9833 9.49875 91.9821 9.51477C91.9808 9.51549 91.9795 9.51621 91.9781 9.51693ZM91.9781 9.51693C91.9173 9.53522 91.8192 9.5423 91.723 9.53816C91.6622 9.53555 91.6022 9.52848 91.5528 9.51693M91.9781 9.51693L91.9464 9.45664C91.8983 9.44747 91.8228 9.44235 91.723 9.44235C91.6631 9.44235 91.613 9.44443 91.5745 9.44832L91.5528 9.51693M91.5528 9.51693C91.534 9.51099 91.5192 9.50532 91.5082 9.49994C91.5078 9.48617 91.508 9.47275 91.5087 9.4597C91.5229 9.45532 91.5431 9.4517 91.5687 9.44892L91.5528 9.51693Z" fill="white" stroke="black"/>
<path d="M52.9679 9.57482C52.9384 9.57177 52.9029 9.57166 52.8628 9.5755C52.8464 9.5755 52.8313 9.57599 52.8174 9.57693C52.8157 9.57704 52.814 9.57717 52.8123 9.5773C52.6989 9.58607 52.6777 9.62554 52.7777 9.665C52.8047 9.67718 52.8338 9.68494 52.8628 9.68888C52.8664 9.68938 52.8701 9.68982 52.8737 9.69019C52.9472 9.69779 53.0176 9.68111 53.0471 9.65008C53.0854 9.6199 53.0591 9.58971 52.9901 9.57784C52.9831 9.57664 52.9757 9.57563 52.9679 9.57482Z" fill="white" stroke="black"/>
<path d="M93.2316 9.57482C93.202 9.57177 93.1666 9.57166 93.1264 9.5755C93.1101 9.5755 93.0949 9.57599 93.0811 9.57693C93.0794 9.57704 93.0777 9.57717 93.076 9.5773C92.9626 9.58607 92.9414 9.62553 93.0414 9.665C93.0684 9.67718 93.0975 9.68494 93.1264 9.68888C93.1301 9.68938 93.1338 9.68982 93.1374 9.69019C93.2109 9.69779 93.2813 9.68111 93.3107 9.65008C93.349 9.61989 93.3227 9.58971 93.2537 9.57784C93.2468 9.57664 93.2394 9.57563 93.2316 9.57482Z" fill="white" stroke="black"/>
<path d="M51.6718 9.7388C51.5944 9.7388 51.5298 9.74126 51.4805 9.74583C51.4788 9.77136 51.479 9.79712 51.4812 9.82286C51.5372 9.83134 51.6039 9.83562 51.6718 9.83569C51.7391 9.83576 51.8074 9.8317 51.8673 9.82351C51.8698 9.79697 51.8701 9.77118 51.8684 9.74631C51.8182 9.74143 51.7519 9.7388 51.6718 9.7388Z" fill="white" stroke="black"/>
<path d="M94.5301 9.81333C94.584 9.78499 94.5753 9.76263 94.5111 9.75006L94.5301 9.81333ZM94.5301 9.81333C94.48 9.82837 94.4119 9.83583 94.3458 9.83569C94.2808 9.83556 94.2178 9.82811 94.1756 9.81333M94.5301 9.81333L94.4954 9.74735C94.459 9.74181 94.4088 9.7388 94.3458 9.7388C94.288 9.7388 94.2411 9.74132 94.206 9.746L94.1756 9.81333M94.1756 9.81333C94.1073 9.78252 94.1196 9.75879 94.1989 9.747L94.1756 9.81333Z" fill="white" stroke="black"/>
<path d="M50.5802 9.96152C50.6342 9.93316 50.6254 9.91079 50.5612 9.89822L50.5802 9.96152ZM50.5802 9.96152C50.5302 9.97657 50.4621 9.98402 50.3959 9.98388C50.331 9.98375 50.268 9.9763 50.2258 9.96152M50.5802 9.96152L50.5455 9.89551C50.5091 9.88997 50.459 9.88696 50.3959 9.88696C50.3382 9.88696 50.2913 9.88949 50.2562 9.89417L50.2258 9.96152M50.2258 9.96152C50.1574 9.9307 50.1698 9.90695 50.2491 9.89517L50.2258 9.96152Z" fill="white" stroke="black"/>
<path d="M95.7835 9.87128C95.754 9.86822 95.7185 9.8681 95.6783 9.87194C95.6619 9.87194 95.6468 9.87244 95.6329 9.87338C95.6312 9.87349 95.6295 9.87362 95.6278 9.87375C95.5145 9.88252 95.4932 9.92196 95.5933 9.9614C95.6203 9.97357 95.6494 9.98133 95.6783 9.98527C95.682 9.98577 95.6856 9.9862 95.6893 9.98658C95.7627 9.99418 95.8331 9.9775 95.8626 9.94649C95.9009 9.91633 95.8746 9.88617 95.8057 9.87429C95.7987 9.87309 95.7913 9.87208 95.7835 9.87128Z" fill="white" stroke="black"/>
<path d="M49.5878 10.1097L49.5706 10.0525C49.5792 10.0546 49.5867 10.0568 49.593 10.0592C49.5934 10.0754 49.593 10.0915 49.5917 10.1076C49.5905 10.1083 49.5891 10.109 49.5878 10.1097ZM49.5878 10.1097C49.5269 10.128 49.4288 10.1351 49.3326 10.1309C49.2718 10.1283 49.2118 10.1213 49.1625 10.1097M49.5878 10.1097L49.5561 10.0494C49.5079 10.0403 49.4324 10.0352 49.3326 10.0352C49.2727 10.0352 49.2227 10.0372 49.1841 10.0411L49.1625 10.1097M49.1625 10.1097C49.1436 10.1038 49.1288 10.0981 49.1178 10.0927C49.1174 10.079 49.1176 10.0655 49.1183 10.0525C49.1326 10.0481 49.1528 10.0445 49.1783 10.0417L49.1625 10.1097Z" fill="white" stroke="black"/>
<path d="M96.776 10.0196C96.7465 10.0166 96.711 10.0164 96.6708 10.0203C96.6543 10.0203 96.6392 10.0208 96.6253 10.0217C96.6236 10.0218 96.6219 10.022 96.6202 10.0221C96.5069 10.0309 96.4857 10.0703 96.5857 10.1097C96.6127 10.1219 96.6418 10.1296 96.6708 10.1336C96.6744 10.1341 96.6781 10.1345 96.6817 10.1349C96.7552 10.1425 96.8256 10.1258 96.8551 10.0948C96.8933 10.0647 96.8671 10.0345 96.7982 10.0226C96.7912 10.0214 96.7838 10.0204 96.776 10.0196Z" fill="white" stroke="black"/>
<path d="M48.431 10.1677C48.4015 10.1647 48.366 10.1646 48.3259 10.1684C48.3095 10.1684 48.2944 10.1689 48.2805 10.1699C48.2788 10.17 48.2771 10.1701 48.2754 10.1702C48.1621 10.179 48.1408 10.2184 48.2408 10.2579C48.2678 10.2701 48.297 10.2778 48.3259 10.2818C48.3296 10.2823 48.3332 10.2827 48.3369 10.2831C48.4103 10.2907 48.4807 10.274 48.5102 10.243C48.5484 10.2128 48.5222 10.1826 48.4532 10.1708C48.4463 10.1696 48.4389 10.1686 48.431 10.1677Z" fill="white" stroke="black"/>
<path d="M98.052 10.1677C98.0225 10.1647 97.987 10.1646 97.9469 10.1684C97.9305 10.1684 97.9153 10.1689 97.9015 10.1699C97.8998 10.17 97.8981 10.1701 97.8964 10.1702C97.783 10.179 97.7618 10.2184 97.8618 10.2579C97.8888 10.2701 97.9179 10.2778 97.9469 10.2818C97.9505 10.2823 97.9542 10.2827 97.9578 10.2831C98.0313 10.2907 98.1017 10.274 98.1311 10.243C98.1694 10.2128 98.1431 10.1826 98.0742 10.1708C98.0672 10.1696 98.0598 10.1686 98.052 10.1677Z" fill="white" stroke="black"/>
<path d="M47.4612 10.4061C47.5151 10.3778 47.5064 10.3554 47.4422 10.3429L47.4612 10.4061ZM47.4612 10.4061C47.4111 10.4212 47.343 10.4286 47.2769 10.4285C47.212 10.4283 47.1489 10.4209 47.1068 10.4061M47.4612 10.4061L47.4265 10.3402C47.3902 10.3346 47.34 10.3316 47.2769 10.3316C47.2192 10.3316 47.1722 10.3341 47.1371 10.3388L47.1068 10.4061M47.1068 10.4061C47.0384 10.3753 47.0508 10.3516 47.13 10.3398L47.1068 10.4061Z" fill="white" stroke="black"/>
<path d="M99.0445 10.316C99.0149 10.313 98.9794 10.3128 98.9392 10.3167C98.9228 10.3167 98.9076 10.3172 98.8938 10.3181C98.892 10.3182 98.8903 10.3183 98.8887 10.3185C98.7753 10.3273 98.7541 10.3667 98.8541 10.4061C98.8811 10.4183 98.9103 10.426 98.9392 10.43C98.9428 10.4305 98.9465 10.4309 98.9501 10.4313C99.0236 10.4389 99.094 10.4222 99.1235 10.3912C99.1617 10.3611 99.1355 10.3309 99.0666 10.319C99.0596 10.3178 99.0523 10.3168 99.0445 10.316Z" fill="white" stroke="black"/>
<path d="M46.3046 10.4642C46.2751 10.4611 46.2396 10.461 46.1994 10.4648C46.183 10.4648 46.1679 10.4653 46.154 10.4663C46.1523 10.4664 46.1506 10.4665 46.1489 10.4666C46.0356 10.4754 46.0144 10.5149 46.1144 10.5543C46.1414 10.5665 46.1705 10.5742 46.1994 10.5782C46.2031 10.5787 46.2067 10.5791 46.2104 10.5795C46.2839 10.5871 46.3543 10.5704 46.3837 10.5394C46.422 10.5092 46.3958 10.4791 46.3268 10.4672C46.3198 10.466 46.3124 10.465 46.3046 10.4642Z" fill="white" stroke="black"/>
<path d="M45.5957 10.6126C45.5662 10.6095 45.5307 10.6094 45.4906 10.6132C45.4742 10.6132 45.459 10.6137 45.4452 10.6147C45.4435 10.6148 45.4418 10.6149 45.4401 10.615C45.3267 10.6238 45.3055 10.6633 45.4055 10.7027C45.4325 10.7149 45.4616 10.7227 45.4906 10.7266C45.4942 10.7271 45.4979 10.7275 45.5015 10.7279C45.575 10.7355 45.6454 10.7188 45.6749 10.6878C45.7131 10.6576 45.6869 10.6275 45.6179 10.6156C45.6109 10.6144 45.6035 10.6134 45.5957 10.6126Z" fill="white" stroke="black"/>
<path d="M101.029 10.6126C101 10.6095 100.964 10.6094 100.924 10.6132C100.908 10.6132 100.893 10.6137 100.879 10.6147C100.877 10.6148 100.875 10.6149 100.874 10.615C100.76 10.6238 100.739 10.6633 100.839 10.7027C100.866 10.7149 100.895 10.7227 100.924 10.7266C100.928 10.7271 100.931 10.7275 100.935 10.7279C101.008 10.7355 101.079 10.7188 101.108 10.6878C101.147 10.6576 101.12 10.6275 101.051 10.6156C101.044 10.6144 101.037 10.6134 101.029 10.6126Z" fill="white" stroke="black"/>
<path d="M44.4616 10.7607C44.4321 10.7576 44.3966 10.7575 44.3564 10.7613C44.34 10.7613 44.3249 10.7618 44.311 10.7628C44.3093 10.7629 44.3076 10.763 44.3059 10.7631C44.1926 10.7719 44.1713 10.8114 44.2714 10.8508C44.2984 10.863 44.3275 10.8707 44.3564 10.8747C44.3601 10.8752 44.3637 10.8756 44.3674 10.876C44.4408 10.8836 44.5112 10.8669 44.5407 10.8359C44.579 10.8057 44.5527 10.7756 44.4838 10.7637C44.4768 10.7625 44.4694 10.7615 44.4616 10.7607Z" fill="white" stroke="black"/>
<path d="M102.022 10.7607C101.992 10.7576 101.957 10.7575 101.916 10.7613C101.9 10.7613 101.885 10.7618 101.871 10.7628C101.869 10.7629 101.868 10.763 101.866 10.7632C101.753 10.7719 101.731 10.8114 101.831 10.8508C101.858 10.863 101.887 10.8707 101.916 10.8747C101.92 10.8752 101.924 10.8756 101.927 10.876C102.001 10.8836 102.071 10.8669 102.101 10.8359C102.139 10.8057 102.113 10.7756 102.044 10.7637C102.037 10.7625 102.029 10.7615 102.022 10.7607Z" fill="white" stroke="black"/>
<path d="M43.775 10.9991L43.7578 10.942C43.7665 10.944 43.774 10.9462 43.7803 10.9486C43.7807 10.9648 43.7802 10.981 43.779 10.997C43.7777 10.9977 43.7764 10.9984 43.775 10.9991ZM43.775 10.9991C43.7142 11.0174 43.6161 11.0245 43.5198 11.0203C43.4591 11.0177 43.3991 11.0107 43.3497 10.9991M43.775 10.9991L43.7433 10.9389C43.6952 10.9297 43.6197 10.9246 43.5198 10.9246C43.4599 10.9246 43.4099 10.9267 43.3713 10.9306L43.3497 10.9991M43.3497 10.9991C43.3309 10.9932 43.3161 10.9875 43.305 10.9821C43.3046 10.9684 43.3048 10.955 43.3055 10.9419C43.3198 10.9376 43.34 10.9339 43.3656 10.9312L43.3497 10.9991Z" fill="white" stroke="black"/>
<path d="M42.7604 11.0571C42.7308 11.054 42.6953 11.0539 42.6551 11.0577C42.6387 11.0577 42.6236 11.0582 42.6097 11.0592C42.608 11.0593 42.6063 11.0594 42.6046 11.0595C42.4913 11.0683 42.4701 11.1078 42.5701 11.1472C42.5971 11.1594 42.6262 11.1671 42.6551 11.1711C42.6588 11.1716 42.6624 11.172 42.6661 11.1724C42.7396 11.18 42.81 11.1633 42.8394 11.1323C42.8777 11.1021 42.8515 11.072 42.7825 11.0601C42.7755 11.0589 42.7682 11.0579 42.7604 11.0571Z" fill="white" stroke="black"/>
<path d="M41.9096 11.2053C41.88 11.2023 41.8446 11.2022 41.8044 11.206C41.788 11.206 41.7729 11.2065 41.759 11.2075C41.7573 11.2076 41.7556 11.2077 41.7539 11.2078C41.6406 11.2166 41.6193 11.256 41.7194 11.2955C41.7464 11.3077 41.7755 11.3154 41.8044 11.3194C41.8081 11.3199 41.8117 11.3203 41.8154 11.3207C41.8889 11.3283 41.9592 11.3116 41.9887 11.2806C42.027 11.2504 42.0007 11.2202 41.9318 11.2084C41.9248 11.2072 41.9174 11.2062 41.9096 11.2053Z" fill="white" stroke="black"/>
<path d="M41.0589 11.3536C41.0294 11.3505 40.9939 11.3504 40.9537 11.3542C40.9373 11.3542 40.9222 11.3547 40.9083 11.3557C40.9066 11.3558 40.9049 11.3559 40.9032 11.356C40.7899 11.3648 40.7686 11.4043 40.8686 11.4437C40.8957 11.4559 40.9248 11.4636 40.9537 11.4676C40.9574 11.4681 40.961 11.4685 40.9647 11.4689C41.0381 11.4765 41.1085 11.4598 41.138 11.4288C41.1763 11.3986 41.15 11.3685 41.0811 11.3566C41.0741 11.3554 41.0667 11.3544 41.0589 11.3536Z" fill="white" stroke="black"/>
<path d="M40.3725 11.592C40.4264 11.5637 40.4177 11.5413 40.3535 11.5287L40.3725 11.592ZM40.3725 11.592C40.3224 11.6071 40.2543 11.6145 40.1882 11.6144C40.1232 11.6142 40.0602 11.6068 40.018 11.592M40.3725 11.592L40.3378 11.526C40.3014 11.5205 40.2512 11.5175 40.1882 11.5175C40.1304 11.5175 40.0835 11.52 40.0484 11.5247L40.018 11.592M40.018 11.592C39.9497 11.5612 39.9621 11.5374 40.0413 11.5257L40.018 11.592Z" fill="white" stroke="black"/>
<path d="M39.4994 11.6499C39.4698 11.6468 39.4344 11.6467 39.3943 11.6506C39.3779 11.6506 39.3627 11.6511 39.3489 11.652C39.3472 11.6521 39.3455 11.6522 39.3438 11.6524C39.2304 11.6611 39.2092 11.7006 39.3092 11.7401C39.3362 11.7523 39.3653 11.76 39.3943 11.764C39.3979 11.7645 39.4016 11.7649 39.4052 11.7653C39.4787 11.7729 39.5491 11.7562 39.5785 11.7252C39.6168 11.695 39.5905 11.6648 39.5215 11.6529C39.5146 11.6517 39.5072 11.6507 39.4994 11.6499Z" fill="white" stroke="black"/>
<path d="M38.813 11.8884C38.8669 11.86 38.8582 11.8377 38.794 11.8251L38.813 11.8884ZM38.813 11.8884C38.763 11.9034 38.6948 11.9109 38.6287 11.9108C38.5638 11.9106 38.5007 11.9032 38.4586 11.8884M38.813 11.8884L38.7783 11.8224C38.7419 11.8169 38.6918 11.8138 38.6287 11.8138C38.571 11.8138 38.5241 11.8164 38.489 11.821L38.4586 11.8884M38.4586 11.8884C38.3902 11.8576 38.4026 11.8338 38.4819 11.822L38.4586 11.8884Z" fill="white" stroke="black"/>
<path d="M37.94 11.9464C37.9104 11.9434 37.875 11.9433 37.8348 11.9471C37.8184 11.9471 37.8033 11.9476 37.7894 11.9485C37.7877 11.9487 37.786 11.9488 37.7843 11.9489C37.671 11.9577 37.6497 11.9971 37.7498 12.0366C37.7768 12.0488 37.8059 12.0565 37.8348 12.0605C37.8385 12.061 37.8421 12.0614 37.8458 12.0618C37.9193 12.0694 37.9896 12.0527 38.0191 12.0217C38.0574 11.9915 38.0311 11.9613 37.9622 11.9495C37.9552 11.9483 37.9478 11.9472 37.94 11.9464Z" fill="white" stroke="black"/>
<path d="M37.2311 12.0948C37.2016 12.0917 37.1661 12.0916 37.126 12.0954C37.1096 12.0954 37.0944 12.0959 37.0806 12.0969C37.0789 12.097 37.0772 12.0971 37.0755 12.0972C36.9621 12.106 36.9409 12.1455 37.0409 12.1849C37.0679 12.1971 37.097 12.2048 37.126 12.2088C37.1296 12.2093 37.1333 12.2097 37.1369 12.2101C37.2104 12.2177 37.2808 12.201 37.3103 12.17C37.3485 12.1398 37.3223 12.1096 37.2533 12.0978C37.2463 12.0966 37.2389 12.0956 37.2311 12.0948Z" fill="white" stroke="black"/>
<path d="M35.8359 12.4813C35.8898 12.4529 35.881 12.4306 35.8168 12.418L35.8359 12.4813ZM35.8359 12.4813C35.7858 12.4963 35.7177 12.5038 35.6516 12.5037C35.5866 12.5035 35.5236 12.4961 35.4814 12.4813M35.8359 12.4813L35.8012 12.4153C35.7648 12.4097 35.7146 12.4067 35.6516 12.4067C35.5938 12.4067 35.5469 12.4093 35.5118 12.4139L35.4814 12.4813M35.4814 12.4813C35.413 12.4505 35.4254 12.4267 35.5047 12.4149L35.4814 12.4813Z" fill="white" stroke="black"/>
<path d="M34.3957 12.6876C34.3661 12.6845 34.3307 12.6844 34.2905 12.6882C34.2741 12.6882 34.2589 12.6887 34.2451 12.6897C34.2434 12.6898 34.2417 12.6899 34.24 12.69C34.1267 12.6988 34.1054 12.7382 34.2054 12.7777C34.2324 12.7899 34.2616 12.7976 34.2905 12.8016C34.2941 12.8021 34.2978 12.8025 34.3014 12.8029C34.3749 12.8105 34.4453 12.7938 34.4748 12.7628C34.513 12.7326 34.4868 12.7024 34.4178 12.6906C34.4109 12.6894 34.4035 12.6884 34.3957 12.6876Z" fill="white" stroke="black"/>
<path d="M33.6867 12.8357C33.6571 12.8327 33.6217 12.8326 33.5815 12.8364C33.5651 12.8364 33.55 12.8369 33.5361 12.8378C33.5344 12.8379 33.5327 12.8381 33.531 12.8382C33.4177 12.847 33.3964 12.8864 33.4964 12.9259C33.5235 12.938 33.5526 12.9458 33.5815 12.9497C33.5852 12.9502 33.5888 12.9507 33.5925 12.9511C33.6659 12.9587 33.7363 12.942 33.7658 12.911C33.8041 12.8808 33.7778 12.8506 33.7088 12.8387C33.7019 12.8375 33.6945 12.8365 33.6867 12.8357Z" fill="white" stroke="black"/>
<path d="M33.1421 13.0742C33.1961 13.0458 33.1873 13.0235 33.1231 13.0109L33.1421 13.0742ZM33.1421 13.0742C33.0921 13.0892 33.024 13.0967 32.9578 13.0966C32.8929 13.0964 32.8298 13.089 32.7877 13.0742M33.1421 13.0742L33.1074 13.0082C33.071 13.0026 33.0209 12.9996 32.9578 12.9996C32.9001 12.9996 32.8532 13.0022 32.8181 13.0068L32.7877 13.0742M32.7877 13.0742C32.7193 13.0434 32.7317 13.0196 32.811 13.0078L32.7877 13.0742Z" fill="white" stroke="black"/>
<path d="M31.7018 13.2805C31.6723 13.2775 31.6368 13.2774 31.5967 13.2812C31.5803 13.2812 31.5651 13.2817 31.5513 13.2826C31.5496 13.2828 31.5479 13.2829 31.5462 13.283C31.4328 13.2918 31.4116 13.3312 31.5116 13.3707C31.5386 13.3829 31.5677 13.3906 31.5967 13.3946C31.6003 13.3951 31.604 13.3955 31.6076 13.3959C31.6811 13.4035 31.7515 13.3868 31.781 13.3558C31.8192 13.3256 31.793 13.2954 31.724 13.2836C31.717 13.2824 31.7096 13.2813 31.7018 13.2805Z" fill="white" stroke="black"/>
<path d="M30.426 13.577C30.3964 13.5739 30.361 13.5738 30.3208 13.5776C30.3044 13.5776 30.2892 13.5781 30.2754 13.5791C30.2737 13.5792 30.272 13.5793 30.2703 13.5794C30.1569 13.5882 30.1357 13.6276 30.2357 13.6671C30.2627 13.6793 30.2918 13.687 30.3208 13.691C30.3244 13.6915 30.3281 13.6919 30.3317 13.6923C30.4052 13.6999 30.4756 13.6832 30.5051 13.6522C30.5433 13.622 30.5171 13.5919 30.4481 13.58C30.4412 13.5788 30.4338 13.5778 30.426 13.577Z" fill="white" stroke="black"/>
<path d="M29.314 13.9636C29.3679 13.9352 29.3592 13.9129 29.295 13.9003L29.314 13.9636ZM29.314 13.9636C29.2639 13.9786 29.1958 13.9861 29.1297 13.986C29.0648 13.9858 29.0017 13.9784 28.9596 13.9636M29.314 13.9636L29.2793 13.8976C29.2429 13.892 29.1927 13.889 29.1297 13.889C29.072 13.889 29.025 13.8916 28.9899 13.8962L28.9596 13.9636M28.9596 13.9636C28.8912 13.9328 28.9036 13.909 28.9828 13.8972L28.9596 13.9636Z" fill="white" stroke="black"/>
<path d="M28.583 14.0215C28.5534 14.0185 28.5179 14.0184 28.4778 14.0222C28.4614 14.0222 28.4462 14.0227 28.4324 14.0236C28.4306 14.0238 28.4289 14.0239 28.4273 14.024C28.3139 14.0328 28.2927 14.0722 28.3927 14.1117C28.4197 14.1238 28.4488 14.1316 28.4778 14.1355C28.4814 14.136 28.4851 14.1365 28.4887 14.1368C28.5622 14.1444 28.6326 14.1278 28.6621 14.0968C28.7003 14.0666 28.6741 14.0364 28.6051 14.0246C28.5982 14.0234 28.5908 14.0224 28.583 14.0215Z" fill="white" stroke="black"/>
<path d="M28.0158 14.1697C27.9863 14.1667 27.9508 14.1666 27.9106 14.1704C27.8942 14.1704 27.8791 14.1709 27.8652 14.1718C27.8635 14.172 27.8618 14.1721 27.8601 14.1722C27.7468 14.181 27.7255 14.2204 27.8256 14.2599C27.8526 14.272 27.8817 14.2798 27.9106 14.2837C27.9143 14.2842 27.9179 14.2847 27.9216 14.285C27.9951 14.2926 28.0654 14.276 28.0949 14.245C28.1332 14.2148 28.107 14.1846 28.038 14.1728C28.031 14.1716 28.0236 14.1705 28.0158 14.1697Z" fill="white" stroke="black"/>
<path d="M26.7399 14.4662C26.7104 14.4632 26.6749 14.463 26.6347 14.4669C26.6183 14.4669 26.6032 14.4674 26.5894 14.4683C26.5876 14.4684 26.5859 14.4686 26.5843 14.4687C26.4709 14.4775 26.4497 14.5169 26.5497 14.5564C26.5767 14.5685 26.6058 14.5763 26.6347 14.5802C26.6384 14.5807 26.6421 14.5812 26.6457 14.5816C26.7192 14.5891 26.7896 14.5725 26.8191 14.5414C26.8573 14.5113 26.8311 14.4811 26.7621 14.4692C26.7551 14.468 26.7477 14.467 26.7399 14.4662Z" fill="white" stroke="black"/>
<path d="M25.6057 14.7626C25.5761 14.7596 25.5407 14.7595 25.5005 14.7633C25.4841 14.7633 25.4689 14.7638 25.4551 14.7647C25.4533 14.7648 25.4516 14.765 25.45 14.7651C25.3366 14.7739 25.3154 14.8133 25.4154 14.8528C25.4424 14.8649 25.4715 14.8727 25.5005 14.8766C25.5041 14.8771 25.5078 14.8776 25.5114 14.8779C25.5849 14.8855 25.6553 14.8689 25.6848 14.8378C25.723 14.8077 25.6968 14.7775 25.6278 14.7657C25.6209 14.7645 25.6135 14.7634 25.6057 14.7626Z" fill="white" stroke="black"/>
<path d="M24.4715 15.0592C24.4419 15.0561 24.4064 15.056 24.3662 15.0598C24.3498 15.0598 24.3346 15.0603 24.3208 15.0613C24.319 15.0614 24.3173 15.0615 24.3157 15.0616C24.2024 15.0704 24.1811 15.1098 24.2811 15.1493C24.3081 15.1614 24.3373 15.1692 24.3662 15.1731C24.3698 15.1736 24.3735 15.1741 24.3771 15.1744C24.4506 15.182 24.521 15.1654 24.5505 15.1344C24.5887 15.1042 24.5625 15.0741 24.4936 15.0622C24.4866 15.061 24.4793 15.06 24.4715 15.0592Z" fill="white" stroke="black"/>
<path d="M23.3374 15.3556C23.3078 15.3525 23.2724 15.3524 23.2322 15.3562C23.2157 15.3562 23.2006 15.3567 23.1867 15.3577C23.185 15.3578 23.1833 15.3579 23.1816 15.358C23.0683 15.3668 23.0471 15.4062 23.1471 15.4457C23.1741 15.4578 23.2032 15.4656 23.2322 15.4695C23.2358 15.47 23.2395 15.4705 23.2431 15.4708C23.3166 15.4784 23.387 15.4618 23.4165 15.4308C23.4547 15.4006 23.4285 15.3705 23.3595 15.3586C23.3526 15.3574 23.3452 15.3564 23.3374 15.3556Z" fill="white" stroke="black"/>
<path d="M20.0767 16.2449C20.0471 16.2419 20.0116 16.2418 19.9714 16.2456C19.955 16.2456 19.9399 16.2461 19.926 16.247C19.9243 16.2471 19.9226 16.2473 19.9209 16.2474C19.8076 16.2562 19.7863 16.2956 19.8863 16.3351C19.9134 16.3472 19.9425 16.355 19.9714 16.3589C19.9751 16.3594 19.9787 16.3599 19.9824 16.3602C20.0559 16.3678 20.1262 16.3512 20.1557 16.3201C20.194 16.29 20.1678 16.2598 20.0988 16.248C20.0919 16.2468 20.0845 16.2457 20.0767 16.2449Z" fill="white" stroke="black"/>
<path d="M11.5304 58.7032C11.5381 58.6256 11.5223 58.5509 11.4928 58.5198C11.4661 58.4822 11.4393 58.5042 11.4269 58.5667C11.4257 58.5726 11.4247 58.5788 11.4238 58.5853C11.4191 58.6193 11.4181 58.6624 11.4224 58.7125C11.4224 58.7328 11.4231 58.7513 11.4243 58.7678C11.4244 58.7693 11.4245 58.7707 11.4247 58.7721C11.4339 58.8846 11.4704 58.9039 11.5069 58.8014C11.5184 58.7732 11.5257 58.7427 11.5294 58.7125C11.5298 58.7094 11.5301 58.7063 11.5304 58.7032Z" fill="white" stroke="black"/>
<path d="M11.8139 61.0747C11.8215 60.9972 11.8058 60.9225 11.7762 60.8914C11.7495 60.8538 11.7228 60.8758 11.7103 60.9383C11.7092 60.9442 11.7081 60.9504 11.7072 60.9569C11.7026 60.9909 11.7016 61.034 11.7059 61.0841C11.7059 61.1044 11.7065 61.1229 11.7078 61.1394C11.7079 61.1409 11.708 61.1423 11.7081 61.1437C11.7173 61.2562 11.7538 61.2755 11.7903 61.173C11.8018 61.1448 11.8091 61.1143 11.8128 61.0841C11.8132 61.081 11.8136 61.0778 11.8139 61.0747Z" fill="white" stroke="black"/>
<path d="M11.9322 62.3587L11.8694 62.3332C11.8645 62.2959 11.8618 62.2447 11.8618 62.1809C11.8618 62.1107 11.865 62.0558 11.8709 62.0173L11.9322 61.9882M11.9322 62.3587C11.9461 62.3147 11.9532 62.2488 11.9533 62.1809C11.9534 62.1117 11.9464 62.0405 11.9322 61.9882M11.9322 62.3587L11.8702 62.3391C11.8815 62.4177 11.9037 62.4288 11.9322 62.3587ZM11.9322 61.9882L11.8731 62.0042C11.8851 61.9406 11.9059 61.9329 11.9322 61.9882Z" fill="white" stroke="black"/>
<path d="M12.0973 63.0016C12.105 62.924 12.0892 62.8494 12.0597 62.8183C12.0329 62.7807 12.0062 62.8026 11.9938 62.8652C11.9926 62.8711 11.9916 62.8773 11.9907 62.8838C11.986 62.9178 11.985 62.9609 11.9893 63.0109C11.9893 63.0313 11.99 63.0497 11.9912 63.0663C11.9913 63.0677 11.9914 63.0692 11.9916 63.0706C12.0008 63.183 12.0373 63.2024 12.0738 63.0999C12.0853 63.0716 12.0926 63.0412 12.0963 63.0109C12.0967 63.0078 12.097 63.0047 12.0973 63.0016Z" fill="white" stroke="black"/>
<path d="M12.2275 64.1361C12.2336 64.0827 12.2367 64.0216 12.2367 63.9596C12.2368 63.8976 12.2338 63.8347 12.2278 63.7777C12.2012 63.7752 12.1754 63.775 12.1506 63.7767C12.1471 63.8259 12.1453 63.8874 12.1453 63.9596C12.1453 64.0291 12.147 64.0888 12.1502 64.1369C12.1758 64.1386 12.2017 64.1384 12.2275 64.1361Z" fill="white" stroke="black"/>
<path d="M12.3577 65.1749L12.2949 65.1493C12.29 65.112 12.2874 65.0608 12.2874 64.997C12.2874 64.9269 12.2906 64.872 12.2965 64.8334L12.3577 64.8044M12.3577 65.1749C12.3717 65.1308 12.3787 65.0649 12.3788 64.997C12.3789 64.9279 12.3719 64.8567 12.3577 64.8044M12.3577 65.1749L12.2957 65.1553C12.3071 65.2339 12.3292 65.245 12.3577 65.1749ZM12.3577 64.8044L12.2987 64.8204C12.3107 64.7568 12.3315 64.7491 12.3577 64.8044Z" fill="white" stroke="black"/>
<path d="M135.275 71.6968L135.212 71.6713C135.207 71.634 135.205 71.5828 135.205 71.519C135.205 71.4488 135.208 71.3939 135.214 71.3554L135.275 71.3263M135.275 71.6968C135.289 71.6528 135.296 71.5869 135.296 71.519C135.296 71.4498 135.289 71.3786 135.275 71.3263M135.275 71.6968L135.213 71.6772C135.225 71.7559 135.247 71.767 135.275 71.6968ZM135.275 71.3263L135.216 71.3423C135.228 71.2787 135.249 71.271 135.275 71.3263Z" fill="white" stroke="black"/>
<path d="M20.0202 34.4593C20.0371 34.593 20.113 35.1445 20.1888 35.6709C20.4924 37.902 20.897 39.5983 22.3303 44.5703C23.2999 47.9379 23.8901 50.0186 24.2273 51.2553C24.2863 51.4809 24.6404 52.8012 25.0114 54.18C25.3908 55.5587 25.8461 57.2801 26.0315 57.9987C26.3856 59.3441 26.7903 60.9151 27.3805 63.1796C27.566 63.8815 27.8948 65.135 28.1056 65.9622C28.8728 68.9287 29.1847 70.0902 29.758 72.1876C30.0784 73.3575 30.4578 74.753 30.6011 75.2794C30.9721 76.6331 32.4897 81.9059 32.8269 83.0089C32.9787 83.5103 33.2485 84.3793 33.4171 84.9309C35.6935 92.3595 38.0289 98.2256 40.2041 101.936C43.5343 107.626 47.4295 111.896 50.8356 113.601C52.2857 114.32 53.3312 114.587 54.7054 114.587C55.852 114.579 56.6277 114.395 57.6394 113.894C59.8483 112.791 61.8381 110.275 63.3303 106.699C63.499 106.306 63.8784 105.236 64.1903 104.317C64.5023 103.398 64.8816 102.37 65.0334 102.044C65.75 100.507 66.7027 99.6796 67.47 99.9303C68.2793 100.189 68.7936 101.376 69.0381 103.523C69.2236 105.153 69.5018 107.092 69.8475 109.122C70.2016 111.153 70.2606 113.643 70.0077 115.431C69.9824 115.615 69.8728 116.534 69.7548 117.478C68.9623 123.913 69.1056 125.057 71.1796 129.052C73.3632 133.23 74.8387 135.244 75.3951 134.784C75.5553 134.65 75.6986 134.04 75.6986 133.506C75.6986 132.344 77.3258 127.222 79.0036 123.077C79.8467 121.013 80.2345 120.219 80.8584 119.267C82.9746 116.066 85.3353 110.493 86.3217 106.365C86.7517 104.56 87.2913 102.83 87.4599 102.688C87.5695 102.596 87.637 102.638 87.8983 102.905C88.8679 103.925 90.7227 107.242 91.9199 110.108C92.2572 110.919 92.6871 111.888 92.881 112.256C93.6398 113.743 94.6516 114.871 95.6717 115.373C96.2787 115.673 96.3378 115.682 97.1893 115.682C98.2853 115.682 98.8249 115.506 99.8957 114.796C103.42 112.456 107.467 106.072 111.969 95.7522C114.515 89.9112 116.142 85.0562 118.722 75.6137C120.071 70.7002 120.476 69.1961 121.142 66.7143C122.061 63.2632 122.196 62.7701 122.491 61.7006C122.617 61.241 122.887 60.28 123.081 59.5697C123.991 56.2523 125.256 52.116 126.453 48.5395C127.608 45.1218 127.828 44.1943 127.836 42.7319C127.844 41.4701 127.718 41.0189 127.254 40.6094C126.546 39.9994 125.543 40.0663 123.882 40.8434C121.049 42.1721 117.415 45.1302 112.331 50.2275C107.02 55.542 104.558 58.7257 102.349 63.096C100.84 66.0792 99.6596 69.2796 98.4371 73.7335C98.2347 74.4772 97.9987 75.2209 97.9144 75.388C97.6193 76.0064 97.1977 75.7724 95.4272 73.9842C92.6028 71.1431 90.0061 69.8395 87.1564 69.8395C85.7737 69.8395 84.8041 70.0986 83.413 70.8172C83.1011 70.9676 82.7891 71.1013 82.7048 71.1013C82.3001 71.1013 82.1568 70.5749 82.0303 68.678C81.5582 61.5501 81.6931 57.8901 82.6542 52.0073C83.6407 46.0159 85.2763 40.6011 87.2407 36.8408C88.7498 33.9412 88.7161 34.0247 88.7498 33.515C88.7836 32.9635 88.5728 32.295 88.1765 31.7518C87.7466 31.1753 87.3419 31.2923 86.1447 32.3451C85.5039 32.9134 82.7554 35.7879 81.769 36.9243C77.798 41.5119 75.9347 45.6733 74.7375 52.634C74.6279 53.3025 74.4508 54.3554 74.3581 54.9738C74.004 57.1882 73.8017 57.8567 73.6415 57.2885C73.6162 57.1882 73.3632 56.1102 73.085 54.8902C72.8068 53.6702 72.5454 52.5254 72.4949 52.3416C71.4831 48.6398 68.4311 42.5815 65.4718 38.4034C63.2123 35.203 61.602 33.7657 59.7977 33.3395C59.4352 33.256 59.3172 33.256 59.0558 33.3646C57.867 33.8576 58.5752 36.6486 61.2226 41.8963C64.4601 48.3139 65.261 50.896 67.0906 60.8649C67.2676 61.8008 67.529 63.3969 67.6892 64.4748C67.7988 65.2436 67.7988 66.5388 67.6892 66.9399C67.5796 67.3159 67.2508 67.717 66.9135 67.8925C66.7786 67.9594 66.2222 68.1683 65.6826 68.3521C64.6034 68.7198 63.9542 69.054 63.128 69.6473C61.2732 70.9927 59.7303 72.806 57.749 75.9479C56.771 77.4938 56.3495 78.037 56.1134 78.037C55.8014 78.0286 55.5232 77.6024 54.7307 75.8978C53.2721 72.7976 52.4628 71.7782 46.9489 66.1294C43.4753 62.5696 42.784 61.8175 41.924 60.6895C41.1231 59.6282 40.6509 58.7174 39.9511 56.8539C38.2481 52.3416 36.7811 49.5088 34.7323 46.7847C34.471 46.4421 33.5942 45.4811 32.7848 44.6539C30.9805 42.8238 30.6011 42.3308 30.3482 41.5621C29.8339 39.966 27.7177 37.2419 26.0231 35.9801C25.239 35.3952 24.2357 34.3506 23.3167 33.164C21.9088 31.334 21.1415 30.7658 20.5429 31.0833C20.1888 31.2755 20.0287 31.8605 20.0034 33.0805C19.9949 33.6988 20.0034 34.3172 20.0202 34.4593Z" fill="#418585"/>
</svg>
