<svg width="149" height="178" viewBox="0 0 149 178" fill="none" xmlns="http://www.w3.org/2000/svg">
<path d="M72.0589 8.47922C72.5409 8.50921 73.3065 8.50921 73.7602 8.47922C74.1997 8.44923 73.8027 8.43423 72.867 8.43423C71.9313 8.43423 71.5627 8.44923 72.0589 8.47922Z" fill="#418585"/>
<path d="M66.317 8.62742C66.6006 8.65723 67.0826 8.65723 67.3803 8.62742C67.6639 8.59762 67.4228 8.56781 66.8416 8.56781C66.2603 8.56781 66.0193 8.59762 66.317 8.62742Z" fill="#418585"/>
<path d="M78.3678 8.62742C78.5805 8.65723 78.9207 8.65723 79.1475 8.62742C79.3602 8.59762 79.1759 8.56781 78.7506 8.56781C78.3253 8.56781 78.141 8.59762 78.3678 8.62742Z" fill="#418585"/>
<path d="M62.8436 8.77572C63.0137 8.80555 63.2973 8.80555 63.4816 8.77572C63.6517 8.74589 63.5099 8.71606 63.1555 8.71606C62.8011 8.71606 62.6593 8.74589 62.8436 8.77572Z" fill="#418585"/>
<path d="M65.991 8.83513C49.8997 9.50214 33.4965 12.4518 15.1085 17.9805C12.032 18.8995 11.1955 19.2108 11.1105 19.4331C11.0396 19.5962 10.997 19.6258 10.997 19.5072C10.9829 19.3887 10.9545 19.3294 10.912 19.359C10.8836 19.4035 10.7419 21.0636 10.6001 23.0646C10.3024 27.6299 10.2598 41.1924 10.5292 45.5798C10.7419 49.0631 11.2239 54.8735 11.4082 56.4002C11.4791 57.0079 11.6492 58.3122 11.7626 59.2905C12.0887 62.092 12.5424 65.2195 12.8259 66.7758C12.8968 67.1464 13.0102 67.843 13.0953 68.3322C13.1804 68.8213 13.3788 69.9034 13.549 70.7482C13.7049 71.5931 13.8183 72.349 13.79 72.438C13.7474 72.5714 13.6199 71.9785 12.8117 67.6059C12.67 66.8055 12.5282 65.9754 12.5282 65.7531C12.514 65.5159 12.4857 65.4566 12.4431 65.6197C12.4006 65.8272 13.0953 70.5259 13.6199 73.52C14.3287 77.6258 15.789 84.207 16.7956 87.8977C17.0366 88.7871 17.4194 90.1952 17.6462 91.0104C19.2199 96.7615 22.4098 105.655 24.8767 111.169C28.4635 119.188 31.4691 124.835 35.9917 131.979C37.0125 133.58 37.8915 134.944 37.9482 135.033C38.0191 135.107 38.3168 135.552 38.6287 135.996C38.9406 136.441 39.2383 136.871 39.295 136.96C39.3659 137.034 39.5644 137.345 39.7629 137.627C39.9472 137.908 40.1457 138.175 40.1882 138.22C40.2307 138.264 40.4292 138.531 40.6135 138.813C40.7978 139.094 40.9963 139.361 41.0389 139.406C41.0814 139.45 41.2799 139.717 41.4642 139.998C41.6485 140.28 41.847 140.547 41.8895 140.591C41.932 140.636 42.1872 140.962 42.4566 141.332C42.726 141.703 42.9811 142.029 43.0237 142.074C43.0662 142.118 43.3214 142.444 43.5908 142.815C43.8601 143.185 44.1153 143.511 44.1579 143.556C44.2004 143.6 44.5123 144 44.8667 144.445C45.2212 144.89 45.5331 145.29 45.5756 145.334C45.6181 145.379 46.0009 145.838 46.4262 146.372C46.8516 146.906 47.3052 147.439 47.4187 147.558C47.5321 147.676 48.0992 148.343 48.6804 149.04C49.7863 150.344 56.5489 157.459 57.9099 158.749C60.873 161.521 61.4968 162.084 63.5667 163.862C64.4031 164.574 66.5439 166.175 66.9834 166.412C67.1677 166.516 67.6781 166.827 68.1034 167.094C70.6128 168.635 73.8452 169.258 76.4681 168.68C77.7298 168.413 79.4453 167.716 80.4661 167.094C80.8914 166.827 81.4018 166.516 81.5861 166.412C82.0256 166.175 84.1664 164.574 85.0028 163.862C87.1011 162.069 88.0793 161.194 90.6596 158.749C92.0631 157.43 98.7974 150.33 99.889 149.04C100.47 148.343 101.037 147.676 101.151 147.558C101.264 147.439 101.718 146.906 102.143 146.372C102.569 145.838 102.951 145.379 102.994 145.334C103.036 145.29 103.348 144.89 103.703 144.445C104.057 144 104.369 143.6 104.412 143.556C104.454 143.511 104.709 143.185 104.979 142.815C105.248 142.444 105.503 142.118 105.546 142.074C105.588 142.029 106.042 141.436 106.538 140.74C107.049 140.043 107.488 139.45 107.531 139.406C107.573 139.361 107.772 139.094 107.956 138.813C108.14 138.531 108.339 138.264 108.381 138.22C108.424 138.175 108.934 137.449 109.515 136.589C110.097 135.73 110.607 135.003 110.65 134.959C110.763 134.87 113.953 129.83 114.605 128.733C114.875 128.289 115.385 127.414 115.739 126.806C116.505 125.517 118.589 121.693 119.808 119.321C122.686 113.763 125.791 106.441 128.23 99.4592C129.704 95.2496 132.114 86.9343 132.851 83.5251C132.908 83.2435 132.979 82.9322 132.993 82.8581C133.007 82.7692 133.192 81.9688 133.404 81.0794C133.858 79.1081 135.176 72.2898 135.162 72.0526C135.148 71.9637 135.063 72.2156 134.964 72.6307C134.68 73.7572 134.737 72.9419 135.021 71.5931C135.176 70.852 135.304 70.5111 135.347 70.7038C135.389 70.8668 135.403 70.6593 135.361 70.2591C135.304 69.681 135.332 69.5624 135.46 69.7403C135.588 69.9182 135.602 69.9034 135.531 69.6366C135.488 69.4735 135.588 68.5397 135.744 67.5614C136.013 66.0199 136.24 64.4784 136.736 60.9951C136.949 59.4388 137.416 55.0513 137.658 52.324C138.466 43.1341 138.579 32.3583 137.969 22.2494L137.799 19.2997L135.531 18.6624C109.048 11.0733 86.8742 7.94579 65.991 8.83513ZM13.9176 73.0309C13.875 73.1495 13.8325 73.105 13.8325 72.9419C13.8183 72.7789 13.8609 72.69 13.9034 72.7493C13.9459 72.7937 13.9601 72.9271 13.9176 73.0309ZM14.0594 73.772C14.0168 73.8758 13.9885 73.8016 13.9885 73.5941C13.9885 73.3866 14.0168 73.3125 14.0594 73.4014C14.0877 73.5052 14.0877 73.6831 14.0594 73.772ZM134.709 73.772C134.666 73.8906 134.624 73.8461 134.624 73.6831C134.609 73.52 134.652 73.4311 134.694 73.4904C134.737 73.5348 134.751 73.6682 134.709 73.772ZM14.2011 74.3649C14.1586 74.4835 14.1161 74.439 14.1161 74.276C14.1019 74.1129 14.1444 74.024 14.1869 74.0833C14.2295 74.1277 14.2437 74.2611 14.2011 74.3649ZM134.567 74.5131C134.524 74.6169 134.496 74.5428 134.496 74.3352C134.496 74.1277 134.524 74.0536 134.567 74.1426C134.595 74.2463 134.595 74.4242 134.567 74.5131ZM14.3429 75.106C14.3004 75.2098 14.272 75.1357 14.272 74.9281C14.272 74.7206 14.3004 74.6465 14.3429 74.7355C14.3713 74.8392 14.3713 75.0171 14.3429 75.106ZM134.425 75.106C134.383 75.2246 134.34 75.1801 134.34 75.0171C134.326 74.854 134.368 74.7651 134.411 74.8244C134.453 74.8689 134.468 75.0023 134.425 75.106ZM134.184 76.2622L134.028 76.6327L134.113 76.2622C134.142 76.0546 134.184 75.7582 134.198 75.5951C134.227 75.3135 134.227 75.3135 134.283 75.5951C134.312 75.773 134.269 76.0695 134.184 76.2622ZM14.6264 76.44C14.5839 76.5586 14.5414 76.5141 14.5414 76.3511C14.5272 76.188 14.5697 76.0991 14.6123 76.1584C14.6548 76.2029 14.669 76.3363 14.6264 76.44ZM14.7682 77.0329C14.7257 77.1515 14.6832 77.107 14.6832 76.944C14.669 76.7809 14.7115 76.692 14.754 76.7513C14.7966 76.7958 14.8108 76.9292 14.7682 77.0329ZM134 77.1811C133.957 77.2997 133.915 77.2553 133.915 77.0922C133.901 76.9292 133.943 76.8402 133.986 76.8995C134.028 76.944 134.042 77.0774 134 77.1811ZM14.91 77.6258C14.8675 77.7444 14.8249 77.6999 14.8249 77.5369C14.8108 77.3738 14.8533 77.2849 14.8958 77.3442C14.9383 77.3887 14.9525 77.5221 14.91 77.6258ZM15.0518 78.2187C15.0092 78.3373 14.9667 78.2928 14.9667 78.1298C14.9525 77.9667 14.9951 77.8778 15.0376 77.9371C15.0801 77.9816 15.0943 78.115 15.0518 78.2187ZM133.716 78.2187C133.674 78.3373 133.631 78.2928 133.631 78.1298C133.617 77.9667 133.659 77.8778 133.702 77.9371C133.745 77.9816 133.759 78.115 133.716 78.2187ZM15.1935 78.8116C15.151 78.9302 15.1085 78.8857 15.1085 78.7227C15.0943 78.5596 15.1368 78.4707 15.1794 78.53C15.2219 78.5744 15.2361 78.7079 15.1935 78.8116Z" fill="#418585"/>
<path d="M82.2666 8.77572C82.4367 8.80555 82.7203 8.80555 82.9046 8.77572C83.0747 8.74589 82.9329 8.71606 82.5785 8.71606C82.224 8.71606 82.0823 8.74589 82.2666 8.77572Z" fill="#418585"/>
<path d="M60.788 8.92393C60.9155 8.95374 61.1424 8.95374 61.2842 8.92393C61.4117 8.87921 61.2983 8.8494 61.029 8.8494C60.7596 8.8494 60.6462 8.87921 60.788 8.92393Z" fill="#418585"/>
<path d="M84.535 8.92393C84.6201 8.95374 84.7902 8.95374 84.8895 8.92393C84.9745 8.87921 84.9036 8.8494 84.7052 8.8494C84.5067 8.8494 84.4358 8.87921 84.535 8.92393Z" fill="#418585"/>
<path d="M58.6612 9.07224C58.7888 9.10206 59.0157 9.10206 59.1574 9.07224C59.285 9.0275 59.1716 8.99768 58.9023 8.99768C58.6329 8.99768 58.5195 9.0275 58.6612 9.07224Z" fill="#418585"/>
<path d="M86.8742 9.07224C87.0018 9.10206 87.2003 9.10206 87.2996 9.07224C87.3847 9.0275 87.2854 8.99768 87.0444 8.99768C86.8175 8.99768 86.7325 9.0275 86.8742 9.07224Z" fill="#418585"/>
<path d="M56.7474 9.22032C56.8467 9.26503 56.9743 9.25013 57.0168 9.20541C57.0735 9.16069 56.9884 9.11598 56.8325 9.13088C56.6765 9.13088 56.634 9.1756 56.7474 9.22032Z" fill="#418585"/>
<path d="M57.3144 9.22032C57.4137 9.26503 57.5413 9.25013 57.5838 9.20541C57.6405 9.16069 57.5554 9.11598 57.3995 9.13088C57.2436 9.13088 57.201 9.1756 57.3144 9.22032Z" fill="#418585"/>
<path d="M88.3629 9.22031C88.448 9.25013 88.6181 9.25013 88.7174 9.22031C88.8024 9.17557 88.7315 9.14575 88.533 9.14575C88.3345 9.14575 88.2636 9.17557 88.3629 9.22031Z" fill="#418585"/>
<path d="M55.4714 9.36862C55.5565 9.39845 55.7266 9.39845 55.8259 9.36862C55.9109 9.32389 55.84 9.29407 55.6415 9.29407C55.4431 9.29407 55.3722 9.32389 55.4714 9.36862Z" fill="#418585"/>
<path d="M90.206 9.36862C90.2911 9.39845 90.4612 9.39845 90.5605 9.36862C90.6455 9.32389 90.5746 9.29407 90.3762 9.29407C90.1777 9.29407 90.1068 9.32389 90.206 9.36862Z" fill="#418585"/>
<path d="M54.1955 9.51693C54.2806 9.54676 54.4507 9.54676 54.5499 9.51693C54.635 9.47218 54.5641 9.44235 54.3657 9.44235C54.1672 9.44235 54.0963 9.47218 54.1955 9.51693Z" fill="#418585"/>
<path d="M91.5528 9.51693C91.6804 9.54676 91.8789 9.54676 91.9781 9.51693C92.0632 9.47218 91.964 9.44235 91.723 9.44235C91.4961 9.44235 91.4111 9.47218 91.5528 9.51693Z" fill="#418585"/>
<path d="M52.7777 9.665C52.877 9.70975 53.0046 9.69483 53.0471 9.65008C53.1038 9.60533 53.0187 9.56058 52.8628 9.5755C52.7068 9.5755 52.6643 9.62025 52.7777 9.665Z" fill="#418585"/>
<path d="M93.0414 9.665C93.1406 9.70975 93.2682 9.69483 93.3107 9.65008C93.3675 9.60533 93.2824 9.56058 93.1264 9.5755C92.9705 9.5755 92.928 9.62025 93.0414 9.665Z" fill="#418585"/>
<path d="M51.4308 9.81333C51.5584 9.84315 51.7852 9.84315 51.927 9.81333C52.0546 9.76861 51.9412 9.7388 51.6718 9.7388C51.4024 9.7388 51.289 9.76861 51.4308 9.81333Z" fill="#418585"/>
<path d="M94.1756 9.81333C94.2607 9.84315 94.4308 9.84315 94.5301 9.81333C94.6152 9.76861 94.5443 9.7388 94.3458 9.7388C94.1473 9.7388 94.0764 9.76861 94.1756 9.81333Z" fill="#418585"/>
<path d="M50.2258 9.96152C50.3109 9.99134 50.481 9.99134 50.5802 9.96152C50.6653 9.91679 50.5944 9.88696 50.3959 9.88696C50.1975 9.88696 50.1266 9.91679 50.2258 9.96152Z" fill="#418585"/>
<path d="M95.5933 9.9614C95.6925 10.0061 95.8201 9.99122 95.8626 9.94649C95.9193 9.90176 95.8343 9.85703 95.6783 9.87194C95.5224 9.87194 95.4798 9.91667 95.5933 9.9614Z" fill="#418585"/>
<path d="M49.1625 10.1097C49.29 10.1395 49.4885 10.1395 49.5878 10.1097C49.6728 10.065 49.5736 10.0352 49.3326 10.0352C49.1057 10.0352 49.0207 10.065 49.1625 10.1097Z" fill="#418585"/>
<path d="M96.5857 10.1097C96.6849 10.1544 96.8125 10.1395 96.8551 10.0948C96.9118 10.0501 96.8267 10.0054 96.6708 10.0203C96.5148 10.0203 96.4723 10.065 96.5857 10.1097Z" fill="#418585"/>
<path d="M48.2408 10.2579C48.3401 10.3026 48.4677 10.2877 48.5102 10.243C48.5669 10.1982 48.4818 10.1535 48.3259 10.1684C48.17 10.1684 48.1274 10.2132 48.2408 10.2579Z" fill="#418585"/>
<path d="M97.8618 10.2579C97.961 10.3026 98.0886 10.2877 98.1311 10.243C98.1879 10.1982 98.1028 10.1535 97.9469 10.1684C97.7909 10.1684 97.7484 10.2132 97.8618 10.2579Z" fill="#418585"/>
<path d="M47.1068 10.4061C47.1919 10.4359 47.362 10.4359 47.4612 10.4061C47.5463 10.3614 47.4754 10.3316 47.2769 10.3316C47.0784 10.3316 47.0076 10.3614 47.1068 10.4061Z" fill="#418585"/>
<path d="M98.8541 10.4061C98.9534 10.4508 99.081 10.4359 99.1235 10.3912C99.1802 10.3465 99.0951 10.3018 98.9392 10.3167C98.7832 10.3167 98.7407 10.3614 98.8541 10.4061Z" fill="#418585"/>
<path d="M46.1144 10.5543C46.2136 10.599 46.3412 10.5841 46.3837 10.5394C46.4404 10.4947 46.3554 10.4499 46.1994 10.4648C46.0435 10.4648 46.001 10.5096 46.1144 10.5543Z" fill="#418585"/>
<path d="M45.4055 10.7027C45.5048 10.7475 45.6323 10.7325 45.6749 10.6878C45.7316 10.6431 45.6465 10.5983 45.4906 10.6132C45.3346 10.6132 45.2921 10.658 45.4055 10.7027Z" fill="#418585"/>
<path d="M100.839 10.7027C100.938 10.7475 101.066 10.7325 101.108 10.6878C101.165 10.6431 101.08 10.5983 100.924 10.6132C100.768 10.6132 100.726 10.658 100.839 10.7027Z" fill="#418585"/>
<path d="M44.2714 10.8508C44.3706 10.8955 44.4982 10.8806 44.5407 10.8359C44.5974 10.7912 44.5124 10.7464 44.3564 10.7613C44.2005 10.7613 44.1579 10.8061 44.2714 10.8508Z" fill="#418585"/>
<path d="M101.831 10.8508C101.931 10.8955 102.058 10.8806 102.101 10.8359C102.157 10.7912 102.072 10.7464 101.916 10.7613C101.76 10.7613 101.718 10.8061 101.831 10.8508Z" fill="#418585"/>
<path d="M43.3497 10.9991C43.4773 11.0289 43.6758 11.0289 43.775 10.9991C43.8601 10.9544 43.7608 10.9246 43.5198 10.9246C43.293 10.9246 43.2079 10.9544 43.3497 10.9991Z" fill="#418585"/>
<path d="M42.5701 11.1472C42.6693 11.1919 42.7969 11.177 42.8394 11.1323C42.8962 11.0876 42.8111 11.0428 42.6551 11.0577C42.4992 11.0577 42.4566 11.1025 42.5701 11.1472Z" fill="#418585"/>
<path d="M41.7194 11.2955C41.8186 11.3402 41.9462 11.3253 41.9887 11.2806C42.0454 11.2358 41.9604 11.1911 41.8044 11.206C41.6485 11.206 41.6059 11.2508 41.7194 11.2955Z" fill="#418585"/>
<path d="M40.8686 11.4437C40.9679 11.4884 41.0955 11.4735 41.138 11.4288C41.1947 11.3841 41.1097 11.3393 40.9537 11.3542C40.7978 11.3542 40.7552 11.399 40.8686 11.4437Z" fill="#418585"/>
<path d="M40.018 11.592C40.1031 11.6218 40.2732 11.6218 40.3725 11.592C40.4576 11.5473 40.3867 11.5175 40.1882 11.5175C39.9897 11.5175 39.9188 11.5473 40.018 11.592Z" fill="#418585"/>
<path d="M39.3092 11.7401C39.4084 11.7848 39.536 11.7699 39.5785 11.7252C39.6353 11.6804 39.5502 11.6357 39.3943 11.6506C39.2383 11.6506 39.1958 11.6953 39.3092 11.7401Z" fill="#418585"/>
<path d="M38.4586 11.8884C38.5437 11.9182 38.7138 11.9182 38.813 11.8884C38.8981 11.8437 38.8272 11.8138 38.6287 11.8138C38.4302 11.8138 38.3594 11.8437 38.4586 11.8884Z" fill="#418585"/>
<path d="M37.7498 12.0366C37.849 12.0813 37.9766 12.0664 38.0191 12.0217C38.0758 11.9769 37.9908 11.9322 37.8348 11.9471C37.6789 11.9471 37.6363 11.9918 37.7498 12.0366Z" fill="#418585"/>
<path d="M37.0409 12.1849C37.1401 12.2296 37.2677 12.2147 37.3103 12.17C37.367 12.1252 37.2819 12.0805 37.126 12.0954C36.97 12.0954 36.9275 12.1402 37.0409 12.1849Z" fill="#418585"/>
<path d="M35.4814 12.4813C35.5665 12.5111 35.7366 12.5111 35.8359 12.4813C35.9209 12.4366 35.85 12.4067 35.6516 12.4067C35.4531 12.4067 35.3822 12.4366 35.4814 12.4813Z" fill="#418585"/>
<path d="M34.2054 12.7777C34.3047 12.8224 34.4322 12.8075 34.4748 12.7628C34.5315 12.718 34.4464 12.6733 34.2905 12.6882C34.1346 12.6882 34.092 12.733 34.2054 12.7777Z" fill="#418585"/>
<path d="M33.4964 12.9259C33.5957 12.9706 33.7233 12.9557 33.7658 12.911C33.8225 12.8662 33.7375 12.8215 33.5815 12.8364C33.4256 12.8364 33.383 12.8811 33.4964 12.9259Z" fill="#418585"/>
<path d="M32.7877 13.0742C32.8728 13.104 33.0429 13.104 33.1421 13.0742C33.2272 13.0295 33.1563 12.9996 32.9578 12.9996C32.7593 12.9996 32.6885 13.0295 32.7877 13.0742Z" fill="#418585"/>
<path d="M31.5116 13.3707C31.6108 13.4154 31.7384 13.4005 31.781 13.3558C31.8377 13.311 31.7526 13.2663 31.5967 13.2812C31.4407 13.2812 31.3982 13.326 31.5116 13.3707Z" fill="#418585"/>
<path d="M30.2357 13.6671C30.335 13.7118 30.4625 13.6969 30.5051 13.6522C30.5618 13.6074 30.4767 13.5627 30.3208 13.5776C30.1648 13.5776 30.1223 13.6224 30.2357 13.6671Z" fill="#418585"/>
<path d="M28.9596 13.9636C29.0446 13.9934 29.2148 13.9934 29.314 13.9636C29.3991 13.9189 29.3282 13.889 29.1297 13.889C28.9312 13.889 28.8603 13.9189 28.9596 13.9636Z" fill="#418585"/>
<path d="M28.3927 14.1117C28.4919 14.1564 28.6195 14.1415 28.6621 14.0968C28.7188 14.052 28.6337 14.0073 28.4778 14.0222C28.3218 14.0222 28.2793 14.0669 28.3927 14.1117Z" fill="#418585"/>
<path d="M27.8256 14.2599C27.9248 14.3046 28.0524 14.2897 28.0949 14.245C28.1516 14.2002 28.0666 14.1555 27.9106 14.1704C27.7547 14.1704 27.7121 14.2151 27.8256 14.2599Z" fill="#418585"/>
<path d="M26.5497 14.5564C26.6489 14.6011 26.7765 14.5862 26.8191 14.5414C26.8758 14.4967 26.7907 14.452 26.6347 14.4669C26.4788 14.4669 26.4363 14.5116 26.5497 14.5564Z" fill="#418585"/>
<path d="M25.4154 14.8528C25.5146 14.8975 25.6422 14.8826 25.6848 14.8378C25.7415 14.7931 25.6564 14.7484 25.5005 14.7633C25.3445 14.7633 25.302 14.808 25.4154 14.8528Z" fill="#418585"/>
<path d="M24.2811 15.1493C24.3804 15.194 24.508 15.1791 24.5505 15.1344C24.6072 15.0896 24.5221 15.0449 24.3662 15.0598C24.2102 15.0598 24.1677 15.1046 24.2811 15.1493Z" fill="#418585"/>
<path d="M23.1471 15.4457C23.2463 15.4904 23.3739 15.4755 23.4165 15.4308C23.4732 15.386 23.3881 15.3413 23.2322 15.3562C23.0762 15.3562 23.0337 15.4009 23.1471 15.4457Z" fill="#418585"/>
<path d="M19.8863 16.3351C19.9856 16.3798 20.1132 16.3649 20.1557 16.3201C20.2125 16.2754 20.1274 16.2307 19.9714 16.2456C19.8155 16.2456 19.7729 16.2903 19.8863 16.3351Z" fill="#418585"/>
<path d="M11.4224 58.7125C11.4224 58.8755 11.4647 58.92 11.5069 58.8014C11.5491 58.6977 11.535 58.5643 11.4928 58.5198C11.4506 58.4605 11.4084 58.5494 11.4224 58.7125Z" fill="#418585"/>
<path d="M11.7059 61.0841C11.7059 61.2471 11.7481 61.2916 11.7903 61.173C11.8325 61.0692 11.8185 60.9358 11.7762 60.8914C11.734 60.8321 11.6918 60.921 11.7059 61.0841Z" fill="#418585"/>
<path d="M11.8618 62.1809C11.8618 62.3884 11.89 62.4625 11.9322 62.3587C11.9603 62.2698 11.9603 62.0919 11.9322 61.9882C11.89 61.8992 11.8618 61.9734 11.8618 62.1809Z" fill="#418585"/>
<path d="M11.9893 63.0109C11.9893 63.174 12.0316 63.2185 12.0738 63.0999C12.116 62.9961 12.1019 62.8627 12.0597 62.8183C12.0175 62.759 11.9753 62.8479 11.9893 63.0109Z" fill="#418585"/>
<path d="M12.1453 63.9596C12.1453 64.2412 12.1734 64.3598 12.2156 64.2116C12.2438 64.0782 12.2438 63.841 12.2156 63.6928C12.1734 63.5594 12.1453 63.678 12.1453 63.9596Z" fill="#418585"/>
<path d="M12.2874 64.997C12.2874 65.2045 12.3155 65.2786 12.3577 65.1749C12.3859 65.086 12.3859 64.9081 12.3577 64.8044C12.3155 64.7154 12.2874 64.7895 12.2874 64.997Z" fill="#418585"/>
<path d="M135.205 71.519C135.205 71.7265 135.233 71.8006 135.275 71.6968C135.303 71.6079 135.303 71.43 135.275 71.3263C135.233 71.2373 135.205 71.3114 135.205 71.519Z" fill="#418585"/>
</svg>
