<svg width="95" height="16" fill="none" xmlns="http://www.w3.org/2000/svg"><path d="M7.897 15.171c3.52-.433 6.434-.803 6.486-.803.052-.013.762-1.136 1.582-2.502l1.494-2.488h1.635c.902 0 5.657-.051 10.583-.128 4.918-.064 13.541-.179 19.155-.255 5.613-.064 15.042-.192 20.959-.268 7.307-.09 10.768-.102 10.82-.013.044.077.059.268.03.447-.023.166-.63 1.723-1.347 3.458-.71 1.736-1.287 3.178-1.272 3.203.015.026.873-.587 1.908-1.352 2.618-1.953 4.245-3.063 5.762-3.944 2.81-1.633 5.273-2.424 7.543-2.424.57 0 1.117-.052 1.22-.128.26-.166.252-.65-.014-1.161l-.215-.409-2.655-.485c-5.177-.944-7.558-1.71-9.762-3.114-.843-.536-2.086-1.633-2.7-2.386-.414-.498-.428-.498-.62-.28-.2.216-.408.79-.408 1.11 0 .102.385 1.033.85 2.08.467 1.046.851 1.965.851 2.042 0 .242-1.678.293-13.534.433-10.73.128-19.753.256-36.94.51-4.682.065-9.29.128-10.244.128h-1.738l-2.034-2.284-2.033-2.284-6.198-.128C3.208 1.67.745 1.67.545 1.746c-.406.14-.599.485-.532.919.067.485.466 1.2.85 1.544.326.281 2.582 2.068 3.084 2.438l.23.166-.14.727c-.164.817-.141 1.353.088 2.118l.14.473-1.767 2.041C1.507 13.322.716 14.33.686 14.47c-.081.433.155 1.148.436 1.352.148.102.289.179.318.179.03-.013 2.936-.383 6.457-.83zM4.088 14.1c.06-.205.177-.434.259-.511.192-.179.192-.51 0-.51-.119 0-.133-.052-.082-.281.03-.153.126-.345.2-.409.074-.076.266-.268.422-.433.162-.166.421-.383.591-.485.17-.103.355-.268.422-.358.155-.242 1.094-.574 1.42-.497.2.05.347-.026.606-.281l.34-.345.222.306c.193.256.215.345.178.779-.052.536.052.613.4.293.835-.79 1.25-1.02 1.9-1.097.54-.051.71-.115.895-.357.162-.217.37-.32.702-.37l.474-.077-.185.357c-.377.728-1.272 1.953-1.716 2.361-.251.23-.754.549-1.124.715-.37.153-.902.46-1.183.663-.489.358-.526.37-.777.192a.768.768 0 00-.577-.128c-.177.026-.318.026-.31-.025 0-.039.155-.243.347-.46.192-.204.34-.433.333-.51-.007-.064-.126-.179-.259-.23-.177-.076-.473 0-1.102.28-.843.358-.998.473-1.99 1.366-.266.23-.487.434-.502.434-.008 0 .03-.166.096-.382zm6.7-.46c-.088-.128.111-.472.392-.69.185-.127.54-.599.8-1.045.258-.447.657-.97.894-1.175.414-.357.429-.357.57-.14.125.204.177.204.332.064.14-.128.222-.128.407 0 .207.153.288.115 1.02-.421.933-.677 1.258-.804 1.458-.562.118.153.125.204.03.434-.06.14-.311.549-.57.919-.252.37-.503.778-.555.919-.052.153-.222.383-.385.523-.162.14-.399.396-.532.562-.251.331-.488.382-.791.178a.4.4 0 01-.067-.625c.074-.064.111-.166.081-.217-.03-.038-.266.064-.517.255-1.169.83-1.864 1.187-2.204 1.123-.185-.025-.348-.076-.363-.102zm69.061-.396c.037-.127.48-.957.984-1.837.606-1.072 1.102-1.8 1.494-2.234l.576-.625-.858-.038c-.828-.038-.85-.038-.761-.28.081-.243.185-.256 3.897-.256l3.809.013-.85.383c-1.31.587-3.506 1.876-6.028 3.547-1.265.83-2.3 1.519-2.315 1.532a.814.814 0 01.052-.204zM16.69 8.791c-.074-.115-.34-.345-.599-.51l-.466-.294h8.705c6.922-.013 8.712.025 8.712.153 0 .076.022.28.044.446l.045.281h-1.99c-1.11 0-2.093-.05-2.211-.127-.451-.256-2.137-.422-4.208-.383-1.812.025-2.182.064-2.404.242-.214.166-.606.217-2.181.268-1.058.038-2.234.09-2.619.102-.554.026-.724-.012-.828-.178zm-6.937-.064a2.31 2.31 0 00-.495-.434c-.267-.166-.178-.179 1.124-.191.776 0 1.974-.026 2.662-.064 1.006-.051 1.198-.026 1.006.089-.14.077-.318.306-.407.51l-.155.358h-1.76c-1.664 0-1.775-.013-1.975-.268zm-4.075-.102c0-.46.089-.523.791-.523.54 0 .555.012.51.293a4.21 4.21 0 00-.044.447c0 .115-.177.153-.628.153h-.629v-.37zm46.016-.23l.022-.357 1.464-.039 1.465-.025-.126.306c-.126.345 0 .332-2.27.434l-.577.026.022-.345zm-1.9-.038l.117-.383h.74c.65 0 .74.025.703.204-.023.115-.045.28-.045.383 0 .14-.162.179-.813.179h-.821l.118-.383zm-7.877.064c0-.18.044-.358.088-.383.052-.039 1.76-.051 3.794-.039l3.698.039-.887.332c-.865.331-.954.331-3.794.357l-2.9.013v-.32zm-4.512-.064l-.332-.383h3.291v.766h-2.626l-.333-.383zm29.62-.064l-.444-.306h2.751c2.404-.013 2.759.012 2.759.178 0 .102.074.205.163.217.229.039-2.226.166-3.639.192-1.05.025-1.183 0-1.59-.281zm-.954-.064l-.155-.28.192.076c.11.038.34.191.518.332l.325.255-.362-.051c-.245-.038-.407-.14-.518-.332zm-.459.192c-.081-.345.008-.422.14-.115.12.268.12.306.016.306-.067 0-.133-.09-.156-.191zm-1.139-.128c0-.306.023-.32.407-.32.385 0 .407.014.407.32s-.022.319-.407.319c-.384 0-.407-.013-.407-.32zm-6.922.115a2.28 2.28 0 00.044-.32c0-.063 1.324-.114 3.255-.114h3.254v.638h-3.299c-2.98 0-3.298-.026-3.254-.204zm-2.374-.115c.089-.32.096-.32 1.065-.32h.984v.639h-2.13l.081-.32zm23.6.102c.022-.051-.045-.153-.156-.242-.177-.128 0-.166 1.11-.166 1.294-.013 1.309-.013 1.22.242-.089.23-.177.255-1.161.255-.584 0-1.043-.038-1.013-.089zm-4.467-.128l-.555-.114.932-.103c1.257-.14 3.505.064 3.668.345.067.128-3.291.013-4.045-.128zm-.991.103c-.045-.103 1.131-.039 1.205.063.015.026-.237.051-.57.051-.325 0-.613-.05-.635-.114zm-.585.025a.33.33 0 01.222 0c.074.038.03.064-.088.064-.126 0-.178-.026-.134-.064zM41.51 8.102c-.022-.064-.007-.128.03-.128.044 0 .08.064.08.128 0 .076-.014.127-.029.127-.022 0-.059-.05-.081-.127zm36.143-.09a.447.447 0 01.258 0c.074.038.015.064-.125.064s-.2-.026-.133-.064zM5.826 6.557c-.14-.14-.288-.242-.333-.242-.037-.013-.207-.204-.37-.447-.244-.357-.28-.46-.2-.6.082-.14.149-.114.393.128.288.294.562.294.665-.013.03-.064.089 0 .14.166.045.153.193.447.319.651.229.357.229.383.096.562-.163.204-.303.165-.71-.205zm1.316-.663c-.443-.69-.495-.906-.325-1.315.192-.446.74-.332 1.509.32.887.752 1.146.612.643-.358-.303-.587-.325-.702-.074-.498.14.102.23.102.37 0a.75.75 0 01.421-.153c.311 0 1.34.97 1.731 1.634.178.293.355.536.4.536.177 0 .051.23-.208.357-.414.217-.429.217-2.292.179L7.57 6.545l-.429-.651zm7.662.344a1.578 1.578 0 00-.333-.51c-.118-.102-.214-.255-.214-.345 0-.09-.067-.383-.155-.65-.133-.447-.14-.511-.037-.69.088-.166.162-.178.37-.064.31.166 1.893 1.966 1.893 2.157 0 .255-.326.421-.865.421-.496.013-.548-.012-.659-.319zm-1.997-.063c-.236-.217-.48-.485-.525-.6a8.153 8.153 0 00-.37-.69l-.273-.484.4.012c.473 0 .805.217 1.538 1.009.584.638.643.906.236 1.033-.466.14-.57.115-1.006-.28z" fill="#010101"/></svg>