<svg width="2" height="11" viewBox="0 0 2 11" fill="none" xmlns="http://www.w3.org/2000/svg">
<path d="M0.441 1.72351C0.468117 2.09546 0.491246 2.40334 0.491246 2.40881C0.492044 2.41428 0.562229 2.48929 0.647567 2.57603L0.80309 2.73387L0.80309 2.90657C0.80309 3.0019 0.806281 3.50434 0.811066 4.02476C0.815054 4.5444 0.822232 5.45552 0.827017 6.04861C0.831005 6.6417 0.838981 7.638 0.843766 8.26313C0.849349 9.03516 0.850146 9.40086 0.844564 9.40633C0.839778 9.41102 0.827815 9.41258 0.816649 9.40945C0.806281 9.40711 0.708979 9.34303 0.600512 9.26724C0.492044 9.19222 0.40192 9.13127 0.400325 9.13284C0.39873 9.1344 0.437013 9.22504 0.484866 9.33444C0.606892 9.61106 0.676279 9.78297 0.731311 9.94316C0.833398 10.2401 0.882846 10.5003 0.882846 10.7402C0.882846 10.8004 0.886036 10.8582 0.890822 10.8691C0.90119 10.8965 0.931497 10.8957 0.963399 10.8676L0.988921 10.8449L1.01923 10.5644C1.07825 10.0174 1.1261 9.76578 1.21383 9.53292C1.24733 9.44384 1.31592 9.31256 1.36297 9.2477C1.39408 9.20394 1.39408 9.20238 1.38052 9.18206C1.36696 9.16097 1.33107 9.13909 1.31113 9.13909C1.30475 9.13909 1.24653 9.17972 1.18113 9.22895C1.11573 9.27818 1.05831 9.31881 1.05352 9.31881C1.03837 9.31881 1.03518 9.14143 1.02641 7.88883C1.01843 6.75501 1.01045 5.80169 0.994504 3.98569C0.990516 3.49106 0.986528 3.00424 0.986528 2.90344L0.986528 2.71981L1.12929 2.50492L1.27205 2.29003L1.28003 1.63521C1.28481 1.2281 1.28481 0.967889 1.28003 0.946791C1.27126 0.903813 1.24972 0.883497 1.2226 0.890529C1.1923 0.897562 1.14763 0.939758 1.1261 0.980391C1.10855 1.01477 0.996896 1.2531 0.973767 1.30624L0.963399 1.33046L0.917938 1.31562C0.866895 1.29843 0.833397 1.30077 0.785544 1.32499L0.756035 1.33984L0.628426 1.15308C0.556646 1.04837 0.493639 0.964763 0.484866 0.961638C0.457749 0.953042 0.413086 0.978047 0.400325 1.00774C0.393944 1.02337 0.389159 1.03822 0.389159 1.04134C0.389957 1.04447 0.413086 1.35156 0.441 1.72351ZM0.507995 1.32109C0.520756 1.32734 0.535112 1.33984 0.539897 1.34844C0.551063 1.36875 0.571799 1.36875 0.571799 1.34844C0.571799 1.33593 0.574989 1.33437 0.589345 1.33984C0.598916 1.34297 0.610879 1.35312 0.614867 1.36094C0.619653 1.36875 0.631616 1.38907 0.641984 1.40548C0.652352 1.42267 0.665911 1.45002 0.672291 1.46799C0.678672 1.48596 0.68904 1.5055 0.694623 1.51253C0.709776 1.52894 0.730513 1.62818 0.725727 1.66256C0.722537 1.68366 0.727323 1.69929 0.743274 1.72664L0.764808 1.76258L0.745666 1.78602C0.729715 1.80634 0.724132 1.80869 0.697015 1.80478C0.663518 1.79931 0.658733 1.81025 0.678672 1.84697C0.72812 1.93527 0.742476 1.97903 0.747261 2.0478C0.750452 2.10484 0.754439 2.12281 0.769593 2.14235C0.783151 2.15954 0.789532 2.18142 0.792722 2.21658L0.797507 2.26659L0.775176 2.24706C0.729715 2.2072 0.65315 2.11265 0.627628 2.06577C0.613272 2.0392 0.593333 1.98607 0.582965 1.94699C0.573394 1.90792 0.554253 1.85166 0.541492 1.82197C0.519161 1.7704 0.518363 1.76649 0.529529 1.73992C0.536707 1.72351 0.539897 1.69929 0.537504 1.67897C0.535909 1.66022 0.535909 1.64537 0.5391 1.64615C0.541492 1.64615 0.554253 1.66256 0.567811 1.68288C0.580572 1.7032 0.594928 1.71882 0.599714 1.71804C0.603701 1.71726 0.610879 1.70476 0.61407 1.69069C0.618855 1.67194 0.61407 1.64068 0.596523 1.57426C0.574192 1.48518 0.567014 1.46877 0.511185 1.36406C0.496829 1.33593 0.484068 1.31249 0.484068 1.31093C0.484068 1.31015 0.494436 1.31405 0.507995 1.32109ZM0.536707 2.02904C0.544682 2.01967 0.566216 2.04076 0.579775 2.07046C0.58775 2.08999 0.61726 2.1275 0.645174 2.15485C0.673089 2.1822 0.705789 2.2244 0.718549 2.2494C0.740881 2.29316 0.740881 2.29472 0.727323 2.30957C0.714562 2.32285 0.714562 2.32832 0.723335 2.34473C0.73131 2.35958 0.73131 2.36817 0.723335 2.38771C0.713764 2.40959 0.716157 2.41818 0.749654 2.49554C0.791925 2.594 0.7999 2.62838 0.784747 2.64948C0.775176 2.66198 0.771986 2.66277 0.75763 2.65261C0.748857 2.64636 0.723335 2.61979 0.700206 2.59244C0.677077 2.56587 0.651555 2.5393 0.642782 2.53383C0.633211 2.52836 0.618855 2.51039 0.610082 2.4932C0.601309 2.47601 0.585358 2.451 0.57499 2.43694C0.554253 2.41037 0.551063 2.38537 0.563824 2.35333C0.572597 2.32989 0.591738 2.32676 0.602904 2.3463C0.606892 2.35411 0.613272 2.35802 0.616462 2.35489C0.618855 2.35177 0.612475 2.32676 0.600511 2.30019C0.54867 2.17673 0.526339 2.10328 0.530326 2.06733C0.531922 2.0478 0.535112 2.03061 0.536707 2.02904ZM0.561431 9.32584C0.569407 9.32975 0.621248 9.37664 0.676279 9.42977C0.743274 9.49385 0.788735 9.5462 0.815852 9.58762L0.854932 9.64857L0.857324 9.55792C0.859717 9.4704 0.859717 9.46806 0.874871 9.47744C0.890024 9.48603 0.890822 9.49697 0.890822 9.88924L0.890024 10.2917L0.866098 10.2018C0.82941 10.0635 0.748857 9.83142 0.644377 9.56496C0.592536 9.43133 0.549468 9.32194 0.548671 9.32037C0.548671 9.31959 0.554253 9.32194 0.561431 9.32584ZM0.839778 2.65261C0.846956 2.64479 0.861312 2.61666 0.87168 2.58931L0.890024 2.54008L0.890024 3.4598C0.890821 4.1912 0.888429 4.3803 0.880453 4.3803C0.875668 4.3803 0.862907 4.38265 0.852539 4.38499L0.834993 4.38968L0.834993 4.17948C0.834993 4.06227 0.838183 3.95834 0.842968 3.94584C0.858919 3.89817 0.869287 3.72001 0.866895 3.50122C0.8653 3.30977 0.862907 3.2707 0.851741 3.24726C0.841373 3.2246 0.838183 3.18318 0.834993 3.01674C0.8326 2.905 0.82941 2.78076 0.828612 2.74013C0.827017 2.68152 0.82941 2.66355 0.839778 2.65261ZM0.843766 1.91965C0.852539 1.90792 0.864502 1.88448 0.870883 1.86729C0.881251 1.83916 0.882048 1.84854 0.882846 1.98607C0.882846 2.06811 0.884441 2.1947 0.886834 2.26737C0.890024 2.37364 0.888429 2.39396 0.881251 2.37364C0.876465 2.3588 0.862109 2.34004 0.849349 2.33067L0.827017 2.31426L0.827017 2.12828C0.827017 1.95246 0.827815 1.94074 0.843766 1.91965ZM0.850146 1.48909C0.878858 1.48909 0.882846 1.49847 0.882846 1.5727C0.882846 1.62974 0.882048 1.63131 0.864502 1.62662C0.854931 1.62427 0.842171 1.62193 0.836588 1.62193C0.82941 1.62193 0.827017 1.60317 0.827017 1.55551L0.827017 1.48909L0.850146 1.48909ZM0.864502 6.35102L0.886834 6.35336L0.889226 6.50808L0.890822 6.6628L0.87168 6.64952C0.850146 6.63623 0.850944 6.64952 0.844563 6.40962L0.842968 6.34867L0.864502 6.35102ZM0.866895 6.1502L0.890822 6.1627L0.890822 6.24084C0.890822 6.3096 0.889226 6.31898 0.878061 6.31507C0.870883 6.31273 0.860514 6.31038 0.854134 6.31038C0.845361 6.31038 0.842968 6.29319 0.842968 6.22443L0.842968 6.13769L0.866895 6.1502ZM0.862907 5.318C0.874073 5.318 0.885239 5.32268 0.886834 5.32737C0.889226 5.33284 0.890024 5.51335 0.889226 5.72823L0.886834 6.11894L0.866097 6.02517C0.845361 5.93375 0.845361 5.92437 0.843766 5.62431L0.842968 5.318L0.862907 5.318ZM0.866895 4.84134L0.890822 4.80617L0.890822 4.97964L0.890822 5.1539L0.866895 5.1539L0.842968 5.1539L0.842968 5.01481L0.842968 4.8765L0.866895 4.84134ZM0.870883 7.97088L0.890024 7.924L0.890024 8.21468C0.890822 8.46864 0.889227 8.50615 0.878858 8.50615C0.872478 8.50615 0.866097 8.51396 0.8653 8.52334C0.862907 8.54756 0.854932 8.28813 0.853337 8.13888C0.851741 8.02792 0.853337 8.01386 0.870883 7.97088ZM0.874871 7.87008L0.892417 7.85367L0.887631 7.87399C0.885239 7.88571 0.875668 7.90993 0.866895 7.92868L0.850944 7.96307L0.854134 7.92478C0.856527 7.89899 0.862907 7.8818 0.874871 7.87008ZM0.862907 7.82163C0.884441 7.81304 0.889227 7.82241 0.870085 7.83648C0.853337 7.84898 0.850944 7.84898 0.850944 7.83804C0.850944 7.83101 0.856527 7.82397 0.862907 7.82163ZM0.870883 7.70129C0.890024 7.70129 0.890822 7.70364 0.890822 7.74427C0.890822 7.7849 0.890024 7.78725 0.870883 7.78725C0.851741 7.78725 0.850944 7.7849 0.850944 7.74427C0.850944 7.70364 0.851741 7.70129 0.870883 7.70129ZM0.863705 6.96989C0.870883 6.97224 0.879656 6.97458 0.883644 6.97458C0.887631 6.97458 0.890822 7.11446 0.890822 7.3184L0.890822 7.66222L0.870883 7.66222L0.850944 7.66222L0.850944 7.31371C0.850944 6.99881 0.852539 6.96521 0.863705 6.96989ZM0.870883 6.71906C0.890822 6.72844 0.890822 6.72922 0.890822 6.83159L0.890822 6.93551L0.870883 6.93551L0.850944 6.93551L0.850944 6.82299L0.850944 6.71047L0.870883 6.71906ZM0.864502 9.21254C0.867693 9.21488 0.874073 9.20785 0.879656 9.19613C0.887631 9.17738 0.890024 9.19613 0.890024 9.31334C0.890822 9.45009 0.890822 9.45165 0.874871 9.44227C0.860515 9.4329 0.85892 9.42352 0.85892 9.31959C0.85892 9.25786 0.861312 9.20941 0.864502 9.21254ZM0.872478 8.74057L0.879656 8.68196L0.886036 8.78042C0.894809 8.91326 0.882049 9.15081 0.864502 9.168C0.856527 9.17503 0.863705 8.82027 0.872478 8.74057ZM0.866097 8.63586C0.872478 8.63117 0.86849 8.75541 0.86211 8.76323C0.860515 8.76479 0.858919 8.73822 0.858919 8.70306C0.858919 8.66868 0.86211 8.6382 0.866097 8.63586ZM0.864502 8.57413C0.866097 8.5796 0.866097 8.59054 0.864502 8.59757C0.86211 8.60538 0.860515 8.6007 0.860515 8.58819C0.860515 8.57491 0.86211 8.56944 0.864502 8.57413ZM0.882846 5.27502C0.886834 5.27267 0.890822 5.27424 0.890822 5.27814C0.890822 5.28283 0.886834 5.28674 0.882846 5.28674C0.878061 5.28674 0.87487 5.28518 0.87487 5.28361C0.87487 5.28127 0.878061 5.27736 0.882846 5.27502ZM0.888429 9.09377C0.890024 9.10158 0.890024 9.11408 0.888429 9.12111C0.886036 9.12893 0.884441 9.12268 0.884441 9.10783C0.884441 9.09298 0.886036 9.08673 0.888429 9.09377ZM0.97935 1.50472C0.988123 1.48987 0.994504 1.47424 0.994504 1.46955C0.995301 1.46565 1.00726 1.44767 1.02242 1.43048C1.04475 1.4047 1.05113 1.40079 1.0599 1.40939C1.06868 1.41798 1.06708 1.42501 1.05193 1.4508C1.03358 1.48127 1.03358 1.51019 1.05273 1.52113C1.05671 1.52425 1.05273 1.5305 1.04236 1.53597C1.03279 1.54066 1.01444 1.55629 1.00168 1.56957C0.97935 1.5938 0.977755 1.5938 0.966589 1.57973C0.953828 1.56254 0.956221 1.54769 0.97935 1.50472ZM1.02082 1.64381C1.06389 1.59692 1.07745 1.59145 1.10297 1.60943C1.13089 1.62974 1.12371 1.68757 1.08303 1.76883C1.03598 1.8626 1.04475 1.88995 1.10536 1.83682C1.14205 1.80478 1.14923 1.80243 1.13647 1.829C1.13009 1.84385 1.13009 1.85323 1.13647 1.86807C1.14205 1.87901 1.14604 1.89933 1.14604 1.91261C1.14604 1.94543 1.08542 2.05405 1.04395 2.09546C1.02561 2.11422 1.01045 2.13297 1.01045 2.13766C1.01045 2.15641 0.996099 2.14313 0.988123 2.11578C0.974565 2.07202 0.974565 2.07046 0.976957 1.87354L0.980148 1.68913L1.02082 1.64381ZM0.999289 2.45335C1.01045 2.44632 1.02481 2.42991 1.03119 2.41818C1.03757 2.40568 1.04714 2.39552 1.05273 2.39552C1.05831 2.39552 1.07665 2.38849 1.0934 2.37911C1.12131 2.36505 1.1253 2.36427 1.13647 2.37521C1.14684 2.38458 1.14763 2.3924 1.14046 2.41428C1.13009 2.4471 1.01763 2.61432 1.00567 2.61432C0.989718 2.61432 0.97935 2.57994 0.97935 2.52289C0.978552 2.47054 0.980148 2.46507 0.999289 2.45335ZM1.00328 2.24237C1.01684 2.21736 1.03358 2.19158 1.04076 2.18689C1.04874 2.18142 1.06788 2.16345 1.08383 2.14782L1.11414 2.1189L1.11334 2.1611C1.11334 2.21111 1.09978 2.24627 1.05033 2.32363C1.01045 2.38537 0.993706 2.39162 0.98573 2.34864C0.976957 2.29941 0.978552 2.28847 1.00328 2.24237Z" fill="black"/>
</svg>
