<svg width="23" height="5" fill="none" xmlns="http://www.w3.org/2000/svg"><path d="M1.919 4.74c.855-.135 1.564-.25 1.576-.25.013-.004.185-.355.385-.782l.363-.778h.397c.22 0 1.375-.016 2.572-.04 1.195-.02 3.29-.055 4.655-.08 1.364-.02 3.655-.06 5.093-.083 1.776-.028 2.617-.032 2.63-.004.01.024.014.084.007.14-.006.051-.153.538-.327 1.08-.173.543-.313.993-.31 1.001.004.008.212-.183.464-.423.636-.61 1.032-.957 1.4-1.232.683-.51 1.282-.757 1.833-.757.139 0 .272-.016.297-.04.063-.052.061-.204-.004-.363L22.898 2l-.645-.151c-1.258-.295-1.837-.535-2.372-.973a3.816 3.816 0 01-.656-.746c-.101-.156-.105-.156-.151-.088a.793.793 0 00-.1.347c0 .032.094.323.207.65.114.327.207.614.207.638 0 .076-.408.092-3.289.136-2.608.04-4.8.08-8.977.16-1.138.02-2.257.04-2.49.04H4.21l-.494-.715-.494-.713-1.506-.04C.78.522.18.522.133.546c-.1.044-.146.151-.13.287.016.151.113.375.207.482.079.088.627.646.75.762l.055.052-.034.227a1.55 1.55 0 00.021.662l.035.148-.43.638c-.24.359-.433.674-.44.717-.02.136.037.36.106.423.036.032.07.056.077.056.007-.004.714-.12 1.569-.26zm-.926-.334a.49.49 0 01.063-.16c.047-.056.047-.16 0-.16-.028 0-.032-.015-.02-.087a.31.31 0 01.05-.128c.017-.023.064-.083.102-.135a.968.968 0 01.143-.152.481.481 0 00.103-.111c.037-.076.266-.18.345-.156.048.016.084-.008.147-.088l.083-.107.054.095c.047.08.052.108.043.244-.013.167.013.191.097.091.203-.247.304-.319.462-.343.131-.015.172-.035.217-.111.04-.068.09-.1.171-.116l.115-.024-.045.112c-.092.227-.309.61-.417.738a1.24 1.24 0 01-.273.223 1.68 1.68 0 00-.288.207c-.118.112-.127.116-.188.06a.155.155 0 00-.14-.04c-.044.008-.078.008-.076-.008 0-.012.038-.075.085-.143.046-.064.082-.136.08-.16-.001-.02-.03-.056-.062-.072-.044-.023-.116 0-.268.088-.205.112-.243.148-.484.427-.064.072-.118.135-.122.135a.87.87 0 01.023-.12zm1.629-.144c-.022-.04.027-.147.095-.215.045-.04.131-.188.194-.327.063-.14.16-.303.218-.367.1-.112.104-.112.138-.044.03.064.043.064.08.02.035-.04.055-.04.1 0 .05.048.07.036.248-.131.226-.212.305-.252.354-.176.028.048.03.064.007.136a2.594 2.594 0 01-.138.287 2.397 2.397 0 00-.135.287.47.47 0 01-.094.163c-.04.044-.097.124-.13.176-.06.104-.118.12-.191.056-.054-.044-.062-.14-.017-.196.018-.02.027-.052.02-.068-.007-.011-.065.02-.126.08-.284.26-.453.371-.535.351-.045-.008-.085-.024-.088-.032zm16.782-.123c.01-.04.117-.3.24-.575a4.31 4.31 0 01.362-.697l.14-.196-.208-.012c-.201-.012-.206-.012-.185-.088.02-.075.045-.08.947-.08l.926.005-.207.12c-.318.183-.852.586-1.465 1.108-.307.26-.559.474-.562.478a.316.316 0 01.012-.063zM4.056 2.747a.683.683 0 00-.146-.16l-.113-.091h2.115c1.683-.004 2.118.008 2.118.048 0 .023.005.087.01.14l.011.087h-.483c-.27 0-.509-.016-.538-.04-.11-.08-.519-.132-1.022-.12-.44.008-.53.02-.584.076-.052.052-.148.068-.53.084l-.637.032c-.135.008-.176-.004-.201-.056zm-1.686-.02a.635.635 0 00-.12-.136c-.065-.051-.043-.055.273-.06.189 0 .48-.007.647-.02.244-.015.291-.007.244.029a.372.372 0 00-.099.16l-.037.11H2.85c-.404 0-.431-.003-.48-.083zm-.99-.032c0-.143.021-.163.192-.163.131 0 .135.004.124.091-.005.048-.01.112-.01.14 0 .036-.044.048-.153.048H1.38v-.116zm11.182-.072l.006-.111.356-.012.355-.008-.03.095c-.03.108 0 .104-.552.136l-.14.008.005-.108zm-.462-.012l.03-.12h.179c.158 0 .18.009.17.064a.958.958 0 00-.01.12c0 .044-.04.056-.198.056h-.2l.03-.12zm-1.914.02c0-.056.011-.111.022-.12.012-.011.428-.015.922-.011l.898.012-.215.103c-.21.104-.232.104-.922.112l-.705.004v-.1zm-1.096-.02l-.08-.12h.798v.24h-.637l-.081-.12zm7.198-.02l-.108-.095h.669c.584-.004.67.004.67.056 0 .031.018.063.04.067.055.012-.541.052-.885.06-.255.008-.287 0-.386-.088zm-.232-.02l-.038-.087.047.024c.027.012.083.06.126.103l.079.08-.088-.016a.165.165 0 01-.126-.104zm-.111.06c-.02-.107.002-.131.034-.036.029.084.029.096.003.096-.016 0-.032-.028-.037-.06zm-.277-.04c0-.095.005-.1.099-.1.093 0 .099.005.099.1 0 .096-.006.1-.1.1-.093 0-.098-.004-.098-.1zm-1.682.036a.905.905 0 00.01-.1c0-.02.322-.035.791-.035h.791v.2h-.801c-.725 0-.802-.009-.791-.065zm-.577-.036c.021-.1.023-.1.259-.1h.239v.2h-.518l.02-.1zm5.735.032c.005-.016-.011-.048-.038-.075-.043-.04 0-.052.27-.052.314-.004.318-.004.296.075-.021.072-.043.08-.282.08-.142 0-.253-.012-.246-.028zm-1.086-.04l-.135-.035.227-.032c.305-.044.852.02.891.107.017.04-.8.004-.983-.04zm-.24.032c-.011-.032.274-.012.292.02.004.008-.057.016-.138.016-.08 0-.15-.016-.155-.036zm-.143.008c.013-.008.038-.008.054 0 .018.012.008.02-.021.02-.03 0-.043-.008-.033-.02zm-7.588-.091c-.005-.02-.001-.04.008-.04.01 0 .02.02.02.04 0 .023-.004.04-.008.04-.005 0-.014-.017-.02-.04zm8.784-.028a.086.086 0 01.063 0c.017.012.003.02-.031.02s-.049-.008-.032-.02zM1.416 2.049c-.034-.044-.07-.076-.081-.076a.617.617 0 01-.09-.14c-.06-.11-.068-.143-.048-.187.02-.044.035-.036.095.04.07.092.136.092.162-.004.007-.02.021 0 .034.052.01.048.046.14.077.203.056.112.056.12.023.176-.04.064-.073.052-.172-.064zm.32-.207c-.108-.216-.12-.283-.08-.411.047-.14.18-.104.367.1.216.235.279.191.157-.112-.074-.183-.08-.22-.018-.156.034.032.055.032.09 0a.16.16 0 01.102-.047c.075 0 .325.303.42.51a.603.603 0 00.098.168c.043 0 .012.071-.05.111-.101.068-.105.068-.558.056l-.424-.016-.104-.203zm1.862.107a.523.523 0 00-.081-.16.2.2 0 01-.052-.107c0-.028-.017-.12-.038-.203-.032-.14-.034-.16-.01-.216.022-.051.04-.055.09-.02.076.052.46.615.46.674 0 .08-.078.132-.21.132-.12.004-.132-.004-.16-.1zm-.486-.02a.808.808 0 01-.127-.187 2.863 2.863 0 00-.09-.215l-.067-.152.097.004c.115 0 .196.068.374.315.142.2.157.283.058.323-.113.044-.139.036-.245-.088z" fill="#000"/></svg>